P264 646363 63 63 63 63 63 63 63 63 63 63 63 63 63 63 63 63 63 63 63 63 63 63 63 63 63 63 63 63 63 63 63 63 63 63 63 63 63 63 63 63 63 63 63 63 63 63 63 63 63 63 63 63 63 63 63 63 63 63 63 63 63 63 63 63 63 42 42 42 42 42 42 42 42 42 42 42 42 42 42 42 42 42 42 42 42 42 42 42 42 42 42 42 42 42 42 42 42 42 42 42 42 42 42 42 42 42 42 42 42 42 42 42 42 42 42 42 42 42 42 42 42 42 42 42 42 63 63 63 42 21 20 21 21 21 21 21 21 21 21 21 21 21 21 21 20 16 20 21 21 21 21 21 21 21 21 21 21 21 21 20 16 20 21 21 21 21 21 21 21 21 21 20 20 20 20 20 20 21 21 21 21 21 21 21 21 21 21 20 21 42 63 63 42 16 0 21 21 21 21 21 21 21 21 21 21 21 21 20 0 0 16 20 21 21 21 21 21 21 21 21 21 21 20 0 0 0 16 20 20 20 21 21 21 20 16 16 16 16 0 0 16 16 20 20 16 16 16 16 20 20 20 0 20 42 63 63 42 16 0 21 21 21 21 21 21 21 21 21 21 21 21 21 16 16 20 21 21 21 21 21 21 21 21 21 21 21 21 20 16 16 16 20 21 21 21 21 21 21 20 20 21 20 16 16 20 21 21 21 21 21 20 21 21 21 21 16 21 42 63 63 42 0 0 16 21 21 21 21 21 21 21 21 21 21 21 20 16 16 16 20 21 21 21 21 21 21 21 21 21 21 21 20 16 0 0 16 20 21 21 21 20 20 16 16 20 20 16 16 16 20 21 21 21 20 20 20 20 20 20 0 20 42 63 63 42 16 0 0 0 0 16 16 20 20 21 21 21 21 20 20 16 16 16 16 20 20 21 20 20 20 20 21 21 21 21 21 16 16 16 16 20 20 20 20 20 20 16 16 20 20 20 20 20 20 20 20 20 20 20 20 20 20 16 0 16 42 63 63 42 20 0 16 16 0 0 0 16 16 16 20 20 21 20 20 20 20 20 20 20 20 20 20 16 16 16 20 21 21 21 21 21 20 20 20 20 20 20 21 21 21 20 20 21 21 21 21 21 21 21 21 21 21 20 20 21 20 20 0 16 42 63 63 42 21 16 21 21 20 20 16 16 20 20 20 20 21 21 21 21 21 21 21 21 21 21 21 21 20 20 20 21 21 21 21 21 21 21 21 21 21 21 21 21 21 21 20 21 21 21 21 21 21 21 21 21 21 21 21 21 21 21 16 20 42 63 63 42 21 20 21 21 21 21 20 21 21 21 21 21 21 21 21 21 21 21 21 21 21 21 21 21 21 20 20 21 21 21 21 21 21 21 21 21 21 21 21 21 21 21 20 21 21 21 21 21 21 21 21 21 21 21 21 21 21 21 20 21 42 63 63 42 21 16 21 21 21 21 21 21 21 21 21 20 21 21 21 21 21 21 21 21 21 21 21 21 21 20 20 21 21 21 21 21 21 21 21 21 21 21 21 21 21 20 16 21 21 21 21 21 21 21 21 21 21 21 21 21 21 21 21 21 42 63 63 42 21 16 21 21 21 21 21 21 21 21 21 20 21 21 21 21 21 21 21 21 21 21 21 21 20 16 20 21 21 21 21 21 21 21 21 21 21 21 21 21 21 20 16 21 21 21 21 21 21 21 21 21 21 21 21 21 21 21 21 21 42 63 63 42 21 20 21 21 21 21 21 21 21 21 21 20 20 21 21 21 21 21 21 21 21 21 21 21 20 16 20 21 21 21 21 21 21 21 21 21 21 21 21 21 21 20 16 21 21 21 21 21 21 21 21 21 21 21 21 21 21 21 20 21 42 63 63 42 21 20 21 21 21 21 20 21 21 21 21 20 20 21 21 21 21 21 21 21 21 21 21 21 16 16 20 21 21 21 21 21 21 21 21 21 21 21 21 21 21 20 20 21 21 21 21 21 21 21 21 21 21 21 21 21 21 21 21 21 42 63 63 42 21 21 21 21 21 21 21 21 21 21 21 21 20 21 21 21 21 21 21 21 21 21 21 21 16 16 20 21 21 21 21 21 21 21 21 21 21 21 21 21 21 20 20 21 21 21 21 21 21 21 21 21 21 21 21 21 21 21 21 21 42 63 63 42 21 20 21 21 21 21 21 21 21 21 21 21 21 21 21 21 21 21 21 21 21 21 21 21 16 16 20 21 21 21 21 21 21 21 21 21 21 21 21 21 21 20 16 21 21 21 21 21 21 21 21 21 21 21 21 21 21 21 21 21 42 63 63 42 21 20 21 21 21 21 21 21 21 21 21 21 21 21 21 21 21 21 21 21 21 21 21 21 16 16 20 21 21 21 21 21 21 21 21 21 21 21 21 21 21 16 16 20 21 21 21 21 21 21 21 21 21 21 21 21 21 21 21 21 42 63 63 42 21 20 21 21 21 21 21 21 21 21 21 21 21 21 21 21 21 21 21 21 21 21 21 21 20 16 16 21 21 21 21 21 21 21 21 21 21 21 21 21 21 16 16 20 21 21 21 21 21 21 21 21 21 21 21 21 21 21 21 21 42 63 63 42 21 20 21 21 21 21 21 21 21 21 21 21 21 21 21 21 21 21 21 21 21 21 21 21 20 16 16 21 21 21 21 21 21 21 21 21 21 21 21 21 21 16 16 20 21 21 21 21 21 21 21 21 21 21 21 21 21 21 21 21 42 63 63 42 21 16 21 21 21 21 21 21 21 21 21 21 21 21 21 21 21 21 21 21 21 21 21 21 20 16 16 21 21 21 21 21 21 21 21 21 21 21 21 21 21 16 16 20 21 21 21 21 21 21 21 21 21 21 21 21 21 21 21 21 42 63 63 42 21 16 21 21 21 21 21 21 21 21 21 21 21 21 21 21 21 21 21 21 21 21 21 21 20 16 16 20 21 21 21 21 21 21 21 21 21 21 21 21 21 16 16 20 21 21 21 21 21 21 21 21 21 21 21 21 21 21 21 21 42 63 63 42 21 16 21 21 21 21 21 20 20 20 21 21 21 21 21 21 21 21 21 21 21 21 21 21 21 16 16 20 21 21 21 21 21 21 21 21 21 21 21 21 21 20 16 20 20 21 21 21 21 21 21 21 21 21 21 21 21 21 20 21 42 63 63 42 21 16 21 21 21 21 21 20 20 20 20 21 21 21 21 21 21 21 21 21 21 21 21 21 21 20 16 20 21 21 21 20 20 20 21 21 21 21 21 21 21 21 16 16 16 20 20 21 20 20 21 21 21 21 21 21 21 21 20 21 42 63 63 42 20 0 20 20 21 20 20 20 20 20 20 21 21 21 21 21 21 21 21 21 21 21 21 21 21 21 16 20 21 21 21 21 20 20 20 21 21 21 21 21 21 21 20 16 16 16 16 20 16 20 20 21 21 21 21 21 21 21 16 21 42 63 63 42 20 0 16 16 16 16 16 16 16 16 20 20 20 20 20 20 20 20 20 20 20 21 21 21 21 20 16 20 21 21 21 21 21 20 20 20 21 21 21 21 21 21 21 21 20 16 20 16 16 16 16 21 21 21 21 21 21 21 16 21 42 63 63 42 20 16 20 20 16 16 16 20 20 20 20 21 21 20 20 20 16 20 20 20 20 20 20 21 21 21 21 21 21 21 21 21 21 21 20 21 21 21 21 21 21 21 21 21 21 21 21 20 16 16 16 20 21 21 21 21 21 21 20 21 42 63 63 42 21 16 21 21 21 20 20 21 21 21 21 21 21 21 21 20 20 21 21 21 21 20 20 20 21 21 21 21 21 21 21 21 21 21 21 21 21 21 21 21 21 21 21 21 21 21 21 21 21 20 20 20 21 21 21 21 21 21 21 21 42 63 63 42 21 20 21 21 21 20 21 21 21 21 21 21 21 21 21 21 21 21 21 21 21 21 21 21 21 21 21 21 21 21 21 21 21 21 21 21 21 21 21 21 21 21 21 21 21 21 21 21 21 21 21 21 21 21 20 21 21 21 21 21 42 63 63 42 21 20 21 21 21 20 21 21 21 21 21 21 21 21 21 21 21 21 21 21 21 21 21 21 21 21 21 21 21 21 21 21 21 21 21 21 21 21 21 21 21 21 21 21 21 21 21 21 21 21 21 21 21 21 21 21 21 21 21 21 42 63 63 42 21 20 21 21 21 16 20 21 21 21 21 21 21 21 21 21 21 21 21 21 21 21 21 21 21 21 21 21 21 21 21 21 21 21 21 21 21 21 21 21 21 21 21 21 21 21 21 21 21 21 21 21 21 21 21 21 21 21 21 21 42 63 63 42 21 16 21 21 20 16 21 21 21 21 21 21 21 21 21 21 21 21 21 21 21 21 21 21 21 21 21 21 21 21 21 21 21 21 21 21 21 21 20 20 21 21 21 21 21 21 21 21 21 21 21 21 21 21 21 20 21 21 21 21 42 63 63 42 21 16 21 21 20 16 20 21 21 21 21 21 21 21 21 21 21 21 21 21 21 21 21 21 21 21 21 21 21 21 21 21 21 21 21 21 21 21 20 20 21 21 21 21 21 21 21 21 21 21 21 21 21 21 20 20 21 21 21 21 42 63 63 42 21 16 21 21 20 16 20 21 21 21 21 21 21 21 21 21 21 21 21 21 21 21 21 21 21 21 21 21 21 21 21 21 21 21 21 21 21 21 16 16 20 21 21 21 21 21 21 21 21 21 21 21 21 21 16 16 20 21 20 21 42 63 63 42 21 16 21 21 20 16 20 21 21 21 21 21 21 21 21 21 21 21 21 21 21 20 21 21 21 21 21 21 21 21 21 21 21 21 21 21 21 21 16 16 20 21 21 21 21 21 21 21 21 21 21 21 21 21 16 16 20 21 20 21 42 63 63 42 21 16 21 21 20 16 20 21 21 21 21 21 21 21 21 21 21 21 21 21 21 20 21 21 21 21 21 21 21 21 21 21 21 21 21 21 21 21 16 16 20 21 21 21 21 21 21 21 21 21 21 21 21 21 20 16 20 21 16 21 42 63 63 42 21 16 21 21 21 16 20 21 21 21 21 21 21 21 21 21 21 21 21 21 21 20 20 21 21 21 21 21 21 21 21 21 21 21 21 21 21 20 16 16 20 21 21 21 21 21 21 21 21 21 21 21 21 21 20 16 20 20 16 21 42 63 63 42 21 16 21 21 21 16 16 20 21 21 21 21 21 21 21 21 21 21 21 21 21 16 20 21 21 21 21 21 21 21 21 21 21 21 20 20 20 20 16 16 20 21 21 21 21 21 21 21 21 21 21 21 21 21 20 16 16 16 0 20 42 63 63 42 21 16 21 21 21 20 16 16 20 20 21 21 21 21 21 21 21 21 21 21 21 16 16 20 21 21 21 21 21 20 20 20 20 20 20 16 20 20 16 16 16 21 21 21 21 21 21 21 21 21 21 21 21 21 21 20 16 16 0 20 42 63 63 42 21 16 20 21 21 20 16 16 16 16 16 20 20 20 20 20 20 20 21 21 21 16 0 0 16 16 20 20 20 16 16 16 16 16 16 20 20 20 16 0 16 16 20 20 20 20 20 20 21 21 21 21 21 21 21 21 21 20 0 20 42 63 63 42 21 16 21 21 21 21 16 16 0 0 0 16 16 16 16 20 20 20 21 21 21 20 16 0 0 16 16 16 16 16 16 16 16 20 20 21 21 21 20 16 0 16 16 16 16 16 20 20 21 21 21 21 21 21 21 21 21 21 16 21 42 63 63 42 21 20 21 21 21 21 21 20 16 16 0 0 16 20 20 20 20 21 21 21 21 21 20 20 20 16 16 20 20 20 21 21 21 21 21 21 21 21 20 16 16 16 16 20 20 21 21 21 21 21 21 21 21 21 21 21 21 21 21 21 42 63 63 42 21 21 21 21 21 21 21 21 21 20 16 16 20 21 21 21 21 21 21 21 21 21 21 21 21 21 21 21 21 21 21 21 21 21 21 21 21 21 21 20 20 20 21 21 21 21 21 21 21 21 21 21 21 21 21 21 21 21 21 21 42 63 63 42 21 21 21 21 21 21 21 21 21 21 20 20 21 21 21 21 21 21 21 21 21 21 21 21 21 21 21 21 21 21 21 21 21 21 21 21 21 21 21 21 20 21 21 21 21 21 21 21 21 21 21 21 21 21 21 21 21 21 21 21 42 63 63 42 21 20 21 21 21 21 21 21 21 21 20 20 21 21 21 21 21 21 21 21 21 21 21 21 21 21 21 21 21 21 21 21 21 21 21 21 21 21 21 21 20 21 21 21 21 21 21 21 21 21 21 21 21 21 21 21 21 21 21 21 42 63 63 42 21 16 21 21 21 21 21 21 21 20 16 20 21 21 21 21 21 21 21 21 21 21 21 21 21 21 21 21 21 21 21 21 21 21 21 21 21 21 21 21 20 20 21 21 21 21 21 21 21 21 21 21 21 21 21 21 21 21 21 21 42 63 63 42 21 20 21 21 21 21 21 21 21 20 16 20 21 21 21 21 21 21 21 21 21 21 21 21 21 21 21 20 21 21 21 21 21 21 21 21 21 21 21 21 20 21 21 21 21 21 21 21 21 21 21 21 21 21 21 21 21 21 21 21 42 63 63 42 21 20 21 21 21 21 21 21 21 20 16 20 21 21 21 21 21 21 21 21 21 21 21 21 21 21 21 21 21 21 21 21 21 21 21 21 21 21 21 21 20 21 21 21 21 21 21 21 21 21 21 21 21 21 21 21 21 21 20 21 42 63 63 42 21 20 21 21 21 21 21 21 21 16 16 20 21 21 21 21 21 21 21 21 21 21 21 21 21 21 21 21 21 21 21 21 21 21 21 21 21 21 21 20 20 21 21 21 21 21 21 21 21 21 21 21 21 21 21 21 21 21 20 21 42 63 63 42 21 16 21 21 21 21 21 21 20 16 16 20 20 21 21 21 21 21 21 21 21 21 21 21 21 21 20 21 21 21 21 21 21 21 21 21 21 21 21 20 16 21 21 21 21 21 21 21 21 21 21 21 21 21 21 21 21 21 20 21 42 63 63 42 21 16 20 21 21 21 21 21 21 16 16 20 21 21 21 21 21 21 21 21 21 21 21 21 21 21 20 21 21 21 21 21 21 21 21 21 21 21 21 20 16 20 21 21 21 21 21 21 21 21 21 21 21 21 21 21 21 21 20 21 42 63 63 42 21 16 20 20 21 21 21 21 21 20 16 20 21 21 21 21 21 21 21 21 21 21 21 21 21 20 20 21 21 21 21 21 21 21 21 21 21 21 21 20 20 21 21 21 21 21 21 21 21 21 21 21 21 21 21 21 21 21 20 21 42 63 63 42 21 16 21 21 21 21 21 21 21 20 16 16 20 21 21 21 21 21 21 21 21 21 21 21 21 20 20 21 21 21 21 21 21 21 21 21 21 21 21 20 20 21 21 21 21 21 21 21 21 21 21 21 21 21 21 21 21 21 16 21 42 63 63 42 21 16 21 21 21 21 21 21 21 20 16 16 20 21 21 21 21 21 21 21 21 21 21 21 21 20 20 20 21 21 21 21 21 21 21 21 21 21 21 20 20 21 21 21 21 21 21 21 21 21 21 21 21 21 21 21 21 21 16 21 42 63 63 42 21 16 21 21 21 21 21 21 21 20 16 16 20 20 21 21 21 21 21 21 21 21 21 21 21 20 16 20 20 20 21 21 21 21 21 21 21 21 21 20 16 21 21 21 21 21 21 21 21 21 21 21 21 21 21 21 21 21 16 21 42 63 63 42 21 16 21 21 21 21 21 21 21 20 0 0 16 20 21 21 21 21 21 21 21 20 20 21 20 16 16 16 20 20 20 20 20 20 20 20 20 20 20 16 16 20 21 21 21 21 21 21 21 21 21 21 21 21 21 21 21 21 16 21 42 63 63 42 20 0 20 20 20 21 21 21 21 20 16 0 16 16 20 20 21 21 21 21 21 20 20 20 16 0 0 16 16 20 20 20 20 20 20 16 16 16 16 16 0 16 20 21 21 21 21 21 21 20 20 20 20 20 20 21 21 20 16 20 42 63 63 42 16 0 16 16 20 20 20 21 21 21 21 20 16 16 16 20 20 20 20 20 20 20 20 20 20 16 16 16 0 16 16 16 20 20 21 20 20 20 20 16 16 16 16 20 20 21 21 21 21 20 20 16 16 16 16 20 21 20 16 21 42 63 63 42 16 0 16 20 20 20 20 21 21 21 21 21 21 21 20 20 20 20 20 20 20 21 21 21 21 21 21 20 16 16 16 20 21 21 21 21 21 21 21 21 20 20 20 21 21 20 20 21 21 21 21 20 16 16 20 20 21 21 20 21 42 63 63 42 20 0 20 21 21 21 21 21 21 21 21 21 21 21 21 21 21 21 21 21 21 21 21 21 21 21 21 21 21 20 16 20 21 21 21 21 21 21 21 21 21 21 21 21 21 21 21 21 21 21 21 21 21 20 21 21 21 21 20 21 42 63 63 42 20 16 21 21 21 21 21 21 21 21 21 21 21 21 21 21 20 21 21 21 21 21 21 21 21 21 21 21 21 21 16 16 21 21 21 21 21 21 21 21 21 21 21 21 21 21 21 21 21 21 21 21 21 21 21 21 21 21 20 21 42 63 63 42 0 0 16 16 16 0 0 16 16 16 0 16 20 20 16 0 0 0 16 16 16 16 16 16 16 16 16 20 21 16 0 0 0 16 21 21 20 16 16 16 16 16 16 16 16 0 0 16 21 21 20 16 16 16 16 16 16 16 0 20 42 63 63 42 16 0 20 20 20 20 20 20 20 20 16 20 20 21 20 20 16 20 21 21 21 21 21 21 21 21 21 21 21 21 16 16 16 20 21 21 21 21 21 21 21 21 21 21 20 16 16 21 21 21 21 21 20 20 21 20 20 20 16 20 42 63 63 63 42 42 42 42 42 42 42 42 42 42 42 42 42 42 42 42 42 42 42 42 42 42 42 42 42 42 42 42 42 42 42 42 42 42 42 42 42 42 42 42 42 42 42 42 42 42 42 42 42 42 42 42 42 42 42 42 42 42 42 42 63 63 63 63 63 63 63 63 63 63 63 63 63 63 63 63 63 63 63 63 63 63 63 63 63 63 63 63 63 63 63 63 63 63 63 63 63 63 63 63 63 63 63 63 63 63 63 63 63 63 63 63 63 63 63 63 63 63 63 63 63 63 63 63 63 63 