P224 76320 19 13 53 20 19 13 53 20 19 29 53 41 19 61 63 36 19 14 57 63 63 63 63 20 19 29 58 41 19 61 63 36 63 63 63 0 3 12 48 0 3 12 53 20 19 13 53 63 3 12 48 20 19 13 53 20 19 13 53 20 19 13 53 20 19 13 53 20 19 13 53 20 19 13 53 20 19 13 53 20 19 13 53 20 19 13 53 20 19 29 58 41 19 61 63 0 3 12 48 0 3 12 48 0 3 28 53 41 19 61 63 36 63 63 63 20 19 13 53 63 63 63 63 63 63 15 57 36 19 14 57 63 63 63 63 63 3 12 48 0 3 12 48 36 19 14 57 36 19 14 57 36 63 63 63 63 63 63 63 63 63 63 63 63 63 63 63 