P224 76320 19 13 53 20 19 13 53 20 19 13 53 63 63 15 57 63 19 29 58 21 3 12 48 20 19 13 53 0 3 60 63 63 19 29 58 41 19 13 53 20 19 13 53 20 19 13 53 63 19 29 58 41 19 13 53 20 19 13 53 20 19 13 53 20 19 13 53 20 19 13 53 20 19 13 53 20 19 13 53 20 19 13 53 20 3 12 48 0 3 12 48 63 63 15 57 0 3 12 48 0 3 60 63 63 63 63 63 36 19 14 57 63 19 29 58 21 19 13 53 36 19 14 57 36 19 14 57 63 3 28 58 21 3 12 48 0 3 12 48 0 3 12 48 36 63 63 63 63 63 63 63 63 63 63 63 63 63 63 63 63 63 63 63 63 63 15 57 