P27 246319 13 53 0 63 15 57 13 48 0 63 15 57 63 48 63 63 15 48 20 19 63 3 12 53 20 19 13 19 13 53 20 3 60 63 13 53 0 63 63 63 0 48 63 63 15 48 20 19 63 3 12 53 20 19 13 19 13 53 20 3 60 63 13 53 0 63 63 63 0 48 63 63 15 48 20 19 63 3 12 53 20 19 13 19 13 53 20 3 60 63 13 53 0 63 63 63 0 48 63 63 15 48 20 19 63 3 12 53 20 19 13 19 13 53 20 3 60 63 13 53 0 63 63 63 0 53 63 63 15 48 20 19 63 23 29 58 41 23 29 39 30 58 41 39 62 63 13 53 0 63 63 63 41 63 36 63 15 53 20 19 36 63 63 63 63 63 63 