P240 406336 19 14 57 36 19 14 57 36 63 31 58 62 55 31 58 63 19 14 57 36 19 14 57 36 19 14 57 36 19 14 57 36 19 14 57 36 19 14 57 26 43 61 63 63 63 63 63 63 19 14 57 36 19 14 57 36 19 14 57 36 19 14 57 36 19 14 57 36 19 14 57 36 19 14 57 36 19 14 57 36 19 14 57 36 19 14 57 36 19 14 57 36 19 14 57 36 19 14 57 36 19 14 57 36 19 14 57 36 19 62 63 63 63 63 63 63 43 45 54 36 19 14 57 36 19 14 57 36 19 14 57 36 19 14 57 63 63 63 63 63 63 63 63 42 43 46 58 42 63 63 63 63 63 63 63 63 63 15 57 63 63 63 63 63 59 31 63 57 39 15 62 62 59 31 62 57 39 31 63 62 59 63 63 63 63 63 63 63 63 63 63 63 63 15 57 36 19 14 57 63 39 47 63 63 59 31 63 61 59 63 63 63 59 47 63 62 63 63 63 63 63 63 63 36 19 14 57 36 19 14 57 36 63 63 63 63 63 63 63 57 39 31 62 57 43 63 63 63 63 63 63 36 19 14 57 36 63 63 63 63 63 63 63 62 59 63 63 63 59 31 63 61 59 63 63 62 39 63 63 36 19 62 63 63 63 47 62 57 39 31 62 57 63 63 63 57 39 46 62 63 63 63 63 57 63 63 63 57 63 63 63 63 43 31 57 57 63 63 63 63 59 14 62 48 3 15 60 32 3 30 62 63 63 31 62 32 3 14 60 48 3 15 61 42 63 47 63 63 63 63 63 62 39 63 63 63 63 15 57 63 39 14 60 48 3 15 60 48 3 31 58 63 59 63 63 63 63 63 63 62 43 63 63 63 63 15 57 63 63 63 63 57 55 63 63 63 63 47 63 62 23 30 61 58 63 63 63 57 63 63 63 63 19 62 63 63 43 47 63 63 63 63 63 63 43 62 63 46 19 15 60 48 3 15 60 48 39 62 63 36 63 63 63 57 63 63 63 53 23 14 56 58 63 47 58 48 3 15 60 48 3 15 60 52 59 31 63 52 3 15 60 48 3 15 60 48 39 62 63 62 39 14 56 48 3 15 60 48 3 31 63 61 55 31 63 52 3 15 60 48 3 14 60 41 59 31 62 48 3 15 60 48 43 31 62 62 63 63 63 61 55 15 60 48 3 14 56 32 3 30 63 60 55 15 61 48 3 15 60 48 39 62 63 63 63 63 63 63 63 31 62 63 3 15 60 48 3 31 58 60 19 15 56 48 3 15 60 52 59 47 63 63 63 63 63 63 39 14 60 48 3 15 60 48 39 15 63 61 19 15 60 48 3 15 60 48 55 31 63 63 59 47 63 57 3 15 60 48 3 15 60 60 51 15 63 52 3 15 60 48 3 15 61 52 51 15 63 57 19 15 61 48 3 14 56 48 35 15 63 56 35 15 61 57 3 15 56 52 55 31 63 61 39 31 63 61 19 15 60 32 35 14 62 56 35 15 62 52 3 14 56 48 3 15 61 61 59 63 63 63 35 15 63 61 3 15 56 60 51 15 63 62 51 15 63 48 3 14 61 57 35 63 63 63 63 63 63 63 63 15 61 32 3 15 60 48 3 15 62 61 35 15 60 48 55 15 63 56 63 15 57 36 19 14 57 63 35 31 62 52 3 14 60 56 51 31 63 57 51 15 63 36 3 30 62 60 35 63 63 36 19 62 63 63 51 31 63 48 3 15 62 56 63 63 63 56 51 31 62 53 19 31 63 56 39 47 62 56 55 15 61 48 23 14 62 60 39 63 63 52 39 15 60 56 23 46 58 36 19 15 60 52 23 15 56 52 3 31 61 58 19 15 60 52 23 14 61 53 43 15 61 61 59 63 63 63 19 14 57 56 3 14 56 32 39 31 62 48 3 31 62 52 3 14 61 53 3 14 57 63 63 15 57 36 19 14 57 36 19 62 63 62 55 15 61 53 39 15 62 41 35 31 62 32 63 63 63 36 19 14 57 36 19 14 57 36 63 63 63 36 3 14 60 57 3 14 60 57 3 14 56 36 39 15 56 48 3 14 62 36 19 14 57 36 63 63 63 36 19 15 62 56 39 15 63 57 39 31 62 60 39 31 62 57 51 15 63 57 39 31 62 56 35 31 62 57 35 15 62 61 55 31 63 61 55 31 62 57 55 31 62 57 39 31 62 57 39 31 62 57 55 31 63 57 39 31 63 57 39 31 63 63 19 14 57 36 19 14 57 56 35 15 62 41 39 14 62 40 35 14 58 56 39 15 62 56 35 63 63 36 19 14 57 36 19 14 57 36 19 14 57 36 63 31 63 61 35 31 63 41 39 14 62 56 63 15 57 36 19 14 57 36 19 14 57 36 19 14 57 63 39 31 62 61 55 47 63 41 35 14 58 61 39 31 62 61 35 15 62 36 19 14 57 36 19 62 63 56 39 31 62 58 39 15 58 24 35 29 62 57 39 31 62 56 19 15 61 61 39 30 58 41 39 15 54 24 35 30 58 62 39 14 58 41 55 31 63 57 55 31 63 56 35 31 62 57 39 31 62 57 35 14 54 40 39 31 58 57 35 63 63 63 19 14 57 36 19 14 57 57 39 31 62 57 39 31 62 57 39 31 62 61 39 31 62 61 63 15 57 36 19 14 57 36 19 14 57 36 19 14 57 36 63 63 63 56 55 47 62 40 63 63 63 63 19 14 57 36 19 14 57 36 19 14 57 36 19 14 57 36 63 31 63 61 55 31 63 61 55 31 63 61 39 31 62 57 39 31 62 36 19 14 57 36 19 14 57 63 63 63 63 40 35 14 57 36 19 14 56 32 3 14 56 32 3 14 56 32 3 14 56 32 3 14 56 36 19 14 57 63 63 63 63 63 63 63 63 63 63 63 63 63 63 63 63 63 63 63 63 63 63 63 63 63 63 63 63 63 19 14 57 36 19 14 57 36 19 14 57 36 19 14 57 36 19 14 57 36 19 14 57 36 19 14 57 36 19 14 57 36 19 14 57 36 19 14 57 36 19 14 57 36 19 14 57 36 63 63 63 36 19 14 57 36 19 14 57 36 19 14 57 36 19 14 57 36 19 14 57 36 19 14 57 36 19 14 57 36 19 14 57 36 19 14 57 36 19 14 57 36 19 14 57 36 19 14 57 36 19 14 57 36 19 14 57 36 19 14 57 36 19 14 57 36 19 14 57 36 19 14 57 36 19 14 57 36 19 14 57 36 19 14 57 36 19 14 57 36 19 14 57 36 19 14 57 36 19 14 57 36 19 14 57 36 19 14 57 36 19 14 57 36 19 14 57 36 19 14 57 36 19 14 57 36 19 14 57 36 19 14 57 36 19 14 57 36 19 14 57 36 19 14 57 36 19 14 57 36 19 14 57 36 19 14 57 36 19 14 57 36 19 14 57 36 19 14 57 36 19 14 57 36 19 14 57 36 19 14 57 36 19 14 57 36 19 14 57 36 19 14 57 36 19 14 57 36 19 14 57 36 19 14 57 36 19 14 57 36 19 14 57 36 19 14 57 36 19 14 57 36 19 14 57 36 19 14 57 36 19 14 57 36 19 14 57 36 19 14 57 