P224 226363 63 15 57 36 19 14 57 36 19 14 57 36 19 14 57 36 19 14 57 36 19 14 57 36 19 14 57 36 19 14 57 36 19 14 57 36 19 14 57 63 63 63 63 16 7 30 56 36 19 14 57 36 63 63 63 63 3 13 56 33 7 14 52 63 19 14 57 36 19 14 57 16 3 30 56 33 3 61 63 63 19 14 57 36 19 14 57 36 19 14 57 36 19 14 57 36 19 14 57 36 19 14 57 36 19 14 57 36 19 14 57 36 19 14 57 63 63 15 52 36 19 14 57 36 19 14 57 36 19 62 63 63 3 13 52 32 7 30 56 16 63 63 63 36 63 63 63 16 3 13 56 33 7 14 52 16 63 15 57 36 19 14 57 36 19 14 57 33 3 13 52 16 63 15 57 36 19 14 57 36 19 14 57 36 19 14 57 36 19 14 57 36 19 14 57 36 19 14 57 36 19 14 57 36 19 14 57 63 63 15 52 16 3 30 56 36 19 14 57 36 19 62 63 63 3 13 52 32 7 30 56 16 3 13 52 63 63 15 57 16 3 13 56 33 7 14 52 16 3 61 63 63 19 14 57 36 19 14 57 36 19 14 57 16 63 63 63 36 19 14 57 36 19 14 57 36 19 14 57 36 19 14 57 36 63 63 63 36 19 14 57 36 19 14 57 36 19 14 57 63 63 15 52 16 3 30 56 33 3 13 52 36 19 62 63 63 23 14 52 32 7 30 56 16 3 13 52 63 63 15 57 36 19 14 57 33 7 14 52 16 3 61 63 63 19 14 57 36 19 14 57 36 19 14 57 36 19 14 57 36 19 14 57 36 19 14 57 36 19 14 57 36 19 14 57 36 63 63 63 37 23 30 57 36 19 14 57 36 19 14 57 36 63 15 52 16 23 30 57 37 3 13 52 16 63 63 63 36 63 63 63 33 23 30 57 37 23 14 52 63 63 15 57 36 19 14 57 36 19 14 57 37 23 62 63 63 19 14 57 36 19 14 57 36 19 14 57 36 19 14 57 36 19 14 57 36 19 14 57 36 19 14 57 36 19 14 57 36 19 14 57 36 19 62 63 63 23 14 52 36 19 14 57 36 19 14 57 36 19 14 57 63 63 15 52 16 63 63 63 36 19 14 57 36 19 14 57 36 63 63 63 63 63 15 57 36 19 14 57 36 19 14 57 36 19 14 57 