P260 606336 19 14 57 36 19 14 57 36 19 62 63 63 63 47 53 22 11 29 52 17 27 45 53 22 63 63 63 63 19 14 57 36 19 14 57 36 19 14 57 36 19 14 57 36 19 14 57 36 19 14 57 36 19 14 57 36 19 14 57 17 7 45 52 18 11 45 53 63 63 15 57 36 19 14 57 36 19 14 57 36 19 14 57 36 19 14 57 36 19 14 57 36 19 14 57 36 19 14 57 36 19 14 57 36 19 14 57 36 19 14 57 36 19 14 57 36 19 14 57 36 19 14 57 36 19 14 57 36 19 14 57 36 19 14 57 36 19 14 57 36 19 14 57 36 19 14 57 36 19 14 57 36 19 14 57 36 19 14 57 36 19 14 57 36 19 14 57 36 63 63 63 22 11 45 52 17 7 29 52 36 19 14 57 36 19 14 57 36 19 14 57 36 19 14 57 36 19 14 57 36 19 14 57 36 19 14 57 63 63 47 52 18 11 29 52 37 23 45 53 21 23 46 57 17 11 45 52 18 63 63 63 36 19 14 57 36 19 14 57 36 19 14 57 36 19 62 63 63 27 45 52 18 7 45 62 59 27 29 52 17 27 62 62 42 7 45 52 18 27 61 63 63 19 14 57 36 19 14 57 36 19 14 57 36 19 14 57 36 19 14 57 36 19 14 57 36 19 14 57 18 11 45 52 42 43 30 52 18 11 45 53 63 19 14 57 36 19 14 57 36 19 14 57 36 19 14 57 36 19 14 57 36 19 14 57 36 19 14 57 36 19 14 57 36 19 14 57 36 19 14 57 36 19 14 57 36 19 14 57 36 19 14 57 36 19 14 57 36 19 14 57 36 19 14 57 36 19 14 57 36 19 14 57 36 19 14 57 36 19 14 57 36 19 14 57 36 19 14 57 36 19 14 57 36 19 62 63 22 11 45 52 17 43 46 57 18 11 45 52 36 19 14 57 36 19 14 57 36 19 14 57 36 19 14 57 36 19 14 57 36 19 14 57 36 19 62 63 22 11 45 52 21 47 47 53 18 11 45 52 18 11 45 52 22 47 31 52 18 11 45 53 63 19 14 57 36 19 14 57 36 19 14 57 36 63 63 63 18 11 29 52 38 47 46 52 18 11 45 52 18 11 45 52 18 47 31 57 18 11 45 52 63 63 15 57 36 19 14 57 36 19 14 57 36 19 14 57 36 19 14 57 36 19 14 57 36 19 14 57 18 11 45 52 18 47 31 57 18 11 45 52 22 63 15 57 36 19 14 57 36 19 14 57 36 19 14 57 36 19 14 57 36 19 14 57 36 19 14 57 36 19 14 57 36 19 14 57 36 19 14 57 36 19 14 57 36 19 14 57 36 19 14 57 36 19 14 57 36 19 14 57 36 19 14 57 36 19 14 57 36 19 14 57 36 19 14 57 36 19 14 57 36 19 14 57 36 19 14 57 36 19 14 57 36 63 47 53 18 11 29 52 38 43 46 52 18 11 45 52 36 19 14 57 36 19 14 57 36 19 14 57 36 19 14 57 36 19 14 57 36 19 14 57 36 63 47 53 18 11 45 52 37 47 47 52 18 11 45 52 18 11 45 52 38 47 31 52 18 11 45 52 22 63 15 57 36 19 14 57 36 19 14 57 36 63 47 53 18 11 45 52 17 47 47 58 18 11 45 52 18 11 45 52 59 43 30 52 18 11 45 52 22 63 15 57 36 19 14 57 36 19 14 57 36 19 14 57 36 19 14 57 36 19 14 57 36 19 14 57 38 27 62 62 42 7 45 52 18 11 45 52 22 63 15 57 36 19 14 57 36 19 14 57 36 19 14 57 36 19 14 57 36 19 14 57 36 19 14 57 36 19 14 57 36 19 14 57 36 19 14 57 36 19 14 57 36 19 14 57 36 19 14 57 36 19 14 57 36 19 14 57 36 19 14 57 36 19 14 57 36 19 14 57 36 19 14 57 36 19 14 57 36 19 14 57 36 19 14 57 36 19 14 57 36 63 47 53 18 11 45 52 18 23 61 62 59 27 46 53 36 19 14 57 36 19 14 57 36 19 14 57 36 19 14 57 36 19 14 57 36 19 14 57 36 63 47 53 18 11 45 52 18 11 29 52 38 43 46 62 58 43 30 57 17 11 45 52 18 11 45 52 22 63 15 57 36 19 14 57 36 19 14 57 36 63 47 54 22 27 45 53 22 27 45 53 17 23 29 53 21 23 45 53 22 27 45 53 22 27 45 53 26 63 15 57 36 19 14 57 36 19 14 57 36 19 14 57 36 19 14 57 36 19 14 57 36 19 14 57 22 27 45 53 22 27 45 53 22 27 45 53 22 63 15 57 36 19 14 57 36 19 14 57 36 19 14 57 36 19 14 57 36 19 14 57 36 19 14 57 36 19 14 57 36 19 14 57 36 19 14 57 36 19 14 57 36 19 14 57 36 19 14 57 36 19 14 57 36 19 14 57 36 19 14 57 36 19 14 57 36 19 14 57 36 19 14 57 36 19 14 57 36 19 14 57 36 19 14 57 36 19 14 57 36 63 47 53 22 27 45 53 22 27 45 53 22 27 45 53 36 19 14 57 36 19 14 57 36 19 14 57 36 19 14 57 36 19 14 57 36 19 14 57 36 63 47 58 26 43 45 54 26 43 45 54 26 43 45 54 26 43 45 54 26 43 45 54 26 43 45 54 26 63 15 57 36 19 14 57 36 19 14 57 36 63 47 54 22 27 45 53 22 43 45 54 26 43 45 54 26 43 45 54 26 43 45 53 22 27 45 53 26 63 15 57 36 19 14 57 36 19 14 57 36 19 14 57 36 19 14 57 36 19 14 57 36 19 14 57 0 3 13 52 0 23 45 54 22 27 45 53 26 63 15 57 36 19 14 57 36 19 14 57 36 19 14 57 36 19 14 57 36 19 14 57 36 19 14 57 36 19 14 57 36 19 14 57 36 19 14 57 36 19 14 57 36 19 14 57 36 19 14 57 36 19 14 57 36 19 14 57 36 19 14 57 36 19 14 57 36 19 14 57 36 19 14 57 36 19 14 57 36 19 14 57 36 19 14 57 36 19 14 57 36 63 47 54 22 27 45 53 22 23 13 53 20 19 13 48 36 19 14 57 36 19 14 57 36 19 14 57 36 19 14 57 36 19 14 57 36 19 14 57 36 63 47 54 26 43 45 54 26 23 29 52 17 7 29 52 17 7 29 52 17 23 45 54 26 43 45 54 26 63 15 57 36 19 14 57 36 19 14 57 36 63 63 63 63 63 63 63 63 63 63 63 22 23 29 53 21 23 45 53 63 63 63 63 63 63 63 63 63 63 15 57 36 19 14 57 36 19 14 57 36 19 14 57 36 19 14 57 36 19 14 57 36 19 14 57 37 3 14 52 63 19 14 57 36 19 14 57 36 19 14 57 36 19 14 57 36 19 14 57 36 19 14 57 36 19 14 57 36 19 14 57 36 19 14 57 36 19 14 57 36 19 14 57 36 19 14 57 36 19 14 57 36 19 14 57 36 19 14 57 36 19 14 57 36 19 14 57 36 19 14 57 36 19 14 57 36 19 14 57 36 19 14 57 36 19 14 57 36 19 14 57 36 19 14 57 36 19 14 57 36 19 14 57 36 19 14 57 36 19 62 63 16 3 30 57 36 19 14 57 36 19 14 57 36 19 14 57 36 19 14 57 36 19 14 57 36 19 14 57 36 19 14 57 36 19 14 57 36 19 62 63 32 23 31 62 57 23 15 56 63 19 14 57 36 19 14 57 36 19 14 57 36 19 14 57 36 19 14 57 36 19 14 57 36 19 14 57 36 19 62 63 32 23 31 62 57 23 15 56 63 19 14 57 36 19 14 57 36 19 14 57 36 19 14 57 36 19 14 57 36 19 14 57 36 19 14 57 36 19 14 57 36 19 14 57 57 23 15 56 63 63 63 63 63 63 63 63 63 63 15 57 36 19 14 57 36 19 14 57 36 19 14 57 36 19 14 57 36 19 14 57 36 19 14 57 36 19 14 57 36 19 14 57 36 19 14 57 36 19 14 57 36 19 14 57 36 19 14 57 36 19 14 57 36 19 14 57 36 19 14 57 36 19 14 57 36 19 14 57 36 19 14 57 36 19 14 57 36 19 14 57 36 19 14 57 36 19 14 57 36 19 14 57 36 19 14 57 36 19 62 63 32 23 31 62 36 19 14 57 36 19 14 57 36 19 14 57 36 19 14 57 36 19 14 57 36 19 14 57 36 19 14 57 36 19 14 57 36 19 62 63 32 23 31 62 57 23 15 56 32 3 14 56 32 3 13 56 32 63 15 57 36 19 14 57 36 19 14 57 36 19 14 57 36 19 14 57 36 19 62 63 32 23 31 62 57 23 15 56 32 3 14 56 32 3 13 56 32 63 15 57 36 19 14 57 36 19 14 57 36 19 14 57 36 19 14 57 36 19 14 57 36 19 14 57 57 23 15 56 63 63 63 63 63 63 63 63 63 63 15 57 36 19 14 57 36 19 14 57 36 19 14 57 36 19 14 57 36 19 14 57 36 19 14 57 36 19 14 57 36 19 14 57 36 19 14 57 36 19 14 57 36 19 14 57 36 19 14 57 36 19 14 57 36 19 14 57 36 19 14 57 36 19 14 57 36 19 14 57 36 19 14 57 36 19 14 57 36 19 14 57 36 19 14 57 36 19 14 57 36 19 14 57 36 19 14 57 36 19 62 63 32 23 31 62 36 19 14 57 36 19 14 57 36 19 14 57 36 19 14 57 36 19 14 57 36 19 14 57 36 19 14 57 36 19 14 57 36 19 62 63 63 23 31 62 57 23 63 63 63 19 14 57 36 19 14 57 36 19 14 57 36 19 14 57 36 19 14 57 36 19 14 57 36 19 14 57 36 19 14 57 63 3 13 52 16 3 61 63 36 19 14 57 36 19 14 57 36 19 14 57 36 19 14 57 36 19 14 57 36 19 14 57 36 19 14 57 36 19 14 57 36 19 14 57 32 3 61 63 36 19 14 57 36 19 14 57 36 19 14 57 36 19 14 57 36 19 14 57 36 19 14 57 36 19 14 57 36 19 14 57 36 19 14 57 36 19 14 57 36 19 14 57 36 19 14 57 36 19 14 57 36 19 14 57 36 19 14 57 36 19 14 57 36 19 14 57 36 19 14 57 36 19 14 57 36 19 14 57 36 19 14 57 36 19 14 57 36 19 14 57 36 19 14 57 36 19 14 57 36 19 14 57 36 19 14 57 36 19 14 57 63 3 13 56 36 19 14 57 36 19 14 57 36 19 14 57 36 19 14 57 36 19 14 57 36 19 14 57 36 19 14 57 36 19 14 57 36 19 14 57 63 3 13 56 32 3 62 63 36 19 14 57 36 19 14 57 36 19 14 57 36 19 14 57 36 19 14 57 36 19 14 57 36 19 14 57 36 19 14 57 63 3 13 56 32 3 62 63 36 19 14 57 36 19 14 57 36 19 14 57 36 19 14 57 36 19 14 57 36 19 14 57 36 19 14 57 36 19 14 57 36 19 14 57 32 3 62 63 36 19 14 57 36 19 14 57 36 19 14 57 36 19 14 57 36 19 14 57 36 19 14 57 36 19 14 57 36 19 14 57 36 19 14 57 36 19 14 57 36 19 14 57 36 19 14 57 36 19 14 57 36 19 14 57 36 19 14 57 36 19 14 57 36 19 14 57 36 19 14 57 36 19 14 57 36 19 14 57 36 19 14 57 36 19 14 57 36 19 14 57 36 19 14 57 36 19 14 57 36 19 14 57 36 19 14 57 36 19 14 57 63 3 13 56 36 19 14 57 36 19 14 57 36 19 14 57 36 19 14 57 36 19 14 57 36 19 14 57 36 19 14 57 36 19 14 57 36 19 14 57 63 3 13 56 32 3 62 63 36 19 14 57 36 19 14 57 36 19 14 57 36 19 14 57 36 19 14 57 36 19 14 57 36 19 14 57 36 19 14 57 63 3 13 56 32 3 62 63 36 19 14 57 36 19 14 57 36 19 14 57 36 19 14 57 36 19 14 57 36 19 14 57 36 19 14 57 36 19 14 57 36 19 14 57 32 3 62 63 36 19 14 57 36 19 14 57 36 19 14 57 36 19 14 57 36 19 14 57 36 19 14 57 36 19 14 57 36 19 14 57 36 19 14 57 36 19 14 57 36 19 14 57 36 19 14 57 36 19 14 57 36 19 14 57 36 19 14 57 36 19 14 57 36 19 14 57 36 19 14 57 36 19 14 57 36 19 14 57 36 19 14 57 36 19 14 57 36 19 14 57 36 19 14 57 36 19 14 57 36 19 14 57 36 19 14 57 36 19 14 57 63 3 13 56 36 19 14 57 36 19 14 57 36 19 14 57 36 19 14 57 36 19 14 57 36 19 14 57 36 19 14 57 36 19 14 57 36 19 14 57 63 3 13 56 32 3 62 63 36 19 14 57 36 19 14 57 36 19 14 57 36 19 14 57 36 19 14 57 36 19 14 57 36 19 14 57 36 19 62 63 63 3 13 56 32 3 61 63 63 19 14 57 36 19 14 57 36 19 14 57 36 19 14 57 36 19 14 57 36 19 14 57 36 19 14 57 36 19 14 57 36 19 14 57 32 3 14 56 32 63 15 57 36 19 14 57 36 19 14 57 36 19 14 57 36 19 14 57 36 19 14 57 36 19 14 57 36 19 14 57 36 19 14 57 36 19 14 57 36 19 14 57 36 19 14 57 36 19 14 57 36 19 14 57 36 19 14 57 36 19 14 57 36 19 14 57 36 19 14 57 36 19 14 57 36 19 14 57 36 19 14 57 36 19 14 57 36 19 14 57 36 19 14 57 36 19 14 57 36 19 14 57 36 19 14 57 36 63 15 56 32 3 14 56 36 19 14 57 36 19 14 57 36 19 14 57 36 19 14 57 36 19 14 57 36 19 14 57 36 19 14 57 36 19 14 57 36 63 15 56 37 23 30 57 37 23 30 57 32 63 15 57 36 19 14 57 36 19 14 57 36 19 14 57 36 19 14 57 36 19 14 57 36 19 14 57 36 19 62 63 16 3 13 56 32 3 13 52 63 19 14 57 36 19 14 57 36 19 14 57 36 19 14 57 36 19 14 57 36 19 14 57 36 19 14 57 36 19 14 57 36 19 14 57 32 3 13 56 63 19 14 57 36 19 14 57 36 19 14 57 36 19 14 57 36 19 14 57 36 19 14 57 36 19 14 57 36 19 14 57 36 19 14 57 36 19 14 57 36 19 14 57 36 19 14 57 36 19 14 57 36 19 14 57 36 19 14 57 36 19 14 57 36 19 14 57 36 19 14 57 36 19 14 57 36 19 14 57 36 19 14 57 36 19 14 57 36 19 14 57 36 19 14 57 36 19 14 57 36 19 14 57 36 19 14 57 36 19 62 63 32 3 13 56 36 19 14 57 36 19 14 57 36 19 14 57 36 19 14 57 36 19 14 57 36 19 14 57 36 19 14 57 36 19 14 57 36 63 15 56 16 3 13 52 16 3 13 52 37 63 15 57 36 19 14 57 36 19 14 57 36 19 14 57 36 19 14 57 36 19 14 57 36 19 14 57 63 23 14 56 37 19 14 57 36 23 14 57 32 23 62 63 36 19 14 57 36 19 14 57 36 19 14 57 36 19 14 57 36 19 14 57 36 19 14 57 36 19 14 57 36 19 14 57 32 3 13 52 37 63 15 57 36 19 14 57 36 19 14 57 36 19 14 57 36 19 14 57 36 19 14 57 36 19 14 57 36 19 14 57 36 19 14 57 36 19 14 57 36 19 14 57 36 19 14 57 36 19 14 57 36 19 14 57 36 19 14 57 36 19 14 57 36 19 14 57 36 19 14 57 36 19 14 57 36 19 14 57 36 19 14 57 36 19 14 57 36 19 14 57 36 19 14 57 36 19 14 57 36 19 14 57 36 19 14 57 36 63 31 57 32 3 13 56 36 19 14 57 36 19 14 57 36 19 14 57 36 19 14 57 36 19 14 57 36 19 14 57 36 19 14 57 36 19 14 57 36 19 62 63 63 63 63 63 63 63 63 63 63 19 14 57 36 19 14 57 36 19 14 57 36 19 14 57 