P27 24633 29 56 32 3 61 63 14 56 16 63 63 63 16 52 63 63 15 52 16 7 63 3 13 52 33 3 14 3 29 56 32 3 61 63 14 56 16 63 63 63 16 52 63 63 15 52 16 7 63 3 13 52 33 3 14 3 29 56 32 3 61 63 14 56 16 63 63 63 16 52 63 63 15 52 16 7 63 3 13 52 33 3 14 3 29 56 32 63 63 63 14 56 63 19 62 63 63 63 36 19 62 63 16 7 36 63 15 52 33 3 62 3 29 56 16 63 15 57 62 63 63 19 14 57 63 63 36 19 62 63 63 7 36 19 62 63 32 63 63 63 31 57 63 19 14 57 63 63 36 19 14 57 36 57 36 19 14 57 63 59 36 19 14 57 63 19 14 