P222 246314 56 16 3 61 63 63 19 14 57 36 19 14 57 36 19 14 57 36 19 14 57 63 19 14 57 36 19 14 57 36 19 14 57 36 19 62 63 16 23 30 57 37 7 14 57 36 19 14 57 36 63 63 63 37 23 14 52 33 7 14 56 16 3 61 63 36 63 63 63 16 3 13 52 33 7 14 56 16 3 61 63 63 19 14 57 36 19 13 52 33 7 14 56 16 3 61 63 63 19 14 57 36 19 14 57 36 19 14 57 16 3 61 63 63 19 14 57 36 19 14 57 36 19 14 57 36 63 63 63 16 3 14 57 36 19 14 57 36 19 14 57 36 63 63 63 16 3 13 52 33 7 14 56 36 19 14 57 36 63 63 63 16 3 13 52 33 7 14 56 16 3 61 63 36 19 63 63 16 3 13 52 33 7 14 56 16 63 63 63 36 19 14 57 36 19 14 57 33 7 14 56 16 63 15 57 36 19 14 57 36 19 14 57 36 19 14 57 36 63 15 57 36 19 14 57 36 19 14 57 36 19 14 57 36 63 63 63 16 3 13 52 36 19 14 57 36 19 14 57 36 63 63 63 16 3 13 52 33 7 14 56 63 63 14 57 36 63 63 63 16 3 13 52 33 7 14 52 63 63 15 57 36 19 14 57 63 63 15 52 33 7 62 63 63 63 15 57 36 19 14 57 36 19 14 57 36 19 14 52 63 19 14 57 36 19 14 57 36 19 14 57 36 19 14 57 36 63 63 63 36 19 14 57 36 19 14 57 36 19 14 57 36 19 14 57 63 63 15 52 33 3 14 57 36 19 14 57 36 19 14 57 63 63 63 63 32 23 62 63 63 19 14 57 36 19 14 57 36 63 63 63 62 59 63 63 36 19 14 57 36 19 14 57 36 19 63 63 63 63 15 57 36 19 14 57 36 19 14 57 36 19 14 57 36 19 14 57 36 19 14 57 36 19 14 57 36 19 14 57 36 19 14 57 36 19 14 57 36 63 14 57 36 19 14 57 36 19 14 57 36 19 14 57 36 19 14 57 36 19 14 57 36 19 14 57 36 19 14 57 36 19 14 57 36 19 14 57 36 19 14 57 36 19 14 57 36 19 14 57 36 19 14 57 36 19 14 57 36 19 14 57 36 19 14 57 36 19 14 57 36 19 14 57 36 19 14 57 36 19 14 57 36 19 14 57 36 19 