P224 226316 23 62 63 63 19 14 57 36 19 14 57 36 19 14 57 36 19 14 57 36 19 62 63 36 19 14 57 36 19 14 57 36 19 14 57 36 63 63 63 16 3 13 52 33 7 14 56 36 19 14 57 63 63 15 52 16 3 29 56 33 3 14 52 16 63 63 63 36 19 14 57 16 7 30 56 32 3 13 52 63 63 15 57 36 19 14 57 36 19 14 57 36 19 14 57 63 19 14 57 36 19 14 57 36 19 14 57 36 19 14 57 36 19 62 63 63 3 13 52 36 19 14 57 36 19 14 57 36 63 63 63 16 3 13 52 33 7 14 56 16 3 61 63 36 63 15 52 16 3 29 56 33 3 14 52 16 63 63 63 36 19 14 57 36 19 14 57 32 3 13 52 63 63 15 57 36 19 14 57 36 19 14 57 36 19 14 57 36 19 14 57 36 19 14 57 36 19 14 57 36 19 14 57 36 19 14 57 36 63 15 52 16 7 30 56 36 19 14 57 36 19 14 57 63 63 15 52 33 7 14 56 16 3 61 63 63 19 14 57 63 3 29 56 33 3 14 52 16 63 63 63 36 19 14 57 36 19 14 57 36 19 14 57 63 63 15 57 36 19 14 57 36 19 14 57 36 19 14 57 36 19 14 57 36 19 62 63 36 19 14 57 36 19 14 57 36 19 14 57 36 19 62 63 16 7 30 56 32 3 61 63 36 19 14 57 36 63 63 63 33 7 14 52 63 63 63 63 36 19 14 57 36 19 14 57 32 63 63 63 63 19 14 57 36 19 14 57 36 19 14 57 36 19 14 57 36 19 14 57 36 19 14 57 36 19 14 57 36 19 14 57 36 19 14 57 36 19 14 57 63 63 15 56 36 19 14 57 36 19 14 57 36 19 14 57 63 59 31 57 16 63 63 63 36 19 14 57 36 19 14 57 63 59 63 63 63 63 15 57 36 19 14 57 36 19 14 57 36 19 14 57 36 19 14 57 36 19 14 57 36 19 14 57 36 19 14 57 36 19 14 57 36 19 14 57 36 19 14 57 36 19 14 57 36 19 14 57 36 19 14 57 36 19 14 57 63 63 63 63 36 19 14 57 36 19 14 57 36 19 14 57 36 19 14 57 36 19 14 57 36 19 14 57 36 19 14 57 36 19 14 57 36 19 14 57 36 19 14 57 36 19 14 57 36 19 14 57 