P27 24633 30 56 16 63 15 57 14 52 63 19 14 57 63 63 63 19 62 63 32 7 63 63 15 56 33 3 61 3 30 56 16 3 61 63 14 52 16 63 63 63 16 52 63 63 15 52 32 7 63 3 13 56 33 3 13 3 30 56 16 3 61 63 14 52 16 63 63 63 16 52 63 63 15 52 32 7 63 3 13 56 33 3 13 3 30 56 16 3 61 63 14 52 16 63 63 63 16 52 63 63 15 52 32 7 63 3 13 56 33 3 13 3 30 56 16 3 61 63 14 52 16 63 63 63 16 57 63 63 15 52 32 7 63 23 30 57 37 23 30 23 30 57 37 23 62 63 14 52 16 63 63 63 37 63 36 63 15 52 33 23 36 63 63 63 63 63 63 