P222 246330 56 16 63 63 63 36 19 14 57 36 19 14 57 36 19 14 57 36 19 14 57 63 63 15 57 36 19 14 57 36 19 14 57 36 19 14 57 36 19 62 63 16 3 14 57 36 19 14 57 36 19 14 57 36 63 63 63 63 7 30 56 16 63 63 63 36 19 14 57 36 63 63 63 16 7 30 56 16 3 13 52 63 63 15 57 36 19 63 63 32 7 30 56 16 3 13 52 63 63 15 57 36 19 14 57 36 19 14 57 16 3 13 52 63 63 15 57 36 19 14 57 36 19 14 57 36 19 14 57 36 63 15 57 36 19 14 57 36 19 14 57 36 19 14 57 36 63 15 52 32 7 30 56 36 19 14 57 36 19 14 57 63 63 15 52 32 7 30 56 16 3 13 52 63 63 14 57 63 3 13 52 32 7 30 56 16 3 13 52 63 63 15 57 36 19 14 57 32 7 30 56 16 3 13 52 63 63 15 57 36 19 14 57 36 19 14 57 36 19 13 52 63 63 15 57 36 19 14 57 36 19 14 57 36 19 62 63 63 3 13 52 36 19 14 57 36 19 14 57 36 19 62 63 63 3 13 52 32 7 30 56 16 3 14 57 36 19 62 63 63 3 13 52 32 7 30 56 16 3 13 52 63 63 15 57 63 3 13 52 32 7 30 56 16 23 30 57 63 63 15 57 36 19 14 57 36 19 30 57 37 23 14 52 63 19 14 57 36 19 14 57 36 19 14 57 36 19 62 63 36 19 14 57 36 19 14 57 36 19 14 57 36 19 62 63 63 3 13 52 32 7 14 57 36 19 14 57 36 19 62 63 63 3 13 52 37 23 30 57 16 3 61 63 36 19 62 63 63 23 30 57 37 23 30 57 63 63 15 57 36 19 14 57 36 19 14 52 33 63 63 63 36 19 14 57 36 19 14 57 36 19 14 57 36 19 14 57 36 19 14 57 36 19 14 57 36 19 14 57 36 19 14 57 36 19 62 63 63 23 14 57 36 19 14 57 36 19 14 57 36 19 62 63 63 3 61 63 63 19 14 57 36 19 14 57 36 19 62 63 63 63 15 57 36 19 14 57 36 19 14 57 36 19 14 57 36 19 14 57 36 19 14 57 36 19 14 57 36 19 14 57 36 19 14 57 36 19 14 57 36 19 14 57 36 19 14 57 36 19 14 57 36 19 14 57 36 19 