P260 606336 19 14 57 36 19 14 57 36 19 14 57 36 19 14 57 36 19 14 57 36 19 14 57 36 19 14 57 36 19 14 57 36 19 14 57 36 19 14 57 36 19 14 57 36 19 14 57 36 19 14 57 36 19 14 57 36 19 14 57 36 19 14 57 36 19 14 57 36 19 14 57 36 19 14 57 36 19 14 57 36 19 14 57 36 19 14 57 36 19 14 57 36 19 14 57 36 19 14 57 36 19 14 57 36 19 14 57 36 19 14 57 36 19 14 57 36 19 14 57 36 19 14 57 36 19 14 57 36 19 14 57 36 19 14 57 36 19 14 57 36 19 14 57 36 19 14 57 36 19 14 57 36 19 14 57 36 19 14 57 36 19 14 57 36 19 14 57 36 19 14 57 36 19 14 57 36 19 14 57 36 19 14 57 36 19 14 57 36 19 14 57 36 19 14 57 36 19 14 57 36 19 14 57 36 19 14 57 36 19 14 57 36 19 14 57 36 19 14 57 36 19 14 57 36 19 14 57 36 19 14 57 36 19 14 57 36 19 14 57 36 19 14 57 36 19 14 57 36 19 14 57 36 19 14 57 36 19 14 57 36 19 14 57 36 19 14 57 36 19 14 57 36 19 14 57 36 19 14 57 36 19 14 57 36 19 14 57 36 19 14 57 36 19 14 57 36 19 14 57 63 63 63 63 63 63 63 63 63 63 63 63 36 19 14 57 36 19 14 57 36 19 14 57 36 19 14 57 36 19 14 57 36 19 14 57 36 19 14 57 36 19 14 57 36 19 14 57 36 19 14 57 36 19 14 57 36 19 14 57 36 19 14 57 36 19 14 57 36 19 14 57 36 19 14 57 36 19 14 57 36 19 14 57 36 19 14 57 36 19 14 57 36 19 14 57 36 19 14 57 36 19 14 57 36 19 14 57 36 19 14 57 36 19 62 63 63 63 63 63 36 19 14 57 36 19 14 57 36 19 14 57 36 19 14 57 36 19 14 57 36 19 14 57 36 19 14 57 36 19 14 57 36 19 62 63 26 43 45 54 42 27 45 54 22 27 45 53 22 27 61 63 63 63 63 63 36 19 14 57 36 19 14 57 36 19 14 57 36 19 14 57 36 19 62 63 26 27 45 53 26 27 45 53 18 11 45 52 18 11 45 52 22 27 61 63 63 19 14 57 36 19 14 57 36 19 14 57 36 19 14 57 36 19 14 57 36 19 14 57 26 27 45 53 18 11 45 52 18 11 45 52 18 11 45 53 63 63 15 57 36 19 14 57 36 19 14 57 36 19 14 57 36 19 14 57 36 19 14 57 36 19 14 57 36 19 14 57 36 19 14 57 36 19 14 57 36 19 14 57 36 19 14 57 36 19 14 57 36 19 14 57 36 19 14 57 36 19 14 57 36 19 14 57 36 19 14 57 36 19 14 57 36 19 14 57 36 19 14 57 36 19 14 57 36 19 14 57 36 19 14 57 36 19 62 63 26 27 45 53 36 19 14 57 36 19 14 57 36 19 14 57 36 19 14 57 36 19 14 57 36 19 14 57 36 19 14 57 36 19 14 57 36 19 62 63 26 27 45 53 26 27 45 53 18 11 45 52 18 7 29 52 18 11 45 52 18 63 63 63 36 19 14 57 36 19 14 57 36 19 14 57 36 19 62 63 26 27 45 53 26 27 45 53 18 11 29 52 37 27 46 57 21 7 45 52 18 27 61 63 36 19 14 57 36 19 14 57 36 19 14 57 36 19 14 57 36 19 14 57 26 27 45 53 18 23 61 62 59 43 62 58 59 43 30 52 18 11 61 63 63 19 14 57 36 19 14 57 36 19 14 57 36 19 14 57 36 19 14 57 36 19 62 63 36 19 14 57 36 19 14 57 36 19 14 57 36 19 14 57 63 19 14 57 36 19 14 57 36 19 14 57 36 19 14 57 36 19 14 57 36 63 31 57 63 19 14 57 63 63 15 57 36 19 14 57 36 19 14 57 36 19 14 57 36 19 14 57 36 19 14 57 36 19 62 63 21 23 45 54 63 23 14 56 32 63 63 63 32 3 62 63 36 19 14 57 36 19 14 57 36 19 14 57 63 63 63 63 63 63 63 63 63 63 63 63 17 19 45 54 26 27 45 53 17 47 47 58 18 11 45 52 22 27 46 62 17 11 45 53 63 63 63 63 63 3 14 56 32 3 14 56 32 3 45 53 17 19 45 54 26 27 29 52 38 47 47 52 18 11 45 52 18 11 61 62 37 7 45 53 63 19 14 57 36 19 14 57 36 19 14 57 36 19 14 57 36 19 14 57 26 27 29 53 42 27 46 52 18 11 45 52 18 11 45 53 21 7 45 52 63 19 14 57 36 19 14 57 36 19 14 57 36 19 14 57 36 19 14 57 63 3 30 57 16 3 14 52 37 3 62 63 63 63 63 63 63 63 63 63 63 19 14 57 36 19 14 57 36 19 14 57 36 19 14 57 36 19 14 57 63 3 13 57 16 3 13 52 37 3 14 52 16 3 13 52 16 3 13 52 16 3 13 52 53 23 31 61 53 23 31 61 53 3 30 53 17 19 45 54 63 3 14 57 16 3 14 56 37 3 14 56 32 3 14 56 32 3 14 56 32 3 14 52 57 39 31 62 57 39 31 62 57 23 30 53 17 3 44 54 26 27 29 53 58 27 45 52 18 11 45 52 18 11 29 52 22 7 29 52 32 3 14 52 57 39 31 62 57 39 31 62 57 23 30 53 17 3 44 54 26 27 29 53 58 27 46 52 18 11 45 52 18 11 29 52 21 7 29 52 63 19 14 57 36 19 14 57 36 19 14 57 36 19 14 57 36 19 14 57 26 27 29 53 42 27 46 52 18 11 45 52 18 11 45 57 37 7 45 53 63 19 14 57 36 19 14 57 36 19 14 57 36 19 14 57 36 19 14 57 63 3 14 57 16 3 14 56 37 3 14 56 32 3 14 56 32 3 14 56 63 19 14 57 36 19 14 57 36 19 14 57 36 19 14 57 36 19 14 57 63 3 29 57 16 3 13 52 37 3 14 52 32 3 14 56 32 3 14 56 32 3 13 52 53 23 31 61 53 23 31 61 53 3 30 53 17 3 45 54 63 3 13 57 16 3 14 52 37 3 62 63 63 63 63 63 63 63 63 63 63 63 63 63 63 3 14 56 32 3 14 56 32 3 45 53 17 3 45 54 26 27 45 53 37 47 47 52 18 11 45 52 18 11 61 62 38 11 45 53 36 19 14 57 63 63 15 56 32 63 63 63 63 63 63 63 17 3 44 54 26 27 45 53 17 43 62 62 38 11 45 52 22 43 46 58 17 11 45 53 63 19 14 57 36 19 14 57 36 19 14 57 36 19 14 57 36 19 14 57 26 27 45 53 18 7 45 58 59 47 63 62 59 43 30 52 18 11 61 63 63 19 14 57 36 19 14 57 36 19 14 57 36 19 14 57 36 19 14 57 63 23 14 56 37 63 63 63 32 3 62 63 36 19 14 57 36 19 14 57 36 19 14 57 36 19 14 57 36 19 14 57 36 19 14 57 36 19 14 57 36 63 31 57 63 19 14 57 63 63 15 57 36 19 14 57 36 19 14 57 36 19 14 57 36 63 15 56 32 63 15 57 36 19 62 63 21 23 45 54 36 19 62 63 36 19 14 57 36 19 14 57 36 19 14 57 36 19 14 57 36 19 14 57 36 63 15 56 32 63 15 57 36 19 62 63 26 43 45 53 26 27 45 53 18 11 29 52 17 23 30 57 17 7 45 52 18 27 61 63 36 19 14 57 36 63 15 56 32 63 15 57 36 19 62 63 26 27 45 53 26 27 45 53 18 11 45 52 18 11 45 52 18 11 45 52 18 63 63 63 36 19 14 57 36 19 14 57 36 19 14 57 36 19 14 57 36 19 14 57 26 27 45 53 18 11 45 52 18 11 45 52 18 11 45 53 63 63 15 57 36 19 14 57 36 19 14 57 36 19 14 57 36 19 14 57 36 19 14 57 36 19 14 57 36 19 14 57 36 19 14 57 36 19 14 57 36 19 14 57 36 19 14 57 36 19 14 57 36 19 14 57 36 19 14 57 36 19 14 57 36 19 14 57 36 19 14 57 36 19 14 57 36 19 14 57 36 19 14 57 36 19 14 57 36 63 15 52 16 63 15 57 36 19 62 63 26 27 45 53 36 19 14 57 36 19 14 57 36 19 14 57 36 19 14 57 36 19 14 57 36 19 14 57 36 63 15 56 32 63 15 57 36 19 62 63 26 27 45 53 26 27 45 53 18 11 45 52 18 11 45 52 22 27 61 63 63 19 14 57 36 19 14 57 36 63 15 56 32 63 15 57 36 19 62 63 26 43 45 54 26 27 45 54 22 27 45 53 22 27 61 63 63 63 63 63 36 19 14 57 36 19 14 57 36 19 14 57 36 19 14 57 36 19 14 57 36 19 14 57 63 63 63 63 63 63 63 63 63 63 63 63 36 19 14 57 36 19 14 57 36 19 14 57 36 19 14 57 36 19 14 57 36 19 14 57 36 19 14 57 36 19 14 57 36 19 14 57 36 19 14 57 36 19 14 57 36 19 14 57 36 19 14 57 36 19 14 57 36 19 14 57 36 19 14 57 36 19 14 57 36 19 14 57 36 19 14 57 36 19 14 57 36 19 14 57 36 19 14 57 36 19 14 57 36 63 63 63 63 63 15 57 36 19 62 63 63 63 63 63 36 19 14 57 36 19 14 57 36 19 14 57 36 19 14 57 36 19 14 57 36 19 14 57 36 19 14 57 36 19 14 57 36 19 14 57 36 19 14 57 36 19 14 57 36 19 14 57 36 19 14 57 36 19 14 57 36 19 14 57 36 19 14 57 36 19 14 57 36 19 14 57 36 19 14 57 36 19 14 57 36 19 14 57 36 19 14 57 36 19 14 57 36 19 14 57 36 19 14 57 36 19 14 57 36 19 14 57 36 19 14 57 36 19 14 57 36 19 14 57 36 19 14 57 36 19 14 57 36 19 14 57 36 19 14 57 36 19 14 57 36 19 14 57 36 19 14 57 36 19 14 57 36 19 14 57 36 19 14 57 36 19 14 57 36 19 14 57 36 19 14 57 36 19 14 57 36 19 14 57 36 19 14 57 36 19 14 57 36 19 14 57 36 19 14 57 36 19 14 57 36 19 14 57 36 19 14 57 36 19 14 57 36 19 14 57 36 19 14 57 36 19 14 57 36 19 14 57 36 19 14 57 36 19 14 57 36 19 14 57 36 19 14 57 36 19 14 57 36 19 14 57 36 19 14 57 36 19 14 57 36 19 14 57 36 19 14 57 36 19 14 57 36 19 14 57 36 19 14 57 36 19 14 57 36 19 14 57 36 19 14 57 36 19 14 57 36 19 14 57 36 19 14 57 36 19 14 57 36 19 14 57 36 19 14 57 36 19 14 57 36 19 14 57 36 19 14 57 36 19 14 57 36 19 14 57 36 19 14 57 36 19 14 57 36 19 14 57 36 19 14 57 36 19 14 57 36 19 14 57 36 19 14 57 36 19 14 57 36 19 14 57 36 19 14 57 36 19 14 57 36 19 14 57 36 19 14 57 36 19 14 57 36 19 14 57 36 19 14 57 36 19 14 57 36 19 14 57 36 19 14 57 36 19 14 57 36 19 14 57 36 19 14 57 36 19 14 57 36 19 14 57 36 19 14 57 36 19 14 57 36 19 14 57 36 19 14 57 36 19 14 57 36 19 14 57 36 19 14 57 36 19 14 57 36 19 14 57 36 19 14 57 36 19 14 57 36 19 14 57 36 19 14 57 36 19 14 57 36 19 14 57 36 19 14 57 36 19 14 57 36 19 14 57 36 19 14 57 36 19 14 57 36 19 14 57 36 19 14 57 36 19 14 57 36 19 14 57 36 19 14 57 36 19 14 57 36 19 14 57 36 19 14 57 36 19 14 57 36 19 14 57 36 19 14 57 36 19 14 57 36 19 14 57 36 19 14 57 36 19 14 57 36 19 14 57 36 19 14 57 36 19 14 57 36 19 14 57 36 19 14 57 36 19 14 57 36 19 14 57 36 19 14 57 36 19 14 57 36 19 14 57 36 19 14 57 36 19 14 57 36 19 14 57 36 19 14 57 36 19 14 57 36 19 14 57 36 19 14 57 36 19 14 57 36 19 14 57 36 19 14 57 36 19 14 57 36 19 14 57 36 19 14 57 36 19 14 57 36 19 14 57 36 19 14 57 36 19 14 57 36 19 14 57 36 19 14 57 36 19 14 57 36 19 14 57 36 19 14 57 36 19 14 57 36 19 14 57 36 19 14 57 36 19 14 57 36 19 14 57 36 19 14 57 36 19 14 57 36 19 14 57 36 19 14 57 36 19 14 57 36 19 14 57 36 19 14 57 36 19 14 57 36 19 14 57 36 19 14 57 36 19 14 57 36 19 14 57 36 19 14 57 36 19 14 57 36 19 14 57 36 19 14 57 36 19 14 57 36 19 14 57 36 19 14 57 36 19 14 57 36 19 14 57 36 19 14 57 36 19 14 57 36 19 14 57 36 19 14 57 36 19 14 57 36 19 14 57 36 19 14 57 36 19 14 57 36 19 14 57 36 19 14 57 36 19 14 57 36 19 14 57 36 19 14 57 36 19 14 57 36 19 14 57 36 19 14 57 36 19 14 57 36 19 14 57 36 19 14 57 36 19 14 57 36 19 14 57 36 19 14 57 36 19 14 57 36 19 14 57 36 19 14 57 36 19 14 57 36 19 14 57 36 19 14 57 36 19 14 57 36 19 14 57 36 19 14 57 36 19 14 57 36 19 14 57 36 19 14 57 36 19 14 57 36 19 14 57 36 19 14 57 36 19 14 57 36 19 14 57 36 19 14 57 36 19 14 57 36 19 14 57 36 19 14 57 36 19 14 57 36 19 14 57 36 19 14 57 36 19 14 57 36 19 14 57 36 19 14 57 36 19 14 57 36 19 14 57 36 19 14 57 36 19 14 57 36 19 14 57 36 19 14 57 36 19 14 57 36 19 14 57 36 19 14 57 36 19 14 57 36 19 14 57 36 19 14 57 36 19 14 57 36 19 14 57 36 19 14 57 36 19 14 57 36 19 14 57 36 19 14 57 36 19 14 57 36 19 14 57 36 19 14 57 36 19 14 57 36 19 14 57 36 19 14 57 36 19 14 57 36 19 14 57 36 19 14 57 36 19 14 57 36 19 14 57 36 19 14 57 36 19 14 57 36 19 14 57 36 19 14 57 36 19 14 57 36 19 14 57 36 19 14 57 36 19 14 57 36 19 14 57 36 19 14 57 36 19 14 57 36 19 14 57 36 19 14 57 36 19 14 57 36 19 14 57 36 19 14 57 36 19 14 57 36 19 14 57 36 19 14 57 36 19 14 57 36 19 14 57 36 19 14 57 36 19 14 57 36 19 14 57 36 19 14 57 36 19 14 57 36 19 14 57 36 19 14 57 36 19 14 57 36 19 14 57 36 19 14 57 36 19 14 57 36 19 14 57 36 19 14 57 36 19 14 57 36 19 14 57 36 19 14 57 36 19 14 57 36 19 14 57 36 19 14 57 36 19 14 57 36 19 14 57 36 19 14 57 36 19 14 57 36 19 14 57 36 19 14 57 36 19 14 57 36 19 14 57 36 19 14 57 36 19 14 57 36 19 14 57 36 19 14 57 36 19 14 57 36 19 14 57 36 19 14 57 36 19 14 57 36 19 14 57 36 19 14 57 36 19 14 57 36 19 14 57 36 19 14 57 36 19 14 57 36 19 14 57 36 19 14 57 36 19 14 57 36 19 14 57 36 19 14 57 36 19 14 57 36 19 14 57 36 19 14 57 36 19 14 57 36 19 14 57 36 19 14 57 36 19 14 57 36 19 14 57 36 19 14 57 36 19 14 57 36 19 14 57 36 19 14 57 36 19 14 57 36 19 14 57 36 19 14 57 36 19 14 57 36 19 14 57 36 19 14 57 36 19 14 57 36 19 14 57 36 19 14 57 36 19 14 57 36 19 14 57 36 19 14 57 36 19 14 57 36 19 14 57 36 19 14 57 36 19 14 57 36 19 14 57 