P260 606311 47 28 49 1 7 28 48 1 7 28 48 1 7 28 48 1 7 28 48 1 7 28 48 1 7 28 48 1 7 28 48 1 7 28 48 5 47 60 50 11 47 60 50 11 47 60 50 11 27 12 48 0 19 29 53 21 23 61 63 1 7 28 48 1 7 28 48 1 7 28 48 1 7 28 48 5 47 60 50 11 47 60 50 11 47 60 50 11 27 12 48 20 23 29 53 21 19 61 63 63 23 29 53 21 3 13 48 0 27 60 50 11 47 60 50 11 47 60 50 11 47 60 50 11 47 60 50 11 27 12 48 20 3 12 48 0 3 60 63 63 23 29 53 21 23 13 53 0 27 60 50 11 47 60 50 11 47 60 50 11 47 28 49 1 7 28 48 1 7 28 48 1 7 28 48 1 7 28 48 63 3 12 48 0 3 28 53 0 27 60 50 11 47 60 50 11 47 60 50 11 47 28 49 1 7 28 48 1 7 28 48 1 7 28 48 1 7 28 48 1 7 28 48 1 7 28 48 1 7 28 48 1 7 28 48 5 47 60 50 11 47 28 49 1 7 28 48 1 7 28 48 1 7 28 48 1 7 28 48 1 7 28 48 1 7 28 48 1 7 28 48 1 7 28 48 5 47 60 50 11 47 60 50 11 47 60 50 11 27 12 48 16 3 12 48 0 3 60 63 1 7 28 48 1 7 28 48 1 7 28 48 1 7 28 48 5 47 60 50 11 47 60 50 11 47 60 50 11 27 12 48 16 3 12 48 0 3 60 63 63 3 12 48 0 3 12 52 0 27 60 50 11 47 60 50 11 47 60 50 11 47 60 50 11 47 44 49 7 27 12 48 0 3 12 52 16 3 60 63 63 3 12 48 0 3 12 52 0 27 60 50 11 47 60 50 11 47 60 50 11 47 28 49 1 7 28 48 1 7 28 48 1 7 28 48 1 7 28 48 63 3 13 52 16 3 12 48 0 27 60 50 10 47 60 50 11 47 60 50 7 47 28 49 1 7 28 48 1 7 28 48 1 7 28 48 1 7 28 48 1 7 28 48 1 7 28 48 1 7 28 48 1 7 28 48 5 47 60 49 7 27 28 48 1 7 28 48 1 7 28 48 1 7 28 48 1 7 28 48 1 7 28 48 1 7 28 48 1 7 28 48 1 7 28 48 5 47 60 49 7 31 60 49 7 31 44 49 7 27 12 48 0 3 12 52 16 3 60 63 1 7 28 48 1 7 28 48 1 7 28 48 1 7 28 48 1 27 60 50 7 31 60 49 7 31 60 50 11 23 12 48 0 3 13 52 16 63 63 63 63 3 12 52 16 3 12 48 0 27 60 49 6 31 60 49 7 31 60 49 6 31 60 49 7 31 44 49 6 7 12 48 0 3 12 48 0 63 15 57 63 3 12 52 16 3 13 48 0 7 44 49 7 31 60 50 7 47 60 49 6 27 28 48 1 7 28 48 1 7 28 48 1 7 28 48 1 7 28 48 63 63 15 48 0 3 12 48 0 7 28 49 6 27 44 49 6 27 44 49 5 23 28 48 0 7 28 48 1 7 28 48 1 7 28 48 1 7 28 48 1 7 28 48 1 7 28 48 1 7 28 48 1 7 12 48 1 23 44 49 5 23 28 48 0 7 28 48 1 7 28 48 1 7 28 48 1 7 28 48 1 7 28 48 1 7 28 48 1 7 28 48 1 7 12 48 1 23 28 49 5 27 44 49 6 27 28 49 5 7 12 48 0 3 12 48 63 63 15 57 1 7 28 48 1 7 28 48 1 7 28 48 1 7 12 48 1 27 28 49 5 23 28 49 5 23 28 49 5 23 12 48 0 63 63 63 63 19 14 57 36 63 63 63 0 3 12 48 0 23 28 49 5 23 28 49 5 23 28 49 5 23 28 49 5 23 28 49 6 23 60 63 63 63 15 57 36 19 14 57 36 19 62 63 63 63 15 48 0 23 28 49 5 23 28 49 5 23 28 49 5 27 28 48 0 7 28 48 1 7 28 48 1 7 28 48 1 7 28 48 36 19 14 57 36 63 63 63 63 23 44 49 5 23 28 49 5 23 28 49 6 27 28 48 0 7 28 48 1 7 28 48 1 7 28 48 1 7 28 48 1 7 28 48 1 7 28 48 1 7 28 48 1 7 12 48 1 27 28 49 6 27 28 48 0 7 28 48 1 7 28 48 1 7 28 48 1 7 28 48 1 7 28 48 1 7 28 48 1 7 28 48 1 7 12 48 1 27 44 49 6 23 28 49 5 27 44 49 6 23 60 63 36 19 14 57 36 19 14 57 1 7 28 48 1 7 28 48 1 7 28 48 1 7 12 48 1 27 44 49 6 27 44 49 6 27 44 49 6 23 60 63 36 19 14 57 36 19 14 57 36 19 14 57 36 19 14 57 63 23 44 49 6 27 44 49 6 27 44 49 6 27 44 49 6 27 28 49 6 23 60 63 36 19 14 57 36 19 14 57 36 19 14 57 36 19 14 57 63 23 44 49 6 27 44 49 6 27 44 49 6 27 28 48 0 7 28 48 1 7 28 48 1 7 28 48 1 7 28 48 36 19 14 57 36 19 14 57 63 23 44 49 5 27 44 49 6 27 44 49 6 27 28 48 0 7 28 48 1 7 28 48 1 7 28 48 1 7 28 48 1 7 28 48 1 7 28 48 1 7 28 48 1 7 12 48 1 27 44 49 6 27 28 48 0 7 28 48 1 7 28 48 1 7 28 48 1 7 28 48 1 7 28 48 1 7 28 48 1 7 28 48 1 7 12 48 1 27 44 49 6 27 44 49 6 27 28 49 6 23 60 63 36 19 14 57 36 19 14 57 1 7 28 48 1 7 28 48 1 7 28 48 1 7 12 48 1 27 44 49 6 27 44 49 6 27 44 49 6 23 60 63 36 19 14 57 36 19 14 57 36 19 14 57 36 19 14 57 63 23 44 49 5 27 44 49 6 27 44 49 5 23 28 49 5 23 28 49 6 23 60 63 36 19 14 57 36 19 14 57 36 19 14 57 36 19 14 57 63 23 44 49 6 27 28 49 5 27 44 49 6 27 28 48 0 7 28 48 1 7 28 48 1 7 28 48 1 7 28 48 36 19 14 57 36 19 14 57 63 23 44 49 5 23 28 49 5 23 28 49 5 27 28 48 1 23 28 48 1 7 28 48 1 7 28 48 1 7 28 48 1 7 28 48 1 7 28 48 1 7 28 48 1 7 28 48 1 27 44 49 5 27 28 48 1 7 28 48 5 7 28 48 1 7 28 48 1 7 28 48 1 7 28 48 1 7 28 48 1 7 28 48 1 7 28 48 1 27 28 49 5 23 28 49 5 23 28 49 6 23 60 63 63 63 15 57 36 19 14 57 6 27 44 49 6 27 44 49 6 27 44 49 6 23 28 48 1 23 28 49 5 23 28 49 5 23 28 49 5 7 12 48 0 63 63 63 63 19 14 57 36 19 14 57 36 63 63 63 63 23 44 49 5 23 28 49 5 23 28 49 5 23 44 49 6 23 28 49 5 7 12 48 0 3 12 48 63 63 15 57 36 19 62 63 63 63 15 48 0 23 28 49 5 23 28 49 5 23 28 49 5 23 28 48 1 7 44 49 6 27 44 49 6 27 44 49 6 27 44 49 36 63 63 63 0 3 12 48 0 7 28 49 5 27 44 49 6 27 28 49 5 23 28 48 1 7 28 49 6 27 44 49 6 27 44 49 6 27 44 49 6 27 44 49 6 27 28 49 5 27 44 49 5 3 28 48 1 23 28 49 6 23 28 48 1 7 28 48 5 7 44 49 6 27 44 49 6 27 44 49 6 27 12 48 0 3 12 48 0 3 12 48 0 3 28 48 1 23 44 49 6 27 60 49 7 27 44 49 6 7 12 48 0 3 12 48 0 63 15 57 6 27 12 48 16 3 13 52 20 3 12 53 16 3 12 48 1 27 60 49 7 31 60 49 7 31 60 50 6 7 12 48 16 3 12 48 16 63 63 63 63 63 15 48 0 3 12 48 0 7 44 49 6 31 60 49 7 31 44 49 7 31 60 49 7 31 44 49 11 23 12 48 0 3 12 52 16 3 60 63 63 3 12 52 0 3 13 52 0 23 60 50 11 31 60 49 7 31 60 49 11 27 28 48 1 7 28 49 6 23 28 49 6 27 44 49 6 27 44 49 63 3 12 52 16 3 12 48 0 27 60 49 6 31 60 49 7 31 60 49 7 31 28 48 1 7 44 49 6 23 28 49 6 27 44 49 6 27 44 49 6 27 12 48 16 3 13 52 21 3 29 53 16 3 13 48 1 31 60 49 7 47 28 48 1 7 44 49 6 27 28 49 6 27 44 49 6 27 44 49 6 27 12 48 0 3 12 48 0 3 12 52 0 3 28 48 5 47 60 49 7 31 60 49 7 31 44 49 7 27 12 48 0 3 28 53 21 23 61 63 6 27 44 49 6 7 28 49 5 7 28 48 1 7 28 48 1 47 60 49 11 47 60 50 11 47 60 50 11 23 12 48 21 23 29 53 21 23 61 63 63 23 29 53 21 3 12 48 0 27 60 49 6 47 60 50 11 47 60 50 11 47 60 50 11 47 60 50 11 23 12 48 20 3 12 48 0 3 60 63 63 23 29 53 21 23 29 53 0 27 60 50 11 47 60 50 11 47 60 50 11 47 28 48 1 7 28 49 5 23 28 49 6 27 44 49 6 27 44 49 63 3 12 48 0 3 12 53 0 27 60 50 11 47 60 50 11 47 60 50 11 47 28 48 1 7 28 49 6 27 44 49 6 27 44 49 6 27 44 49 6 27 44 49 6 23 44 49 6 27 44 49 6 7 28 48 1 47 60 50 11 47 28 48 1 7 28 49 6 27 44 49 6 27 44 49 6 27 44 49 6 27 44 49 6 27 44 49 6 27 44 49 5 7 28 48 1 47 60 50 11 47 60 50 11 47 60 50 11 23 12 48 20 3 12 48 0 3 60 63 6 27 44 49 6 27 44 49 6 27 44 49 1 7 28 48 1 27 60 50 11 47 60 50 11 47 60 50 11 23 12 52 21 23 29 53 21 23 61 63 63 3 12 48 0 3 12 53 0 27 60 50 11 47 60 50 11 47 60 50 11 47 60 50 11 47 44 50 11 23 12 48 16 23 29 53 21 23 61 63 63 23 29 53 21 23 29 53 0 27 60 50 11 47 60 50 11 47 60 50 11 27 28 48 1 7 28 48 6 27 44 49 6 27 44 49 6 27 44 49 63 23 29 53 21 23 13 52 0 27 60 50 11 47 60 50 11 47 60 50 6 7 28 48 5 7 28 48 5 27 44 49 6 27 44 49 6 27 44 49 6 27 44 49 6 27 44 49 6 27 28 49 1 7 28 49 1 7 44 49 1 23 28 49 5 23 28 49 1 23 44 49 6 27 44 49 6 27 44 49 6 27 44 49 6 27 44 49 6 23 28 48 5 23 28 49 5 23 28 48 6 47 60 50 11 47 60 50 11 23 12 48 0 19 29 53 21 23 61 63 1 7 28 48 1 7 28 48 1 3 28 49 5 27 44 49 6 27 28 49 5 47 60 50 11 47 60 50 11 23 12 48 20 23 29 57 37 23 62 63 63 23 29 53 21 3 13 48 0 27 60 50 11 47 60 50 11 47 44 49 1 43 60 50 11 47 60 50 11 23 28 53 37 23 13 53 21 19 61 63 63 23 30 57 37 23 13 53 0 27 60 50 11 47 60 50 11 47 28 49 5 27 44 49 6 27 44 49 5 3 28 48 1 7 28 48 1 7 28 48 63 19 29 53 20 23 29 57 21 27 60 50 11 47 60 50 11 27 28 48 6 27 44 50 10 27 44 49 5 63 63 63 63 63 63 63 63 63 63 63 63 63 63 63 63 63 63 63 63 63 31 49 6 27 44 50 10 27 44 49 42 43 46 59 46 59 46 59 21 63 15 57 36 19 14 57 36 19 14 57 36 19 14 57 36 19 14 57 36 63 31 58 46 59 46 59 46 43 46 58 5 43 60 50 11 47 60 50 11 23 28 53 21 3 12 53 20 3 60 63 36 19 14 57 36 19 14 57 36 63 63 63 63 23 29 53 21 27 45 49 6 47 60 50 11 47 60 50 11 23 12 52 21 3 12 48 0 3 60 63 63 3 12 53 16 3 28 53 21 23 60 50 11 47 60 50 11 27 28 53 7 31 60 50 11 47 44 49 11 23 12 52 21 23 13 53 20 23 61 63 63 3 12 48 0 3 28 53 16 23 60 50 11 47 60 50 11 31 44 49 6 27 29 53 21 23 61 63 63 63 15 57 36 19 14 57 36 19 14 57 63 23 13 53 20 23 29 53 16 23 60 50 6 31 60 49 7 31 44 49 6 47 60 63 63 63 63 63 36 19 14 57 36 19 14 57 36 19 14 57 36 19 14 57 36 19 14 57 36 19 14 57 63 63 63 63 63 47 44 49 7 47 60 63 36 19 14 57 36 19 14 57 36 19 14 57 36 19 14 57 36 19 14 57 36 19 14 57 36 19 14 57 36 19 14 57 63 47 60 49 7 31 60 49 7 31 60 49 11 3 12 48 0 3 29 53 21 23 61 63 36 19 14 57 36 19 14 57 36 19 14 57 36 19 14 57 63 63 63 50 11 47 60 50 11 47 44 50 5 3 12 48 0 3 12 52 16 3 61 63 63 23 29 53 21 3 13 48 0 7 60 50 7 31 60 49 7 31 44 49 5 23 28 49 5 23 12 48 0 3 12 48 0 3 13 52 16 3 61 63 63 3 13 52 16 3 12 48 0 3 28 49 11 47 60 50 11 47 60 50 63 63 63 63 36 19 14 57 36 19 14 57 36 19 14 57 36 19 14 57 63 3 13 52 16 3 13 48 0 3 12 48 0 23 28 49 5 23 60 63 63 19 14 57 36 19 14 57 36 19 14 57 36 19 14 57 36 19 14 57 36 19 14 57 36 19 14 57 36 19 14 57 36 19 14 57 36 63 63 63 36 19 14 57 36 19 14 57 36 19 14 57 36 19 14 57 36 19 14 57 36 19 14 57 36 19 14 57 36 19 14 57 36 19 14 57 36 19 62 63 63 3 12 48 0 3 12 52 16 3 13 52 16 3 12 48 0 3 60 63 36 19 14 57 36 19 14 57 36 19 14 57 36 19 14 57 36 19 14 57 63 3 12 48 0 3 12 52 16 3 13 52 0 3 12 48 0 3 60 63 63 3 12 48 0 3 12 48 16 3 13 52 16 3 12 48 0 3 60 63 63 3 12 48 0 3 13 52 16 3 13 52 16 3 12 48 0 63 63 63 63 3 12 48 0 3 12 48 16 3 13 52 16 3 12 48 0 3 60 63 36 19 14 57 36 19 14 57 36 19 14 57 36 19 14 57 36 19 14 57 63 63 15 48 0 3 12 52 16 3 13 52 16 3 13 48 0 3 60 63 36 19 14 57 36 19 14 57 36 19 14 57 36 19 14 57 36 19 14 57 36 19 14 57 36 19 14 57 36 19 14 57 36 19 14 57 36 19 14 57 36 19 14 57 36 19 14 57 36 19 14 57 36 19 14 57 36 19 14 57 36 19 14 57 36 19 14 57 36 19 14 57 36 19 14 57 36 19 14 57 63 63 15 52 0 3 12 48 0 3 12 48 0 3 12 52 63 63 15 57 36 19 14 57 36 19 14 57 36 19 14 57 36 19 14 57 36 19 14 57 36 63 63 63 0 3 12 48 0 3 12 48 0 3 60 63 63 19 14 57 36 63 63 63 16 3 12 48 0 3 12 48 0 3 12 48 16 63 63 63 36 19 62 63 63 63 63 63 63 63 63 63 63 63 63 63 36 19 14 57 36 19 62 63 63 3 12 48 0 3 12 48 0 3 12 48 63 63 15 57 36 19 14 57 36 19 14 57 36 19 14 57 36 19 14 57 36 19 14 57 36 19 14 57 63 63 63 63 63 63 63 63 63 63 63 63 63 19 14 57 36 19 14 57 36 19 14 57 36 19 14 57 36 19 14 57 36 19 14 57 36 19 14 57 36 19 14 57 36 19 14 57 36 19 14 57 36 19 14 57 