P260 606311 47 60 50 11 47 60 49 7 47 44 49 5 23 28 49 6 27 44 49 6 27 44 49 5 23 28 49 6 31 60 49 7 31 60 50 11 47 44 49 1 23 44 49 42 27 44 49 7 47 60 63 63 19 14 57 36 19 14 57 6 27 44 49 6 23 28 49 5 27 60 49 11 47 60 50 11 27 28 48 5 27 44 49 42 27 61 50 11 63 63 63 36 19 14 57 36 19 14 57 36 19 14 57 36 19 14 57 63 23 44 49 6 43 60 50 11 47 60 50 5 27 44 50 46 23 61 63 63 63 15 57 36 19 14 57 36 19 14 57 36 19 14 57 36 19 14 57 63 63 31 49 6 47 60 50 11 47 60 50 11 47 60 50 11 47 60 50 11 27 28 49 5 27 44 49 6 27 44 49 36 19 14 57 36 19 14 57 36 63 63 63 63 23 28 49 5 23 28 49 5 23 28 49 5 23 28 49 5 7 28 48 1 7 28 48 1 7 28 48 1 7 28 48 1 7 28 48 1 7 28 48 5 7 28 48 1 7 28 48 1 7 28 48 1 7 28 48 1 7 12 48 0 3 12 48 0 3 12 48 0 3 28 48 1 7 28 48 1 3 12 48 1 7 28 48 1 7 28 49 5 27 44 50 46 23 61 63 36 19 14 57 36 19 14 57 36 19 14 57 1 7 28 48 1 23 12 48 0 3 12 52 0 7 28 48 1 7 28 48 5 27 44 49 46 23 61 63 36 19 14 57 36 19 14 57 36 19 14 57 36 19 14 57 36 19 14 57 36 19 14 57 63 3 28 48 1 7 28 48 5 23 44 49 46 63 63 63 36 19 14 57 36 19 14 57 36 19 14 57 36 19 14 57 36 19 14 57 36 19 14 57 63 7 28 48 1 7 28 48 1 7 28 48 1 7 28 48 1 7 28 48 1 7 28 48 1 7 28 48 36 19 14 57 36 19 14 57 36 19 14 57 63 3 28 48 1 7 28 48 1 7 28 48 1 7 28 48 1 7 28 48 1 7 28 48 1 7 28 48 1 7 28 48 1 27 28 49 0 3 13 52 0 7 44 49 5 7 28 48 1 7 28 48 1 7 28 48 1 7 28 48 1 7 28 48 1 7 28 48 1 7 28 48 1 27 44 49 0 19 29 53 16 7 44 49 6 27 28 49 1 23 28 49 41 63 15 57 36 19 14 57 36 19 14 57 36 19 14 57 1 7 28 48 1 27 44 49 0 3 12 52 0 7 44 49 6 27 44 49 5 3 60 63 63 63 15 57 36 19 14 57 36 19 14 57 36 19 14 57 36 19 14 57 36 19 14 57 36 19 14 57 63 7 28 48 1 7 28 48 6 7 60 63 36 19 14 57 36 19 14 57 36 19 14 57 36 19 14 57 36 19 14 57 36 19 14 57 36 19 14 57 63 7 28 48 1 7 28 48 1 7 28 48 1 7 28 48 1 7 28 48 1 7 28 48 1 7 28 48 36 19 14 57 36 19 14 57 36 19 14 57 63 7 28 48 1 7 28 48 1 7 28 48 1 7 28 48 1 7 28 48 1 7 28 48 1 7 28 48 1 7 28 48 1 27 28 49 0 19 29 53 0 23 44 49 6 27 44 49 1 7 28 48 1 7 28 48 1 7 28 48 1 7 28 48 1 7 28 48 1 7 28 48 1 27 28 49 0 3 13 52 0 23 44 49 6 27 44 49 6 7 60 63 36 19 14 57 36 19 14 57 36 19 14 57 36 19 14 57 1 7 28 48 1 27 44 49 0 3 13 52 0 7 28 49 6 27 44 49 6 7 60 63 36 19 14 57 36 19 14 57 36 19 14 57 36 19 14 57 36 19 14 57 36 19 14 57 36 19 14 57 63 3 28 48 1 7 28 48 6 7 60 63 36 19 14 57 36 19 14 57 36 19 14 57 36 19 14 57 36 19 14 57 36 19 14 57 36 19 14 57 63 3 28 48 1 7 28 48 1 7 28 48 1 7 28 48 1 7 28 48 1 7 28 48 1 7 28 48 36 19 14 57 36 19 14 57 36 19 14 57 63 3 28 48 1 7 28 48 1 7 28 48 1 7 28 48 1 7 28 48 1 7 28 48 1 7 28 48 1 7 28 48 1 27 44 49 0 3 13 52 0 27 44 49 6 27 44 49 1 7 28 48 1 7 28 48 1 7 28 48 1 7 28 48 1 7 28 48 1 7 28 48 1 27 44 49 0 3 12 48 0 27 44 49 6 27 44 49 6 7 60 63 36 19 14 57 36 19 14 57 36 19 14 57 36 19 14 57 1 7 28 48 1 27 44 49 6 27 44 49 6 27 44 49 6 27 44 49 6 7 60 63 36 19 14 57 36 19 14 57 36 19 14 57 36 19 14 57 36 19 14 57 36 19 14 57 36 19 14 57 63 3 28 48 1 7 28 48 6 7 60 63 36 19 14 57 36 19 14 57 36 19 14 57 36 19 14 57 36 19 14 57 36 19 14 57 36 19 14 57 63 3 28 48 1 7 28 48 1 7 28 48 1 7 28 48 1 7 28 48 1 7 28 48 1 7 28 48 36 19 14 57 36 19 14 57 36 19 14 57 63 3 28 48 1 7 28 48 1 7 28 48 1 7 28 48 1 7 28 48 1 7 28 48 1 7 28 48 1 7 28 48 1 27 44 49 6 27 44 49 6 27 44 49 6 27 44 49 1 7 28 48 1 7 28 48 1 7 28 48 1 7 28 48 1 7 28 48 1 7 28 48 1 27 44 49 6 27 44 49 6 27 44 49 6 27 44 49 6 7 60 63 36 19 14 57 36 19 14 57 36 19 14 57 36 19 14 57 1 7 28 48 1 27 44 49 6 27 44 49 6 27 44 49 6 27 44 49 6 7 60 63 36 19 14 57 36 19 14 57 36 19 14 57 36 19 14 57 36 19 14 57 36 19 62 63 63 63 63 63 63 3 28 48 1 7 28 48 6 7 60 63 36 19 14 57 36 19 14 57 36 19 14 57 36 19 14 57 36 19 14 57 36 63 63 63 0 3 28 53 16 7 28 48 1 7 28 48 1 7 28 48 1 7 28 48 1 7 28 48 1 7 28 48 1 7 28 48 36 63 63 63 63 63 31 53 21 23 29 57 21 7 28 48 1 7 28 48 1 7 28 48 1 7 28 48 1 7 28 48 1 7 28 48 1 7 28 48 1 7 28 48 1 27 44 49 6 27 44 49 6 27 44 49 6 27 44 49 1 7 28 48 1 7 28 48 1 7 28 48 1 7 28 48 1 7 28 48 1 7 28 48 1 27 44 49 6 27 44 49 6 27 44 49 6 27 44 49 6 7 60 63 36 19 14 57 36 19 14 57 36 19 14 57 36 19 14 57 1 7 28 48 1 27 44 49 6 27 44 49 6 27 44 49 6 27 44 49 6 7 60 63 36 19 14 57 36 19 14 57 36 19 14 57 36 19 14 57 63 19 29 53 21 3 45 58 42 23 29 53 21 7 28 48 1 7 28 48 6 7 60 63 36 19 14 57 36 19 14 57 36 19 14 57 36 19 14 57 63 23 45 58 42 23 45 58 42 3 13 52 21 7 28 48 1 7 28 48 1 7 28 48 1 7 28 48 1 7 28 48 1 7 28 48 1 7 28 48 36 63 63 63 63 63 47 58 42 23 29 53 21 7 28 48 1 7 28 48 1 7 28 48 1 7 28 48 1 7 28 48 1 7 28 48 1 7 28 48 1 7 28 48 1 27 44 49 6 27 44 49 6 27 44 49 6 27 44 49 1 7 28 48 1 7 28 48 1 7 28 48 1 7 28 48 1 7 28 48 1 7 28 48 1 27 44 49 6 23 28 49 5 23 44 49 6 27 44 49 6 7 60 63 36 19 14 57 36 19 14 57 36 19 14 57 36 19 14 57 1 7 28 48 1 27 44 49 1 23 28 49 6 23 44 49 6 27 44 49 5 3 60 63 63 63 15 57 36 19 14 57 36 19 14 57 36 19 14 57 36 19 14 57 36 63 63 63 16 23 29 57 21 7 28 48 1 7 28 48 1 23 28 49 21 63 15 57 36 19 14 57 36 19 14 57 36 19 14 57 36 19 14 57 36 19 62 63 63 63 63 63 63 7 28 48 1 7 28 48 1 7 28 48 1 7 28 48 1 7 28 48 1 7 28 48 1 7 28 48 36 19 14 57 36 19 14 57 36 19 14 57 63 7 28 48 1 7 28 48 1 7 28 48 1 7 28 48 1 7 28 48 1 7 28 48 1 7 28 48 1 7 28 48 5 27 44 49 5 27 44 49 6 23 44 49 6 27 28 49 1 7 28 48 1 7 28 48 1 7 28 48 1 7 28 48 1 7 28 48 1 7 28 48 1 27 28 49 1 23 44 49 6 23 28 49 5 7 28 48 5 27 44 49 46 63 63 63 36 19 14 57 36 19 14 57 36 19 14 57 1 7 28 49 1 7 28 48 1 7 28 48 1 7 28 48 1 7 28 48 5 27 44 49 46 23 61 63 36 19 14 57 36 19 14 57 36 19 14 57 36 19 14 57 36 19 14 57 36 19 14 57 63 3 28 48 1 7 28 48 5 27 44 50 46 23 61 63 36 19 14 57 36 19 14 57 36 19 14 57 36 19 14 57 36 19 14 57 36 19 14 57 63 3 28 48 1 7 28 48 1 7 28 48 1 7 28 48 1 7 28 48 1 7 28 48 1 7 28 48 36 19 14 57 36 19 14 57 36 19 14 57 63 3 28 48 1 7 28 48 1 7 28 48 1 7 28 48 1 7 12 48 0 3 12 48 0 3 12 48 0 3 28 48 1 7 28 48 1 7 28 48 1 7 28 48 1 7 28 49 5 23 28 49 5 23 28 49 1 7 28 48 1 7 28 48 1 7 28 48 1 7 28 48 1 7 28 48 1 7 28 48 1 7 28 48 1 7 28 48 5 27 44 50 46 23 61 63 63 63 15 57 36 19 14 57 36 19 14 57 6 27 44 49 6 23 28 49 5 27 60 49 11 47 60 50 11 27 28 48 5 27 44 49 42 27 61 50 11 63 15 57 36 19 14 57 36 19 14 57 36 19 14 57 36 19 14 57 36 19 62 63 63 7 28 49 5 23 28 49 1 23 44 49 42 27 44 49 7 63 63 63 36 19 14 57 36 19 14 57 36 19 14 57 36 19 14 57 36 63 63 63 6 47 60 50 11 47 60 50 11 47 60 50 11 47 60 50 6 27 28 49 5 27 44 49 6 27 44 49 36 19 14 57 36 19 14 57 63 63 47 49 6 43 60 50 11 47 60 50 11 47 60 50 11 47 60 49 7 27 28 49 5 23 44 49 6 27 44 49 6 27 28 49 5 23 28 49 6 47 60 49 7 47 60 50 11 47 44 49 11 47 60 50 11 47 60 50 7 31 44 49 5 23 28 49 6 27 44 49 6 27 28 49 5 23 28 49 6 31 60 49 11 47 60 50 11 47 60 50 6 23 28 48 21 27 44 49 6 47 60 63 63 63 63 63 63 19 14 57 6 27 28 49 5 23 44 49 7 31 60 49 11 47 60 50 11 47 60 50 11 47 44 49 6 31 60 49 7 47 28 49 0 3 12 48 63 63 15 57 36 19 62 63 63 63 63 63 63 23 44 49 6 47 60 50 11 47 60 50 11 47 60 50 11 47 60 49 7 47 28 49 0 3 12 48 16 63 63 63 36 63 63 63 16 3 12 48 0 23 44 49 11 47 60 50 11 47 60 50 11 47 60 50 11 47 60 50 7 47 44 49 5 23 28 49 6 27 44 49 36 63 15 52 16 3 12 48 0 23 44 49 11 47 60 50 11 47 60 50 11 47 60 50 11 47 60 50 7 31 44 49 5 23 28 49 6 27 44 49 6 23 28 49 5 23 44 49 7 31 60 49 11 47 60 50 11 47 60 50 11 47 60 50 11 47 60 50 7 47 44 49 5 23 28 49 6 27 44 49 6 23 28 49 5 23 44 49 7 31 60 49 11 47 60 50 11 47 60 50 11 47 60 50 11 47 60 49 7 47 28 49 0 3 12 48 0 3 60 63 6 27 28 49 5 23 44 49 7 31 60 49 11 47 60 50 11 47 60 50 11 47 60 50 11 47 60 49 7 47 28 49 0 3 12 52 0 3 60 63 63 63 15 48 16 3 12 48 0 23 44 49 11 47 60 50 11 47 60 50 11 47 60 50 11 47 44 49 7 47 12 48 16 3 13 52 0 3 60 63 63 3 12 48 0 3 12 48 0 23 44 49 11 47 60 50 11 47 60 50 11 47 60 50 11 47 60 50 7 31 44 49 5 23 28 49 6 27 44 49 63 3 12 48 0 3 13 53 20 7 44 49 6 43 60 50 11 47 60 50 11 47 60 50 11 47 44 50 6 31 44 49 5 23 28 49 6 27 28 49 5 27 28 49 5 23 28 49 6 47 44 49 6 47 60 50 11 47 60 50 11 47 60 50 11 47 60 50 7 27 28 49 5 23 44 49 6 27 44 49 6 27 44 49 6 23 28 49 6 47 60 49 7 47 60 50 11 47 60 50 11 47 60 50 11 47 60 50 11 23 12 48 16 3 13 52 0 3 60 63 5 23 28 49 5 23 28 48 1 23 44 49 6 27 44 49 6 27 44 49 6 27 44 49 5 23 28 49 1 3 12 48 16 3 13 52 0 3 60 63 63 3 12 48 0 3 29 53 20 3 28 49 6 47 60 50 11 47 60 50 0 3 28 53 21 3 13 52 0 3 12 48 16 3 13 52 0 3 60 63 63 3 12 48 0 3 29 53 21 3 12 48 1 23 44 49 6 27 44 49 6 27 44 49 6 27 44 49 6 7 28 48 5 23 28 49 5 23 28 49 63 3 12 48 0 3 13 53 21 19 13 48 0 19 13 53 20 3 12 48 0 3 12 48 0 3 12 48 0 3 12 48 0 3 60 63 63 63 63 63 63 63 63 63 63 3 12 48 0 3 12 48 0 3 12 48 0 3 12 48 0 19 29 53 16 3 13 48 0 3 12 48 0 3 60 63 36 19 14 57 36 19 14 57 63 3 12 48 0 3 13 48 0 23 13 53 20 23 13 52 0 19 29 57 21 23 29 53 0 3 12 48 0 3 12 52 0 3 60 63 36 19 14 57 63 63 15 48 0 3 13 48 0 23 13 48 0 23 29 53 16 23 29 53 0 3 28 53 16 3 12 52 0 3 12 48 0 3 60 63 63 3 12 48 0 3 12 52 21 3 13 48 21 23 29 53 37 23 13 52 21 23 14 53 16 3 12 53 21 3 13 52 0 3 12 48 16 63 63 63 63 3 12 48 16 3 12 48 20 3 13 48 21 3 13 48 20 23 13 53 16 23 13 48 0 3 12 48 0 3 13 48 0 63 63 63 36 19 14 57 63 63 15 52 16 3 12 48 16 23 29 53 21 3 13 52 20 23 30 57 21 23 13 48 0 3 12 52 16 3 13 48 0 63 15 57 36 19 14 57 36 19 14 57 36 63 15 48 0 3 12 52 21 23 13 48 0 23 29 53 21 23 13 48 0 3 12 52 16 3 13 48 63 63 15 57 36 19 14 57 36 19 14 57 36 63 63 63 0 3 13 52 21 23 13 48 0 23 29 53 21 23 30 53 20 3 12 53 21 3 13 52 0 3 12 48 63 63 15 57 36 19 14 57 36 19 62 63 63 3 12 48 21 23 13 48 0 23 29 53 21 23 14 53 0 3 28 53 21 3 13 52 0 3 60 63 63 19 14 57 36 63 63 63 16 3 12 48 16 23 29 53 21 3 13 52 20 23 30 53 63 63 63 63 63 63 63 63 63 63 63 63 63 63 63 63 36 19 14 57 36 19 62 63 63 3 12 48 20 23 29 53 21 3 12 48 20 23 30 57 21 23 13 48 0 3 12 52 0 3 60 63 63 19 14 57 36 19 14 57 36 19 14 57 63 63 63 63 63 63 63 63 63 63 63 63 63 63 63 63 63 63 63 63 63 63 63 63 63 63 63 63 36 19 14 57 36 19 14 57 36 19 14 57 36 19 14 57 63 63 63 63 63 63 63 63 63 63 63 63 