P260 606336 19 14 57 36 19 14 57 36 19 14 57 36 19 14 57 36 19 14 57 36 19 14 57 36 19 14 57 36 19 14 57 36 19 14 57 36 19 14 57 36 19 14 57 36 19 14 57 36 19 14 57 36 19 14 57 36 19 14 57 36 19 14 57 36 19 14 57 36 19 14 57 36 19 14 57 36 19 14 57 36 19 14 57 36 19 14 57 36 19 14 57 36 19 14 57 36 19 14 57 36 19 14 57 36 19 14 57 36 19 14 57 36 19 14 57 36 19 14 57 36 19 14 57 36 19 14 57 36 19 14 57 36 19 14 57 36 19 14 57 36 19 14 57 36 19 14 57 36 19 14 57 36 19 14 57 36 19 14 57 36 19 14 57 36 19 14 57 36 19 14 57 36 19 14 57 36 19 14 57 36 19 14 57 36 19 14 57 36 19 14 57 36 19 14 57 36 19 14 57 36 19 14 57 36 19 14 57 36 19 14 57 36 19 14 57 36 19 14 57 36 19 14 57 36 19 14 57 36 19 14 57 36 19 14 57 36 19 14 57 36 19 14 57 36 19 14 57 36 19 14 57 36 19 14 57 36 19 14 57 36 19 14 57 36 19 14 57 36 19 14 57 36 19 14 57 36 19 14 57 36 19 14 57 36 19 14 57 36 19 14 57 36 19 14 57 36 19 14 57 6 27 44 49 6 23 28 49 5 23 12 57 36 19 14 57 36 19 14 57 36 19 14 57 36 19 14 57 36 19 14 57 36 19 14 57 36 19 14 57 36 19 14 57 36 19 14 57 36 19 14 57 36 19 14 57 36 19 14 57 36 19 14 57 36 19 14 57 36 19 14 57 36 19 14 57 36 19 14 57 36 19 14 57 36 19 14 57 36 19 14 57 36 19 14 57 36 19 14 57 36 19 14 57 36 19 14 57 36 19 14 57 36 19 14 57 6 27 44 50 36 19 14 57 36 19 14 57 36 19 14 57 36 19 14 57 36 19 14 57 36 19 14 57 36 19 14 57 36 19 14 57 36 19 46 50 15 47 60 51 31 47 60 50 11 47 60 50 11 47 44 50 6 23 12 57 36 19 14 57 36 19 14 57 36 19 14 57 36 19 14 57 36 19 46 50 11 47 60 50 11 47 60 50 7 31 60 49 7 31 60 49 11 47 44 50 36 19 14 57 36 19 14 57 36 19 14 57 36 19 14 57 36 19 14 57 36 19 14 57 11 47 60 50 7 31 60 49 7 47 60 49 7 31 60 50 10 19 14 57 36 19 14 57 36 19 14 57 36 19 14 57 36 19 14 57 36 19 14 57 36 19 14 57 36 19 14 57 36 19 14 57 36 19 14 57 36 19 14 57 36 19 14 57 36 19 14 57 36 19 14 57 36 19 14 57 36 19 14 57 36 19 14 57 36 19 14 57 36 19 14 57 36 19 14 57 36 19 14 57 36 19 14 57 36 19 14 57 36 19 14 57 36 19 46 50 11 47 60 50 36 19 14 57 36 19 14 57 36 19 14 57 36 19 14 57 36 19 14 57 36 19 14 57 36 19 14 57 36 19 14 57 36 19 46 50 11 47 60 50 11 47 60 50 7 47 60 49 6 27 44 49 6 47 60 49 11 43 12 57 36 19 14 57 36 19 14 57 36 19 14 57 36 19 46 50 11 47 60 50 11 47 60 50 7 27 44 49 26 43 45 54 22 27 60 49 7 47 28 49 36 19 14 57 36 19 14 57 36 19 14 57 36 19 14 57 36 19 14 57 11 47 60 50 6 27 61 59 47 47 61 59 47 43 46 49 7 47 44 49 36 19 14 57 36 19 14 57 36 19 14 57 36 19 14 57 36 19 14 57 36 19 62 63 63 19 14 57 63 63 15 57 36 19 14 57 36 19 14 57 36 19 14 57 36 19 14 57 36 19 14 57 36 19 14 57 36 19 14 57 36 63 31 53 42 63 63 63 21 43 62 63 63 63 63 63 36 19 14 57 36 19 14 57 36 19 14 57 36 19 14 57 36 19 46 50 6 43 60 50 63 23 29 53 21 43 30 57 21 23 45 58 42 43 62 63 63 7 28 48 1 7 12 48 20 23 29 53 21 23 29 53 20 19 62 50 5 23 60 51 11 47 44 49 6 63 62 54 7 27 60 49 10 47 46 58 6 47 44 50 20 3 13 48 37 23 30 57 37 23 30 57 37 23 45 50 5 23 60 51 11 47 44 49 42 47 46 49 7 31 60 49 7 47 60 59 22 27 60 50 5 19 14 57 36 19 14 57 36 19 14 57 36 19 14 57 36 19 14 57 11 47 44 49 47 47 61 49 7 31 60 49 7 31 44 53 6 27 60 50 5 19 14 57 36 19 14 57 36 19 14 57 36 19 14 57 36 19 14 57 63 23 29 57 0 19 13 52 37 3 13 52 21 23 29 53 20 19 13 53 5 19 14 57 36 19 14 57 36 19 14 57 36 19 14 57 36 19 14 57 63 3 29 57 0 3 13 48 37 3 13 48 16 3 13 52 16 3 13 52 16 3 12 52 42 43 46 58 42 43 46 58 42 23 45 50 5 23 60 51 63 23 29 53 16 23 29 53 37 3 29 53 21 23 29 53 21 23 29 53 21 23 13 53 42 43 46 58 42 43 46 58 62 23 45 50 5 23 60 51 11 47 44 50 47 27 60 49 7 31 60 49 7 31 44 49 11 27 44 50 21 23 13 52 42 43 46 58 42 43 46 58 58 23 45 50 5 23 60 51 11 47 44 50 47 47 60 49 7 31 60 49 7 31 44 49 10 27 44 50 5 19 14 57 36 19 14 57 36 19 14 57 36 19 14 57 36 19 14 57 11 47 44 49 47 47 61 49 7 31 60 49 7 31 60 54 6 27 60 50 5 19 14 57 36 19 14 57 36 19 14 57 36 19 14 57 36 19 14 57 63 23 29 57 16 23 29 53 37 3 29 53 21 23 29 53 21 23 29 53 5 19 14 57 36 19 14 57 36 19 14 57 36 19 14 57 36 19 14 57 63 3 29 57 0 3 13 48 37 3 13 48 16 3 13 52 16 3 13 52 16 3 13 52 42 43 46 58 42 43 46 58 42 23 45 50 5 23 60 51 63 19 29 57 0 3 13 52 37 3 13 52 20 3 13 52 16 3 13 52 16 3 13 48 37 23 30 57 37 23 30 57 37 23 45 50 5 23 60 51 11 47 44 49 26 47 46 49 7 31 60 49 6 47 61 59 22 31 60 50 1 23 12 48 16 19 13 53 20 23 13 53 20 19 62 50 5 23 60 51 11 47 60 50 6 63 62 59 11 27 60 50 27 63 46 54 6 47 44 50 36 19 14 57 36 19 14 57 36 19 14 57 36 19 14 57 36 19 14 57 11 47 60 50 6 27 60 58 47 63 62 59 47 43 45 49 7 47 44 49 36 19 14 57 36 19 14 57 36 19 14 57 36 19 14 57 36 19 14 57 63 23 30 53 21 63 63 63 21 23 45 58 58 43 63 63 63 23 28 48 36 19 14 57 36 19 14 57 36 19 14 57 36 19 14 57 36 19 14 57 36 63 31 53 42 63 63 63 21 43 62 63 63 63 63 63 36 19 14 57 36 19 14 57 36 19 14 57 36 19 14 57 36 19 46 50 6 43 60 50 36 19 62 63 63 19 14 57 63 63 15 57 36 19 14 57 36 19 14 57 36 19 14 57 36 19 14 57 36 19 14 57 36 19 46 50 11 47 60 50 11 47 60 49 7 27 44 49 22 27 45 53 6 27 60 49 7 47 28 49 36 19 14 57 36 19 14 57 36 19 14 57 36 19 46 50 11 47 60 50 11 47 60 49 7 31 60 49 6 27 44 49 7 47 60 49 11 27 12 57 36 19 14 57 36 19 14 57 36 19 14 57 36 19 14 57 36 19 14 57 11 47 60 50 7 31 60 49 7 31 60 49 7 31 60 50 10 19 14 57 36 19 14 57 36 19 14 57 36 19 14 57 36 19 14 57 36 19 14 57 36 19 14 57 36 19 14 57 36 19 14 57 36 19 14 57 36 19 14 57 36 19 14 57 36 19 14 57 36 19 14 57 36 19 14 57 36 19 14 57 36 19 14 57 36 19 14 57 36 19 14 57 36 19 14 57 36 19 14 57 36 19 14 57 36 19 14 57 36 19 14 57 36 19 46 50 11 47 60 50 36 19 14 57 36 19 14 57 36 19 14 57 36 19 14 57 36 19 14 57 36 19 14 57 36 19 14 57 36 19 14 57 36 19 46 50 11 47 60 50 11 47 60 50 7 31 60 49 7 31 60 50 11 47 44 49 36 19 14 57 36 19 14 57 36 19 14 57 36 19 14 57 36 19 46 50 15 47 60 51 31 47 60 50 11 47 60 50 11 47 44 50 6 23 12 57 36 19 14 57 36 19 14 57 36 19 14 57 36 19 14 57 36 19 14 57 36 19 14 57 5 23 28 49 5 23 28 49 5 7 12 57 36 19 14 57 36 19 14 57 36 19 14 57 36 19 14 57 36 19 14 57 36 19 14 57 36 19 14 57 36 19 14 57 36 19 14 57 36 19 14 57 36 19 14 57 36 19 14 57 36 19 14 57 36 19 14 57 36 19 14 57 36 19 14 57 36 19 14 57 36 19 14 57 36 19 14 57 36 19 14 57 36 19 14 57 36 19 14 57 36 19 14 57 36 19 14 57 36 19 14 57 36 19 14 57 5 23 28 49 36 19 14 57 36 19 14 57 36 19 14 57 36 19 14 57 36 19 14 57 36 19 14 57 36 19 14 57 36 19 14 57 36 19 14 57 36 19 14 57 36 19 14 57 36 19 14 57 36 19 14 57 36 19 14 57 36 19 14 57 36 19 14 57 36 19 14 57 36 19 14 57 36 19 14 57 36 19 14 57 36 19 14 57 36 19 14 57 36 19 14 57 36 19 14 57 36 19 14 57 36 19 14 57 36 19 14 57 36 19 14 57 36 19 14 57 36 19 14 57 36 19 14 57 36 19 14 57 36 19 14 57 36 19 14 57 36 19 14 57 36 19 14 57 36 19 14 57 36 19 14 57 36 19 14 57 36 19 14 57 36 19 14 57 36 19 14 57 36 19 14 57 36 19 14 57 36 19 14 57 36 19 14 57 36 19 14 57 36 19 14 57 36 19 14 57 36 19 14 57 36 19 14 57 36 19 14 57 36 19 14 57 36 19 14 57 36 19 14 57 36 19 14 57 36 19 14 57 36 19 14 57 36 19 14 57 36 19 14 57 36 19 14 57 36 19 14 57 36 19 14 57 36 19 14 57 36 19 14 57 36 19 14 57 36 19 14 57 36 19 14 57 36 19 14 57 36 19 14 57 36 19 14 57 36 19 14 57 36 19 14 57 36 19 14 57 36 19 14 57 36 19 14 57 36 19 14 57 36 19 14 57 36 19 14 57 36 19 14 57 36 19 14 57 36 19 14 57 36 19 14 57 36 19 14 57 36 19 14 57 36 19 14 57 36 19 14 57 36 19 14 57 36 19 14 57 36 19 14 57 36 19 14 57 36 19 14 57 36 19 14 57 36 19 14 57 36 19 14 57 36 19 14 57 36 19 14 57 36 19 14 57 36 19 14 57 36 19 14 57 36 19 14 57 36 19 14 57 36 19 14 57 36 19 14 57 36 19 14 57 36 19 14 57 36 19 14 57 36 19 14 57 36 19 14 57 36 19 14 57 36 19 14 57 36 19 14 57 36 19 14 57 36 19 14 57 36 19 14 57 36 19 14 57 36 19 14 57 36 19 14 57 36 19 14 57 36 19 14 57 36 19 14 57 36 19 14 57 36 19 14 57 36 19 14 57 36 19 14 57 36 19 14 57 36 19 14 57 36 19 14 57 36 19 14 57 36 19 14 57 36 19 14 57 36 19 14 57 36 19 14 57 36 19 14 57 36 19 14 57 36 19 14 57 36 19 14 57 36 19 14 57 36 19 14 57 36 19 14 57 36 19 14 57 36 19 14 57 36 19 14 57 36 19 14 57 36 19 14 57 36 19 14 57 36 19 14 57 36 19 14 57 36 19 14 57 36 19 14 57 36 19 14 57 36 19 14 57 36 19 14 57 36 19 14 57 36 19 14 57 36 19 14 57 36 19 14 57 36 19 14 57 36 19 14 57 36 19 14 57 36 19 14 57 36 19 14 57 36 19 14 57 36 19 14 57 36 19 14 57 36 19 14 57 36 19 14 57 36 19 14 57 36 19 14 57 36 19 14 57 36 19 14 57 36 19 14 57 36 19 14 57 36 19 14 57 36 19 14 57 36 19 14 57 36 19 14 57 36 19 14 57 36 19 14 57 36 19 14 57 36 19 14 57 36 19 14 57 36 19 14 57 36 19 14 57 36 19 14 57 36 19 14 57 36 19 14 57 36 19 14 57 36 19 14 57 36 19 14 57 36 19 14 57 36 19 14 57 36 19 14 57 36 19 14 57 36 19 14 57 36 19 14 57 36 19 14 57 36 19 14 57 36 19 14 57 36 19 14 57 36 19 14 57 36 19 14 57 36 19 14 57 36 19 14 57 36 19 14 57 36 19 14 57 36 19 14 57 36 19 14 57 36 19 14 57 36 19 14 57 36 19 14 57 36 19 14 57 36 19 14 57 36 19 14 57 36 19 14 57 36 19 14 57 36 19 14 57 36 19 14 57 36 19 14 57 36 19 14 57 36 19 14 57 36 19 14 57 36 19 14 57 36 19 14 57 36 19 14 57 36 19 14 57 36 19 14 57 36 19 14 57 36 19 14 57 36 19 14 57 36 19 14 57 36 19 14 57 36 19 14 57 36 19 14 57 36 19 14 57 36 19 14 57 36 19 14 57 36 19 14 57 36 19 14 57 36 19 14 57 36 19 14 57 36 19 14 57 36 19 14 57 36 19 14 57 36 19 14 57 36 19 14 57 36 19 14 57 36 19 14 57 36 19 14 57 36 19 14 57 36 19 14 57 36 19 14 57 36 19 14 57 36 19 14 57 36 19 14 57 36 19 14 57 36 19 14 57 36 19 14 57 36 19 14 57 36 19 14 57 36 19 14 57 36 19 14 57 36 19 14 57 36 19 14 57 36 19 14 57 36 19 14 57 36 19 14 57 36 19 14 57 36 19 14 57 36 19 14 57 36 19 14 57 36 19 14 57 36 19 14 57 36 19 14 57 36 19 14 57 36 19 14 57 36 19 14 57 36 19 14 57 36 19 14 57 36 19 14 57 36 19 14 57 36 19 14 57 36 19 14 57 36 19 14 57 36 19 14 57 36 19 14 57 36 19 14 57 36 19 14 57 36 19 14 57 36 19 14 57 36 19 14 57 36 19 14 57 36 19 14 57 36 19 14 57 36 19 14 57 36 19 14 57 36 19 14 57 36 19 14 57 36 19 14 57 36 19 14 57 36 19 14 57 36 19 14 57 36 19 14 57 36 19 14 57 36 19 14 57 36 19 14 57 36 19 14 57 36 19 14 57 36 19 14 57 36 19 14 57 36 19 14 57 36 19 14 57 36 19 14 57 36 19 14 57 36 19 14 57 36 19 14 57 36 19 14 57 36 19 14 57 36 19 14 57 36 19 14 57 36 19 14 57 36 19 14 57 36 19 14 57 36 19 14 57 36 19 14 57 36 19 14 57 36 19 14 57 36 19 14 57 36 19 14 57 36 19 14 57 36 19 14 57 36 19 14 57 36 19 14 57 36 19 14 57 36 19 14 57 36 19 14 57 36 19 14 57 36 19 14 57 36 19 14 57 36 19 14 57 36 19 14 57 36 19 14 57 36 19 14 57 36 19 14 57 36 19 14 57 36 19 14 57 36 19 14 57 36 19 14 57 36 19 14 57 36 19 14 57 36 19 14 57 36 19 14 57 36 19 14 57 36 19 14 57 36 19 14 57 36 19 14 57 36 19 14 57 36 19 14 57 36 19 14 57 36 19 14 57 36 19 14 57 36 19 14 57 36 19 14 57 36 19 14 57 36 19 14 57 36 19 14 57 36 19 14 57 36 19 14 57 36 19 14 57 36 19 14 57 36 19 14 57 36 19 14 57 36 19 14 57 36 19 14 57 36 19 14 57 