P260 606336 19 14 57 36 19 14 57 36 19 14 57 36 19 14 57 36 19 14 57 36 19 14 57 36 19 14 57 36 19 14 57 36 19 14 57 36 19 14 57 36 19 14 57 36 19 14 57 36 19 14 57 36 19 14 57 36 19 14 57 36 19 14 57 36 19 14 57 36 19 14 57 36 19 14 57 36 19 14 57 36 19 14 57 36 19 14 57 36 19 14 57 36 19 14 57 36 19 14 57 36 19 14 57 36 19 14 57 36 19 14 57 36 19 14 57 36 19 14 57 36 19 14 57 36 19 14 57 36 19 14 57 36 19 14 57 36 19 14 57 36 19 14 57 36 19 14 57 36 19 14 57 36 19 14 57 36 19 14 57 36 19 14 57 36 19 14 57 36 19 14 57 36 19 14 57 36 19 14 57 36 19 14 57 36 19 14 57 36 19 14 57 36 19 14 57 36 19 14 57 36 19 14 57 36 19 14 57 36 19 14 57 36 19 14 57 36 19 14 57 36 19 14 57 36 19 14 57 36 19 14 57 36 19 14 57 36 19 14 57 36 19 14 57 36 19 14 57 36 19 14 57 36 19 14 57 36 19 14 57 36 19 14 57 36 19 14 57 36 19 14 57 36 19 14 57 36 19 14 57 36 19 14 57 36 19 14 57 36 19 14 57 36 19 14 57 36 19 14 57 5 23 28 49 36 19 14 57 36 19 14 57 36 19 14 57 36 19 14 57 36 19 14 57 36 19 14 57 36 19 14 57 36 19 14 57 36 19 14 57 36 19 14 57 36 19 14 57 36 19 14 57 36 19 14 57 36 19 14 57 36 19 14 57 36 19 14 57 36 19 14 57 36 19 14 57 36 19 14 57 36 19 14 57 36 19 14 57 36 19 14 57 36 19 14 57 36 19 14 57 36 19 14 57 36 19 14 57 36 7 28 49 5 23 28 49 5 23 28 49 36 19 14 57 36 19 14 57 36 19 14 57 36 19 14 57 36 19 14 57 36 19 14 57 36 23 44 49 10 47 60 50 11 47 60 50 11 47 60 55 15 47 60 51 10 19 14 57 36 19 14 57 36 19 14 57 36 19 14 57 36 19 14 57 6 47 60 50 11 31 60 49 7 31 60 49 11 47 60 50 11 47 60 50 10 19 14 57 36 19 14 57 36 19 14 57 36 19 14 57 36 19 14 57 36 19 14 57 36 19 14 57 36 19 14 57 36 19 14 57 11 47 60 50 10 19 14 57 36 19 14 57 36 19 14 57 36 19 14 57 36 19 14 57 36 19 14 57 36 19 14 57 36 19 14 57 36 19 14 57 36 19 14 57 36 19 14 57 36 19 14 57 36 19 14 57 36 19 14 57 36 19 14 57 36 19 14 57 36 19 14 57 36 19 14 57 36 19 14 57 36 19 14 57 36 19 14 57 36 19 14 57 36 19 14 57 36 19 14 57 36 19 46 50 11 31 60 49 7 31 60 49 7 31 60 49 11 47 60 50 36 19 14 57 36 19 14 57 36 19 14 57 36 19 14 57 36 19 14 57 36 27 60 50 7 47 60 49 6 27 44 49 7 31 60 49 7 47 60 50 11 47 60 50 10 19 14 57 36 19 14 57 36 19 14 57 36 19 14 57 5 47 60 49 7 27 44 49 22 27 45 53 6 27 60 49 7 47 60 50 11 47 60 50 10 19 14 57 36 19 14 57 36 19 14 57 36 19 14 57 36 19 14 57 36 19 14 57 36 63 63 63 36 19 62 63 63 19 14 57 11 43 44 49 10 19 14 57 36 19 14 57 36 19 14 57 36 19 14 57 36 19 14 57 63 63 63 63 63 43 30 53 63 63 47 58 21 63 15 57 36 19 14 57 36 19 14 57 36 19 14 57 36 19 14 57 36 19 14 57 1 23 60 63 63 43 47 62 42 23 29 53 63 63 31 53 21 23 62 63 36 19 14 57 36 19 14 57 36 19 14 57 36 19 14 57 36 19 14 57 6 47 60 49 6 43 61 59 47 63 62 59 43 27 44 49 11 47 60 50 36 19 14 57 36 19 14 57 36 19 14 57 36 19 14 57 36 19 14 57 10 47 44 49 26 63 62 54 11 27 60 50 47 63 46 49 11 47 60 50 15 23 28 49 11 19 14 53 20 23 13 53 20 19 13 52 0 23 28 48 11 31 44 53 47 47 45 49 7 31 60 49 6 47 46 54 6 47 60 50 15 23 28 49 10 23 29 57 37 23 30 57 37 23 30 57 0 3 13 52 16 3 13 52 16 3 13 53 16 3 29 57 16 3 13 48 37 19 61 63 15 23 28 49 10 23 45 58 42 43 46 58 42 43 46 58 16 3 13 52 16 3 13 52 16 3 13 52 0 3 29 57 0 3 13 48 37 3 61 63 36 19 14 57 36 19 14 57 36 19 14 57 36 19 14 57 36 19 30 49 21 23 29 53 21 23 29 53 21 3 29 57 21 23 13 52 37 23 61 63 36 19 14 57 36 19 14 57 36 19 14 57 36 19 14 57 36 19 30 49 11 27 44 49 27 31 60 49 7 31 60 49 7 47 61 59 6 47 60 50 36 19 14 57 36 19 14 57 36 19 14 57 36 19 14 57 36 19 30 49 10 27 44 50 6 31 60 49 7 31 60 49 7 47 60 59 10 47 60 50 15 23 28 49 10 23 45 62 42 43 46 58 42 43 46 58 16 23 29 53 10 27 60 50 6 31 60 49 7 31 60 49 7 27 60 59 10 47 60 50 15 23 28 49 10 23 45 63 42 43 46 58 42 43 46 58 20 23 29 53 21 23 29 53 21 23 29 53 21 3 29 57 21 23 13 52 21 23 61 63 15 23 28 49 10 23 45 58 42 43 46 58 42 43 46 58 16 3 12 52 16 3 13 52 16 3 13 52 0 3 29 57 0 3 13 48 37 3 61 63 36 19 14 57 36 19 14 57 36 19 14 57 36 19 14 57 36 19 30 49 20 19 13 53 21 23 29 53 16 3 29 57 16 19 13 48 37 23 61 63 36 19 14 57 36 19 14 57 36 19 14 57 36 19 14 57 36 19 30 49 11 27 44 49 22 31 60 49 7 31 60 49 7 47 61 59 6 47 60 50 36 19 14 57 36 19 14 57 36 19 14 57 36 19 14 57 36 19 30 49 11 27 44 53 47 47 60 49 7 31 60 49 6 47 46 58 6 47 60 50 15 23 28 49 10 23 29 57 37 23 30 57 37 23 30 57 0 3 13 53 10 47 44 49 42 47 46 50 7 27 60 49 27 63 46 49 6 47 60 50 15 23 28 49 11 19 14 53 21 23 29 53 21 23 13 53 0 7 28 48 1 7 60 63 63 43 46 58 42 23 29 53 37 43 30 53 21 23 61 63 11 43 44 49 10 19 14 57 36 19 14 57 36 19 14 57 36 19 14 57 36 19 14 57 63 63 63 63 63 43 30 53 63 63 47 58 21 63 15 57 36 19 14 57 36 19 14 57 36 19 14 57 36 19 14 57 36 19 14 57 36 19 14 57 36 19 14 57 36 63 63 63 36 19 62 63 63 19 14 57 36 19 14 57 36 19 14 57 36 19 14 57 36 19 14 57 36 19 14 57 6 47 60 49 6 43 62 59 47 47 61 59 47 27 45 49 11 47 60 50 36 19 14 57 36 19 14 57 36 19 14 57 36 19 14 57 36 19 14 57 5 47 60 49 7 27 44 53 26 43 45 54 6 27 60 49 11 47 60 50 11 47 60 50 10 19 14 57 36 19 14 57 36 19 14 57 36 19 14 57 36 43 60 50 7 47 44 49 6 27 44 49 7 47 60 49 11 47 60 50 11 47 60 50 10 19 14 57 36 19 14 57 36 19 14 57 36 19 14 57 36 19 14 57 36 19 14 57 36 19 14 57 36 19 14 57 36 19 14 57 11 47 60 50 10 19 14 57 36 19 14 57 36 19 14 57 36 19 14 57 36 19 14 57 36 19 14 57 36 19 14 57 36 19 14 57 36 19 14 57 36 19 14 57 36 19 14 57 36 19 14 57 36 19 14 57 36 19 14 57 36 19 14 57 36 19 14 57 36 19 14 57 36 19 14 57 36 19 14 57 36 19 14 57 36 19 14 57 36 19 14 57 36 19 14 57 36 19 14 57 36 19 46 50 11 31 60 49 7 47 60 49 7 31 60 49 11 47 60 50 36 19 14 57 36 19 14 57 36 19 14 57 36 19 14 57 36 19 14 57 36 19 14 57 10 47 60 50 7 31 60 49 7 31 60 49 11 47 60 50 11 47 60 50 10 19 14 57 36 19 14 57 36 19 14 57 36 19 14 57 36 19 14 57 36 23 44 49 10 47 60 50 11 47 60 50 11 47 60 55 15 47 60 51 10 19 14 57 36 19 14 57 36 19 14 57 36 19 14 57 36 19 14 57 36 19 14 57 36 19 14 57 36 19 14 57 36 19 14 57 10 27 44 49 36 19 14 57 36 19 14 57 36 19 14 57 36 19 14 57 36 19 14 57 36 19 14 57 36 19 14 57 36 19 14 57 36 19 14 57 36 19 14 57 36 19 14 57 36 19 14 57 36 19 14 57 36 19 14 57 36 19 14 57 36 19 14 57 36 19 14 57 36 19 14 57 36 19 14 57 36 19 14 57 36 19 14 57 36 19 14 57 36 19 14 57 36 19 14 57 36 19 14 57 36 19 14 57 36 23 28 49 5 23 44 49 6 27 44 49 36 19 14 57 36 19 14 57 36 19 14 57 36 19 14 57 36 19 14 57 36 19 14 57 36 19 14 57 36 19 14 57 36 19 14 57 36 19 14 57 36 19 14 57 36 19 14 57 36 19 14 57 36 19 14 57 36 19 14 57 36 19 14 57 36 19 14 57 36 19 14 57 36 19 14 57 36 19 14 57 36 19 14 57 36 19 14 57 36 19 14 57 36 19 14 57 36 19 14 57 36 19 14 57 36 19 14 57 36 19 14 57 36 19 14 57 36 19 14 57 36 19 14 57 36 19 14 57 36 19 14 57 36 19 14 57 36 19 14 57 36 19 14 57 36 19 14 57 36 19 14 57 36 19 14 57 36 19 14 57 36 19 14 57 36 19 14 57 36 19 14 57 36 19 14 57 36 19 14 57 36 19 14 57 36 19 14 57 36 19 14 57 36 19 14 57 36 19 14 57 36 19 14 57 36 19 14 57 36 19 14 57 36 19 14 57 36 19 14 57 36 19 14 57 36 19 14 57 36 19 14 57 36 19 14 57 36 19 14 57 36 19 14 57 36 19 14 57 36 19 14 57 36 19 14 57 36 19 14 57 36 19 14 57 36 19 14 57 36 19 14 57 36 19 14 57 36 19 14 57 36 19 14 57 36 19 14 57 36 19 14 57 36 19 14 57 36 19 14 57 36 19 14 57 36 19 14 57 36 19 14 57 36 19 14 57 36 19 14 57 36 19 14 57 36 19 14 57 36 19 14 57 36 19 14 57 36 19 14 57 36 19 14 57 36 19 14 57 36 19 14 57 36 19 14 57 36 19 14 57 36 19 14 57 36 19 14 57 36 19 14 57 36 19 14 57 36 19 14 57 36 19 14 57 36 19 14 57 36 19 14 57 36 19 14 57 36 19 14 57 36 19 14 57 36 19 14 57 36 19 14 57 36 19 14 57 36 19 14 57 36 19 14 57 36 19 14 57 36 19 14 57 36 19 14 57 36 19 14 57 36 19 14 57 36 19 14 57 36 19 14 57 36 19 14 57 36 19 14 57 36 19 14 57 36 19 14 57 36 19 14 57 36 19 14 57 36 19 14 57 36 19 14 57 36 19 14 57 36 19 14 57 36 19 14 57 36 19 14 57 36 19 14 57 36 19 14 57 36 19 14 57 36 19 14 57 36 19 14 57 36 19 14 57 36 19 14 57 36 19 14 57 36 19 14 57 36 19 14 57 36 19 14 57 36 19 14 57 36 19 14 57 36 19 14 57 36 19 14 57 36 19 14 57 36 19 14 57 36 19 14 57 36 19 14 57 36 19 14 57 36 19 14 57 36 19 14 57 36 19 14 57 36 19 14 57 36 19 14 57 36 19 14 57 36 19 14 57 36 19 14 57 36 19 14 57 36 19 14 57 36 19 14 57 36 19 14 57 36 19 14 57 36 19 14 57 36 19 14 57 36 19 14 57 36 19 14 57 36 19 14 57 36 19 14 57 36 19 14 57 36 19 14 57 36 19 14 57 36 19 14 57 36 19 14 57 36 19 14 57 36 19 14 57 36 19 14 57 36 19 14 57 36 19 14 57 36 19 14 57 36 19 14 57 36 19 14 57 36 19 14 57 36 19 14 57 36 19 14 57 36 19 14 57 36 19 14 57 36 19 14 57 36 19 14 57 36 19 14 57 36 19 14 57 36 19 14 57 36 19 14 57 36 19 14 57 36 19 14 57 36 19 14 57 36 19 14 57 36 19 14 57 36 19 14 57 36 19 14 57 36 19 14 57 36 19 14 57 36 19 14 57 36 19 14 57 36 19 14 57 36 19 14 57 36 19 14 57 36 19 14 57 36 19 14 57 36 19 14 57 36 19 14 57 36 19 14 57 36 19 14 57 36 19 14 57 36 19 14 57 36 19 14 57 36 19 14 57 36 19 14 57 36 19 14 57 36 19 14 57 36 19 14 57 36 19 14 57 36 19 14 57 36 19 14 57 36 19 14 57 36 19 14 57 36 19 14 57 36 19 14 57 36 19 14 57 36 19 14 57 36 19 14 57 36 19 14 57 36 19 14 57 36 19 14 57 36 19 14 57 36 19 14 57 36 19 14 57 36 19 14 57 36 19 14 57 36 19 14 57 36 19 14 57 36 19 14 57 36 19 14 57 36 19 14 57 36 19 14 57 36 19 14 57 36 19 14 57 36 19 14 57 36 19 14 57 36 19 14 57 36 19 14 57 36 19 14 57 36 19 14 57 36 19 14 57 36 19 14 57 36 19 14 57 36 19 14 57 36 19 14 57 36 19 14 57 36 19 14 57 36 19 14 57 36 19 14 57 36 19 14 57 36 19 14 57 36 19 14 57 36 19 14 57 36 19 14 57 36 19 14 57 36 19 14 57 36 19 14 57 36 19 14 57 36 19 14 57 36 19 14 57 36 19 14 57 36 19 14 57 36 19 14 57 36 19 14 57 36 19 14 57 36 19 14 57 36 19 14 57 36 19 14 57 36 19 14 57 36 19 14 57 36 19 14 57 36 19 14 57 36 19 14 57 36 19 14 57 36 19 14 57 36 19 14 57 36 19 14 57 36 19 14 57 36 19 14 57 36 19 14 57 36 19 14 57 36 19 14 57 36 19 14 57 36 19 14 57 36 19 14 57 36 19 14 57 36 19 14 57 36 19 14 57 36 19 14 57 36 19 14 57 36 19 14 57 36 19 14 57 36 19 14 57 36 19 14 57 36 19 14 57 36 19 14 57 36 19 14 57 36 19 14 57 36 19 14 57 36 19 14 57 36 19 14 57 36 19 14 57 36 19 14 57 36 19 14 57 36 19 14 57 36 19 14 57 36 19 14 57 36 19 14 57 36 19 14 57 36 19 14 57 36 19 14 57 36 19 14 57 36 19 14 57 36 19 14 57 36 19 14 57 36 19 14 57 36 19 14 57 36 19 14 57 36 19 14 57 36 19 14 57 36 19 14 57 36 19 14 57 36 19 14 57 36 19 14 57 36 19 14 57 36 19 14 57 36 19 14 57 36 19 14 57 36 19 14 57 36 19 14 57 36 19 14 57 36 19 14 57 36 19 14 57 36 19 14 57 36 19 14 57 36 19 14 57 36 19 14 57 36 19 14 57 36 19 14 57 36 19 14 57 36 19 14 57 36 19 14 57 36 19 14 57 36 19 14 57 36 19 14 57 36 19 14 57 36 19 14 57 36 19 14 57 36 19 14 57 36 19 14 57 36 19 14 57 36 19 14 57 36 19 14 57 36 19 14 57 36 19 14 57 36 19 14 57 36 19 14 57 36 19 14 57 36 19 14 57 36 19 14 57 36 19 14 57 36 19 14 57 36 19 14 57 36 19 14 57 36 19 14 57 36 19 14 57 36 19 14 57 