P260 60636 47 60 50 11 47 60 49 7 47 44 49 5 23 28 49 5 27 44 49 6 27 44 49 6 23 28 49 5 27 60 49 7 47 60 50 11 47 60 50 11 47 60 50 11 43 44 49 6 63 63 63 36 19 14 57 36 19 14 57 6 27 44 49 6 27 28 49 5 27 44 49 11 47 60 50 11 47 60 50 11 47 60 50 11 47 44 49 63 63 15 57 36 19 14 57 36 19 14 57 36 19 14 57 36 19 14 57 63 63 63 49 6 27 44 58 6 23 28 48 5 23 28 49 5 7 60 63 63 19 14 57 36 19 14 57 36 19 14 57 36 19 14 57 36 19 14 57 36 63 63 50 11 27 45 58 6 27 28 49 1 27 60 50 11 47 60 50 7 27 28 49 5 23 44 49 6 27 44 49 36 19 14 57 36 19 14 57 36 63 63 63 63 23 45 59 10 27 28 49 1 7 28 48 1 7 28 48 1 7 28 48 1 7 28 48 1 7 28 48 1 7 28 48 1 7 28 48 1 7 28 48 5 23 28 49 5 23 28 49 5 7 28 48 1 7 28 48 1 7 28 48 1 7 28 48 1 3 12 48 0 3 12 48 0 3 12 48 0 7 28 48 1 7 28 48 1 7 28 48 1 7 28 48 1 3 60 63 36 19 14 57 36 19 14 57 36 19 14 57 1 7 28 48 1 7 28 48 1 7 28 48 1 7 28 48 1 7 28 48 1 7 28 48 1 3 60 63 36 19 14 57 36 19 14 57 36 19 14 57 36 19 14 57 36 19 14 57 36 19 14 57 63 23 45 59 10 27 28 49 1 7 28 48 1 3 60 63 36 19 14 57 36 19 14 57 36 19 14 57 36 19 14 57 36 19 14 57 36 19 14 57 63 23 45 59 6 27 28 49 1 7 28 48 1 7 28 48 1 7 28 48 1 7 28 48 5 7 28 48 36 19 14 57 36 19 14 57 36 19 14 57 63 63 47 59 6 27 28 49 1 7 28 49 5 23 44 49 6 23 28 48 5 27 28 48 1 7 28 48 1 7 28 48 1 7 28 48 1 7 28 48 1 7 28 48 1 7 28 48 5 27 44 49 6 23 44 49 6 27 28 49 6 27 28 49 1 7 28 48 1 7 28 48 1 7 28 48 1 7 28 48 1 7 28 48 1 7 28 48 1 7 28 48 1 7 60 63 36 19 14 57 36 19 14 57 36 19 14 57 1 7 28 48 1 7 28 48 1 7 28 48 1 7 28 48 1 7 28 48 1 7 28 48 1 7 60 63 63 63 63 63 63 19 14 57 36 19 14 57 36 19 14 57 36 19 14 57 36 19 14 57 36 63 31 53 5 23 28 48 1 7 28 48 1 7 28 53 37 23 13 52 63 63 15 57 36 19 14 57 36 19 14 57 36 19 14 57 36 19 14 57 36 63 63 63 63 3 28 49 6 27 44 49 6 23 44 49 5 23 28 48 6 27 28 48 1 7 28 48 36 19 14 57 36 19 14 57 36 19 14 57 36 19 14 57 63 7 44 49 6 27 44 49 6 23 28 49 5 23 44 49 6 27 28 48 1 7 28 48 1 7 28 48 1 7 28 48 1 7 28 48 1 7 28 48 1 7 28 48 6 27 44 49 6 27 44 49 6 27 44 49 6 27 28 48 1 7 28 48 1 7 28 48 1 7 28 48 1 7 28 48 1 7 28 48 1 7 28 48 1 7 28 48 1 7 28 53 21 23 45 58 42 63 63 63 63 63 15 57 1 7 28 48 1 7 28 48 1 7 28 48 1 7 28 48 1 7 28 48 1 7 28 48 1 7 28 53 16 3 45 58 42 23 45 58 42 23 61 63 36 19 14 57 36 19 14 57 36 19 14 57 36 19 14 57 63 7 44 49 1 7 28 48 1 7 28 53 21 23 45 58 42 3 29 53 21 19 61 63 36 19 14 57 36 19 14 57 36 19 14 57 36 19 14 57 63 7 44 49 6 27 44 49 6 27 44 49 6 27 44 49 6 27 28 48 1 7 28 48 36 19 14 57 36 19 14 57 36 19 14 57 36 19 14 57 63 7 44 49 6 27 44 49 6 27 44 49 6 27 44 49 6 27 28 48 1 7 28 48 1 7 28 48 1 7 28 48 1 7 28 48 1 7 28 48 1 7 28 48 6 27 44 49 6 27 44 49 6 27 44 49 6 27 28 48 1 7 28 48 1 7 28 48 1 7 28 48 1 7 28 48 1 7 28 48 1 7 28 48 1 7 28 48 1 7 28 53 37 23 29 53 21 63 63 63 63 63 15 57 1 7 28 48 1 7 28 48 1 7 28 48 1 7 28 48 1 7 28 48 1 7 28 48 1 7 12 52 21 3 12 48 63 63 15 57 36 19 14 57 36 19 14 57 36 19 14 57 36 19 14 57 36 19 14 57 63 7 44 49 1 7 28 48 1 3 60 63 63 63 63 63 63 19 14 57 36 19 14 57 36 19 14 57 36 19 14 57 36 19 14 57 36 19 14 57 63 7 44 49 6 27 44 49 6 27 44 49 6 27 44 49 6 27 28 48 1 7 28 48 36 19 14 57 36 19 14 57 36 19 14 57 36 19 14 57 63 7 44 49 6 27 44 49 6 27 44 49 6 27 44 49 6 27 28 48 1 7 28 48 1 7 28 48 1 7 28 48 1 7 28 48 1 7 28 48 1 7 28 48 6 27 44 49 6 27 44 49 6 27 44 49 6 27 28 48 1 7 28 48 1 7 28 48 1 7 28 48 1 7 28 48 1 7 28 48 1 7 28 48 1 7 28 48 1 3 60 63 36 19 14 57 36 19 14 57 36 19 14 57 1 7 28 48 1 7 28 48 1 7 28 48 1 7 28 48 1 7 28 48 1 7 28 48 1 3 60 63 36 19 14 57 36 19 14 57 36 19 14 57 36 19 14 57 36 19 14 57 36 19 14 57 36 19 14 57 63 7 44 49 1 7 28 48 1 3 60 63 36 19 14 57 36 19 14 57 36 19 14 57 36 19 14 57 36 19 14 57 36 19 14 57 36 19 14 57 63 7 44 49 6 27 44 49 6 27 44 49 6 27 44 49 6 27 28 48 1 7 28 48 36 19 14 57 36 19 14 57 36 19 14 57 36 19 14 57 63 7 44 49 6 27 44 49 6 27 12 48 0 3 12 48 6 27 28 48 1 7 28 48 1 7 28 48 1 7 28 48 1 7 28 48 1 7 28 48 1 7 28 48 6 27 44 49 6 27 12 48 16 3 13 48 6 27 28 48 1 7 28 48 1 7 28 48 1 7 28 48 1 7 28 48 1 7 28 48 1 7 28 48 1 7 28 48 1 3 60 63 36 19 14 57 36 19 14 57 36 19 14 57 1 7 28 48 1 7 28 48 1 7 28 48 1 7 28 48 1 7 28 48 1 7 28 48 1 3 60 63 36 19 14 57 36 19 14 57 36 19 14 57 36 19 14 57 36 19 14 57 36 19 14 57 36 19 14 57 63 7 44 49 1 7 28 48 1 3 60 63 36 19 14 57 36 19 14 57 36 19 14 57 36 19 14 57 36 19 14 57 36 19 14 57 36 19 14 57 63 7 44 49 6 27 44 49 5 7 12 48 16 3 13 48 6 27 28 48 1 7 28 48 36 19 14 57 36 19 14 57 36 19 14 57 36 19 14 57 63 7 44 49 6 27 44 49 6 23 12 48 16 3 13 48 5 27 28 48 1 7 28 48 1 7 28 48 1 7 28 48 1 7 28 48 1 7 28 48 1 7 28 48 6 27 44 49 6 23 12 48 21 19 13 48 5 27 28 48 1 7 28 48 1 7 28 48 1 7 28 48 1 7 28 48 1 7 28 48 1 7 28 48 1 7 28 48 1 7 60 63 36 19 14 57 36 19 14 57 36 19 14 57 1 7 28 48 1 7 28 48 1 7 28 48 1 7 28 48 1 7 28 48 1 7 28 48 1 7 60 63 36 19 14 57 36 19 14 57 36 19 14 57 36 19 14 57 36 19 14 57 36 19 14 57 36 19 14 57 63 7 44 49 1 7 28 48 1 7 60 63 36 19 14 57 36 19 14 57 36 19 14 57 36 19 14 57 36 19 14 57 36 19 14 57 36 63 63 63 63 3 28 49 6 27 44 49 6 7 12 48 16 3 12 48 6 27 28 48 1 7 28 48 36 19 14 57 36 19 14 57 36 19 14 57 36 63 31 58 5 23 28 48 5 27 44 49 6 7 12 52 21 19 13 48 6 27 28 48 1 7 28 48 1 7 28 48 1 7 28 48 1 7 28 48 1 7 28 48 1 7 28 48 1 7 28 49 6 7 12 48 16 3 13 48 5 27 28 48 1 7 28 48 1 7 28 48 1 7 28 48 1 7 28 48 1 7 28 48 1 7 28 48 1 7 28 48 1 3 60 63 36 19 14 57 36 19 14 57 36 19 14 57 1 7 28 48 1 7 28 48 1 7 28 48 1 7 28 48 1 7 28 48 1 7 28 48 1 7 60 63 36 19 14 57 36 19 14 57 36 19 14 57 36 19 14 57 36 19 14 57 36 19 14 57 63 63 47 59 6 23 28 49 1 7 28 48 1 3 60 63 36 19 14 57 36 19 14 57 36 19 14 57 36 19 14 57 36 19 14 57 36 19 14 57 63 23 45 59 6 27 28 49 1 7 28 48 1 7 12 48 16 3 12 48 0 23 28 48 1 7 28 48 36 19 14 57 36 19 14 57 36 19 14 57 63 23 45 59 10 27 28 49 5 7 28 48 1 7 28 48 0 3 28 48 1 7 28 48 1 3 12 48 0 3 12 48 0 3 12 48 0 7 28 48 1 7 28 48 1 7 28 48 1 7 28 48 1 7 28 49 1 7 28 48 1 7 28 48 1 7 28 48 1 7 28 48 1 7 28 48 1 7 28 49 5 23 28 49 5 23 28 49 5 23 28 49 5 23 60 63 63 63 15 57 36 19 14 57 36 19 14 57 6 27 44 49 6 27 28 49 5 27 60 50 11 47 60 50 11 47 60 50 11 47 60 50 11 47 44 49 5 63 63 63 36 19 14 57 36 19 14 57 36 19 14 57 36 19 14 57 36 63 63 63 63 23 45 59 10 27 28 49 11 47 60 50 11 43 44 49 6 23 60 63 36 19 14 57 36 19 14 57 36 19 14 57 36 19 14 57 63 63 63 50 11 27 45 58 6 27 28 49 1 27 60 50 11 47 60 50 7 27 28 49 5 23 44 49 6 27 44 49 36 19 14 57 36 19 62 63 63 47 60 49 6 27 44 58 6 23 28 48 6 47 60 50 11 31 60 49 7 31 44 49 5 23 28 49 6 27 44 49 6 27 44 49 5 23 28 49 6 47 60 49 7 47 60 50 11 47 60 50 11 47 60 50 11 47 60 49 7 31 44 49 5 23 28 49 5 27 44 49 6 27 44 49 5 23 28 49 6 31 60 49 11 47 60 50 11 47 60 50 11 47 60 50 11 47 60 49 6 23 60 63 63 63 63 63 63 19 14 57 6 27 28 49 5 23 44 49 7 31 60 49 11 47 60 50 11 47 60 50 11 47 60 50 11 47 60 50 6 23 12 48 0 3 12 52 63 63 15 57 36 19 62 63 63 63 63 63 5 47 60 49 7 27 28 49 1 23 44 49 11 47 60 50 11 47 60 50 6 23 12 48 0 3 12 52 16 63 63 63 36 63 63 63 0 3 12 48 5 47 60 49 7 47 44 50 10 47 60 50 11 47 60 50 11 47 60 49 7 31 44 49 5 23 28 49 5 27 44 49 63 63 15 52 0 3 12 48 5 47 60 49 11 47 60 50 11 47 60 50 11 47 60 50 11 47 60 49 7 31 60 49 6 23 28 49 5 27 44 49 6 27 28 49 5 23 44 49 7 31 60 49 11 47 60 50 11 47 60 50 11 47 60 50 11 47 60 49 7 31 60 49 6 23 28 49 5 27 44 49 6 27 28 49 5 23 44 49 7 31 60 49 11 47 60 50 11 47 60 50 11 47 60 50 11 47 60 50 6 23 12 48 0 3 12 48 0 3 60 63 6 27 44 49 5 23 44 49 7 31 60 49 11 47 60 50 11 47 60 50 11 47 60 50 11 47 60 50 6 23 12 48 16 3 12 48 0 3 60 63 63 3 12 48 0 3 12 48 5 47 60 49 11 47 60 50 11 47 60 50 11 47 60 50 11 43 44 49 6 7 12 53 20 3 13 48 0 3 60 63 63 3 12 48 16 3 12 48 5 47 60 49 11 47 60 50 11 47 60 50 11 47 60 50 11 47 60 49 7 31 44 49 5 23 28 49 5 27 44 49 63 3 12 48 16 3 13 52 0 43 60 49 6 47 60 50 11 47 60 50 10 47 60 50 11 47 44 49 6 47 44 49 5 23 28 49 5 27 28 49 5 27 44 49 5 23 28 49 6 47 44 49 6 47 60 50 11 47 60 50 11 47 60 50 11 47 60 49 11 27 44 49 5 23 44 49 6 27 44 49 6 27 44 49 6 23 28 49 6 47 60 49 7 47 60 50 11 47 60 50 11 47 60 50 11 47 44 49 5 3 12 53 21 3 13 48 0 3 60 63 5 23 28 49 5 23 28 48 1 23 44 49 6 27 44 49 6 27 44 49 6 27 44 49 6 23 28 48 0 3 28 53 20 3 13 48 0 3 60 63 63 3 12 48 16 3 13 52 0 23 60 50 11 47 60 50 11 47 60 50 0 3 12 53 20 23 13 52 0 19 29 53 20 3 13 48 0 3 60 63 63 3 12 48 16 3 13 52 0 3 12 48 5 23 28 49 5 23 28 49 5 23 28 49 5 23 44 49 5 7 28 48 1 7 28 49 5 23 28 49 63 3 12 48 16 3 13 52 0 3 12 48 16 3 29 53 21 3 12 48 0 3 13 48 0 3 12 48 0 3 12 48 0 3 60 63 63 63 63 63 63 63 63 63 63 3 12 48 0 3 12 48 0 3 12 48 0 3 12 48 16 23 13 53 20 23 13 48 0 3 13 48 0 3 60 63 36 19 14 57 36 19 14 57 63 3 12 48 0 3 12 48 0 3 13 52 20 19 13 48 16 23 29 53 21 23 29 53 0 3 29 53 0 3 12 48 0 3 60 63 36 19 14 57 63 63 15 48 0 3 13 48 0 3 12 48 0 23 13 53 20 23 13 53 0 3 29 53 16 3 13 53 0 3 12 52 0 3 60 63 63 3 12 48 16 3 12 52 0 3 12 48 21 23 29 53 37 19 13 48 37 23 14 52 16 3 29 53 21 23 13 52 0 3 12 52 16 63 63 63 63 3 12 48 0 3 12 48 16 3 12 52 21 3 12 48 21 23 13 53 21 23 13 48 0 23 13 48 0 3 12 48 0 63 63 63 36 19 14 57 63 63 15 52 0 3 12 48 16 3 29 53 20 3 12 53 20 23 30 53 21 23 13 48 0 23 29 53 16 3 12 48 0 63 15 57 36 19 14 57 36 19 14 57 36 63 15 48 0 3 13 52 16 3 12 48 0 23 29 53 21 23 13 48 0 23 29 53 16 3 13 48 63 63 15 57 36 19 14 57 36 19 14 57 36 63 63 63 0 3 13 52 16 3 12 48 0 23 29 53 21 23 14 53 16 19 29 53 21 23 13 52 0 3 12 52 63 63 15 57 36 19 14 57 36 19 62 63 63 63 15 48 0 3 12 48 0 19 29 53 21 23 13 52 0 3 28 53 21 23 13 52 0 3 60 63 63 19 14 57 36 63 63 63 0 3 12 48 16 3 29 53 20 3 12 53 21 23 30 53 63 63 63 63 63 63 63 63 63 63 63 63 63 63 63 63 36 19 14 57 36 19 62 63 63 3 12 48 16 3 29 53 21 3 12 48 20 23 30 53 21 23 13 48 0 23 29 53 0 63 63 63 63 19 14 57 36 19 14 57 36 19 14 57 63 63 63 63 63 63 63 63 63 63 63 63 63 63 63 63 63 63 63 63 63 63 63 63 63 63 15 57 36 19 14 57 36 19 14 57 36 19 14 57 36 19 14 57 36 63 63 63 63 63 63 63 63 63 63 63 