P240 406321 23 29 53 21 23 29 53 16 3 29 53 21 23 29 53 21 23 29 53 21 23 13 52 20 23 29 53 21 23 29 53 21 23 29 53 21 23 61 63 21 23 29 53 21 23 29 53 21 3 12 53 21 23 29 53 21 23 29 53 21 23 29 53 21 63 63 63 20 23 29 53 21 23 29 53 21 23 29 53 21 23 29 53 21 23 29 53 21 23 13 53 63 63 15 53 21 23 29 53 21 23 29 53 21 23 29 53 21 23 29 53 21 23 13 53 16 23 29 53 63 19 29 53 21 23 29 53 21 23 29 53 21 23 29 53 21 23 29 53 21 19 13 52 21 23 29 53 21 23 29 53 21 23 29 53 16 23 29 53 21 23 29 53 21 23 29 53 21 3 13 53 21 23 29 53 21 23 29 53 21 23 13 52 20 23 29 53 21 23 29 53 21 23 29 53 21 19 61 63 21 19 13 53 21 23 29 53 21 23 13 52 16 19 13 53 20 23 29 53 21 23 29 53 20 63 63 63 20 23 29 53 21 23 13 53 20 23 29 53 20 3 13 52 21 23 29 53 21 23 13 53 63 63 15 53 20 23 29 53 20 19 13 53 21 23 29 53 21 23 29 53 21 23 29 53 20 19 29 53 63 3 13 52 16 3 13 52 16 3 29 53 20 19 13 53 20 19 13 53 21 23 13 52 20 23 29 53 21 19 13 53 21 23 29 53 21 23 13 53 20 19 29 53 21 19 13 53 21 23 29 53 21 23 29 53 21 23 29 53 21 23 29 53 21 23 29 53 21 19 13 53 20 23 29 53 21 23 61 63 21 23 29 53 21 23 29 53 21 23 29 53 21 23 29 53 21 23 29 53 20 23 29 53 21 63 63 63 20 23 29 53 20 23 29 53 21 23 29 53 21 23 29 53 21 23 29 53 21 23 29 53 63 63 15 53 21 23 13 53 21 23 29 53 21 23 29 53 21 23 29 53 21 23 29 53 21 23 29 53 63 19 29 53 21 3 29 53 21 19 29 53 21 23 29 53 21 23 29 53 21 23 29 53 21 23 29 53 21 23 29 53 21 23 29 53 21 23 29 53 21 23 29 53 21 23 29 53 21 23 29 53 21 23 29 53 21 23 29 53 20 23 29 53 21 23 29 53 21 23 29 53 21 3 29 53 21 23 61 63 21 23 29 53 21 23 13 52 20 23 29 53 21 23 29 53 21 23 29 53 16 19 29 53 21 63 63 63 20 23 29 53 16 23 29 53 21 23 29 53 21 23 29 53 21 23 13 52 20 23 13 53 63 63 15 53 21 23 13 52 20 23 29 53 21 23 29 53 21 23 29 53 21 23 29 53 21 23 29 53 63 19 29 53 21 3 13 53 21 23 29 53 21 23 29 53 21 23 13 53 21 23 29 53 21 23 29 53 21 23 29 53 21 3 12 53 21 23 29 53 21 23 29 53 21 19 13 53 21 23 29 53 21 23 29 53 21 23 29 53 16 19 29 53 21 23 29 53 21 23 29 53 21 3 13 52 20 19 61 63 20 19 13 53 16 19 13 52 16 23 29 53 21 23 29 53 21 23 29 53 21 19 13 52 16 63 63 63 20 23 29 53 16 19 29 53 21 23 29 53 16 19 29 53 21 23 29 53 21 23 13 52 63 63 15 53 20 23 13 53 16 19 29 53 21 23 13 53 21 23 29 53 16 3 29 53 21 23 29 53 63 23 13 53 21 23 13 48 0 3 12 52 16 3 13 53 20 23 13 53 0 3 12 52 16 3 13 52 16 19 13 53 21 3 13 48 16 3 13 52 20 19 29 53 21 23 29 53 20 19 13 53 21 23 29 53 21 23 29 53 20 3 13 52 20 23 29 53 21 23 29 53 21 23 29 53 21 23 61 63 21 23 29 53 21 23 29 53 20 23 29 53 21 23 29 53 21 23 29 53 21 23 29 53 21 63 63 63 21 23 29 53 21 23 13 53 16 3 13 53 21 23 29 53 21 23 29 53 21 23 29 53 63 63 31 53 21 23 29 53 21 23 13 53 20 23 29 53 21 23 29 53 21 23 29 53 21 23 29 53 63 19 29 53 21 23 29 53 21 19 13 53 21 23 29 53 21 23 29 53 21 23 29 53 21 23 29 53 21 23 29 53 21 23 13 53 21 23 29 53 21 23 29 53 21 23 29 53 21 23 13 53 21 23 29 53 21 23 29 53 21 19 29 53 21 23 29 53 21 23 29 53 21 23 29 53 21 23 61 63 21 23 29 53 21 23 29 53 20 23 29 53 21 23 29 53 21 23 29 53 21 23 29 53 21 63 63 63 21 23 29 53 21 23 29 53 16 19 29 53 21 23 29 53 21 23 29 53 21 23 29 53 63 63 31 53 21 23 29 53 21 23 13 52 20 23 29 53 21 23 29 53 21 23 29 53 21 23 29 53 63 23 13 53 21 23 29 53 21 3 13 53 21 23 29 53 21 23 29 53 21 23 13 53 21 23 29 53 21 23 29 53 21 23 13 52 21 23 29 53 21 23 29 53 21 23 29 53 21 19 29 53 21 23 29 53 21 23 29 53 21 3 29 53 21 23 29 53 21 23 29 53 21 23 29 53 21 23 61 63 21 23 29 53 21 23 29 53 20 23 29 53 21 23 29 53 21 23 29 53 21 23 29 53 21 63 63 63 21 19 13 53 21 23 29 53 16 19 29 53 21 23 29 53 21 23 29 53 21 23 29 53 63 63 31 53 21 23 29 53 21 23 13 52 16 23 29 53 21 23 29 53 21 23 29 53 16 23 29 53 63 23 29 53 21 23 29 53 21 3 13 52 20 23 29 53 21 23 29 53 21 23 13 52 20 3 29 53 21 23 29 53 21 23 13 52 21 23 29 53 20 23 29 53 21 19 13 53 20 3 12 52 20 19 13 53 20 3 13 52 16 3 28 53 21 23 29 53 21 23 29 53 21 23 29 53 20 19 61 63 16 19 29 53 21 23 13 53 16 3 12 52 20 19 29 53 20 3 13 52 16 23 13 53 21 63 63 63 20 19 29 53 21 23 29 53 16 3 12 53 21 23 29 53 21 23 29 53 21 23 29 53 63 63 15 52 0 3 13 52 20 23 29 53 20 3 13 52 20 19 13 53 20 19 13 53 16 3 13 48 63 3 13 53 21 23 29 53 21 23 29 53 21 23 29 53 21 19 29 53 21 23 29 53 21 19 13 53 21 23 29 53 21 23 29 53 21 23 29 53 21 19 13 53 21 23 29 53 21 23 29 53 21 3 13 53 21 23 29 53 21 23 29 53 21 23 29 53 21 23 29 53 21 23 29 53 21 23 61 63 0 3 12 52 20 19 13 53 21 19 13 53 16 3 29 53 21 19 13 52 20 3 13 53 16 63 63 63 16 19 29 53 20 19 29 53 20 23 29 53 63 63 63 63 63 63 63 63 63 63 63 63 63 63 15 48 16 3 13 52 16 3 13 52 16 19 13 52 16 3 13 53 20 19 13 53 20 19 29 53 63 63 63 63 63 63 63 63 63 63 63 63 63 63 63 63 63 63 63 63 63 63 63 63 63 63 63 63 63 63 63 63 63 63 63 63 63 63 63 63 