P264 646336 36 36 63 63 63 63 63 63 63 63 63 63 36 36 36 36 36 36 36 36 36 36 36 36 36 36 36 36 36 36 36 36 36 36 36 36 36 36 36 36 36 36 36 36 36 36 63 63 63 63 63 63 63 63 63 63 36 36 36 63 63 63 63 36 36 63 63 0 0 0 0 0 0 0 0 63 63 36 36 36 36 36 36 36 36 36 36 36 36 36 36 36 36 36 36 36 36 36 36 36 36 36 36 36 36 36 36 36 36 63 63 0 0 0 0 0 0 0 0 63 63 36 36 63 63 63 63 36 63 63 16 0 0 0 0 0 0 0 0 16 63 63 36 36 36 36 36 36 36 36 36 36 36 36 36 36 36 36 36 36 36 36 36 36 36 36 36 36 36 36 36 36 63 63 16 0 0 0 0 0 0 0 0 16 63 63 36 63 63 63 63 63 63 0 0 0 16 16 16 16 16 16 0 0 0 63 36 36 36 36 36 36 36 36 36 36 36 36 36 36 36 36 36 36 36 36 36 36 36 36 36 36 36 36 36 36 63 0 0 0 16 16 16 16 16 16 0 0 0 63 63 63 63 63 63 63 0 0 0 0 0 16 16 16 16 0 0 0 0 63 36 36 36 36 36 36 36 36 36 36 36 36 36 36 36 36 36 36 36 36 36 36 36 36 36 36 36 36 36 36 63 0 0 0 0 16 16 16 16 0 0 0 0 0 63 63 63 63 63 63 0 0 0 0 16 16 16 16 16 0 0 0 0 63 63 36 36 36 36 36 36 36 36 36 36 36 36 36 36 36 36 36 36 36 36 36 36 36 36 36 36 36 36 36 63 0 0 0 0 16 16 16 16 0 0 0 0 0 63 63 63 63 63 63 16 16 16 16 0 0 0 0 0 5 5 5 5 5 63 63 36 36 36 36 36 36 36 36 36 36 36 36 36 36 36 36 36 36 36 36 36 36 36 36 36 36 36 63 63 5 5 5 5 0 0 0 0 0 16 16 16 16 63 63 63 63 63 63 16 16 16 0 0 0 0 5 10 11 11 11 11 11 11 63 63 36 36 36 36 36 36 36 36 36 36 36 36 36 36 36 36 36 36 36 36 36 36 36 36 63 63 63 11 11 11 11 11 11 5 0 0 0 0 16 16 16 63 63 63 63 63 63 21 21 21 16 0 0 0 11 7 7 7 7 7 7 7 11 63 36 36 36 36 36 36 36 36 36 36 36 36 36 36 36 36 36 36 36 36 36 36 36 36 63 11 7 6 7 7 7 7 7 11 1 0 0 16 21 21 21 63 63 63 63 63 63 21 20 20 21 21 16 5 11 6 11 11 11 7 7 6 11 63 63 63 63 36 36 36 36 36 36 36 36 36 36 36 36 36 36 36 36 36 36 63 63 63 63 11 6 6 7 7 7 7 6 11 5 16 21 21 20 20 21 63 63 63 63 63 63 0 0 0 0 21 16 5 11 11 11 11 11 11 6 6 22 21 21 21 63 63 63 36 36 36 36 36 36 36 36 36 36 36 36 36 36 63 63 63 21 21 21 22 6 6 7 11 11 11 11 11 5 16 21 0 0 0 0 63 63 63 63 63 63 0 20 20 0 21 21 5 11 11 11 11 11 10 5 42 42 46 46 46 46 41 63 36 36 36 36 36 36 36 36 36 36 36 36 36 36 63 21 46 46 46 46 42 42 21 6 11 11 11 11 11 5 21 21 0 16 20 0 63 63 63 63 63 63 20 21 20 21 37 21 5 11 11 11 11 11 10 1 6 6 10 10 6 6 5 63 63 63 63 63 63 63 63 63 63 63 63 63 63 63 63 5 6 6 10 10 6 6 1 6 11 11 11 11 11 6 21 37 21 20 21 20 63 63 63 63 63 63 37 37 37 21 20 0 5 11 11 11 11 11 11 5 5 6 6 6 6 5 5 0 1 1 1 1 1 1 1 1 1 1 1 1 1 1 0 5 6 6 6 6 6 5 5 11 11 11 11 11 11 6 0 20 21 37 37 37 63 63 63 63 63 63 21 21 21 20 0 0 5 11 11 11 11 11 11 6 1 5 5 5 5 5 1 5 6 6 6 6 6 6 6 6 6 6 6 6 6 6 5 1 5 5 5 5 5 1 6 11 11 11 11 11 11 6 0 0 16 21 21 21 63 63 63 63 63 63 21 21 21 21 16 0 5 11 10 11 11 11 11 11 6 1 1 5 1 1 5 6 6 6 6 6 6 6 6 6 6 6 6 6 6 6 6 5 1 1 5 1 1 6 11 11 11 11 11 11 11 6 0 16 21 21 21 21 63 63 63 63 63 63 21 21 21 21 21 16 5 11 11 11 11 11 11 11 11 6 1 1 1 1 6 6 6 6 6 6 6 6 6 6 6 6 6 6 6 6 6 6 1 1 1 1 6 11 11 11 11 11 11 11 11 6 0 21 21 21 21 21 63 63 63 63 63 63 0 0 0 0 20 0 5 11 11 11 11 11 11 11 11 11 1 1 1 5 6 6 6 6 6 6 6 6 6 6 6 6 6 6 6 6 6 6 5 1 1 1 11 11 11 11 11 11 11 11 11 6 0 20 0 0 0 0 63 63 63 63 63 63 0 0 0 0 20 0 5 11 11 11 11 11 11 11 11 11 1 1 1 6 6 6 6 6 5 6 6 6 6 6 6 6 6 6 6 6 6 6 5 1 1 1 11 11 11 11 11 11 11 11 11 6 0 20 0 0 0 0 63 63 63 63 63 63 21 21 21 21 21 0 5 11 11 11 11 11 11 11 7 11 1 1 1 1 1 1 5 5 1 6 6 6 6 6 6 6 6 6 6 5 5 5 5 1 1 1 11 11 11 11 11 11 11 11 11 6 0 21 21 21 21 21 63 63 63 63 63 63 21 21 21 0 0 0 6 7 6 7 7 7 7 7 7 11 5 1 0 0 16 0 0 0 0 0 0 6 6 6 6 6 6 6 6 5 6 6 6 1 1 1 11 7 11 11 11 11 11 6 7 6 0 0 0 21 21 21 63 63 63 63 63 63 0 16 16 0 0 0 5 11 6 7 7 7 7 7 7 7 1 0 16 16 21 16 21 16 16 16 0 6 6 6 6 6 6 6 6 5 5 6 6 1 1 1 7 7 7 7 7 7 7 6 7 6 0 0 0 16 16 0 63 63 63 63 63 63 63 16 0 0 16 0 1 6 11 7 7 7 7 7 7 6 1 0 0 16 20 0 20 16 16 16 0 6 6 6 6 6 6 6 6 5 5 6 5 1 1 1 6 11 7 7 7 7 7 11 11 5 0 16 16 0 16 0 63 63 63 63 63 36 63 0 0 0 0 0 1 6 6 6 7 7 6 6 6 5 1 1 0 0 0 0 0 0 0 0 0 6 6 6 6 6 6 6 6 6 1 5 1 1 1 1 5 6 6 7 7 7 7 6 6 1 0 0 0 0 0 63 63 63 63 63 63 36 63 63 0 0 0 0 1 5 5 5 6 6 5 5 5 5 1 1 0 5 6 6 5 5 6 6 6 6 6 6 6 6 6 6 6 6 6 6 5 1 1 1 5 5 5 6 6 6 6 5 5 1 0 0 0 0 63 63 36 63 63 63 63 36 36 63 63 63 0 0 1 5 5 5 5 5 5 5 5 5 1 1 5 6 6 6 6 6 6 6 6 6 6 6 6 6 6 6 6 6 6 6 6 1 1 1 5 5 5 5 5 5 5 5 5 5 0 0 63 63 63 36 36 63 63 63 63 36 36 36 36 63 63 63 5 6 5 5 5 5 5 5 5 6 1 1 1 1 1 1 1 1 1 1 1 1 1 1 1 1 1 1 1 1 1 5 1 1 1 1 6 5 5 5 5 5 5 5 6 5 63 63 63 36 36 36 36 63 63 63 63 36 36 36 36 36 36 63 5 6 5 5 5 5 5 5 6 6 1 1 1 1 1 1 1 1 1 1 1 1 1 1 1 1 1 1 1 1 1 1 1 5 1 1 6 5 5 5 5 5 5 5 6 5 63 36 36 36 36 36 36 63 63 63 63 36 36 36 36 36 36 63 5 6 6 6 6 6 6 6 6 6 1 0 1 1 1 1 1 1 1 1 1 1 1 1 1 1 1 1 1 1 1 1 1 1 0 1 6 6 6 6 5 5 6 6 6 5 63 36 36 36 36 36 36 63 63 63 63 36 36 36 36 36 36 63 5 6 5 6 6 6 6 6 6 6 1 0 1 1 1 1 1 1 1 1 1 1 1 1 1 1 1 1 1 1 1 1 1 1 0 1 6 6 6 6 6 6 6 5 6 5 63 36 36 36 36 36 36 63 63 63 63 36 36 36 36 36 36 63 5 6 5 6 6 6 6 6 6 6 1 0 1 1 1 1 1 1 1 1 1 1 1 1 1 1 1 1 1 1 1 1 1 1 0 1 6 6 6 6 6 6 6 5 6 5 63 36 36 36 36 36 36 63 63 63 63 36 36 36 36 36 36 63 5 6 6 6 6 6 6 6 6 6 1 0 1 1 1 1 1 1 1 1 1 1 1 1 1 1 1 1 1 1 1 1 1 1 0 1 6 6 6 6 6 6 6 6 6 5 63 36 36 36 36 36 36 63 63 63 63 36 36 36 36 36 36 63 5 6 6 6 5 5 5 6 6 6 1 0 1 1 1 1 1 1 1 1 1 1 1 1 1 1 1 1 1 1 1 1 1 1 0 1 6 6 6 6 6 6 6 6 6 5 63 36 36 36 36 36 36 63 63 63 63 36 36 36 36 63 63 63 5 6 5 5 5 5 5 5 5 6 1 0 1 1 1 1 1 1 1 1 1 1 1 1 1 1 1 1 1 1 1 1 1 1 0 1 6 6 5 5 5 5 5 5 6 5 63 63 63 36 36 36 36 63 63 63 63 36 36 63 63 63 0 0 5 5 5 5 5 5 5 5 5 6 1 0 1 1 1 1 1 1 1 1 1 1 1 1 1 1 1 1 1 1 1 1 1 1 0 1 6 5 5 5 5 5 5 5 5 5 0 0 63 63 63 36 36 63 63 63 63 36 63 63 0 0 0 0 1 5 5 6 6 6 6 5 5 5 1 0 1 1 1 1 1 1 1 1 1 1 1 1 1 1 1 1 1 1 1 1 1 1 0 1 5 5 5 5 5 5 5 5 5 5 0 0 0 0 63 63 36 63 63 63 63 36 63 0 0 0 0 0 1 6 6 7 7 7 7 6 6 5 1 0 1 1 1 1 1 1 1 1 1 1 1 1 1 1 1 1 1 1 1 1 1 1 0 1 5 5 6 6 6 6 6 6 5 1 0 0 0 0 0 63 63 63 63 63 63 63 63 16 16 16 0 0 5 11 11 7 7 7 7 7 11 6 1 1 1 1 1 1 1 1 1 1 1 1 1 1 1 1 1 1 1 1 1 1 1 1 1 1 6 6 7 11 7 11 7 7 6 1 0 0 16 16 16 0 63 63 63 63 63 63 0 16 16 0 0 0 6 7 6 7 7 7 7 7 7 11 5 1 1 1 1 1 1 1 1 1 1 1 1 1 1 1 1 1 1 1 1 1 1 1 1 1 6 7 7 7 7 7 7 6 7 6 0 0 0 16 16 0 63 63 63 63 63 63 0 16 16 0 0 0 6 7 6 11 11 11 11 11 7 11 5 1 1 1 1 1 1 1 1 1 1 1 1 1 1 1 1 1 1 1 1 1 1 1 1 5 11 7 11 11 11 11 11 10 11 6 0 0 0 16 16 16 63 63 63 63 63 63 0 0 0 0 16 0 6 11 11 11 11 11 11 11 11 11 5 1 1 1 1 1 1 1 1 1 1 1 1 1 1 1 1 1 1 1 1 1 1 1 1 5 11 11 11 11 11 11 11 11 11 6 0 16 0 0 0 0 63 63 63 63 63 63 0 0 0 0 16 0 6 11 11 11 11 11 11 11 11 11 5 1 1 1 1 1 1 1 1 1 1 1 1 1 1 1 1 1 1 1 1 1 1 1 1 5 11 11 11 11 11 11 11 11 11 6 0 16 0 0 0 0 63 63 63 63 63 63 0 0 0 0 20 0 6 11 11 11 11 11 11 11 11 11 5 1 1 1 1 1 1 1 1 1 1 1 1 1 1 1 1 1 1 1 1 1 1 1 1 5 11 11 11 11 11 11 11 11 11 6 0 21 0 0 0 0 63 63 63 63 63 63 20 21 21 21 20 0 6 11 11 11 11 11 11 11 11 11 5 1 1 1 1 1 1 1 1 1 1 1 1 1 1 1 1 1 1 1 1 1 1 1 1 5 11 11 11 11 11 11 11 11 11 6 0 20 21 21 21 21 63 63 63 63 63 63 21 21 21 20 0 0 6 11 11 11 11 11 11 11 11 11 5 1 1 1 1 1 1 1 1 1 1 1 1 1 1 1 1 1 1 1 1 1 1 1 1 5 11 11 11 11 11 11 11 11 11 6 0 0 16 21 21 21 63 63 63 63 63 63 21 21 37 20 16 0 6 11 11 11 11 11 11 11 11 11 5 1 1 1 1 1 1 1 1 1 1 1 1 1 1 1 1 1 1 1 1 1 1 1 1 5 11 11 11 11 11 11 11 11 11 6 0 16 20 37 21 37 63 63 63 63 63 63 21 37 37 21 21 0 6 11 11 11 11 11 11 11 11 11 5 1 1 1 1 1 1 1 1 1 1 1 1 1 1 1 1 1 1 1 1 1 1 1 1 5 11 11 11 11 11 11 11 11 11 6 0 21 21 37 37 37 63 63 63 63 63 63 16 20 16 20 21 20 6 11 11 11 11 11 11 11 11 11 5 1 1 1 1 1 1 1 1 1 1 1 1 1 1 1 1 1 1 1 1 1 1 1 1 5 11 11 11 11 11 11 11 11 11 6 20 37 20 20 20 20 63 63 63 63 63 63 0 16 16 0 21 20 6 11 11 11 11 11 11 11 11 11 5 1 1 1 1 1 1 1 1 1 1 1 1 1 1 1 1 1 1 1 1 1 1 1 1 5 11 11 11 11 11 11 11 11 11 6 20 21 0 16 16 0 63 63 63 63 63 63 0 20 16 16 21 21 5 11 10 11 11 11 11 11 10 11 5 0 1 0 1 1 1 0 0 0 0 0 0 0 1 1 1 1 1 1 1 1 0 0 0 1 11 10 11 11 11 11 11 10 11 5 20 21 16 16 16 0 63 63 63 63 63 63 21 21 21 21 21 16 1 6 6 11 11 11 11 7 6 6 63 63 63 63 63 63 63 63 63 63 63 63 63 63 16 21 21 21 21 21 63 63 63 63 63 63 6 6 6 11 11 11 11 6 6 1 0 21 21 21 21 21 63 63 63 63 63 63 21 21 21 16 0 0 0 5 6 6 6 6 6 6 6 5 63 36 36 36 36 36 36 36 36 36 36 36 36 63 21 37 21 16 21 37 63 36 36 36 36 63 63 6 6 6 6 6 6 6 5 0 0 0 0 21 21 21 63 63 63 63 63 63 21 21 21 16 16 20 0 0 1 5 5 5 5 5 5 63 63 36 36 36 36 36 36 36 36 36 36 36 36 63 0 21 21 16 21 21 63 36 36 36 36 36 63 63 5 5 5 5 5 1 0 0 20 16 16 21 21 21 63 63 63 63 63 63 16 16 16 20 21 21 21 20 20 0 0 0 0 63 63 63 36 36 36 36 36 36 36 36 36 36 36 36 36 63 0 21 42 42 42 16 63 36 36 36 36 36 36 63 63 0 0 0 0 20 20 21 21 21 20 16 16 20 63 63 63 63 63 63 0 0 0 0 0 20 20 21 20 16 0 0 0 63 36 36 36 36 36 36 36 36 36 36 36 36 36 36 36 63 63 21 42 42 42 63 63 36 36 36 36 36 36 36 63 0 0 0 0 20 21 21 20 16 0 0 0 0 63 63 63 63 63 63 0 0 0 0 0 16 16 16 16 0 0 0 0 63 36 36 36 36 36 36 36 36 36 36 36 36 36 36 36 36 63 63 16 21 63 63 36 36 36 36 36 36 36 36 63 0 0 0 0 16 16 16 16 0 0 0 0 0 63 63 63 63 63 63 63 16 16 16 0 0 0 0 0 0 0 16 16 63 36 36 36 36 36 36 36 36 36 36 36 36 36 36 36 36 36 63 21 42 63 36 36 36 36 36 36 36 36 36 63 16 16 16 0 0 0 0 0 0 16 16 16 63 63 63 63 63 63 36 63 63 16 0 0 0 0 0 0 0 0 16 63 63 36 36 36 36 36 36 36 36 36 36 36 36 36 36 36 36 36 63 21 42 63 36 36 36 36 36 36 36 36 36 63 63 16 0 0 0 0 0 0 0 0 16 63 63 36 63 63 63 63 36 36 63 63 0 0 0 0 0 0 0 0 63 63 36 36 36 36 36 36 36 36 36 36 36 36 36 36 36 36 36 36 63 20 21 63 36 36 36 36 36 36 36 36 36 36 63 63 63 0 0 0 0 0 0 0 63 63 36 36 63 63 63 63 36 36 36 63 63 63 63 63 63 63 63 63 63 36 36 36 36 36 36 36 36 36 36 36 36 36 36 36 36 36 36 36 36 63 63 36 36 36 36 36 36 36 36 36 36 36 36 36 63 63 63 63 63 63 63 63 63 36 36 36 63 63 63 63 63 63 63 63 63 63 63 63 63 63 63 63 63 63 63 63 63 63 63 63 63 63 63 63 63 63 63 63 63 63 63 63 63 63 63 63 63 63 63 63 63 63 63 63 63 63 63 63 63 63 63 63 63 63 63 63 63 63 63 63 63 63 63 63 63 63 63 63 63 63 63 63 63 63 63 63 63 63 63 63 63 63 63 63 63 63 63 63 63 63 63 63 63 63 63 63 63 63 63 63 63 63 63 63 63 63 63 63 63 63 63 63 63 63 63 63 63 63 63 63 63 63 63 63 63 63 63 63 63 63 63 63 63 63 63 63 63 63 63 63 63 63 63 63 63 63 63 63 63 63 63 63 63 63 63 63 63 63 63 63 63 63 63 63 63 63 63 63 63 63 63 63 63 63 63 63 63 63 63 63 63 63 63 63 63 63 63 63 63 63 63 63 63 63 63 63 63 63 63 63 63 63 63 63 63 63 63 63 63 63 63 63 63 63 63 63 63 63 63 63 63 63 63 63 63 63 63 63 63 63 63 63 63 63 63 63 63 63 63 63 63 63 63 63 63 63 63 63 63 63 63 63 63 63 63 63 