P27 246319 13 53 20 3 60 63 13 53 0 63 63 63 0 48 63 63 15 48 20 19 63 3 12 53 20 19 13 19 13 53 20 3 60 63 13 53 0 63 63 63 0 48 63 63 15 48 20 19 63 3 12 53 20 19 13 19 13 53 20 3 60 63 13 53 0 63 63 63 0 48 63 63 15 48 20 19 63 3 12 53 20 19 13 19 13 53 20 3 60 63 13 53 0 63 63 63 0 63 36 63 15 48 0 19 36 63 15 48 20 19 61 3 12 53 20 63 15 57 13 53 63 19 14 57 63 63 36 19 62 63 0 19 36 63 15 48 20 19 61 63 15 48 63 19 14 57 60 63 36 19 14 57 36 57 36 19 14 57 63 3 36 19 14 57 63 19 14 