P224 76316 3 13 52 16 3 13 52 16 3 29 57 37 3 61 63 36 19 14 57 36 63 63 63 33 7 30 57 37 23 62 63 36 63 63 63 63 63 15 52 16 3 13 52 16 3 13 52 63 59 31 57 32 7 30 56 33 7 30 56 33 7 30 56 33 7 30 56 33 7 30 56 32 3 14 56 32 3 14 56 32 3 14 56 32 3 14 56 32 3 30 57 37 7 62 63 16 3 13 52 16 3 13 52 16 3 29 57 37 3 61 63 36 63 63 63 63 63 15 52 63 63 63 63 63 63 15 57 36 19 14 57 63 63 63 63 63 63 63 63 16 3 13 52 36 19 14 57 36 19 14 57 36 19 62 63 63 63 63 63 63 63 63 63 63 63 63 63 