P224 76332 3 14 56 32 3 14 56 16 63 63 63 63 63 15 57 63 3 29 57 37 3 13 52 33 7 14 56 37 59 63 63 63 7 30 57 37 3 14 56 32 3 14 56 32 3 14 56 63 23 30 57 37 7 30 56 33 7 30 56 33 7 30 56 33 7 30 56 33 7 30 56 16 3 13 52 16 3 13 52 16 3 13 52 16 3 13 52 16 63 63 63 63 63 15 57 16 3 13 52 63 63 63 63 63 63 15 57 36 19 14 57 63 3 29 57 37 3 13 52 36 19 14 57 36 19 14 57 63 3 29 57 37 3 13 52 16 3 13 52 16 3 13 52 36 63 63 63 63 63 63 63 63 63 63 63 63 63 63 63 63 63 63 63 63 19 14 57 