P264 646336 36 36 36 36 36 36 36 36 36 36 36 36 36 36 36 36 36 36 36 36 36 36 36 36 36 36 36 36 36 36 36 36 36 36 36 36 36 36 36 36 36 36 36 36 36 36 36 36 36 36 36 36 36 36 36 36 36 36 36 36 36 36 36 36 36 36 36 36 36 36 36 36 36 36 36 36 36 36 36 36 36 36 36 36 36 36 36 36 36 36 36 36 36 36 36 36 36 36 36 36 36 36 36 36 36 36 36 36 36 36 36 36 36 36 36 36 36 36 36 36 36 36 36 36 36 36 36 36 36 36 36 36 63 63 63 63 63 63 63 63 63 63 63 63 63 63 63 63 63 63 63 63 63 63 63 63 63 63 63 63 63 63 63 63 63 63 63 63 63 63 63 63 63 63 63 63 63 63 63 63 63 63 63 63 63 63 36 36 36 36 36 36 36 36 36 63 63 0 16 32 16 32 32 16 16 32 32 32 32 32 16 16 32 32 16 16 63 63 63 63 63 63 63 63 63 63 63 63 63 63 63 16 16 16 16 16 32 32 32 32 32 16 16 32 32 32 32 16 0 63 63 36 36 36 36 36 36 36 63 63 16 16 16 32 32 32 32 16 32 32 32 32 32 32 16 16 32 32 32 32 16 63 63 63 63 63 63 63 63 63 63 63 63 63 32 32 32 16 16 16 32 32 32 32 32 16 32 32 32 32 32 16 16 32 63 63 36 36 36 36 36 63 63 32 16 16 16 32 32 32 32 16 32 32 32 32 32 32 16 16 32 32 32 16 16 16 63 63 63 63 63 63 63 63 63 63 63 16 32 32 32 16 16 16 32 32 32 32 32 16 32 32 32 32 32 16 16 16 32 63 63 36 36 36 36 63 16 16 16 16 16 32 16 32 32 16 16 32 32 32 32 32 16 16 32 16 16 32 16 16 16 63 63 63 63 63 63 63 63 63 16 16 32 16 16 32 16 16 32 32 32 32 32 16 16 32 32 16 32 16 16 16 16 16 63 36 36 36 36 63 16 16 32 16 16 16 16 16 32 32 32 32 32 16 32 32 32 32 32 16 16 32 16 16 16 63 63 63 63 63 63 63 63 63 16 16 32 16 16 32 32 32 32 16 32 32 32 32 32 32 16 32 32 32 16 16 16 16 63 36 36 36 36 63 16 16 32 32 32 16 16 16 16 16 32 32 16 16 16 16 16 16 16 16 16 16 16 16 0 63 63 63 63 63 63 63 63 63 16 16 16 16 16 16 16 16 16 16 16 16 16 16 16 16 16 32 32 32 32 16 16 16 63 36 36 36 36 63 16 16 32 32 32 16 16 0 1 1 1 17 17 17 16 16 16 16 17 17 17 17 16 16 16 16 16 16 16 16 16 16 16 16 16 16 16 17 17 17 16 16 16 16 16 16 16 16 17 0 0 16 32 32 32 16 16 16 63 36 36 36 36 63 16 16 32 32 32 16 1 22 22 22 32 32 32 32 32 32 32 32 33 18 18 22 17 16 16 16 17 17 17 17 17 17 17 16 16 16 17 18 18 32 32 32 32 32 32 32 32 32 33 18 17 0 16 32 32 16 16 16 63 36 36 36 36 63 16 16 16 32 32 16 22 18 17 32 32 32 32 32 32 32 32 32 32 17 18 18 18 16 16 16 16 17 16 16 17 17 17 16 16 16 18 18 17 32 32 32 32 32 32 32 32 32 32 17 17 16 16 32 32 16 16 16 63 36 36 36 36 63 16 16 16 16 16 0 22 18 18 32 32 32 32 32 32 32 32 32 32 17 22 18 18 17 16 16 16 17 17 17 17 17 16 16 16 17 18 18 17 32 32 32 32 32 32 32 32 32 32 18 17 16 16 16 16 16 16 16 63 36 36 36 36 63 16 16 16 16 16 0 22 18 18 32 32 32 32 32 32 32 32 32 32 33 18 18 18 17 16 16 16 16 17 17 17 17 16 16 16 17 18 18 17 32 32 32 32 32 32 32 32 32 32 18 17 16 0 16 16 16 16 16 63 36 36 36 36 63 63 32 16 16 16 0 22 18 18 17 32 32 32 32 32 32 32 32 32 33 18 18 18 17 16 16 16 16 17 17 17 17 16 16 16 17 18 18 17 32 32 32 32 32 32 32 32 32 32 18 17 16 0 16 16 16 32 63 63 36 36 36 36 63 63 63 16 16 16 0 22 18 18 18 17 16 32 32 32 32 32 32 32 17 22 18 18 17 16 16 16 16 17 17 17 17 16 16 16 17 18 18 17 32 32 32 32 32 32 32 32 32 32 18 17 16 0 16 16 32 63 63 63 36 36 36 36 63 63 63 63 63 63 63 22 18 18 17 16 16 16 16 32 32 32 32 32 17 18 18 18 16 16 16 16 17 17 17 17 17 17 16 16 17 18 18 18 32 32 32 32 32 32 32 32 32 32 18 17 63 63 63 63 63 63 63 63 36 36 36 36 63 63 63 63 63 63 63 22 18 18 17 57 17 16 16 16 32 32 32 32 18 18 22 17 16 16 16 16 17 17 17 17 17 17 16 16 16 17 22 18 17 32 32 32 32 32 32 32 32 33 18 17 63 63 63 63 63 63 63 63 36 36 36 36 63 63 63 63 63 63 63 63 22 22 37 57 17 17 16 16 16 32 17 18 22 18 17 16 16 16 17 17 17 17 17 17 17 17 17 17 16 17 18 18 22 17 32 32 32 32 32 32 32 18 18 63 63 63 63 63 63 63 63 63 36 36 36 36 63 63 63 63 63 63 63 63 63 63 63 57 22 17 16 16 0 16 16 16 16 16 16 16 16 16 16 16 16 16 16 16 16 16 16 16 16 16 16 16 17 17 17 16 16 16 16 16 16 17 63 63 63 63 63 63 63 63 63 63 36 36 36 36 63 63 63 63 63 63 63 63 63 63 63 57 22 17 16 16 16 16 16 16 16 16 16 16 16 16 16 16 16 16 16 0 16 16 16 16 16 16 16 16 16 16 16 16 16 16 16 16 16 16 63 63 63 63 63 63 63 63 63 63 36 36 36 36 63 63 63 63 63 63 63 63 63 63 63 57 22 17 16 16 16 17 17 17 17 17 17 17 17 17 16 16 16 16 16 16 16 16 16 16 16 16 16 16 16 16 16 16 16 16 16 16 16 16 63 63 63 63 63 63 63 63 63 63 36 36 36 36 63 63 63 63 63 63 63 63 63 63 63 57 17 16 16 16 16 17 17 17 17 17 17 17 17 17 16 16 16 16 16 16 16 16 16 16 16 16 16 16 16 16 16 16 16 16 16 16 16 16 63 63 63 63 63 63 63 63 63 63 36 36 36 36 63 63 63 63 63 63 63 63 63 63 63 63 16 16 16 16 17 17 17 17 17 17 17 17 17 17 16 16 16 16 16 16 16 16 16 16 16 16 16 16 16 16 16 16 16 16 16 16 16 16 63 63 63 63 63 63 63 63 63 63 36 36 36 36 63 63 63 63 63 63 63 63 63 63 63 63 63 63 17 17 17 17 17 17 17 17 17 17 17 17 16 16 16 16 16 16 16 16 16 16 16 16 16 16 16 16 16 16 16 16 16 16 16 16 63 63 63 63 63 63 63 63 63 63 36 36 36 36 63 63 63 63 63 63 63 63 63 63 63 63 63 63 17 17 17 17 17 17 17 17 17 17 17 17 16 16 16 16 16 16 16 16 16 16 16 16 16 16 16 16 16 16 16 16 16 16 16 16 16 32 32 16 32 63 63 63 63 63 36 36 36 36 63 63 63 63 63 63 63 63 63 63 63 63 63 63 17 17 17 17 17 17 17 17 17 17 17 17 16 16 16 16 16 16 16 16 16 16 16 16 16 16 16 16 16 16 16 16 16 16 16 16 16 32 32 32 53 63 63 63 63 63 36 36 36 36 63 63 63 63 63 63 63 63 63 63 63 63 63 63 17 17 17 17 17 17 17 17 17 17 17 17 16 16 16 16 16 16 16 16 16 16 16 16 16 16 16 16 16 16 16 16 16 16 16 16 16 32 16 37 57 32 32 53 37 63 36 36 36 36 63 63 63 63 63 63 63 63 63 63 63 63 63 63 17 17 17 17 17 17 17 17 17 17 17 17 16 16 16 16 16 16 16 16 16 16 16 16 16 16 16 16 16 16 16 16 16 16 16 16 16 32 32 32 53 32 16 32 16 63 36 36 36 36 63 63 63 63 63 63 63 63 63 63 63 63 63 63 17 17 17 17 17 17 17 17 17 17 17 17 16 16 16 16 16 16 16 16 16 16 16 16 16 16 16 16 16 16 16 16 16 16 16 16 16 32 32 32 48 63 63 63 63 63 36 36 36 36 63 63 63 63 63 63 63 63 63 63 63 63 63 63 17 17 17 17 17 17 17 17 17 17 17 17 16 16 16 16 16 16 16 16 16 16 16 16 16 16 16 16 16 16 16 16 16 16 16 16 16 32 16 16 16 63 63 63 63 63 36 36 36 36 63 63 63 63 63 63 63 63 63 63 63 63 63 63 17 17 17 17 17 17 17 17 17 17 17 17 16 16 16 16 16 16 16 16 16 16 16 16 16 16 16 16 16 16 16 16 16 16 16 16 63 63 63 63 63 63 63 63 63 63 36 36 36 36 63 63 63 63 63 63 63 63 63 63 63 63 63 63 17 17 17 17 17 17 17 17 17 17 17 17 16 16 16 16 16 16 16 16 16 16 16 16 16 16 16 16 16 16 16 16 16 16 16 16 63 63 63 63 63 63 63 63 63 63 36 36 36 36 63 63 63 63 63 63 63 63 63 63 63 63 63 63 17 17 17 17 17 17 17 17 17 17 17 17 16 16 16 16 16 16 16 16 16 16 16 16 16 16 16 16 16 16 16 16 16 16 16 16 63 63 63 63 63 63 63 63 63 63 36 36 36 36 63 63 63 63 63 63 63 63 63 63 63 63 63 63 17 17 17 17 17 17 17 17 17 17 17 17 16 16 16 16 16 16 16 16 16 16 16 16 16 16 16 16 16 16 16 16 16 16 16 16 63 63 63 63 63 63 63 63 63 63 36 36 36 36 63 63 63 63 63 63 63 63 63 63 63 63 63 63 17 17 17 17 17 17 17 17 17 17 17 17 16 16 16 16 16 16 16 16 16 16 16 16 16 16 16 16 16 16 16 16 16 16 16 16 63 63 63 63 63 63 63 63 63 63 36 36 36 36 63 63 63 63 63 63 63 63 63 63 63 63 63 63 17 17 17 17 17 17 17 17 17 17 17 17 16 16 16 16 16 16 16 16 16 16 16 16 16 16 16 16 16 16 16 16 16 16 16 0 63 63 63 63 63 63 63 63 63 63 36 36 36 36 63 63 63 63 63 63 63 63 63 63 63 63 63 63 17 17 17 17 17 17 17 17 17 17 17 17 16 16 16 16 16 16 16 16 16 16 16 16 16 16 16 16 16 16 16 16 16 16 16 0 63 63 63 63 63 63 63 63 63 63 36 36 36 36 63 63 63 63 63 63 63 63 63 63 63 63 63 63 17 17 17 17 17 17 17 17 17 17 17 17 16 16 16 16 16 16 16 16 16 16 16 16 16 16 16 16 16 16 16 16 16 16 16 16 63 63 63 63 63 63 63 63 63 63 36 36 36 36 63 63 63 63 63 63 63 63 63 63 63 63 63 63 16 17 17 17 17 17 17 17 17 17 17 17 16 16 16 16 16 16 16 16 16 16 16 16 16 16 16 16 16 16 16 16 16 16 16 16 63 63 63 63 63 63 63 63 63 63 36 36 36 36 63 63 63 63 63 63 63 63 63 63 63 63 16 16 16 16 17 17 17 17 17 17 17 17 17 17 16 16 16 16 16 16 16 16 16 16 16 16 16 16 16 16 16 16 16 16 16 16 16 16 63 63 63 63 63 63 63 63 63 63 36 36 36 36 63 63 63 63 63 63 63 63 63 63 63 57 17 16 16 16 16 17 17 17 17 17 17 17 17 17 16 16 16 16 16 16 16 16 16 16 16 16 16 16 16 16 16 16 16 16 16 16 16 16 63 63 63 63 63 63 63 63 63 63 36 36 36 36 63 63 63 63 63 63 63 63 63 63 63 57 22 17 16 16 16 17 17 17 17 17 17 17 17 17 16 16 16 16 16 16 16 16 16 16 16 16 16 16 16 16 16 16 16 16 16 16 16 16 63 63 63 63 63 63 63 63 63 63 36 36 36 36 63 63 63 63 63 63 63 63 63 63 63 57 22 17 16 16 16 16 16 16 16 16 16 16 16 16 16 16 16 16 16 0 16 16 16 16 16 16 16 16 16 16 16 16 16 16 16 16 16 16 63 63 63 63 63 63 63 63 63 63 36 36 36 36 63 63 63 63 63 63 63 63 63 63 63 57 22 17 16 16 0 16 16 16 16 16 16 16 16 16 16 16 16 16 16 16 16 16 16 16 16 16 16 17 17 17 16 16 16 16 16 16 16 17 0 63 63 63 63 63 63 63 63 63 36 36 36 36 63 63 63 63 63 63 63 63 63 22 37 57 17 17 16 16 16 33 22 22 22 18 17 16 16 16 17 17 17 17 17 17 17 17 17 16 16 17 22 22 22 33 32 32 32 32 32 32 32 17 18 17 63 63 63 63 63 63 63 63 36 36 36 36 63 63 63 63 63 63 63 63 18 18 17 57 17 16 16 16 32 32 32 18 18 18 18 17 16 16 16 17 17 17 17 17 17 17 16 16 17 18 18 18 17 32 32 32 32 32 32 32 32 32 17 17 16 63 63 63 63 63 63 63 36 36 36 36 63 63 63 63 63 63 63 22 18 22 18 16 16 16 16 32 32 32 32 17 18 18 18 18 16 16 16 16 17 17 17 17 17 16 16 16 17 18 18 18 32 32 32 32 32 32 32 32 32 32 18 17 16 0 63 63 63 63 63 63 36 36 36 36 63 63 63 32 16 16 0 22 18 18 17 16 16 32 32 32 32 32 32 33 22 18 18 18 17 16 16 16 17 17 17 17 17 16 16 16 18 18 18 17 32 32 32 32 32 32 32 32 32 32 18 17 16 0 16 16 32 63 63 63 36 36 36 36 63 63 32 16 16 16 1 22 18 18 32 32 32 32 32 32 32 32 32 32 22 18 18 18 17 16 16 16 17 17 17 17 16 16 16 16 18 18 18 17 32 32 32 32 32 32 32 32 32 32 18 17 16 0 16 16 16 32 63 63 36 36 36 36 63 16 16 16 16 16 0 22 18 17 32 32 32 32 32 32 32 32 32 32 22 18 18 18 17 16 16 16 17 17 17 17 17 16 16 16 18 18 18 18 32 32 32 32 32 32 32 32 32 32 18 17 16 0 16 16 16 16 16 63 36 36 36 36 63 16 16 16 16 16 0 22 18 17 32 32 32 32 32 32 32 32 32 17 22 18 18 18 17 16 16 16 17 17 17 17 17 16 16 16 18 18 18 18 32 32 32 32 32 32 32 32 32 32 18 17 16 16 32 16 16 16 16 63 36 36 36 36 63 16 16 16 32 32 16 22 18 17 32 32 32 32 32 32 32 32 32 17 18 18 22 17 16 16 16 16 17 16 16 17 17 16 16 16 17 22 18 18 32 32 32 32 32 32 32 32 32 32 17 17 16 16 32 32 16 16 16 63 36 36 36 36 63 16 16 16 32 32 16 1 22 22 21 32 32 32 32 32 32 32 32 18 18 18 18 17 16 16 16 17 17 17 17 17 17 17 16 16 17 18 18 18 17 32 32 32 32 32 32 32 32 33 18 17 0 16 32 32 16 16 16 63 36 36 36 36 63 16 16 16 32 32 16 16 0 1 1 1 1 1 1 1 17 17 17 17 17 17 0 0 16 16 16 16 16 16 16 16 16 16 16 16 16 16 17 17 17 17 16 16 16 16 16 16 16 17 0 0 16 32 32 32 16 16 16 63 36 36 36 36 63 16 16 16 32 32 16 16 16 16 16 32 32 16 16 16 16 16 16 16 16 16 16 16 16 32 63 63 63 63 63 63 63 63 63 16 16 16 16 16 16 16 16 16 16 16 16 16 16 32 16 16 32 32 32 32 16 16 16 63 36 36 36 36 63 16 16 16 16 16 16 16 16 32 32 32 32 32 16 32 32 32 32 32 16 16 32 16 16 16 63 63 63 63 63 63 63 63 63 16 16 32 16 16 32 32 32 32 16 32 32 32 32 32 32 16 32 32 32 16 16 16 16 63 36 36 36 36 63 16 16 16 16 16 32 16 16 32 16 16 32 32 32 32 32 16 16 32 16 16 16 16 16 16 63 63 63 63 63 63 63 63 63 16 16 16 16 16 16 16 16 32 32 32 32 32 16 16 32 32 16 32 16 16 16 16 16 63 36 36 36 36 63 63 32 16 16 16 32 32 32 32 16 32 32 32 32 32 32 16 16 32 32 32 16 16 16 63 63 63 63 63 63 63 63 63 63 63 16 16 32 32 16 16 16 32 32 32 32 32 16 32 32 32 32 32 16 16 16 32 63 63 36 36 36 36 36 63 63 16 16 16 32 32 32 32 16 32 32 32 32 32 32 16 16 32 32 32 32 16 63 63 63 63 63 63 63 63 63 63 63 63 63 32 32 32 16 16 16 32 32 32 32 32 16 32 32 32 32 32 16 16 32 63 63 36 36 36 36 36 36 36 63 63 0 16 32 32 32 32 16 16 32 32 32 32 32 16 16 32 32 16 16 63 63 63 63 63 63 63 63 63 63 63 63 63 63 63 16 16 16 16 16 16 32 32 32 32 16 16 32 32 32 32 16 0 63 63 36 36 36 36 36 36 36 36 36 63 63 63 63 63 63 63 63 63 63 63 63 63 63 63 63 63 63 63 63 63 63 63 63 63 63 63 63 63 63 63 63 63 63 63 63 63 63 63 63 63 63 63 63 63 63 63 63 63 63 63 63 63 63 36 36 36 36 36 36 36 36 36 36 36 36 36 36 36 36 36 36 36 36 36 36 36 36 36 36 36 36 36 36 36 36 36 36 36 36 36 36 36 36 36 36 36 36 36 36 36 36 36 36 36 36 36 36 36 36 36 36 36 36 36 36 36 36 36 36 36 36 36 36 36 36 36 36 36 36 36 36 36 36 36 36 36 36 36 36 36 36 36 36 36 36 36 36 36 36 36 36 36 36 36 36 36 36 36 36 36 36 36 36 36 36 36 36 36 36 36 36 36 36 36 36 36 36 36 36 36 36 36 36 36 36 36 