P260 606316 3 14 56 32 3 46 52 18 27 29 52 16 3 13 52 16 7 29 52 17 7 29 52 17 3 13 52 16 7 45 53 18 7 13 56 32 3 14 56 32 3 14 56 32 7 46 52 17 63 15 57 36 19 14 57 36 19 14 57 17 7 29 52 17 7 29 52 16 7 45 52 18 27 29 52 32 3 14 56 32 3 14 56 32 11 45 52 63 63 15 57 36 19 14 57 36 19 14 57 36 19 14 57 36 19 14 57 63 27 45 52 18 7 29 62 17 3 13 52 16 3 13 52 16 7 61 63 63 19 14 57 36 19 14 57 36 19 14 57 36 19 14 57 36 19 14 57 63 63 47 53 22 23 30 62 17 7 13 52 16 3 13 56 17 11 45 53 18 7 13 52 16 3 29 52 17 7 29 52 36 19 14 57 36 19 14 57 36 63 63 63 63 63 31 62 22 7 13 52 16 3 12 52 16 3 13 52 16 3 13 52 16 3 13 52 16 3 13 52 16 3 13 52 16 3 13 52 16 3 13 52 16 7 29 52 17 3 13 52 16 3 13 52 16 3 13 52 16 3 13 52 16 3 13 52 16 3 13 52 16 3 12 52 16 3 13 52 16 3 13 52 16 3 13 52 16 3 13 52 16 3 13 52 16 3 61 63 36 19 14 57 36 19 14 57 36 19 14 57 16 3 13 52 16 3 13 52 16 3 13 52 16 3 13 52 16 3 13 52 16 3 13 52 16 3 61 63 36 19 14 57 36 19 14 57 36 19 14 57 36 19 14 57 36 19 14 57 36 19 14 57 36 63 31 62 22 7 13 52 16 3 13 52 16 3 61 63 36 19 14 57 36 19 14 57 36 19 14 57 36 19 14 57 36 19 14 57 36 19 14 57 36 63 31 62 22 7 13 52 16 3 29 52 17 7 29 52 17 7 29 52 17 7 13 52 16 3 13 52 36 19 14 57 36 19 14 57 36 19 14 57 36 63 31 62 17 3 13 52 16 3 29 52 17 7 29 52 17 7 29 52 17 7 13 52 16 3 13 52 16 3 13 52 16 3 13 52 16 3 13 52 16 3 13 52 16 3 13 52 16 7 29 52 17 7 29 52 17 7 29 52 17 7 13 52 16 3 13 52 16 3 13 52 16 3 13 52 16 3 13 52 16 3 13 52 16 3 13 52 16 3 13 52 16 3 61 63 36 19 14 57 36 19 14 57 36 19 14 57 16 3 13 52 16 3 13 52 16 3 13 52 16 3 13 52 16 3 13 52 16 3 13 52 16 3 61 63 63 63 63 63 63 19 14 57 36 19 14 57 36 19 14 57 36 19 14 57 36 19 14 57 36 63 63 63 16 3 13 52 16 3 13 52 16 3 13 52 32 3 14 52 32 63 15 57 36 19 14 57 36 19 14 57 36 19 14 57 36 19 14 57 36 19 62 63 63 63 31 52 17 7 29 52 17 7 29 52 17 7 29 52 17 7 13 52 16 3 13 52 36 19 14 57 36 19 14 57 36 19 14 57 36 19 14 57 36 63 31 52 17 7 29 52 17 7 29 52 17 7 29 52 17 7 13 52 16 3 13 52 16 3 13 52 16 3 13 52 16 3 13 52 16 3 13 52 16 3 13 52 17 7 29 52 17 7 29 52 17 7 29 52 17 7 13 52 16 3 13 52 16 3 13 52 16 3 13 52 16 3 13 52 16 3 13 52 16 3 13 52 16 3 13 52 16 3 13 52 32 3 14 56 53 63 63 63 63 63 15 57 16 3 13 52 16 3 13 52 16 3 13 52 16 3 13 52 16 3 13 52 16 3 13 52 16 3 13 52 32 3 29 57 57 3 14 56 53 23 62 63 36 19 14 57 36 19 14 57 36 19 14 57 36 19 14 57 36 63 31 52 16 3 13 52 16 3 13 52 32 3 14 56 53 3 14 52 32 3 61 63 36 19 14 57 36 19 14 57 36 19 14 57 36 19 14 57 36 63 31 52 17 7 29 52 17 7 29 52 17 7 29 52 17 7 13 52 16 3 13 52 36 19 14 57 36 19 14 57 36 19 14 57 36 19 14 57 36 63 31 52 17 7 29 52 17 7 29 52 17 7 29 52 17 7 13 52 16 3 13 52 16 3 13 52 16 3 13 52 16 3 13 52 16 3 13 52 16 3 13 52 17 7 29 52 17 7 29 52 17 7 29 52 17 7 13 52 16 3 13 52 16 3 13 52 16 3 13 52 16 3 13 52 16 3 13 52 16 3 13 52 16 3 13 52 16 3 13 52 32 3 14 56 48 63 63 63 63 63 15 57 16 3 13 52 16 3 13 52 16 3 13 52 16 3 13 52 16 3 13 52 16 3 13 52 16 3 13 52 32 3 13 52 16 63 15 57 36 19 14 57 36 19 14 57 36 19 14 57 36 19 14 57 36 19 14 57 36 63 31 52 16 3 13 52 16 3 61 63 63 63 63 63 63 19 14 57 36 19 14 57 36 19 14 57 36 19 14 57 36 19 14 57 36 19 14 57 36 63 31 52 17 7 29 52 17 7 29 52 17 7 29 52 17 7 13 52 16 3 13 52 36 19 14 57 36 19 14 57 36 19 14 57 36 19 14 57 36 63 31 52 17 7 29 52 17 7 29 52 17 7 29 52 17 7 13 52 16 3 13 52 16 3 13 52 16 3 13 52 16 3 13 52 16 3 13 52 16 3 13 52 17 7 29 52 17 7 29 52 17 7 29 52 17 7 13 52 16 3 13 52 16 3 13 52 16 3 13 52 16 3 13 52 16 3 13 52 16 3 13 52 16 3 13 52 16 3 61 63 36 19 14 57 36 19 14 57 36 19 14 57 16 3 13 52 16 3 13 52 16 3 13 52 16 3 13 52 16 3 13 52 16 3 13 52 16 3 61 63 36 19 14 57 36 19 14 57 36 19 14 57 36 19 14 57 36 19 14 57 36 19 14 57 36 19 14 57 36 63 31 52 16 3 13 52 16 3 61 63 36 19 14 57 36 19 14 57 36 19 14 57 36 19 14 57 36 19 14 57 36 19 14 57 36 19 14 57 36 63 31 52 17 7 29 52 17 7 29 52 17 7 29 52 17 7 13 52 16 3 13 52 36 19 14 57 36 19 14 57 36 19 14 57 36 19 14 57 36 63 31 52 17 7 29 52 17 7 29 52 17 7 29 52 17 7 13 52 16 3 13 52 16 3 13 52 16 3 13 52 16 3 13 52 16 3 13 52 16 3 13 52 17 7 29 52 17 7 29 52 17 7 29 52 17 7 13 52 16 3 13 52 16 3 13 52 16 3 13 52 16 3 13 52 16 3 13 52 16 3 13 52 16 3 13 52 16 3 61 63 36 19 14 57 36 19 14 57 36 19 14 57 16 3 13 52 16 3 13 52 16 3 13 52 16 3 13 52 16 3 13 52 16 3 13 52 16 3 60 63 36 19 14 57 36 19 14 57 36 19 14 57 36 19 14 57 36 19 14 57 36 19 14 57 36 19 14 57 36 63 31 52 16 3 13 52 16 3 60 63 36 19 14 57 36 19 14 57 36 19 14 57 36 19 14 57 36 19 14 57 36 19 14 57 36 19 14 57 36 63 31 52 17 7 29 52 17 7 29 52 17 7 29 52 17 7 13 52 16 3 13 52 36 19 14 57 36 19 14 57 36 19 14 57 36 19 14 57 36 63 31 52 17 7 29 52 17 7 29 52 17 7 29 52 17 7 13 52 16 3 13 52 16 3 13 52 16 3 13 52 16 3 13 52 16 3 13 52 16 3 13 52 17 7 29 52 17 7 29 52 17 7 29 52 17 7 13 52 16 3 13 52 16 3 13 52 16 3 13 52 16 3 13 52 16 3 13 52 16 3 13 52 16 3 13 52 16 3 61 63 36 19 14 57 36 19 14 57 36 19 14 57 16 3 13 52 16 3 13 52 16 3 13 52 16 3 13 52 16 3 13 52 16 3 13 52 16 3 61 63 36 19 14 57 36 19 14 57 36 19 14 57 36 19 14 57 36 19 14 57 36 19 14 57 36 19 14 57 36 63 31 52 16 3 13 52 16 3 61 63 36 19 14 57 36 19 14 57 36 19 14 57 36 19 14 57 36 19 14 57 36 19 14 57 36 19 62 63 63 63 15 52 17 7 29 52 17 7 29 52 17 7 29 52 17 7 13 52 16 3 13 52 36 19 14 57 36 19 14 57 36 19 14 57 36 63 63 63 16 3 13 52 16 7 29 52 17 7 29 52 17 7 29 52 17 7 13 52 16 3 13 52 16 3 13 52 16 3 13 52 16 3 13 52 16 3 13 52 16 3 13 52 16 3 29 52 17 7 29 52 17 7 29 52 17 7 13 52 16 3 13 52 16 3 13 52 16 3 13 52 16 3 13 52 16 3 13 52 16 3 13 52 16 3 13 52 16 3 61 63 36 19 14 57 36 19 14 57 36 19 14 57 16 3 13 52 16 3 13 52 16 3 13 52 16 3 13 52 16 3 13 52 16 3 13 52 16 3 61 63 36 19 14 57 36 19 14 57 36 19 14 57 36 19 14 57 36 19 14 57 36 19 14 57 36 63 31 62 17 3 13 52 16 3 13 52 16 3 61 63 63 19 14 57 36 19 14 57 36 19 14 57 36 19 14 57 36 19 14 57 36 19 14 57 36 63 31 62 22 7 13 52 16 3 29 52 17 7 29 52 17 7 29 52 17 7 13 52 16 3 13 52 36 19 14 57 36 19 14 57 36 19 14 57 36 63 31 62 22 7 13 52 16 3 13 52 16 3 13 52 16 3 13 52 16 3 13 52 16 3 13 52 16 3 12 52 16 3 13 52 16 3 13 52 16 3 13 52 16 3 13 52 16 3 12 52 16 3 13 52 16 3 13 52 16 3 13 52 16 3 13 52 16 3 13 52 16 3 13 52 16 3 13 52 17 7 29 52 16 3 13 52 16 3 13 52 16 7 13 48 63 63 63 63 36 19 14 57 36 19 14 57 17 7 29 52 17 7 13 52 16 7 45 53 22 27 29 56 32 3 14 56 32 3 14 56 32 7 45 52 17 63 63 63 36 19 14 57 36 19 14 57 36 19 14 57 36 19 14 57 36 19 62 63 63 63 31 62 22 7 13 52 32 3 14 56 32 3 30 52 17 3 61 63 63 19 14 57 36 19 14 57 36 19 14 57 36 19 14 57 36 63 63 63 22 23 30 62 17 7 13 52 16 3 29 56 22 27 45 53 18 7 13 52 16 3 29 52 17 7 29 52 36 19 14 57 36 19 14 57 63 63 47 52 18 7 29 62 17 3 13 52 16 3 14 56 32 11 45 52 18 11 29 52 16 3 13 52 17 7 29 52 17 7 29 52 17 3 13 52 17 11 45 52 18 7 13 56 32 3 14 56 32 3 14 56 32 7 45 52 18 11 45 52 16 3 13 52 16 7 29 52 17 7 29 52 16 3 13 52 17 11 45 52 18 3 14 56 32 3 14 56 32 3 14 56 32 3 46 52 17 3 13 48 63 63 63 63 63 19 14 57 17 7 29 52 16 3 13 52 18 11 45 52 17 3 14 56 32 3 14 56 32 3 14 56 32 3 46 52 17 3 13 48 16 3 13 56 63 63 15 57 36 19 62 63 63 63 63 63 63 27 45 52 22 11 13 52 16 3 13 52 32 3 14 56 32 3 46 52 17 3 13 48 16 3 13 52 32 63 63 63 36 63 63 63 32 3 13 52 0 27 45 52 18 7 13 52 16 3 14 56 32 3 14 56 32 7 46 53 18 11 45 52 17 3 13 52 16 7 29 52 63 63 15 56 16 3 13 52 1 27 45 52 18 3 14 56 32 3 14 56 32 3 14 56 32 3 46 53 18 11 45 52 17 3 13 52 16 7 29 52 17 7 13 52 16 3 13 52 18 11 45 52 17 3 14 56 32 3 14 56 32 3 14 56 32 3 46 53 18 11 45 52 17 3 13 52 16 7 29 52 17 7 29 52 16 3 13 52 18 11 45 52 18 3 14 56 32 3 14 56 32 3 14 56 32 3 46 52 17 3 13 48 16 3 13 52 16 3 61 63 17 7 29 52 16 3 13 52 18 11 45 52 18 3 14 56 32 3 14 56 32 3 14 56 32 3 46 52 17 3 13 52 32 3 13 52 16 3 61 63 63 3 13 52 16 3 13 52 0 27 45 52 17 3 14 56 32 3 14 56 32 3 14 56 32 3 30 52 17 3 13 52 32 3 14 52 16 3 61 63 63 3 13 52 16 3 13 52 0 27 45 52 17 3 14 56 32 3 14 56 32 3 14 56 32 7 45 53 18 11 45 52 17 3 13 52 16 7 29 52 63 3 13 52 16 3 14 56 16 27 45 52 17 3 14 56 32 3 14 56 32 3 14 56 32 7 45 52 18 27 29 52 16 3 13 52 16 7 13 52 16 7 29 52 16 3 13 52 17 27 45 52 18 3 14 56 32 3 14 56 32 3 14 56 32 11 45 52 18 11 29 52 16 3 13 52 17 7 29 52 17 7 29 52 17 3 13 52 17 11 45 52 18 7 13 56 32 3 14 56 32 3 14 56 32 7 46 52 17 3 12 52 32 3 14 52 16 3 61 63 16 3 13 52 16 3 13 52 16 3 29 52 17 7 29 52 16 3 13 52 16 3 13 52 16 7 13 48 0 3 13 56 32 3 14 52 16 3 61 63 63 3 13 52 16 3 14 56 16 7 44 53 22 23 13 56 32 3 14 56 16 3 13 52 16 3 14 52 16 3 14 56 32 3 14 52 16 3 61 63 63 3 13 52 16 3 14 56 16 3 13 48 1 7 28 48 1 7 28 48 1 7 29 52 17 7 29 52 17 3 12 48 16 3 13 52 16 3 13 52 63 3 13 52 16 3 14 56 16 3 13 52 16 3 13 56 32 3 13 52 16 3 13 52 16 3 13 52 16 3 13 52 16 3 62 63 63 63 63 63 63 63 63 63 63 63 15 52 16 3 13 52 16 3 13 52 16 3 13 52 32 3 14 56 32 3 14 52 16 3 14 52 16 3 61 63 36 19 14 57 36 19 14 57 36 63 15 52 16 3 14 52 16 3 14 56 32 3 14 52 32 3 14 56 32 3 14 56 16 3 14 56 32 3 13 52 16 3 61 63 36 19 14 57 36 63 15 52 16 3 13 52 16 3 13 52 16 3 14 56 32 3 14 56 16 3 13 56 32 3 13 56 16 3 13 52 16 3 61 63 63 3 13 52 16 3 13 52 16 3 13 52 32 3 14 56 32 3 14 52 32 3 14 56 16 3 14 56 32 3 14 56 16 3 13 52 32 63 63 63 63 3 13 52 16 3 13 52 32 3 13 52 32 3 13 52 32 3 14 56 32 3 14 52 16 3 14 52 16 3 13 52 16 3 61 63 36 19 14 57 63 63 15 56 16 3 13 52 32 3 14 56 32 3 13 56 32 3 14 56 32 3 14 52 16 3 14 56 32 3 13 52 16 63 63 63 36 19 14 57 36 19 14 57 36 63 63 63 16 3 13 56 32 3 13 52 16 3 14 56 32 3 14 52 16 3 14 56 32 3 14 52 63 63 15 57 36 19 14 57 36 19 14 57 36 19 62 63 63 3 14 56 32 3 13 52 16 3 14 56 32 3 14 56 16 3 14 56 32 3 14 56 16 3 13 56 63 63 15 57 36 19 14 57 36 19 14 57 63 63 15 52 16 3 13 52 16 3 13 56 32 3 14 56 16 3 13 56 32 3 14 56 16 3 60 63 63 19 14 57 36 63 63 63 16 3 13 52 32 3 14 56 32 3 13 56 32 3 14 56 63 63 63 63 63 63 63 63 63 63 63 63 63 63 63 63 36 19 14 57 36 19 62 63 63 3 12 52 32 3 14 56 32 3 13 52 32 3 14 56 32 3 14 52 16 3 14 56 16 3 61 63 63 19 14 57 36 19 14 57 36 19 14 57 63 63 63 63 63 63 63 63 63 63 63 63 63 63 63 63 63 63 63 63 63 63 63 63 63 63 63 63 36 19 14 57 36 19 14 57 36 19 14 57 36 19 14 57 36 63 63 63 63 63 63 63 63 63 63 63 