P264 646336 36 36 36 36 36 36 36 36 36 36 36 36 36 36 36 36 36 36 36 36 36 36 36 36 36 36 36 36 36 36 36 36 36 36 36 36 36 36 36 36 36 36 36 36 36 36 36 36 36 36 36 36 36 36 36 36 36 36 36 36 36 36 36 36 36 36 36 36 36 36 36 36 36 36 36 36 36 36 36 36 36 36 36 36 36 36 36 36 36 36 36 36 36 36 36 36 36 36 36 36 36 36 36 36 36 36 36 36 36 36 36 36 36 36 36 36 36 36 36 36 36 36 36 36 36 36 36 36 36 36 36 36 63 63 63 63 63 63 63 63 63 63 63 63 63 63 63 63 63 63 63 63 36 36 36 36 36 36 36 36 36 36 36 36 36 36 63 63 63 63 63 63 63 63 63 63 63 63 63 63 63 63 63 63 63 63 36 36 36 36 36 36 36 36 36 63 63 0 0 16 21 21 21 0 0 16 21 21 21 20 0 0 0 0 0 63 63 63 36 36 36 36 36 36 36 36 36 36 63 63 63 0 21 21 0 0 21 21 21 37 20 0 0 21 21 16 16 0 0 63 63 36 36 36 36 36 36 36 63 63 16 0 0 16 21 21 21 20 16 20 37 21 21 21 0 0 0 16 16 16 0 63 63 36 36 36 36 36 36 36 36 63 63 0 16 16 21 21 0 0 21 21 21 37 21 20 0 20 21 16 16 0 0 0 63 63 36 36 36 36 36 63 63 16 16 0 0 16 21 21 21 16 16 16 37 37 21 21 0 0 0 16 16 16 0 0 63 36 36 36 36 36 36 36 36 63 0 0 0 16 21 21 0 0 21 21 21 37 20 20 0 20 21 16 16 0 0 0 16 63 63 36 36 36 36 63 0 0 16 0 0 20 16 16 21 16 0 20 21 20 20 21 0 0 0 0 0 16 0 0 63 63 36 36 36 36 36 36 63 63 0 0 0 0 0 21 0 0 21 21 20 21 21 0 0 21 16 0 16 0 0 0 0 0 63 36 36 36 36 63 0 0 0 0 0 21 16 0 21 21 21 21 21 16 0 20 20 16 16 0 0 0 0 0 0 63 36 36 36 36 36 36 63 0 0 0 16 0 0 21 20 20 21 16 0 20 37 21 21 21 0 0 0 16 0 16 0 0 63 36 36 36 36 63 0 0 0 16 20 21 20 0 16 21 20 20 0 0 0 0 0 0 0 0 0 0 0 0 0 63 63 63 63 63 63 63 63 0 0 0 0 0 0 0 0 0 16 0 0 0 21 21 16 16 0 0 0 16 16 16 0 0 63 36 36 36 36 63 0 0 0 16 20 21 0 0 1 5 6 6 6 6 6 6 6 6 6 6 6 5 1 1 5 5 5 5 5 5 5 5 5 1 1 1 1 5 6 5 5 5 5 5 5 5 5 5 5 5 0 0 0 16 16 16 0 0 63 36 36 36 36 63 0 0 0 16 21 20 0 5 6 11 11 11 11 11 11 11 11 11 11 7 7 11 6 5 5 6 6 6 6 6 6 6 6 5 5 6 6 11 7 11 11 11 11 11 11 11 11 11 11 11 11 5 0 16 16 16 0 0 63 36 36 36 36 63 0 0 0 16 20 20 1 6 6 10 11 11 11 11 11 11 11 11 11 6 6 11 6 5 5 5 6 6 5 5 6 5 5 5 5 6 11 6 6 11 11 11 11 10 11 11 11 11 11 6 7 10 0 16 16 16 0 0 63 36 36 36 36 63 0 0 0 0 16 0 5 6 11 11 11 11 11 11 11 11 11 11 11 11 7 7 7 6 5 5 6 6 6 6 6 5 5 5 5 6 7 7 7 11 11 11 11 11 11 11 11 11 11 11 7 11 5 0 0 16 0 0 63 36 36 36 36 63 0 0 0 0 0 0 5 6 11 11 11 11 11 11 11 11 11 11 11 11 7 7 7 6 5 5 5 6 6 6 6 5 5 5 6 7 7 7 7 11 11 11 11 11 11 11 11 11 11 11 7 11 5 0 0 0 0 0 63 36 36 36 36 63 63 16 16 0 0 0 5 6 11 11 11 11 11 11 11 11 11 11 11 11 7 7 7 6 5 5 5 6 6 6 6 5 5 5 6 7 7 7 7 11 11 11 11 11 11 11 11 11 11 11 7 11 5 0 0 0 16 63 63 36 36 36 36 36 63 63 16 0 0 0 5 6 11 11 11 11 11 11 11 11 11 11 11 11 7 7 7 6 5 5 5 6 6 6 6 5 5 5 5 6 7 7 7 11 11 11 11 11 11 11 10 10 11 7 7 11 5 0 0 0 63 63 36 36 36 36 36 36 36 63 63 63 63 63 5 6 7 11 11 11 11 11 11 11 11 11 11 11 7 7 6 5 5 5 6 6 6 6 6 5 5 5 5 6 7 7 7 11 11 11 11 11 6 5 1 5 6 7 7 11 5 63 63 63 63 36 36 36 36 36 36 36 36 36 36 36 36 63 5 6 6 10 11 11 11 11 11 11 11 11 11 7 7 11 6 5 5 5 6 6 6 6 6 6 5 5 5 6 7 7 7 7 11 11 11 6 1 5 6 42 6 6 7 11 63 63 36 36 36 36 36 36 36 36 36 36 36 36 36 36 36 63 63 5 6 11 11 11 11 11 11 11 11 11 11 11 11 6 5 5 6 6 6 6 6 6 6 6 6 5 5 5 6 7 11 11 11 11 6 1 5 6 6 42 22 11 11 63 63 36 36 36 36 36 36 36 36 36 36 36 36 36 36 36 36 36 63 63 63 5 5 5 5 5 5 5 5 5 5 5 5 1 1 1 1 1 1 1 1 1 1 1 1 1 1 1 1 1 5 1 1 1 1 1 5 6 10 46 21 63 63 63 36 36 36 36 36 36 36 36 36 36 36 36 36 36 36 36 36 36 36 36 63 0 1 1 1 1 1 1 1 1 1 1 1 1 0 0 0 0 0 0 0 0 0 1 1 1 1 1 0 0 1 1 1 1 1 5 5 6 10 46 21 63 36 36 36 36 36 36 36 36 36 36 36 36 36 36 36 36 36 36 36 36 36 36 63 1 1 1 1 1 1 1 1 1 1 1 1 1 1 1 1 1 1 1 1 1 1 1 1 5 0 0 0 16 0 1 1 1 1 1 5 6 6 46 21 63 36 36 36 36 36 36 36 36 36 36 36 36 36 36 36 36 36 36 36 36 36 36 63 0 1 1 1 1 1 1 1 1 1 1 1 1 1 1 1 1 1 1 1 1 1 1 1 6 5 0 16 16 0 1 6 5 1 1 5 5 6 46 63 63 36 36 36 36 36 36 36 36 36 36 36 36 36 36 36 36 36 36 36 36 36 36 63 1 1 1 1 1 1 1 1 1 1 1 1 1 1 1 1 1 1 1 1 1 1 1 1 6 6 0 20 21 16 1 6 6 6 5 1 5 5 41 63 36 36 36 36 36 36 36 36 36 36 36 36 36 36 36 36 36 36 36 36 36 36 36 63 1 1 1 1 1 1 1 1 1 1 1 1 1 1 1 1 1 1 1 1 1 1 1 1 6 6 0 0 16 0 1 6 6 6 6 5 0 63 63 63 36 36 36 36 36 36 36 36 36 36 36 36 36 36 36 36 36 36 36 36 36 36 36 63 1 1 1 1 1 1 1 1 1 1 1 1 1 1 1 1 1 1 1 1 1 1 1 1 6 5 0 20 21 0 5 6 6 6 6 6 1 63 36 36 36 36 36 36 36 36 36 36 36 36 36 36 36 36 36 36 36 36 36 36 36 36 36 63 0 1 1 1 1 1 1 1 1 1 1 1 1 1 1 1 1 1 1 1 1 1 1 1 6 5 0 16 16 0 5 6 6 6 6 6 1 63 36 36 36 36 36 36 36 36 36 36 36 36 36 36 36 36 36 36 36 36 36 36 36 36 36 63 0 1 1 1 1 1 1 1 1 1 1 1 1 1 1 1 1 1 1 1 1 1 1 1 6 6 0 16 16 0 1 5 6 6 6 6 1 63 36 36 36 36 36 36 36 36 36 36 36 36 36 36 36 36 36 36 36 36 36 36 36 36 36 63 0 1 1 1 1 1 1 1 1 1 1 1 1 1 1 1 1 1 1 1 1 1 1 1 6 6 0 16 16 0 6 6 6 6 6 6 1 63 36 36 36 36 36 36 36 36 36 36 36 36 36 36 36 36 36 36 36 36 36 36 36 36 36 63 0 1 1 1 1 1 1 1 1 1 1 1 1 1 1 1 1 1 1 1 1 1 1 1 6 6 0 0 0 0 6 6 6 6 6 6 1 63 36 36 36 36 36 36 36 36 36 36 36 36 36 36 36 36 36 36 36 36 36 36 36 36 36 63 0 1 1 1 1 1 1 1 1 1 1 1 1 1 1 1 1 1 1 1 1 1 1 1 6 6 6 6 6 6 6 6 6 6 6 6 1 63 36 36 36 36 36 36 36 36 36 36 36 36 36 36 36 36 36 36 36 36 36 36 36 36 36 63 0 1 1 1 1 1 1 1 1 1 1 1 1 1 1 1 1 1 1 1 1 1 1 1 6 6 6 6 6 6 6 6 6 6 6 6 1 63 36 36 36 36 36 36 36 36 36 36 36 36 36 36 36 36 36 36 36 36 36 63 63 63 63 63 0 1 1 1 1 1 1 1 1 1 1 1 1 1 1 1 1 1 1 1 1 1 1 1 6 6 6 6 6 6 6 6 6 6 6 6 1 63 36 36 36 36 36 36 36 36 36 36 36 36 36 36 36 36 36 36 36 36 63 63 0 0 21 16 1 1 1 1 1 1 1 1 1 1 1 1 1 1 1 1 1 1 1 1 1 1 1 1 6 6 6 6 6 6 6 6 6 6 6 6 1 63 36 36 36 36 36 36 36 36 36 36 36 36 36 36 36 36 36 63 63 63 63 21 21 21 37 21 1 1 1 1 1 1 1 1 1 1 1 1 1 1 1 1 1 1 1 1 1 1 1 1 6 6 6 6 6 6 6 6 6 6 6 6 1 63 36 36 36 36 36 36 36 36 36 36 36 36 36 36 36 36 63 20 21 21 16 42 42 21 21 21 1 1 1 1 1 1 1 1 1 1 1 1 1 1 1 1 1 1 1 1 1 1 1 1 6 6 6 6 6 6 6 6 6 6 6 6 1 63 36 36 36 36 36 36 36 36 36 36 36 36 36 36 36 36 63 21 42 42 21 42 42 16 16 21 1 1 1 1 1 1 1 1 1 1 1 1 1 1 1 1 1 1 1 1 1 1 1 1 6 6 6 6 6 6 6 6 6 6 6 6 1 63 36 36 36 36 36 36 36 36 36 36 36 36 36 36 36 36 36 63 63 63 63 42 42 21 21 21 1 1 1 1 1 1 1 1 1 1 1 1 1 1 1 1 1 1 1 1 1 1 1 1 6 6 6 6 6 6 6 6 6 6 6 6 1 63 36 36 36 36 36 36 36 36 36 36 36 36 36 36 36 36 36 36 36 36 63 63 16 21 37 21 1 1 1 1 1 1 1 1 1 1 1 1 1 1 1 1 1 1 1 1 1 1 1 1 6 6 6 5 5 5 5 6 6 6 6 6 1 63 36 36 36 36 36 36 36 36 36 36 36 36 36 36 36 36 36 36 36 36 36 63 63 63 63 63 1 1 1 1 1 1 1 1 1 1 1 1 1 1 1 1 1 1 1 1 1 1 1 1 6 6 1 5 5 6 5 6 6 6 6 5 0 63 63 63 36 36 36 36 36 36 36 36 36 36 36 36 36 36 36 36 36 36 36 36 36 36 36 63 1 1 1 1 1 1 1 1 1 1 1 1 1 1 1 1 1 1 1 1 1 1 1 5 6 6 5 6 6 6 5 6 6 6 5 1 5 5 21 63 36 36 36 36 36 36 36 36 36 36 36 36 36 36 36 36 36 36 36 36 36 36 36 63 0 1 1 1 1 1 1 1 1 1 1 1 1 1 1 1 1 1 1 1 1 1 1 1 6 5 1 5 6 6 5 5 5 1 1 5 6 6 46 63 63 36 36 36 36 36 36 36 36 36 36 36 36 36 36 36 36 36 36 36 36 36 36 63 0 1 1 1 1 1 1 1 1 1 1 1 1 1 1 1 1 1 1 1 1 1 5 1 1 1 1 1 1 1 1 1 1 1 1 5 6 6 46 21 63 36 36 36 36 36 36 36 36 36 36 36 36 36 36 36 36 36 36 36 36 36 36 63 0 1 1 1 1 1 1 1 1 1 1 1 1 0 0 0 0 0 0 0 0 0 1 1 1 1 1 1 1 1 1 1 1 1 5 5 6 10 46 21 63 36 36 36 36 36 36 36 36 36 36 36 36 36 36 36 36 36 36 36 36 36 63 63 1 5 5 5 5 5 5 5 5 5 5 1 1 1 1 1 1 1 1 1 1 1 1 1 1 1 1 1 1 1 1 1 1 1 1 5 6 10 46 21 63 63 63 36 36 36 36 36 36 36 36 36 36 36 36 36 36 36 36 36 36 63 63 6 11 11 11 11 11 11 11 11 11 11 11 6 6 5 5 6 6 6 6 6 6 6 6 6 5 5 5 6 7 11 11 11 11 6 1 5 6 6 42 22 11 11 63 36 36 36 36 36 36 36 36 36 36 36 36 36 36 36 36 36 63 63 6 6 10 11 11 11 11 11 11 11 11 11 7 7 6 5 5 5 6 6 6 6 6 6 5 5 5 5 6 11 7 7 11 11 11 11 6 1 5 6 42 6 6 7 63 63 36 36 36 36 36 36 36 36 36 36 36 36 63 63 63 63 63 5 6 6 11 11 11 11 11 11 11 11 11 11 11 7 7 6 5 5 5 6 6 6 6 6 5 5 5 5 6 7 7 11 11 11 11 11 11 6 5 1 21 6 6 6 11 63 63 63 63 63 36 36 36 36 36 36 36 63 63 16 0 0 0 5 6 11 11 11 11 11 11 11 11 11 11 11 11 7 11 6 5 5 5 6 6 6 6 6 5 5 5 6 7 7 7 11 11 11 11 11 11 11 11 6 6 7 7 7 11 5 0 0 0 63 63 36 36 36 36 36 36 63 16 16 0 0 0 5 6 11 11 11 11 11 11 11 11 11 11 11 11 7 7 6 5 5 5 6 6 6 6 5 5 5 5 6 7 7 7 11 11 11 11 11 11 11 11 11 11 11 7 7 11 5 0 0 0 16 63 63 36 36 36 36 63 63 0 16 0 0 0 5 6 11 11 11 11 11 11 11 11 11 11 11 11 7 11 6 5 5 5 6 6 6 6 5 5 5 5 6 7 7 7 11 11 11 11 11 11 11 11 11 11 11 7 7 11 5 0 0 0 0 0 63 36 36 36 36 63 0 0 0 0 0 0 5 6 11 11 11 11 11 11 11 11 11 11 11 11 7 7 6 5 5 5 6 6 6 6 6 5 5 5 6 7 7 7 11 11 11 11 11 11 11 11 11 11 11 7 7 11 5 0 0 16 0 0 63 36 36 36 36 63 0 0 0 16 20 20 1 6 6 10 11 11 11 11 11 11 11 11 11 10 6 7 6 5 5 5 6 6 5 5 6 5 5 5 5 6 11 6 6 11 11 11 11 11 11 11 11 11 11 6 7 11 0 16 16 16 0 0 63 36 36 36 36 63 0 0 0 16 21 20 0 5 6 11 11 11 11 11 11 11 11 11 11 11 7 6 5 5 5 6 6 6 6 6 6 6 6 5 5 6 11 7 7 11 11 11 11 11 11 11 11 11 11 11 11 5 0 16 16 16 0 0 63 36 36 36 36 63 0 0 0 16 21 21 0 0 1 5 6 6 6 6 6 6 6 6 6 6 6 1 1 5 5 5 5 5 5 5 5 5 5 5 1 1 5 6 6 6 6 6 6 6 6 6 6 5 5 5 1 0 0 16 16 16 0 0 63 36 36 36 36 63 0 0 0 16 20 21 20 0 0 20 20 20 0 0 0 0 0 0 0 0 0 0 0 0 0 63 63 63 63 63 63 63 63 0 0 0 0 0 0 0 0 0 0 0 0 0 21 21 16 16 0 0 0 16 16 16 0 0 63 36 36 36 36 63 0 0 0 0 16 21 16 0 21 21 21 37 21 16 0 20 21 16 16 0 0 0 0 0 0 63 36 36 36 36 36 36 63 0 0 0 16 0 0 21 20 20 21 16 0 20 37 21 21 21 0 0 0 0 0 16 0 0 63 36 36 36 36 63 0 0 16 0 0 20 16 0 21 16 0 20 21 20 16 21 0 0 0 0 0 16 0 0 63 63 36 36 36 36 36 36 63 63 0 0 16 0 0 21 0 0 21 21 16 21 21 0 0 21 16 0 16 0 0 0 0 0 63 36 36 36 36 63 63 16 16 0 0 16 21 21 21 16 16 20 37 37 21 21 0 0 0 16 16 16 0 0 63 36 36 36 36 36 36 36 36 63 0 0 0 16 21 21 0 0 21 21 21 37 20 16 0 20 21 16 16 0 0 0 16 63 63 36 36 36 36 36 63 63 16 0 0 16 21 21 21 16 16 20 37 21 21 21 0 0 0 16 16 16 0 63 63 36 36 36 36 36 36 36 36 63 63 0 16 16 21 21 0 0 21 21 21 37 21 20 0 20 21 16 16 0 0 0 63 63 36 36 36 36 36 36 36 63 63 0 0 20 21 21 21 0 0 20 37 37 21 21 0 0 0 16 0 0 63 63 36 36 36 36 36 36 36 36 36 36 63 63 0 0 21 21 0 0 21 21 21 37 20 0 0 21 21 16 16 0 0 63 63 36 36 36 36 36 36 36 36 36 63 63 63 63 63 63 63 63 63 63 63 63 63 63 63 63 63 63 63 63 63 36 36 36 36 36 36 36 36 36 36 36 36 63 63 63 63 63 63 63 63 63 63 63 63 63 63 63 63 63 63 63 63 63 36 36 36 36 36 36 36 36 36 36 36 36 36 36 36 36 36 36 36 36 36 36 36 36 36 36 36 36 36 36 36 36 36 36 36 36 36 36 36 36 36 36 36 36 36 36 36 36 36 36 36 36 36 36 36 36 36 36 36 36 36 36 36 36 36 36 36 36 36 36 36 36 36 36 36 36 36 36 36 36 36 36 36 36 36 36 36 36 36 36 36 36 36 36 36 36 36 36 36 36 36 36 36 36 36 36 36 36 36 36 36 36 36 36 36 36 36 36 36 36 36 36 36 36 36 36 36 36 36 36 36 36 36 