P286 846314 57 36 19 14 57 36 19 14 57 36 19 14 57 36 19 14 57 36 19 14 57 36 19 14 57 36 19 14 57 36 19 14 57 36 19 14 57 36 19 14 57 36 19 14 57 36 19 14 57 36 19 14 57 36 19 14 57 36 19 14 57 36 19 14 57 36 19 14 57 36 19 14 57 36 19 14 57 36 19 14 57 36 19 14 57 36 19 14 57 36 19 14 57 36 19 14 57 36 19 14 57 36 19 14 57 36 19 14 57 36 19 14 57 36 19 14 57 36 19 14 57 36 19 14 57 36 19 14 57 36 19 14 57 36 19 14 57 36 19 14 57 36 19 14 57 36 19 14 57 36 19 14 57 36 19 14 57 36 19 14 57 36 19 14 57 36 19 14 57 36 19 14 57 36 19 14 57 36 19 14 57 36 19 14 57 36 19 14 57 36 19 14 57 36 19 14 57 36 19 14 57 36 19 14 57 36 19 14 57 36 19 14 57 36 19 14 57 36 19 14 57 36 19 14 57 36 19 14 57 36 19 14 57 36 19 14 57 36 19 14 57 36 19 14 57 36 19 14 57 36 19 14 57 36 19 14 57 36 19 14 57 36 19 14 57 36 19 14 57 36 19 14 57 36 19 14 57 36 19 14 57 36 19 14 57 36 19 14 57 36 19 14 57 36 19 14 57 36 19 14 57 36 19 14 57 36 19 14 57 36 19 14 57 36 19 14 57 36 19 14 57 36 19 14 57 36 19 14 57 36 19 14 57 36 19 14 57 36 19 14 57 36 19 14 57 36 19 14 57 36 19 14 57 36 19 14 57 36 19 14 57 36 19 14 57 36 19 14 57 36 19 14 57 36 19 14 57 36 19 14 57 36 19 14 57 36 19 14 57 36 19 14 57 36 19 14 57 36 19 14 57 36 19 14 57 36 19 14 57 36 19 14 57 36 19 14 57 36 19 14 57 36 19 14 57 36 19 14 57 36 19 14 57 36 19 14 57 36 19 14 57 36 19 14 57 36 19 14 57 36 19 14 57 36 19 14 57 36 19 14 57 36 19 14 57 36 19 14 57 36 19 14 57 36 19 14 57 36 19 14 57 36 19 14 57 36 19 14 57 36 19 14 57 36 19 14 57 36 19 14 57 36 19 14 57 36 19 14 57 36 19 14 57 36 19 14 57 36 19 14 57 36 19 14 57 36 19 14 57 36 19 14 57 36 19 14 57 36 19 14 57 36 19 14 57 36 19 14 57 36 19 14 57 36 19 14 57 36 19 14 57 36 19 14 57 36 19 14 57 36 19 14 57 36 19 14 57 36 19 14 57 36 19 14 57 36 19 14 57 36 19 14 57 36 19 14 57 36 19 14 57 36 19 14 57 36 19 14 57 36 19 14 57 36 19 14 57 36 19 14 57 36 19 14 57 36 19 14 57 36 19 14 57 36 19 14 57 36 19 14 57 36 19 14 57 36 19 14 57 36 19 14 57 36 19 14 57 36 19 14 57 36 19 14 57 36 19 14 57 36 19 14 57 36 19 14 57 36 19 14 57 36 19 14 57 36 19 14 57 36 19 14 57 36 19 14 57 36 19 14 57 36 19 14 57 36 19 14 57 36 19 14 57 36 19 30 49 10 19 46 50 10 23 28 49 36 19 14 57 36 19 14 57 36 19 14 57 36 19 14 57 36 19 14 57 36 19 14 57 36 19 14 57 36 19 14 57 36 19 14 57 36 19 14 57 36 19 14 57 36 19 14 57 11 47 60 50 11 31 60 50 6 43 12 57 36 19 14 57 36 19 14 57 36 19 14 57 36 19 14 57 36 19 14 57 36 19 14 57 36 19 14 57 36 19 14 57 36 19 14 57 36 19 14 57 36 19 14 57 36 19 14 57 36 19 14 57 36 19 14 57 36 19 14 57 36 19 14 57 36 19 14 57 36 19 14 57 36 19 14 57 36 19 14 57 36 19 14 57 36 19 14 57 36 19 14 57 36 19 14 57 36 19 14 57 36 19 14 57 36 19 14 57 36 19 14 57 36 19 14 57 36 19 14 57 36 19 14 57 36 19 14 57 36 19 14 57 36 19 14 57 36 19 14 57 36 19 14 57 36 19 14 57 36 19 14 57 36 19 14 57 5 19 46 49 36 19 14 57 36 19 14 57 36 19 14 57 36 19 14 57 36 19 14 57 36 19 14 57 36 19 14 57 36 19 14 57 36 19 14 57 36 19 14 57 36 19 14 57 36 19 14 57 36 19 14 57 5 23 60 50 7 47 60 49 11 31 60 49 7 47 44 50 11 23 12 57 36 19 14 57 36 19 14 57 36 19 14 57 36 19 14 57 36 19 14 57 36 19 14 57 36 19 14 57 36 19 14 57 36 19 14 57 5 23 60 50 7 31 60 49 6 27 45 49 6 27 44 49 6 47 44 50 5 19 14 57 36 19 14 57 36 19 14 57 36 19 14 57 36 19 14 57 36 19 14 57 36 19 14 57 36 19 14 57 36 19 14 57 36 19 14 57 36 19 14 57 6 43 45 53 47 47 46 58 22 27 44 49 10 43 28 49 36 19 14 57 36 19 14 57 36 19 14 57 36 19 14 57 36 19 14 57 36 19 14 57 36 19 14 57 36 19 14 57 36 19 14 57 36 19 14 57 36 19 14 57 36 19 14 57 36 19 14 57 36 19 14 57 36 19 14 57 36 19 14 57 36 19 14 57 36 19 14 57 36 19 14 57 36 19 14 57 36 19 14 57 36 19 14 57 36 19 14 57 36 19 14 57 36 19 14 57 36 19 14 57 36 19 14 57 36 19 14 57 36 19 14 57 36 19 14 57 36 19 14 57 36 19 14 57 36 19 14 57 36 19 14 57 36 19 14 57 36 19 14 57 36 19 14 57 6 23 60 50 7 31 60 50 36 19 14 57 36 19 14 57 36 19 14 57 36 19 14 57 36 19 14 57 36 19 14 57 36 19 14 57 36 19 14 57 36 19 14 57 36 19 14 57 36 19 14 57 36 19 14 57 6 27 60 50 7 31 60 49 6 43 45 54 47 43 44 50 11 27 61 50 11 27 60 50 11 23 12 57 36 19 14 57 36 19 14 57 36 19 14 57 36 19 14 57 36 19 14 57 36 19 14 57 36 19 14 57 6 27 60 50 11 31 60 49 11 27 44 54 27 27 60 49 7 31 60 49 6 43 44 49 6 47 44 50 36 19 14 57 36 19 14 57 36 19 14 57 36 19 14 57 36 19 14 57 36 19 14 57 36 19 14 57 36 19 14 57 36 19 14 57 36 19 14 57 47 31 44 49 7 31 60 49 7 31 60 54 6 27 61 50 6 27 12 57 36 19 14 57 36 19 14 57 36 19 14 57 36 19 14 57 36 19 14 57 36 19 14 57 36 19 14 57 36 19 14 57 36 19 14 57 36 19 14 57 36 19 14 57 36 19 14 57 36 19 14 57 36 19 14 57 36 19 14 57 36 19 14 57 36 19 14 57 36 19 14 57 36 19 14 57 36 19 14 57 36 19 14 57 36 19 14 57 36 19 14 57 36 19 14 57 36 19 14 57 36 19 14 57 36 19 14 57 36 19 14 57 36 19 14 57 36 19 14 57 36 19 14 57 36 19 14 57 36 19 14 57 36 19 14 57 36 19 14 57 10 43 60 55 11 47 60 50 7 27 44 49 36 19 14 57 36 19 14 57 36 19 14 57 36 19 14 57 36 19 14 57 36 19 14 57 36 19 14 57 36 19 14 57 36 19 14 57 36 19 14 57 36 19 14 57 6 27 60 51 11 47 60 50 11 47 60 49 22 63 62 54 7 31 60 49 7 31 60 49 7 63 46 49 7 47 28 49 36 19 14 57 36 19 14 57 36 19 14 57 36 19 14 57 36 19 14 57 36 19 14 57 36 27 60 51 11 47 60 50 11 47 60 50 11 27 60 59 43 31 60 49 7 31 60 49 7 27 60 59 6 31 60 49 6 19 14 57 36 19 14 57 36 19 14 57 36 19 14 57 36 19 14 57 36 19 14 57 36 19 14 57 36 19 14 57 36 19 14 57 36 19 14 57 42 47 45 49 7 31 60 49 7 31 60 54 47 43 61 49 11 47 12 57 36 19 14 57 36 19 14 57 36 19 14 57 36 19 14 57 36 19 14 57 36 19 14 57 36 19 14 57 36 19 14 57 36 19 14 57 36 19 14 57 36 19 14 57 36 19 14 57 36 19 14 57 36 19 14 57 36 19 14 57 36 19 14 57 36 19 14 57 36 19 14 57 36 19 14 57 36 19 14 57 36 19 14 57 36 19 14 57 36 19 14 57 36 19 14 57 36 19 14 57 36 19 14 57 36 19 14 57 36 19 14 57 36 19 14 57 36 19 14 57 36 19 14 57 36 19 14 57 36 19 14 57 36 19 14 57 36 19 46 50 11 47 60 50 11 47 60 50 11 27 44 49 36 19 14 57 36 19 14 57 36 19 14 57 36 19 14 57 36 19 14 57 36 19 14 57 36 19 14 57 36 19 14 57 36 19 14 57 36 19 14 57 36 19 14 57 36 43 60 50 11 47 60 50 11 47 60 50 6 27 60 59 6 47 60 49 7 31 44 49 47 63 46 49 11 31 44 50 36 19 14 57 36 19 14 57 36 19 14 57 36 19 14 57 36 19 14 57 36 19 14 57 36 19 14 57 10 47 60 50 10 63 60 51 11 47 44 50 10 63 62 54 27 27 60 50 47 63 46 53 7 31 60 49 6 19 14 57 36 19 14 57 36 19 14 57 36 19 14 57 36 19 14 57 36 19 14 57 36 19 14 57 36 19 14 57 36 19 14 57 36 19 14 57 11 43 44 49 47 47 62 59 43 63 46 53 6 27 60 49 11 47 12 57 36 19 14 57 36 19 14 57 36 19 14 57 36 19 14 57 36 19 14 57 36 19 14 57 36 19 14 57 36 19 14 57 36 19 14 57 36 19 14 57 36 19 14 57 36 19 14 57 36 19 14 57 36 19 14 57 36 19 14 57 36 19 14 57 36 19 14 57 36 19 14 57 36 19 14 57 36 19 14 57 36 19 14 57 36 19 14 57 36 19 14 57 36 19 14 57 36 19 14 57 36 19 14 57 36 19 14 57 36 19 14 57 36 19 14 57 36 19 14 57 36 19 14 57 36 19 14 57 36 19 14 57 36 19 14 57 36 19 14 57 36 19 46 50 6 23 28 49 15 63 60 50 36 19 14 57 36 19 14 57 36 19 14 57 36 19 14 57 36 19 14 57 36 19 14 57 36 19 14 57 36 19 14 57 36 19 14 57 36 19 14 57 36 19 14 57 36 19 14 57 36 47 28 49 5 23 60 51 15 47 60 50 6 27 44 49 6 27 44 49 6 27 60 49 11 47 44 49 36 19 14 57 36 19 14 57 36 19 14 57 36 19 14 57 36 19 14 57 36 19 14 57 36 19 14 57 36 19 14 57 10 23 28 49 5 63 60 51 11 47 60 50 11 27 44 49 7 31 60 49 7 31 44 50 36 19 14 57 36 19 14 57 36 19 14 57 36 19 14 57 36 19 14 57 36 19 14 57 36 19 14 57 36 19 14 57 36 19 14 57 36 19 14 57 15 63 60 50 11 47 60 49 7 31 60 49 7 31 60 50 1 19 14 57 36 19 14 57 36 19 14 57 36 19 14 57 36 19 14 57 36 19 14 57 36 19 14 57 36 19 14 57 36 19 14 57 36 19 14 57 36 19 14 57 36 19 14 57 36 19 14 57 36 19 14 57 36 19 14 57 36 19 14 57 36 19 14 57 36 19 14 57 36 19 14 57 36 19 14 57 36 19 14 57 36 19 14 57 36 19 14 57 36 19 14 57 36 19 14 57 36 19 14 57 36 19 14 57 36 19 14 57 36 19 14 57 36 19 14 57 36 19 14 57 36 19 14 57 36 19 14 57 36 19 14 57 36 19 14 57 36 19 14 57 36 23 13 53 21 23 45 50 5 23 28 49 36 19 14 57 36 19 14 57 36 19 14 57 36 19 14 57 36 19 14 57 36 19 14 57 36 19 14 57 36 19 14 57 36 19 14 57 36 19 14 57 36 19 14 57 36 23 29 53 37 43 30 53 21 43 28 49 5 23 60 51 11 47 60 50 7 31 60 49 7 31 60 50 5 19 14 57 36 19 14 57 36 19 14 57 36 19 14 57 36 19 14 57 36 19 14 57 36 19 14 57 36 23 29 53 37 43 46 58 62 23 29 53 10 23 28 49 10 47 60 50 11 47 60 50 11 31 60 50 5 19 14 57 36 19 14 57 36 19 14 57 36 19 14 57 36 19 14 57 36 19 14 57 36 19 14 57 36 19 14 57 36 19 14 57 36 19 14 57 36 19 14 57 6 27 60 50 11 47 60 50 11 47 60 50 5 19 14 57 36 19 14 57 36 19 14 57 36 19 14 57 36 19 14 57 36 19 14 57 36 19 14 57 36 19 14 57 36 19 14 57 36 19 14 57 36 19 14 57 36 19 14 57 36 19 14 57 36 19 14 57 36 19 14 57 36 19 14 57 36 19 14 57 36 19 14 57 36 19 14 57 36 19 14 57 36 19 14 57 36 19 14 57 36 19 14 57 36 19 14 57 36 19 14 57 36 19 14 57 36 19 14 57 36 19 14 57 36 19 14 57 36 19 14 57 36 19 14 57 36 19 14 57 36 19 14 57 36 19 14 57 36 19 14 57 36 19 14 57 36 23 29 53 37 43 46 58 42 43 46 58 21 23 61 50 36 19 14 57 36 19 14 57 36 19 14 57 36 19 14 57 36 19 14 57 36 19 14 57 36 19 14 57 36 19 14 57 36 19 14 57 36 19 14 57 36 3 12 53 37 43 46 58 42 43 46 58 42 23 14 57 36 43 60 50 11 47 60 50 11 47 60 50 5 19 14 57 36 19 14 57 36 19 14 57 36 19 14 57 36 19 14 57 36 19 14 57 36 19 14 57 36 7 12 48 0 43 46 58 42 43 46 58 42 23 14 53 36 19 14 57 10 47 60 50 11 47 60 51 5 19 14 57 36 19 14 57 36 19 14 57 36 19 14 57 36 19 14 57 36 19 14 57 36 19 14 57 36 19 14 57 36 19 14 57 36 19 14 57 36 19 14 57 36 19 14 57 36 19 46 50 11 47 60 50 5 19 14 57 36 19 14 57 36 19 14 57 36 19 14 57 36 19 14 57 36 19 14 57 36 19 14 57 36 19 14 57 36 19 14 57 36 19 14 57 36 19 14 57 36 19 14 57 36 19 14 57 36 19 14 57 36 19 14 57 36 19 14 57 36 19 14 57 36 19 14 57 36 19 14 57 36 19 14 57 36 19 14 57 36 19 14 57 36 19 14 57 36 19 14 57 36 19 14 57 36 19 14 57 36 19 14 57 36 19 14 57 36 19 14 57 36 19 14 57 36 19 14 57 36 19 14 57 36 19 14 57 36 19 14 57 36 19 14 57 36 19 14 57 36 7 28 48 16 3 13 53 42 43 46 58 42 23 30 53 36 19 14 57 36 19 14 57 36 19 14 57 36 19 14 57 36 19 14 57 36 19 14 57 36 19 14 57 36 19 14 57 36 19 14 57 36 19 14 57 36 7 28 48 20 3 29 53 20 3 45 58 42 23 14 53 36 19 14 57 36 19 14 57 36 43 60 51 5 19 14 57 36 19 14 57 36 19 14 57 36 19 14 57 36 19 14 57 36 19 14 57 36 63 63 63 63 43 30 48 20 3 29 53 21 23 13 52 16 23 14 53 36 19 14 57 36 19 14 57 36 19 14 57 36 19 14 57 36 19 14 57 36 19 14 57 36 19 14 57 36 19 14 57 36 19 14 57 36 19 14 57 36 19 14 57 36 19 14 57 36 19 14 57 36 19 14 57 36 19 14 57 36 19 14 57 36 19 14 57 36 19 14 57 36 19 14 57 36 19 14 57 36 19 14 57 36 19 14 57 36 19 14 57 36 19 14 57 36 19 14 57 36 19 14 57 36 19 14 57 36 19 14 57 36 19 14 57 36 19 14 57 36 19 14 57 36 19 14 57 36 19 14 57 36 19 14 57 36 19 14 57 36 19 14 57 36 19 14 57 36 19 14 57 36 19 14 57 36 19 14 57 36 19 14 57 36 19 14 57 36 19 14 57 36 19 14 57 36 19 14 57 36 19 14 57 36 19 14 57 36 19 14 57 36 19 14 57 36 19 14 57 36 19 14 57 36 19 14 57 36 19 62 63 63 43 46 58 20 3 29 53 21 23 13 52 16 3 12 48 36 19 14 57 36 19 14 57 36 19 14 57 36 19 14 57 36 19 14 57 36 19 14 57 36 19 14 57 36 19 14 57 36 19 14 57 36 63 63 63 63 43 46 58 21 3 29 53 21 23 13 52 16 3 29 49 36 19 14 57 36 19 14 57 36 19 14 57 36 19 14 57 36 19 14 57 36 19 14 57 36 19 14 57 36 19 14 57 36 19 14 57 36 19 62 63 42 43 46 58 21 3 29 53 21 23 13 52 16 3 29 48 36 19 14 57 36 19 14 57 36 19 14 57 36 19 14 57 36 19 14 57 36 19 14 57 36 19 14 57 36 19 14 57 36 19 14 57 36 19 14 57 36 19 14 57 36 19 14 57 36 19 14 57 36 19 14 57 36 19 14 57 36 19 14 57 36 19 14 57 36 19 14 57 36 19 14 57 36 19 14 57 36 19 14 57 36 19 14 57 36 19 14 57 36 19 14 57 36 19 14 57 36 19 14 57 36 19 14 57 36 19 14 57 36 19 14 57 36 19 14 57 36 19 14 57 36 19 14 57 36 19 14 57 36 19 14 57 36 19 14 57 36 19 14 57 36 19 14 57 36 19 14 57 36 19 14 57 36 19 14 57 36 19 14 57 36 19 14 57 36 19 14 57 36 19 14 57 36 19 14 57 36 19 14 57 36 19 14 57 36 19 14 57 36 19 14 57 36 19 14 57 36 19 14 57 36 19 14 57 36 19 62 63 63 23 29 53 16 3 28 53 21 23 13 52 16 3 29 49 36 19 14 57 36 19 14 57 36 19 14 57 36 19 14 57 36 19 14 57 36 19 14 57 36 19 14 57 36 19 14 57 36 19 14 57 36 63 63 63 63 23 30 57 37 3 29 53 21 23 13 52 16 3 45 58 36 19 14 57 36 19 14 57 36 19 14 57 36 19 14 57 36 19 14 57 36 19 14 57 36 19 14 57 36 19 14 57 36 19 14 57 36 19 14 57 36 19 45 58 16 3 28 57 16 23 13 48 16 3 45 62 63 19 14 57 36 19 14 57 36 19 14 57 36 19 14 57 36 19 14 57 36 19 14 57 36 19 14 57 36 19 14 57 36 19 14 57 36 19 14 57 36 19 14 57 36 19 14 57 36 19 14 57 36 19 14 57 36 19 14 57 36 19 14 57 36 19 14 57 36 19 14 57 36 19 14 57 36 19 14 57 36 19 14 57 36 19 14 57 36 19 14 57 36 19 14 57 36 19 14 57 36 19 14 57 36 19 14 57 36 19 14 57 36 19 14 57 36 19 14 57 36 19 14 57 36 19 14 57 36 19 14 57 36 19 14 57 36 19 14 57 36 19 14 57 36 19 14 57 36 19 14 57 36 19 62 63 42 23 14 57 36 19 14 57 36 19 14 57 36 19 14 57 36 19 14 57 36 19 14 57 36 19 14 57 36 19 14 57 36 19 14 57 36 19 14 57 36 19 14 57 36 19 14 57 36 19 14 57 36 19 62 63 63 23 29 53 0 3 29 53 21 23 14 52 0 3 45 62 63 63 15 57 36 19 14 57 36 19 14 57 36 19 14 57 36 19 14 57 36 19 14 57 36 19 14 57 36 19 14 57 36 19 14 57 36 19 14 57 63 23 29 53 37 3 12 52 21 23 13 48 37 3 45 58 63 63 15 57 36 19 14 57 36 19 14 57 36 19 14 57 36 19 14 57 36 19 14 57 36 19 14 57 36 19 14 57 36 19 14 57 36 19 14 57 36 19 14 57 36 19 29 53 16 3 13 52 0 3 29 53 42 63 15 57 36 19 14 57 36 19 14 57 36 19 14 57 36 19 14 57 36 19 14 57 36 19 14 57 36 19 14 57 36 19 14 57 36 19 14 57 36 19 14 57 36 19 14 57 36 19 14 57 36 19 14 57 36 19 14 57 36 19 14 57 36 19 14 57 36 19 14 57 36 19 14 57 36 19 14 57 36 19 14 57 36 19 14 57 36 19 14 57 36 19 14 57 36 19 14 57 36 19 14 57 36 19 14 57 36 19 14 57 36 19 14 57 36 19 14 57 36 19 14 57 36 19 14 57 36 19 14 57 36 19 14 57 36 19 14 57 36 19 14 57 36 19 14 57 36 19 14 57 36 19 14 57 36 63 63 63 21 3 14 57 36 19 14 57 36 19 14 57 36 19 14 57 36 19 14 57 36 19 14 57 36 19 14 57 36 19 14 57 36 19 14 57 36 19 14 57 36 19 14 57 36 19 14 57 36 19 14 57 36 19 14 57 63 63 31 53 21 23 14 48 0 3 29 53 63 63 63 63 36 19 14 57 36 19 14 57 36 19 14 57 36 19 14 57 36 19 14 57 36 19 14 57 36 19 14 57 36 19 14 57 36 19 14 57 36 19 14 57 36 19 62 63 63 23 13 52 37 3 28 53 63 63 63 63 36 19 14 57 36 19 14 57 36 19 14 57 36 19 14 57 36 19 14 57 36 19 14 57 36 19 14 57 36 19 14 57 36 19 14 57 36 19 14 57 36 19 14 57 36 19 63 63 16 19 29 53 42 63 15 57 36 19 14 57 36 19 14 57 36 19 14 57 36 19 14 57 36 19 14 57 36 19 14 57 36 19 14 57 36 19 14 57 36 19 14 57 36 19 14 57 36 19 14 57 36 19 14 57 36 19 14 57 36 19 14 57 36 19 14 57 36 19 14 57 36 19 14 57 36 19 14 57 36 19 14 57 36 19 14 57 36 19 14 57 36 19 14 57 36 19 14 57 36 19 14 57 36 19 14 57 36 19 14 57 36 19 14 57 36 19 14 57 36 19 14 57 36 19 14 57 36 19 14 57 36 19 14 57 36 19 14 57 36 19 14 57 36 19 14 57 36 19 14 57 36 19 14 57 36 19 14 57 36 19 14 57 36 19 14 57 36 63 14 57 36 19 14 57 36 19 14 57 36 19 14 57 36 19 14 57 36 19 14 57 36 19 14 57 36 19 14 57 36 19 14 57 36 19 14 57 36 19 14 57 36 19 14 57 36 19 14 57 36 19 14 57 36 19 14 57 63 63 31 57 21 63 63 63 36 19 14 57 36 19 14 57 36 19 14 57 36 19 14 57 36 19 14 57 36 19 14 57 36 19 14 57 36 19 14 57 36 19 14 57 36 19 14 57 36 19 14 57 36 19 14 57 36 19 62 63 63 63 63 63 36 19 14 57 36 19 14 57 36 19 14 57 36 19 14 57 36 19 14 57 36 19 14 57 36 19 14 57 36 19 14 57 36 19 14 57 36 19 14 57 36 19 14 57 36 19 14 57 36 19 14 57 36 19 14 57 36 19 14 57 36 19 14 57 36 19 14 57 36 19 14 57 36 19 14 57 36 19 14 57 36 19 14 57 36 19 14 57 36 19 14 57 36 19 14 57 36 19 14 57 36 19 14 57 36 19 14 57 36 19 14 57 36 19 14 57 36 19 14 57 36 19 14 57 36 19 14 57 36 19 14 57 36 19 14 57 36 19 14 57 36 19 14 57 36 19 14 57 36 19 14 57 36 19 14 57 36 19 14 57 36 19 14 57 36 19 14 57 36 19 14 57 36 19 14 57 36 19 14 57 36 19 14 57 36 19 14 57 36 19 14 57 36 19 14 57 36 19 14 57 36 19 14 57 36 19 14 57 36 19 14 57 36 19 14 57 36 19 14 57 36 19 14 57 36 19 14 57 36 19 14 57 36 19 14 57 36 19 14 57 36 19 14 57 36 19 14 57 36 19 14 57 36 19 14 57 36 19 14 57 36 19 14 57 36 19 14 57 36 19 14 57 36 19 14 57 36 19 14 57 36 19 14 57 36 19 14 57 36 19 14 57 36 19 14 57 36 19 14 57 36 19 14 57 36 19 14 57 36 19 14 57 36 19 14 57 36 19 14 57 36 19 14 57 36 19 14 57 36 19 14 57 36 19 14 57 36 19 14 57 36 19 14 57 36 19 14 57 36 19 14 57 36 19 14 57 36 19 14 57 36 19 14 57 36 19 14 57 36 19 14 57 36 19 14 57 36 19 14 57 36 19 14 57 36 19 14 57 36 19 14 57 36 19 14 57 36 19 14 57 36 19 14 57 36 19 14 57 36 19 14 57 36 19 14 57 36 19 14 57 36 19 14 57 36 19 14 57 36 19 14 57 36 19 14 57 36 19 14 57 36 19 14 57 36 19 14 57 36 19 14 57 36 19 14 57 36 19 14 57 36 19 14 57 36 19 14 57 36 19 14 57 36 19 14 57 36 19 14 57 36 19 14 57 36 19 14 57 36 19 14 57 36 19 14 57 36 19 14 57 36 19 14 57 36 19 14 57 36 19 14 57 36 19 14 57 36 19 14 57 36 19 14 57 36 19 14 57 36 19 14 57 36 19 14 57 36 19 14 57 36 19 14 57 36 19 14 57 36 19 14 57 36 19 14 57 36 19 14 57 36 19 14 57 36 19 14 57 36 19 14 57 36 19 14 57 36 19 14 57 36 19 14 57 36 19 14 57 36 19 14 57 36 19 14 57 36 19 14 57 36 19 14 57 36 19 14 57 36 19 14 57 36 19 14 57 36 19 14 57 36 19 14 57 36 19 14 57 36 19 14 57 36 19 14 57 36 19 14 57 36 19 14 57 36 19 14 57 36 19 14 57 36 19 14 57 36 19 14 57 36 19 14 57 36 19 14 57 36 19 14 57 36 19 14 57 36 19 14 57 36 19 14 57 36 19 14 57 36 19 14 57 36 19 14 57 36 19 14 57 36 19 14 57 36 19 14 57 36 19 14 57 36 19 14 57 36 19 14 57 36 19 14 57 36 19 14 57 36 19 14 57 36 19 14 57 36 19 14 57 36 19 14 57 36 19 14 57 36 19 14 57 36 19 14 57 36 19 14 57 36 19 14 57 36 19 14 57 36 19 14 57 36 19 14 57 36 19 14 57 36 19 14 57 36 19 14 57 36 19 14 57 36 19 14 57 36 19 14 57 36 19 14 57 36 19 14 57 36 19 14 57 36 19 14 57 36 19 14 57 36 19 14 57 36 19 14 57 36 19 14 57 36 19 14 57 36 19 14 57 36 19 14 57 36 19 14 57 36 19 14 57 36 19 14 57 36 19 14 57 36 19 14 57 36 19 14 57 36 19 14 57 36 19 14 57 36 19 14 57 36 19 14 57 36 19 14 57 36 19 14 57 36 19 14 57 36 19 14 57 36 19 14 57 36 19 14 57 36 19 14 57 36 19 14 57 36 19 14 57 36 19 14 57 36 19 14 57 36 19 14 57 36 19 14 57 36 19 14 57 36 19 14 57 36 19 14 57 36 19 14 57 36 19 14 57 36 19 14 57 36 19 14 57 36 19 14 57 36 19 14 57 36 19 14 57 36 19 14 57 36 19 14 57 36 19 14 57 36 19 14 57 36 19 14 57 36 19 14 57 36 19 14 57 36 19 14 57 36 19 14 57 36 19 14 57 36 19 14 57 36 19 14 57 36 19 14 57 36 19 14 57 36 19 14 57 36 19 14 57 36 19 14 57 36 19 14 57 36 19 14 57 36 19 14 57 36 19 14 57 36 19 14 57 36 19 14 57 36 19 14 57 36 19 14 57 36 19 14 57 36 19 14 57 36 19 14 57 36 19 14 57 36 19 14 57 36 19 14 57 36 19 14 57 36 19 14 57 36 19 14 57 36 19 14 57 36 19 14 57 36 19 14 57 36 19 14 57 36 19 14 57 36 19 14 57 36 19 14 57 36 19 14 57 36 19 14 57 36 19 14 57 36 19 14 57 36 19 14 57 36 19 14 57 36 19 14 57 36 19 14 57 36 19 14 57 36 19 14 57 36 19 14 57 36 19 14 57 36 19 14 57 36 19 14 57 36 19 14 57 36 19 14 57 36 19 14 57 36 19 14 57 36 19 14 57 36 19 14 57 36 19 14 57 36 19 14 57 36 19 14 57 36 19 14 57 36 19 14 57 36 19 14 57 36 19 14 57 36 19 14 57 36 19 14 57 36 19 14 57 36 19 14 57 36 19 14 57 36 19 14 57 36 19 14 57 36 19 14 57 36 19 14 57 36 19 14 57 36 19 14 57 36 19 14 57 36 19 14 57 36 19 14 57 36 19 14 57 36 19 14 57 36 19 14 57 36 19 14 57 36 19 14 57 36 19 14 57 36 19 14 57 36 19 14 57 36 19 14 57 36 19 14 57 36 19 14 57 36 19 14 57 36 19 14 57 36 19 14 57 36 19 14 57 36 19 14 57 36 19 14 57 36 19 14 57 36 19 14 57 36 19 14 57 36 19 14 57 36 19 14 57 36 19 14 57 36 19 14 57 36 19 14 57 36 19 14 57 36 19 14 57 36 19 14 57 36 19 14 57 36 19 14 57 36 19 14 57 36 19 14 57 36 19 14 57 36 19 14 57 36 19 14 57 36 19 14 57 36 19 14 57 36 19 14 57 36 19 14 57 36 19 14 57 36 19 14 57 36 19 14 57 36 19 14 57 36 19 14 57 36 19 14 57 36 19 14 57 36 19 14 57 36 19 14 57 36 19 14 57 36 19 14 57 36 19 14 57 36 19 14 57 36 19 14 57 36 19 14 57 36 19 14 57 36 19 14 57 36 19 14 57 36 19 14 57 36 19 14 57 36 19 14 57 36 19 14 57 36 19 14 57 36 19 14 57 36 19 14 57 36 19 14 57 36 19 14 57 36 19 14 57 36 19 14 57 36 19 14 57 36 19 14 57 36 19 14 57 36 19 14 57 36 19 14 57 36 19 14 57 36 19 14 57 36 19 14 57 36 19 14 57 36 19 14 57 36 19 14 57 36 19 14 57 36 19 14 57 36 19 14 57 36 19 14 57 36 19 14 57 36 19 14 57 36 19 14 57 36 19 14 57 36 19 14 57 36 19 14 57 36 19 14 57 36 19 14 57 36 19 14 57 36 19 14 57 36 19 14 57 36 19 14 57 36 19 14 57 36 19 14 57 36 19 14 57 36 19 14 57 36 19 14 57 36 19 14 57 36 19 14 57 36 19 14 57 36 19 14 57 36 19 14 57 36 19 14 57 36 19 14 57 36 19 14 57 36 19 14 57 36 19 14 57 36 19 14 57 36 19 14 57 36 19 14 57 36 19 14 57 36 19 14 57 36 19 14 57 36 19 14 57 36 19 14 57 36 19 14 57 36 19 14 57 36 19 14 57 36 19 14 57 36 19 14 57 36 19 14 57 36 19 14 57 36 19 14 57 36 19 14 57 36 19 14 57 36 19 14 57 36 19 14 57 36 19 14 57 36 19 14 57 36 19 14 57 36 19 14 57 36 19 14 57 36 19 14 57 36 19 14 57 36 19 14 57 36 19 14 57 36 19 14 57 36 19 14 57 36 19 14 57 36 19 14 57 36 19 14 57 36 19 14 57 36 19 14 57 36 19 14 57 36 19 14 57 36 19 14 57 36 19 14 57 36 19 14 57 36 19 14 57 36 19 14 57 36 19 14 57 36 19 14 57 36 19 14 57 36 19 14 57 36 19 14 57 36 19 14 57 36 19 14 57 36 19 14 57 36 19 14 57 36 19 14 57 36 19 14 57 36 19 14 57 36 19 14 57 36 19 14 57 36 19 14 57 36 19 14 57 36 19 14 57 36 19 14 57 36 19 14 57 36 19 14 57 36 19 14 57 36 19 14 57 36 19 14 57 36 19 14 57 36 19 14 57 36 19 14 57 36 19 14 57 36 19 14 57 36 19 14 57 36 19 14 57 36 19 14 57 36 19 14 57 36 19 14 57 36 19 14 57 36 19 14 57 36 19 14 57 36 19 14 57 36 19 14 57 36 19 14 57 36 19 14 57 36 19 14 57 36 19 14 57 36 19 14 57 36 19 14 57 36 19 14 57 36 19 14 57 36 19 14 57 36 19 14 57 36 19 14 57 36 19 