P2100 1156363 63 63 63 42 42 42 42 42 42 42 42 42 42 42 42 42 42 42 42 42 42 42 42 42 42 42 42 42 42 42 42 42 42 42 42 42 42 42 42 42 42 42 42 42 42 42 42 42 42 42 42 42 42 42 42 42 42 42 42 42 42 42 42 42 42 42 42 42 42 42 42 42 42 42 42 42 42 42 42 42 42 42 63 63 63 63 63 63 63 63 47 42 42 42 42 63 63 63 63 63 63 63 42 0 0 0 0 0 0 0 0 0 0 0 0 0 0 0 0 0 0 0 0 0 0 0 0 0 0 0 0 0 0 0 0 0 0 0 0 0 0 0 0 0 0 0 0 0 0 0 0 0 0 0 0 0 0 0 0 0 0 0 0 0 0 0 0 0 0 0 0 0 0 0 0 0 0 0 0 0 0 0 25 42 42 42 42 42 42 42 21 0 0 0 0 42 63 63 63 63 63 63 42 0 0 0 0 0 0 0 0 0 0 0 0 0 0 0 0 0 0 0 0 0 0 0 0 0 0 0 16 21 20 20 0 0 0 0 0 0 0 0 0 0 0 0 0 0 0 0 0 0 0 0 0 0 0 0 0 0 0 0 0 0 0 0 0 0 0 0 0 0 0 0 0 0 0 0 0 0 0 0 41 42 42 42 42 42 42 46 21 0 4 0 0 42 63 63 63 63 63 63 42 0 0 0 0 0 0 0 0 0 0 0 0 0 0 0 0 0 0 0 0 0 0 0 0 21 21 42 62 58 58 42 42 41 37 21 0 0 0 0 0 0 0 0 0 0 0 0 0 0 0 0 0 0 0 0 0 0 0 0 0 0 0 0 0 0 0 0 0 0 0 0 0 0 0 0 0 0 0 0 42 42 42 42 42 42 42 42 21 0 4 0 0 42 63 63 63 63 63 63 42 0 0 0 0 0 0 0 0 0 0 0 0 0 0 0 0 0 0 0 0 0 21 21 42 42 63 63 62 62 62 62 62 58 42 42 41 21 0 0 0 0 0 0 0 0 0 0 0 0 0 0 0 0 0 0 0 0 0 0 0 0 0 0 0 0 0 0 0 0 0 0 0 0 0 0 0 0 0 0 42 42 42 42 42 42 42 42 21 4 4 0 0 42 63 63 63 63 63 63 42 0 0 0 0 0 0 0 0 0 0 0 0 0 0 0 0 0 0 0 0 21 41 42 62 63 63 63 63 62 62 58 58 62 58 42 41 41 41 21 0 0 0 0 0 0 0 0 0 0 0 0 0 0 0 0 0 0 0 0 0 0 0 0 0 0 0 0 0 0 0 0 0 0 0 0 0 0 0 0 42 42 42 42 42 42 42 46 21 0 4 0 0 42 63 63 63 63 63 63 42 0 0 0 0 0 0 0 0 0 0 0 0 0 0 0 0 0 0 0 20 41 63 62 42 63 63 63 62 62 62 58 58 58 41 58 58 41 41 41 41 20 0 0 0 0 0 0 0 0 0 0 0 0 0 0 0 0 0 0 0 0 0 0 0 0 0 0 0 0 0 0 0 0 0 0 0 0 0 0 42 42 42 42 42 42 42 46 21 4 4 0 0 42 63 63 63 63 63 63 42 0 0 0 0 0 0 0 0 0 0 0 0 0 0 0 0 0 0 20 42 63 63 62 42 63 63 63 63 63 63 62 58 57 41 41 57 41 41 41 41 41 21 0 0 0 0 0 0 0 0 0 0 0 0 0 0 0 0 0 0 0 0 0 0 0 0 0 0 0 0 0 0 0 0 0 0 0 0 4 42 42 42 42 42 42 42 42 21 4 0 0 0 42 63 63 63 63 63 63 42 0 0 0 0 0 0 0 0 0 0 0 0 0 0 0 0 0 0 41 62 63 62 42 62 63 63 63 63 63 62 62 62 58 58 41 41 41 41 41 41 41 41 41 21 0 0 0 0 0 0 0 0 0 0 0 0 0 0 0 0 0 0 0 0 0 0 0 0 0 0 0 0 0 0 0 0 0 0 21 42 42 42 42 42 42 42 46 21 4 0 0 0 42 63 63 63 63 63 63 42 0 0 0 0 0 0 0 0 0 0 0 0 0 0 0 0 0 21 62 63 63 62 62 62 63 63 63 63 62 62 58 58 58 58 58 41 41 41 41 41 41 41 41 37 21 16 0 0 0 0 0 0 0 0 0 0 0 0 0 0 0 0 0 0 0 0 0 0 0 0 0 0 0 0 0 0 0 0 4 42 42 42 42 42 42 42 46 21 4 0 0 0 42 63 63 63 63 63 63 42 0 0 0 0 0 0 0 0 0 0 0 0 0 0 0 0 21 42 63 63 63 63 62 63 63 63 63 63 62 62 58 58 58 58 58 58 41 41 41 41 41 41 41 41 37 20 0 0 0 0 0 0 0 0 0 0 0 0 0 0 0 0 0 0 0 0 0 0 0 0 0 0 0 0 0 0 0 0 21 42 42 42 42 42 42 42 42 21 4 0 0 0 42 63 63 63 63 63 63 42 0 0 0 0 0 0 0 0 0 0 0 0 0 0 0 21 42 63 63 63 63 63 62 62 63 63 63 62 62 58 58 58 57 58 58 58 58 41 41 41 41 41 41 37 41 37 21 0 0 0 0 0 0 0 0 0 0 0 0 0 0 0 0 0 0 0 0 0 0 0 0 0 0 0 0 0 0 0 21 42 42 42 42 42 42 42 42 5 4 0 0 0 42 63 63 63 63 63 63 42 0 0 0 0 0 0 0 0 0 0 0 0 0 0 0 21 62 63 63 63 63 62 62 62 63 63 62 62 58 58 58 57 41 58 58 58 58 58 41 41 41 41 37 37 37 37 37 21 16 0 0 0 0 0 0 0 0 0 0 0 0 0 0 0 0 0 0 0 0 0 0 0 0 0 0 0 0 0 25 42 42 42 42 42 42 42 42 5 5 0 0 0 42 63 63 63 63 63 63 42 0 0 0 0 0 0 0 0 0 0 0 0 0 0 21 42 63 63 63 63 63 62 62 62 62 63 63 62 58 58 58 58 41 57 58 58 58 41 41 58 41 41 41 37 37 37 37 21 21 20 0 0 0 0 0 0 0 0 0 0 0 0 0 0 0 0 0 0 0 0 0 0 0 0 0 0 0 0 25 42 42 42 42 42 42 42 42 5 5 0 0 0 42 63 63 63 63 63 63 42 0 0 0 0 0 0 0 0 0 0 0 0 0 0 42 63 63 63 63 63 63 63 62 58 62 63 63 63 62 62 62 62 58 57 58 58 62 58 57 41 58 42 41 37 36 37 37 37 21 21 16 0 0 0 0 0 0 0 0 0 0 0 0 0 0 0 0 0 0 0 0 0 0 0 0 0 0 0 25 42 42 42 42 42 42 42 42 5 5 0 0 0 42 63 63 63 63 63 63 42 0 0 0 0 0 0 0 0 0 0 0 0 0 21 58 63 63 63 63 62 63 62 58 58 62 63 63 63 63 63 63 62 58 58 57 58 62 62 58 57 58 58 41 41 37 37 37 37 37 21 21 16 0 0 0 0 0 0 0 0 0 0 0 0 0 0 0 0 0 0 0 0 0 0 0 0 0 0 25 42 42 42 42 42 42 42 42 5 5 0 0 0 42 63 63 63 63 63 63 42 0 0 0 0 0 0 0 0 0 0 0 0 20 42 63 63 63 63 63 62 62 58 58 58 63 63 63 63 63 62 62 62 62 58 58 58 62 58 58 58 58 58 58 41 41 37 36 36 37 36 37 21 16 0 0 0 0 0 0 0 0 0 0 0 0 0 0 0 0 0 0 0 0 0 0 0 0 0 42 42 42 42 42 42 42 46 42 4 21 0 0 0 42 63 63 63 63 63 63 42 0 0 0 0 0 0 0 0 0 0 0 0 21 42 63 63 63 63 63 58 58 58 58 58 63 63 63 63 62 63 63 63 62 58 58 58 58 58 58 57 41 58 62 58 41 41 37 20 37 37 20 21 21 16 0 0 0 0 0 0 0 0 0 0 0 0 0 0 0 0 0 0 0 0 0 0 0 0 42 46 42 42 42 42 42 47 42 5 21 0 0 0 42 63 63 63 63 63 63 42 0 0 0 0 0 0 0 0 0 0 0 20 42 63 63 63 63 63 62 41 57 57 58 62 62 63 63 63 63 63 63 63 63 62 62 58 58 58 58 58 57 37 41 41 41 41 41 37 37 37 37 20 20 20 16 0 0 0 0 0 0 0 0 0 0 0 0 0 0 0 0 0 0 0 0 0 0 0 42 46 42 42 42 42 42 47 42 5 21 0 0 0 42 63 63 63 63 63 63 42 0 0 0 0 0 0 0 0 0 0 0 21 42 63 63 63 63 63 62 41 57 57 58 58 62 63 63 63 63 63 63 63 63 62 62 62 62 58 58 58 58 57 41 41 41 41 41 41 36 37 37 21 21 21 20 20 0 0 0 0 0 0 0 0 0 0 0 0 0 0 0 0 0 0 0 0 0 4 42 46 42 42 42 42 42 47 42 5 21 0 0 0 42 63 63 63 63 63 63 42 0 0 0 0 0 0 0 0 0 0 0 42 63 63 63 63 63 63 62 58 57 57 58 58 62 63 63 63 63 63 63 63 63 63 62 58 58 57 41 57 58 57 41 41 41 41 41 41 41 37 37 37 37 21 21 20 21 20 20 0 0 0 0 0 0 0 0 0 0 0 0 0 0 0 0 0 0 4 42 42 42 46 42 42 42 47 42 5 21 0 0 0 42 63 63 63 63 63 63 42 0 0 0 0 0 0 0 0 0 0 0 42 63 63 63 63 63 63 62 58 58 57 57 58 63 63 63 63 63 63 62 62 58 58 41 41 41 41 41 57 58 58 37 41 41 41 41 37 41 41 41 41 37 37 37 21 21 37 41 20 0 0 0 0 0 0 0 0 0 0 0 0 0 0 0 0 0 0 42 46 42 42 42 42 42 47 42 5 21 0 0 0 42 63 63 63 63 63 63 42 0 0 0 0 0 0 0 0 0 0 21 63 63 63 63 63 63 63 62 62 58 41 57 58 63 63 63 63 62 58 58 41 37 20 37 37 37 37 41 58 58 58 41 37 41 37 37 37 41 41 41 41 41 41 41 41 41 37 21 21 16 0 0 0 0 0 0 0 0 0 0 0 0 0 0 0 0 0 25 42 42 42 42 42 42 47 42 5 21 0 0 0 42 63 63 63 63 63 63 42 0 0 0 0 0 0 0 0 0 0 42 63 63 63 63 63 63 63 62 58 58 57 57 58 58 62 62 58 58 57 37 36 20 20 20 20 20 41 58 58 58 57 58 37 37 37 36 37 37 37 37 41 57 58 58 42 41 37 21 21 21 20 20 0 0 0 0 0 0 0 0 0 0 0 0 0 0 0 21 42 42 42 42 42 42 47 26 5 21 0 0 0 42 63 63 63 63 63 63 42 0 0 0 0 0 0 0 0 0 21 63 63 63 63 63 63 63 63 62 62 41 41 58 58 58 58 42 41 37 37 37 20 16 16 37 37 37 41 62 58 58 57 41 37 36 36 37 36 36 37 37 41 41 41 37 41 41 37 37 21 21 21 21 16 0 0 0 0 0 0 0 0 0 0 0 0 0 0 21 42 42 42 42 42 42 47 26 4 21 0 0 0 42 63 63 63 63 63 63 42 0 0 0 0 0 0 0 0 20 41 63 63 63 63 63 63 63 62 58 62 37 37 62 62 58 41 37 20 20 37 62 58 37 37 37 37 41 58 58 57 57 57 41 37 37 20 36 20 20 36 37 41 41 37 37 37 37 37 37 21 37 21 20 21 20 0 0 0 0 0 0 0 0 0 0 0 0 0 25 42 42 42 42 42 42 47 26 21 21 0 21 42 42 63 63 63 63 63 63 42 0 0 0 0 0 0 0 20 20 42 63 63 63 63 63 63 63 62 62 42 37 37 57 58 37 20 20 16 16 37 63 62 58 58 58 58 62 62 58 57 57 57 57 37 36 36 20 36 20 36 37 41 41 37 41 37 37 37 37 37 37 21 21 21 21 0 0 0 0 0 0 0 0 0 0 0 4 0 25 42 42 42 42 42 42 47 26 26 21 0 21 42 42 63 63 63 63 63 63 42 0 0 0 0 0 0 0 0 20 63 63 63 63 63 63 63 63 62 62 37 20 20 37 37 36 36 16 16 16 20 63 63 58 62 62 63 62 62 58 58 58 57 57 37 36 36 36 36 37 20 20 20 36 37 37 41 41 41 41 37 37 37 37 21 20 20 0 0 0 0 0 0 0 0 0 0 0 0 42 42 42 42 42 42 26 21 26 26 21 0 21 21 42 63 63 63 63 63 63 42 0 0 0 0 0 0 0 0 42 63 63 63 63 63 63 63 62 62 58 37 20 16 20 20 16 20 37 20 20 37 62 63 63 58 58 41 58 58 58 58 58 57 57 41 37 20 36 20 36 20 16 20 20 36 37 41 41 41 41 41 37 37 37 20 21 16 0 0 0 0 0 0 0 0 0 0 0 21 42 42 42 26 26 42 21 26 26 42 5 0 21 21 42 63 63 63 63 63 63 42 0 0 0 0 0 0 20 21 63 63 63 63 63 63 63 63 62 62 41 37 20 0 20 37 37 37 37 37 41 58 58 63 63 62 62 58 37 37 58 58 57 57 57 41 37 20 20 37 37 37 20 16 20 20 36 36 37 37 37 37 37 37 21 37 37 21 0 0 0 0 0 0 0 0 21 21 0 25 25 25 42 21 26 46 26 25 26 26 5 21 42 21 42 63 63 63 63 63 63 42 0 0 0 0 0 0 21 42 63 63 63 63 63 63 63 63 62 42 41 21 20 0 0 37 58 58 58 58 62 58 58 63 62 58 58 41 58 37 37 37 57 57 57 41 37 20 16 20 37 37 37 20 20 20 20 20 36 37 37 37 37 37 37 21 21 21 21 20 0 0 0 0 0 0 42 21 0 26 21 25 42 21 42 47 26 21 42 42 0 21 47 5 42 63 63 63 63 63 63 42 0 0 0 0 0 21 42 63 63 63 63 63 63 63 63 63 62 41 41 21 20 0 0 20 41 57 58 58 58 57 58 58 58 41 37 37 58 58 37 37 37 37 41 41 37 20 16 16 37 37 37 37 20 36 36 36 36 36 36 36 37 41 37 37 21 21 21 20 0 0 0 0 0 0 42 21 0 42 21 42 42 21 21 47 42 0 42 26 5 26 21 0 42 63 63 63 63 63 63 42 0 0 0 0 0 21 62 63 63 63 63 63 63 63 63 62 58 41 58 21 0 0 0 0 37 37 57 58 58 37 37 36 36 20 20 36 37 57 57 41 37 37 41 41 37 21 16 16 16 37 37 36 36 20 20 20 20 36 20 36 37 37 37 37 37 37 37 21 21 0 0 0 0 0 42 4 5 42 21 25 47 21 0 42 26 0 42 0 21 42 42 42 63 63 63 63 63 63 63 42 0 0 0 0 20 42 63 63 63 63 63 63 63 63 62 62 41 41 42 21 0 16 0 0 16 37 41 57 57 37 37 37 16 16 20 37 37 37 36 36 37 37 41 37 37 37 16 16 16 16 37 20 20 37 37 37 37 41 37 37 36 37 37 37 37 41 41 41 21 20 20 20 0 21 42 0 25 47 0 21 42 21 5 42 0 21 42 42 63 63 47 63 63 63 63 63 63 63 63 42 0 0 0 0 21 62 63 63 63 63 63 63 63 62 62 62 41 42 41 20 0 0 0 0 0 20 37 37 57 36 37 41 37 36 37 36 36 37 37 36 37 37 37 37 21 20 16 16 16 0 20 37 20 37 41 37 37 37 37 41 37 37 37 37 41 41 41 41 21 20 16 0 21 63 42 0 26 47 5 21 21 0 42 43 43 63 63 63 63 63 42 21 42 63 63 63 63 63 63 42 0 0 0 21 42 63 63 63 63 63 63 63 63 63 62 58 41 41 21 16 0 0 0 0 0 0 37 37 37 36 37 41 37 20 20 37 58 58 57 57 37 37 37 20 20 20 16 0 16 16 16 20 20 20 37 37 41 41 37 41 41 41 41 41 37 41 41 41 41 41 21 20 42 47 43 5 42 21 21 42 42 47 63 63 63 63 63 63 62 21 21 0 42 63 63 63 63 63 63 42 0 0 0 21 62 63 63 63 63 63 63 63 63 62 62 58 41 37 20 0 0 0 0 0 0 0 16 37 37 36 37 37 16 36 41 58 57 37 57 58 41 37 21 20 20 20 16 16 16 16 16 16 20 21 37 21 37 41 41 41 41 41 41 41 21 21 21 37 21 21 37 21 42 63 21 26 47 42 63 47 63 47 63 63 63 63 63 41 21 0 0 0 42 63 63 63 63 63 63 42 0 0 0 42 63 63 63 63 63 63 63 63 62 62 58 37 41 20 16 16 16 0 0 0 0 0 0 21 37 37 37 20 16 41 41 37 37 41 57 41 41 37 21 20 20 16 16 16 16 16 16 16 16 16 20 20 21 37 37 37 41 37 21 21 21 21 21 21 42 41 21 21 62 63 47 63 47 47 47 63 63 47 63 63 63 42 21 20 20 0 0 0 42 63 63 63 63 63 63 42 0 0 21 63 63 63 63 63 63 63 63 63 62 62 41 58 37 20 20 16 0 0 0 0 0 0 0 16 37 37 37 20 37 41 37 41 37 37 41 41 37 37 20 20 16 16 16 16 16 20 20 16 16 0 0 0 0 20 20 20 21 20 21 21 37 21 42 63 63 63 63 62 63 47 47 47 47 47 47 63 63 63 63 63 41 20 20 21 20 0 0 0 42 63 63 63 63 63 63 42 0 21 42 63 63 63 63 63 63 63 63 62 62 58 58 37 20 21 20 20 0 0 0 0 0 0 0 0 16 37 37 20 41 37 37 37 20 37 37 37 37 20 20 16 16 16 16 16 20 36 20 0 0 0 0 0 20 20 16 20 21 21 21 21 21 42 63 63 63 63 63 63 63 47 47 47 47 47 63 63 63 63 42 21 21 42 21 21 20 0 0 0 42 63 63 63 63 63 63 42 0 21 63 63 63 63 63 63 63 63 63 62 62 58 41 20 36 20 16 16 16 0 16 0 0 0 0 0 0 16 20 20 37 37 37 37 37 37 37 21 21 16 16 16 16 16 16 16 36 37 20 0 0 0 0 0 0 0 0 21 21 21 21 21 41 63 63 63 63 63 63 63 47 47 47 42 42 47 63 63 63 42 20 21 46 46 21 21 0 0 0 0 42 63 63 63 63 63 63 42 0 42 63 63 63 63 63 63 63 63 63 62 62 57 36 20 37 20 16 16 16 16 16 0 0 0 0 0 0 0 20 16 20 36 20 37 37 37 21 37 20 16 16 16 16 20 20 36 36 20 21 0 0 0 0 0 4 0 4 21 21 21 21 21 42 63 63 63 63 63 63 63 47 47 47 42 43 47 63 62 21 20 41 42 46 42 21 21 1 0 0 0 42 63 63 63 63 63 63 42 21 63 63 63 63 63 63 63 63 63 62 62 58 41 36 37 37 20 16 20 16 16 16 16 16 16 0 0 0 16 21 16 16 20 20 20 20 20 16 16 0 0 16 16 16 20 36 20 37 37 21 0 0 0 0 4 5 0 21 21 21 21 21 21 42 63 63 63 63 63 47 43 47 47 43 42 47 42 41 20 21 41 42 42 47 42 21 21 1 0 0 0 42 63 63 63 63 63 63 42 42 63 63 63 63 63 63 63 63 63 62 62 57 41 37 37 36 20 20 20 16 20 16 16 16 16 0 0 0 20 20 0 16 16 16 16 16 16 16 16 0 16 16 16 16 36 37 36 37 37 21 0 0 0 5 21 5 0 21 21 21 26 21 21 42 63 63 63 63 47 42 47 47 43 42 46 42 37 21 41 62 58 42 42 47 42 21 21 0 0 0 0 42 63 63 63 63 63 63 62 62 63 63 63 63 63 63 63 63 63 62 62 57 41 37 37 36 20 20 20 16 20 16 16 16 16 0 0 0 16 0 0 16 0 0 0 0 16 16 16 16 16 16 16 20 36 36 36 16 20 21 0 0 21 21 21 21 5 21 21 21 26 26 21 42 63 63 63 63 42 42 42 47 42 42 42 37 41 58 62 58 58 42 42 47 42 21 21 0 0 0 0 42 63 63 63 63 63 63 62 62 63 63 63 63 63 63 63 63 62 62 62 57 41 41 37 37 20 20 20 20 20 16 16 16 16 16 0 0 16 0 0 16 0 0 0 16 16 16 16 16 16 16 16 16 37 36 37 20 37 21 0 20 21 21 21 21 21 21 21 26 26 26 21 42 63 63 63 63 42 42 42 42 42 42 41 62 62 62 58 58 58 42 42 63 42 21 21 0 0 0 0 42 63 63 63 63 63 63 63 63 63 63 63 63 63 63 63 63 62 62 62 57 41 41 37 37 20 20 20 20 20 20 20 20 16 16 0 0 16 0 0 0 0 0 0 16 16 16 16 16 16 16 16 16 37 37 37 37 58 21 20 21 21 21 21 21 21 21 25 26 26 26 21 42 63 63 63 63 42 42 42 21 42 42 63 63 62 62 58 58 58 58 42 62 42 21 21 0 0 0 0 42 63 63 63 63 63 63 63 42 63 63 63 63 63 63 63 63 62 62 62 57 57 41 37 37 36 20 20 20 20 20 20 20 16 20 0 16 16 0 0 0 0 0 0 16 16 16 16 16 16 16 16 36 37 37 37 58 58 21 21 21 21 21 21 21 21 21 26 26 26 26 26 42 63 63 63 63 42 42 42 21 21 63 63 62 62 62 58 58 58 58 58 62 42 21 21 0 0 0 0 42 63 63 63 63 63 63 63 62 63 63 63 63 63 63 63 63 62 62 57 57 57 41 37 36 20 37 20 20 20 20 37 20 20 20 16 16 0 0 0 0 0 16 0 16 16 16 16 16 16 16 16 36 41 37 37 58 58 21 21 21 21 21 21 21 21 21 42 26 26 26 26 25 63 63 63 63 42 42 46 41 62 63 62 62 62 58 58 58 58 58 58 58 42 21 21 0 0 0 0 42 63 63 63 63 63 63 63 63 63 63 63 63 63 63 63 63 62 62 58 57 41 37 37 36 36 37 37 20 20 20 37 20 20 20 16 0 0 0 0 0 0 0 16 16 32 36 36 36 36 37 37 37 57 37 58 62 58 20 21 21 21 21 21 21 21 26 42 26 26 26 26 21 47 63 63 63 42 42 42 42 63 62 62 62 62 58 58 58 58 58 58 58 41 21 21 0 0 0 0 42 63 63 63 63 63 63 63 63 63 63 63 63 63 63 63 63 62 62 58 57 41 37 37 36 37 37 37 20 36 37 36 20 20 20 16 0 0 0 0 0 0 16 20 37 37 37 37 37 37 37 37 57 58 57 58 62 41 21 21 21 21 21 21 21 26 42 42 21 21 42 22 42 63 42 63 63 42 42 41 62 63 62 62 62 62 58 58 58 58 58 58 58 41 21 21 0 0 0 0 42 63 63 63 63 63 63 63 63 63 63 63 63 63 63 63 62 62 62 58 57 41 37 37 37 37 37 37 20 37 37 36 20 20 20 16 0 20 20 0 0 16 37 37 57 57 57 57 41 57 57 57 58 41 58 62 58 21 21 21 21 21 21 21 21 26 42 26 21 26 26 42 63 47 46 42 63 62 41 42 63 62 62 62 62 62 58 58 58 58 58 58 58 42 21 21 0 0 0 0 42 63 63 63 63 63 63 63 63 63 63 63 63 63 63 63 62 62 62 62 57 41 36 36 37 37 37 37 37 37 37 36 37 37 20 20 16 41 21 0 0 21 41 41 57 58 57 58 58 58 58 58 58 58 62 62 21 20 21 21 21 21 21 21 21 42 42 26 21 26 21 47 63 42 42 42 42 42 37 62 62 62 62 62 62 58 58 58 58 58 58 58 58 58 41 21 0 0 0 0 42 63 63 63 63 63 63 63 63 63 63 63 63 63 63 63 62 62 62 57 57 41 37 37 37 37 37 37 37 37 36 37 37 37 37 20 20 37 0 0 0 21 37 37 37 58 58 58 58 58 58 58 57 58 63 42 0 21 21 21 21 21 21 21 21 42 42 26 21 21 42 63 63 42 42 42 42 41 58 62 62 62 62 62 58 58 58 58 58 58 58 58 58 58 42 21 0 0 0 0 42 63 63 63 63 63 63 63 63 63 63 63 63 63 63 63 62 62 62 57 41 41 37 37 37 37 37 36 37 37 37 37 41 41 37 20 20 20 0 0 0 21 58 58 57 58 58 58 58 58 58 58 58 62 58 16 0 21 21 21 21 21 21 21 26 42 42 22 21 21 63 63 63 47 42 42 42 41 58 58 58 58 58 58 58 58 58 58 58 58 58 58 58 58 58 37 0 0 0 0 42 63 63 63 63 63 63 63 63 63 63 63 63 63 63 63 62 62 57 57 57 41 37 36 37 41 37 20 37 37 41 37 37 37 37 16 37 20 0 0 0 20 58 58 58 57 58 58 58 58 58 58 58 62 21 0 0 21 21 21 21 21 21 21 26 42 42 21 21 42 63 63 43 63 42 42 41 57 58 58 58 58 58 58 58 58 58 58 58 58 58 58 58 58 58 42 0 0 0 0 42 63 63 63 63 63 63 63 63 63 63 63 63 63 63 63 62 62 57 57 57 41 37 37 37 41 37 36 37 37 41 37 37 37 21 20 37 21 0 0 0 0 58 58 58 58 57 58 58 58 58 57 58 42 0 0 0 21 21 21 21 21 21 21 42 42 42 22 21 63 63 63 42 42 63 42 37 58 58 58 58 58 58 58 58 58 58 58 58 58 58 58 58 58 58 58 16 0 0 0 42 63 63 63 63 63 63 63 63 63 63 63 63 63 63 63 62 62 58 57 57 41 37 37 37 37 37 36 37 37 41 37 20 37 20 21 37 21 0 0 0 0 37 58 58 58 58 58 58 58 58 41 58 21 0 0 5 21 21 21 21 21 21 25 42 42 42 26 26 63 63 63 43 42 42 41 41 58 58 58 58 58 58 58 58 58 58 58 58 58 62 62 58 58 58 58 37 0 0 0 42 63 63 63 63 63 63 63 63 63 63 63 63 63 63 63 62 62 62 57 57 41 41 37 41 37 37 37 37 37 37 37 37 37 21 20 37 21 0 0 0 0 16 58 62 58 58 58 58 58 58 58 37 0 0 0 5 21 21 21 21 21 21 21 21 21 21 21 47 47 63 63 42 42 42 37 41 58 58 58 62 62 62 62 58 58 58 58 62 62 62 62 62 58 58 58 58 0 0 0 42 63 63 63 63 63 63 63 63 63 63 63 63 63 63 63 62 62 62 57 57 57 37 37 41 41 37 37 37 41 37 37 37 20 37 20 21 21 0 0 0 0 0 16 58 62 58 58 58 58 58 41 16 0 0 0 5 21 21 21 21 21 21 21 42 42 5 22 63 42 47 63 42 42 41 16 37 58 58 62 62 62 62 62 62 62 62 62 62 63 63 62 62 62 58 58 58 20 0 0 42 63 63 63 63 63 63 63 63 63 63 63 63 63 63 63 62 62 62 57 57 41 37 37 41 41 37 36 37 37 37 37 20 21 37 21 21 21 21 0 0 0 0 0 16 42 62 63 58 58 42 21 0 0 0 0 21 21 21 21 21 21 21 42 42 21 5 63 47 46 42 63 46 42 21 0 37 58 58 62 63 63 63 63 63 63 63 63 63 63 63 63 62 62 62 58 58 37 0 0 42 63 63 63 63 63 63 63 63 63 63 63 63 63 63 63 62 62 62 58 57 41 41 37 41 37 37 36 37 36 37 37 37 37 41 21 20 21 21 0 0 0 0 0 0 0 20 37 42 42 21 0 0 0 0 0 21 21 21 21 21 21 21 42 42 5 42 63 47 42 42 42 46 41 0 0 21 58 62 62 63 63 63 63 63 63 63 63 63 63 63 63 62 62 62 58 58 58 0 0 42 63 63 63 63 63 63 63 63 63 63 63 63 63 63 63 62 62 62 62 57 41 41 41 41 37 37 36 37 36 37 37 41 37 41 21 20 21 21 0 0 0 0 0 0 0 0 0 0 21 42 21 0 0 0 0 21 21 21 21 26 21 21 42 26 21 63 63 63 42 42 42 42 20 0 0 16 58 62 62 63 63 63 63 63 63 63 63 63 63 63 63 63 62 62 58 58 58 21 0 42 63 63 63 63 63 63 63 63 63 63 63 63 63 63 62 62 62 62 58 57 41 41 41 41 37 36 36 41 41 41 41 41 41 37 20 21 21 21 0 0 0 0 0 0 0 0 0 21 42 63 42 0 0 0 0 21 21 21 21 26 21 21 42 26 42 63 63 63 47 42 42 41 0 0 0 0 42 62 62 63 63 63 63 63 63 63 63 63 63 63 63 63 62 62 58 58 58 37 0 42 63 63 63 63 63 63 63 63 63 63 63 63 63 63 62 62 62 62 57 57 41 41 41 41 37 37 37 41 57 41 41 41 41 21 21 21 21 21 0 0 0 0 0 0 0 0 0 21 42 42 21 0 0 0 0 21 21 21 21 26 5 21 42 42 63 63 63 42 63 42 42 21 0 0 0 0 41 58 62 63 63 63 63 63 63 63 63 63 63 63 63 63 62 62 58 58 58 58 0 42 63 63 63 63 63 63 63 63 63 63 63 63 63 63 62 62 62 57 57 57 41 57 41 41 37 37 41 58 57 37 41 41 41 21 21 21 21 21 0 0 0 0 0 0 0 0 0 0 21 22 42 0 0 0 0 21 21 21 21 26 5 5 42 63 63 63 63 42 42 42 21 0 0 0 0 0 37 58 62 63 63 63 63 63 63 63 63 63 63 63 63 62 62 62 58 58 58 58 16 41 63 63 63 63 63 63 63 63 63 63 63 63 63 63 62 62 62 57 57 57 41 57 41 41 37 37 57 58 41 37 41 37 21 21 4 21 21 21 0 0 0 0 0 0 0 0 0 0 63 63 21 0 0 0 0 21 21 21 21 26 5 5 42 63 42 63 63 42 42 42 20 0 0 0 0 0 16 58 62 63 63 63 63 63 63 63 63 63 63 63 63 63 62 62 58 58 58 58 37 42 63 63 63 63 63 63 63 63 63 63 63 63 63 63 62 62 62 57 57 57 41 57 41 37 37 37 41 57 37 37 37 21 21 21 21 21 21 21 0 0 0 0 0 0 0 0 0 0 63 63 21 0 0 0 0 21 25 26 42 26 0 21 63 63 42 63 63 42 42 37 0 0 0 0 0 0 0 41 58 63 63 63 63 63 63 63 63 63 63 63 63 63 62 58 58 58 58 58 37 42 63 63 63 63 63 63 63 63 63 63 63 63 63 63 62 62 62 57 57 57 41 57 41 37 37 37 41 37 36 41 20 21 41 21 25 21 21 21 0 0 0 0 0 0 0 0 0 0 63 63 0 0 0 0 0 25 42 26 42 42 0 26 63 43 42 42 63 62 42 20 0 0 0 0 0 0 0 21 58 62 63 63 63 63 63 63 63 63 63 63 63 62 62 62 58 58 58 58 41 58 63 63 63 63 63 63 63 63 63 63 63 63 63 62 62 62 57 57 57 57 41 57 41 37 37 37 41 37 20 21 20 41 21 21 26 21 21 21 0 0 0 0 0 0 0 0 0 0 63 42 0 0 0 0 0 21 42 42 42 26 0 63 63 63 42 42 42 42 21 20 0 0 0 0 0 0 0 0 42 62 63 63 63 63 63 63 63 63 63 63 63 63 62 62 58 58 58 58 41 58 63 63 63 63 63 63 63 63 63 63 63 63 63 62 62 62 57 57 57 41 57 57 41 37 36 37 41 37 37 21 21 21 21 26 21 21 26 26 5 0 0 0 0 0 0 0 0 0 63 42 0 42 21 0 0 21 26 25 42 21 21 63 63 63 42 42 42 42 20 0 0 0 0 0 0 0 0 0 37 62 62 63 63 63 63 63 63 63 63 63 63 63 62 62 58 58 58 58 57 62 63 63 63 63 63 63 63 63 63 63 63 63 63 62 62 62 57 58 57 41 57 57 41 37 36 36 41 41 37 20 21 21 21 21 21 26 26 26 21 0 0 0 0 0 0 21 21 21 63 42 63 63 0 0 5 26 42 26 42 21 63 63 63 43 63 42 42 21 0 0 0 0 0 4 0 0 0 0 16 58 62 63 63 63 63 63 63 63 63 63 63 63 62 62 58 58 58 58 41 62 63 63 63 63 63 63 63 63 63 63 63 63 62 62 62 62 57 57 57 57 57 57 41 37 36 41 57 37 20 20 21 21 21 26 26 26 22 26 21 0 0 0 0 0 0 63 63 63 63 63 63 63 21 0 21 42 42 42 26 42 63 63 63 42 42 62 42 20 0 0 21 0 5 5 5 0 0 0 0 58 62 62 63 63 63 63 63 63 63 63 63 63 62 62 58 58 58 57 57 62 63 63 63 63 63 63 63 63 63 63 63 63 62 62 62 62 62 57 57 57 57 57 37 37 37 57 57 37 20 20 21 21 21 26 26 26 26 26 21 0 0 0 0 0 0 63 63 42 63 21 0 21 21 0 21 42 42 42 42 63 42 63 63 42 42 42 21 0 0 0 5 21 5 4 5 0 0 0 0 37 58 62 58 62 62 63 63 63 63 63 63 63 62 62 58 58 58 57 41 62 63 63 63 63 63 63 63 63 63 63 63 63 62 62 62 62 62 57 57 57 57 57 37 41 41 57 41 36 20 20 21 21 26 26 26 26 26 26 21 0 0 0 0 0 21 21 0 21 63 42 0 0 0 0 21 42 42 21 63 63 47 46 63 42 42 42 20 0 0 0 0 21 21 0 0 4 0 0 0 16 58 58 58 58 62 63 63 63 63 63 63 63 62 62 58 58 58 57 41 62 63 63 63 63 63 63 63 63 63 63 63 62 62 62 62 62 62 62 57 58 58 41 41 37 57 41 37 41 21 16 21 21 26 26 26 26 26 26 26 0 0 0 0 0 0 0 0 42 63 42 0 21 5 0 21 42 42 42 63 63 47 42 46 63 42 21 20 0 0 0 0 21 21 0 21 0 0 0 0 0 37 58 58 58 58 62 63 63 63 63 63 63 62 62 58 58 57 57 41 62 63 63 63 63 63 63 63 63 63 63 63 62 62 62 62 62 62 62 57 62 62 41 41 41 57 37 41 57 37 16 21 21 26 42 26 26 26 26 26 0 0 0 0 0 0 0 0 42 21 21 0 21 5 0 21 42 42 63 63 63 63 42 42 46 42 20 0 0 0 0 0 0 21 21 21 0 0 0 0 0 16 58 58 57 57 58 58 62 63 63 63 63 62 62 58 58 57 57 37 62 63 63 63 63 63 63 63 63 63 63 62 62 62 62 62 62 62 57 57 62 58 41 37 57 57 41 57 57 37 16 21 21 21 42 26 26 26 21 26 0 0 0 0 0 0 0 5 0 0 0 21 5 5 0 21 25 42 63 63 63 63 42 42 42 21 0 0 0 0 0 0 0 21 21 0 0 0 0 0 0 0 37 58 57 57 58 58 62 63 63 63 63 62 62 58 57 57 37 37 62 63 63 63 63 63 63 63 63 62 62 62 62 62 62 62 62 62 57 58 62 57 41 37 57 57 41 41 41 20 16 21 21 26 42 26 25 22 21 26 5 0 1 0 0 0 0 0 5 0 21 21 21 0 0 21 26 63 63 63 63 42 42 42 42 21 20 0 0 0 0 0 0 0 21 0 0 0 0 0 0 0 16 41 57 57 57 58 63 63 63 63 63 62 58 58 57 53 37 37 62 63 63 63 63 63 63 63 63 62 63 63 62 62 62 62 62 62 57 62 62 57 41 41 57 57 57 41 41 20 16 20 21 26 42 26 21 21 26 26 21 0 1 0 0 0 0 0 1 21 21 5 21 1 0 21 42 63 42 63 63 42 42 42 21 21 21 0 0 0 0 0 0 0 0 4 0 0 0 0 0 0 0 37 41 57 58 62 63 63 63 63 63 62 58 58 57 53 37 37 62 63 63 63 63 63 63 63 63 63 63 63 63 62 62 62 62 62 62 62 62 58 57 41 57 57 57 41 41 20 20 0 21 42 42 26 21 21 21 21 21 0 1 0 0 0 0 5 5 21 21 21 21 1 0 21 63 63 42 63 63 42 42 41 21 21 21 5 0 0 0 0 0 0 0 0 0 0 0 0 0 0 0 0 37 41 62 63 63 63 63 63 62 58 58 57 57 37 37 37 62 63 63 63 63 63 63 63 63 63 63 63 63 63 62 62 62 62 62 62 62 58 41 57 57 57 57 41 57 36 16 0 21 42 42 25 21 26 42 42 21 0 0 0 0 0 0 1 5 21 21 21 21 0 0 42 63 63 46 42 63 62 42 21 21 21 5 5 0 0 0 0 0 0 0 0 0 0 0 0 0 0 0 0 0 62 63 63 63 63 63 62 62 58 58 57 57 37 37 37 62 63 63 63 63 63 63 63 63 63 63 63 63 62 62 62 62 62 62 62 62 58 57 57 57 57 57 57 57 37 16 0 0 42 42 21 21 26 47 42 21 0 0 0 0 0 5 5 21 21 21 21 0 0 21 63 47 47 47 42 42 58 42 21 21 21 21 21 0 0 0 0 0 0 0 0 4 0 0 0 0 0 0 0 58 63 63 63 63 63 63 62 62 58 58 57 57 37 37 37 62 63 63 63 63 63 63 63 63 63 63 63 63 62 62 62 62 62 62 62 62 57 57 57 57 57 57 57 57 37 16 0 0 21 26 21 21 21 26 21 0 0 0 0 0 0 21 5 21 21 21 0 0 0 42 63 42 42 63 42 42 42 21 21 25 21 21 21 0 0 0 0 0 0 0 0 4 0 0 0 0 0 0 63 63 63 63 63 63 63 62 62 62 58 58 57 57 37 37 37 62 63 63 63 63 63 63 63 63 63 63 63 62 62 62 62 62 62 62 62 62 57 57 57 57 57 57 57 57 20 16 0 0 21 21 21 21 26 26 26 0 0 0 0 0 5 5 21 21 1 21 21 0 21 63 63 63 42 42 46 58 37 0 21 21 21 21 21 5 0 0 0 0 0 0 0 5 21 0 0 0 21 63 63 63 63 63 63 63 63 63 62 58 58 58 57 53 37 37 37 62 63 63 63 63 63 63 63 63 63 63 63 62 63 62 62 62 62 62 62 62 58 57 57 57 41 57 58 41 20 0 0 0 0 21 21 21 21 42 21 0 0 0 0 0 21 1 21 21 1 21 1 0 42 63 63 47 47 42 42 42 41 21 0 21 21 21 5 21 0 0 0 0 0 0 0 0 21 0 0 21 63 63 63 63 63 63 63 63 63 62 58 58 58 57 57 37 37 37 57 62 63 63 63 63 63 63 63 63 63 62 62 62 63 63 62 62 62 62 62 62 57 57 57 57 57 57 58 41 20 0 0 0 5 21 21 21 26 42 21 0 0 0 0 0 21 5 1 21 21 0 0 21 63 63 63 47 63 42 42 41 57 58 41 21 21 21 21 21 0 0 0 0 0 0 0 0 21 21 0 63 63 63 63 63 63 63 63 63 62 62 58 58 57 57 37 37 37 37 57 62 63 63 63 63 63 63 63 63 63 62 63 63 63 63 63 62 62 62 62 62 57 58 57 57 57 58 58 37 20 16 0 0 21 21 21 21 26 21 0 0 0 0 0 1 0 21 21 5 0 21 21 63 63 42 63 63 42 62 58 37 41 58 62 62 42 21 21 20 0 0 0 0 0 1 0 0 0 0 42 63 63 63 63 63 63 63 63 63 62 58 58 57 57 57 37 37 37 37 37 62 63 63 63 63 63 63 63 63 62 62 62 63 63 63 63 63 63 62 62 62 57 58 57 57 57 62 57 41 37 0 0 0 21 21 21 21 26 21 0 0 0 0 0 0 21 0 0 0 0 42 63 63 63 21 42 63 42 58 41 36 37 57 58 58 63 63 58 21 0 0 0 0 21 21 17 0 0 21 63 63 63 63 63 63 63 63 63 62 58 58 58 57 57 37 36 36 37 37 37 58 63 63 63 63 63 63 63 42 62 62 62 63 63 63 63 63 62 62 62 58 62 58 57 57 57 62 58 41 21 16 0 0 21 21 21 21 21 5 0 5 0 0 0 0 0 42 63 21 0 42 63 63 63 63 21 42 42 58 20 16 37 37 58 62 58 63 63 42 0 16 0 5 5 21 1 0 0 58 63 63 63 63 63 63 63 63 62 58 58 58 57 57 37 36 36 36 37 37 37 58 63 63 63 63 63 63 63 42 62 42 63 63 63 63 63 63 62 62 62 58 62 58 58 57 57 62 58 41 37 0 0 21 21 21 21 21 21 0 0 0 0 0 0 0 0 63 63 63 21 42 63 63 63 63 63 42 62 41 16 0 16 20 37 58 58 62 58 42 20 0 21 21 5 5 0 0 21 63 63 63 63 63 63 63 63 62 62 58 58 57 57 37 37 36 36 36 37 37 37 58 63 63 63 63 63 63 63 62 62 42 63 63 63 63 63 63 63 62 62 62 62 58 58 57 58 58 58 41 37 0 0 21 21 21 21 21 21 0 0 0 0 0 0 0 0 63 63 63 63 63 63 63 63 63 63 63 63 41 16 0 0 21 58 62 62 63 62 58 21 20 20 4 5 0 0 42 63 63 63 63 63 63 63 63 62 62 58 58 57 57 37 37 37 37 36 36 37 37 16 42 63 63 63 63 63 63 62 62 63 62 63 63 63 63 63 63 62 62 62 62 62 58 62 41 62 58 58 41 20 0 0 21 21 21 21 21 1 0 0 0 0 0 0 0 0 42 63 63 63 63 63 63 62 63 63 63 63 63 42 21 21 58 63 63 63 63 62 58 42 20 20 20 0 0 42 63 63 63 63 63 63 63 63 62 62 58 58 57 57 37 37 37 37 36 20 36 36 20 0 42 63 63 63 63 63 63 42 42 63 63 63 63 63 63 63 63 62 62 62 62 58 58 58 57 62 41 58 41 20 0 0 21 5 5 21 21 0 0 1 0 0 21 21 0 0 21 63 63 63 63 63 63 42 58 63 62 63 63 63 63 63 63 63 63 63 62 62 58 58 37 0 0 21 63 63 63 63 63 62 63 63 62 62 62 58 58 57 37 37 37 37 36 36 20 16 20 16 16 0 42 63 63 63 63 63 63 62 42 63 63 63 63 63 63 63 63 62 62 62 58 57 58 58 58 58 41 58 37 0 0 21 21 42 42 21 21 0 0 0 0 21 63 63 63 37 0 21 63 63 63 63 63 62 58 58 58 62 63 63 63 63 63 62 62 58 58 58 41 58 62 37 42 63 63 63 63 62 62 62 62 62 62 58 58 57 57 37 37 37 37 36 20 16 16 16 16 16 16 0 42 63 63 63 63 63 63 63 42 63 63 63 63 63 63 63 62 62 62 62 57 57 58 58 62 41 41 58 20 0 0 21 21 42 21 21 21 0 5 0 0 41 63 63 63 63 42 21 63 63 63 63 63 63 63 58 57 58 62 63 63 62 58 58 58 58 58 41 41 58 58 63 63 63 63 63 62 58 62 62 62 58 58 58 57 37 37 37 37 36 20 16 16 16 16 16 16 16 16 0 42 63 63 63 63 63 63 58 21 63 63 63 63 63 63 62 62 62 62 58 57 58 58 58 62 41 42 37 0 0 0 21 21 21 21 21 0 0 0 0 0 0 42 42 63 63 63 63 63 63 58 41 58 58 63 63 63 62 62 62 58 41 37 57 58 58 41 37 37 58 58 58 62 62 62 62 58 58 58 58 58 58 57 41 37 37 37 36 20 16 16 16 16 16 16 0 0 16 16 16 42 63 63 63 63 63 63 42 42 63 63 63 63 63 63 63 62 62 58 41 58 62 57 58 41 21 41 20 0 0 21 21 21 21 21 21 0 0 0 0 0 0 16 21 42 42 63 63 63 63 58 37 37 41 58 58 63 63 63 58 57 41 37 37 37 41 41 37 41 58 62 58 58 58 58 58 58 58 58 58 58 57 37 37 37 36 20 16 16 16 16 16 16 0 0 0 0 16 16 16 42 63 63 63 63 63 63 63 41 63 63 63 63 63 63 63 62 58 41 41 58 57 41 41 37 37 20 0 0 0 21 21 21 21 25 21 0 0 0 0 0 0 21 0 21 58 58 58 63 63 58 57 37 37 37 37 58 62 63 58 41 37 37 37 37 37 41 58 58 58 58 58 58 58 58 58 57 57 58 57 41 37 37 36 20 20 16 16 16 16 16 16 0 0 0 0 0 16 16 16 42 63 63 63 63 63 63 42 41 63 63 63 63 63 63 62 62 62 57 58 41 37 41 37 41 20 0 0 0 0 21 21 21 21 21 0 0 0 0 0 0 0 0 20 58 63 62 42 41 58 58 58 57 37 37 20 37 41 58 58 41 37 37 37 37 37 37 37 37 57 57 57 58 57 57 41 37 41 57 41 37 37 36 20 16 16 16 16 16 16 16 0 0 0 0 0 0 0 16 16 42 63 63 63 63 63 63 62 42 63 63 63 63 63 63 62 62 62 62 41 36 37 20 20 16 0 0 0 0 21 21 21 21 21 21 0 0 21 1 5 21 0 21 63 63 63 62 63 62 41 37 37 57 57 41 37 36 37 37 37 37 36 36 37 37 37 37 37 37 37 37 41 57 57 37 37 37 37 37 37 36 20 16 16 16 16 16 16 16 0 0 0 0 0 0 0 0 0 16 16 42 63 63 63 63 63 63 42 42 63 63 63 63 63 63 63 63 62 62 58 37 20 16 16 0 0 0 0 0 21 21 21 21 26 21 0 0 5 5 21 1 21 63 63 58 42 58 58 62 62 58 37 37 37 37 41 41 37 37 36 20 20 20 20 20 20 36 37 37 37 37 37 37 37 37 37 37 37 37 20 16 16 16 16 16 16 16 0 0 0 0 0 0 0 0 0 0 0 16 16 42 63 63 63 63 63 63 63 41 63 63 63 63 63 63 63 63 63 63 62 62 37 16 0 0 0 0 0 0 21 21 21 21 25 0 0 0 0 21 1 42 63 63 42 42 41 37 37 41 58 58 58 37 37 36 36 37 37 37 20 36 36 20 20 20 20 36 37 36 37 37 37 36 36 37 37 37 20 16 16 16 16 16 16 16 0 0 0 0 0 0 0 0 0 0 0 0 0 0 16 42 63 63 63 63 63 63 42 0 42 63 63 63 63 63 63 63 63 63 63 63 58 20 0 0 0 0 0 0 21 21 21 21 21 0 0 0 0 0 26 63 63 42 42 63 58 62 42 41 37 37 37 37 37 37 36 20 20 20 16 16 16 16 16 16 16 16 16 16 16 16 16 20 37 37 37 16 16 16 16 16 16 0 0 0 0 0 0 0 0 0 0 0 0 0 0 0 0 0 0 42 63 63 63 63 63 63 42 0 21 63 63 63 63 63 63 63 63 63 63 63 63 58 0 0 0 0 0 4 21 21 21 25 21 0 0 0 0 21 63 63 63 26 63 63 63 62 63 62 41 37 16 16 37 37 37 37 37 16 16 16 16 16 16 16 16 16 16 16 16 20 21 21 20 20 16 0 0 0 0 0 0 0 0 0 0 0 0 0 0 0 0 0 0 0 0 0 0 0 0 42 63 63 63 63 63 63 42 0 0 63 63 63 63 63 63 63 63 63 63 63 63 63 37 0 0 0 0 21 21 21 21 25 0 0 0 0 0 42 47 63 42 42 63 47 63 46 62 42 42 16 0 0 0 0 16 21 21 20 16 16 16 16 16 16 16 16 16 16 16 21 21 16 0 0 0 0 0 0 0 0 0 0 0 0 0 0 0 0 0 0 0 0 0 0 0 0 0 0 0 42 63 63 63 63 63 63 42 0 0 63 63 63 63 63 63 63 63 63 63 63 63 63 62 0 0 0 0 0 20 4 21 21 0 0 0 0 42 47 63 63 42 63 63 47 46 47 42 42 21 0 0 0 0 0 0 0 0 0 0 16 16 16 16 16 16 0 0 16 16 0 0 0 0 0 0 0 0 0 0 0 0 0 0 0 0 0 0 0 0 0 0 0 0 0 0 0 0 0 0 42 63 63 63 63 63 63 42 0 21 63 63 63 63 63 63 63 63 63 63 63 63 63 63 37 0 0 0 0 0 21 42 21 0 0 21 42 42 47 47 42 63 42 47 47 47 42 42 42 21 21 0 0 0 0 0 0 0 0 0 0 0 0 0 0 0 0 0 0 0 0 0 0 0 0 0 0 0 0 0 0 0 0 0 0 0 0 0 0 0 0 0 0 0 0 0 0 0 0 0 42 63 63 63 63 63 63 42 0 21 63 63 63 63 63 63 63 63 63 63 63 63 63 63 62 0 0 0 0 0 21 42 0 0 21 63 42 42 63 46 42 63 42 42 47 46 42 42 21 21 25 0 0 0 0 0 0 0 0 0 0 0 0 0 0 0 0 0 0 0 0 0 0 0 0 0 0 0 0 0 0 0 0 0 0 0 0 0 0 0 0 0 0 0 0 0 0 0 0 0 42 63 63 63 63 63 63 42 0 21 63 63 63 63 63 63 63 63 63 63 63 63 63 63 63 21 0 0 0 21 63 63 42 42 63 63 63 63 63 42 42 42 63 42 42 46 42 42 0 42 0 0 0 0 0 0 0 0 0 0 0 0 0 0 0 0 0 0 0 0 0 0 0 0 0 0 0 0 0 0 0 0 0 0 0 0 0 0 0 0 0 0 0 0 0 0 0 0 5 0 42 63 63 63 63 63 63 42 0 21 63 63 63 63 63 63 63 63 63 63 63 63 63 63 63 58 0 0 42 63 63 63 63 63 63 63 63 63 42 21 42 26 42 46 42 42 42 21 16 63 0 0 0 0 0 0 0 0 0 0 0 0 0 0 0 0 0 0 0 0 0 0 0 0 0 0 0 0 0 0 0 0 0 0 0 0 0 0 0 0 0 0 0 0 0 0 0 0 0 0 42 63 63 63 63 63 63 42 0 0 63 63 63 63 63 63 63 63 63 63 63 63 63 63 63 63 37 0 63 63 63 63 63 63 63 63 63 58 21 21 42 42 21 42 42 42 42 0 21 42 0 0 0 0 0 0 0 0 0 0 0 0 0 0 0 0 0 0 0 0 0 0 0 0 0 0 0 0 0 0 0 0 0 0 0 0 0 0 0 0 0 0 0 0 0 0 0 0 0 0 42 63 63 63 63 63 63 42 0 0 21 63 63 63 63 63 63 63 63 63 63 63 63 63 63 63 63 63 63 63 63 63 63 63 63 63 63 63 37 21 21 42 21 21 21 21 21 0 42 21 0 0 0 0 0 0 0 0 0 0 0 0 0 0 0 0 0 0 0 0 0 0 0 0 0 0 0 0 0 0 0 0 0 0 0 0 0 0 0 0 0 0 0 0 0 0 0 0 0 0 42 63 63 63 63 63 63 42 0 0 0 42 62 63 63 63 63 63 63 63 63 63 63 63 63 63 63 63 63 63 63 63 63 63 63 63 63 63 42 0 21 21 21 21 21 21 0 21 26 0 0 0 0 0 0 0 0 0 0 0 0 0 0 0 0 0 0 0 0 0 0 0 0 0 0 0 0 0 0 0 0 0 0 0 0 0 0 0 0 0 0 0 0 0 0 0 0 0 0 0 42 63 63 63 63 63 63 42 0 0 0 0 58 62 63 63 63 63 63 63 63 63 63 63 63 63 63 63 63 63 63 63 63 63 63 63 63 63 42 0 0 0 21 21 21 0 16 21 21 0 0 0 0 0 0 0 0 0 0 0 0 0 0 0 0 0 0 0 0 0 0 0 0 0 0 0 0 21 21 0 0 0 0 0 0 0 0 0 0 0 0 0 0 0 0 0 0 0 0 0 42 63 63 63 