P264 646336 36 36 36 36 36 36 36 36 36 36 36 36 36 36 36 36 36 36 36 36 36 36 36 36 36 36 36 36 36 36 36 36 36 36 36 36 36 36 36 36 36 36 36 36 36 36 36 36 36 36 36 36 36 36 36 36 36 36 36 36 36 36 36 36 36 36 36 36 36 36 36 36 36 36 36 36 36 36 36 36 36 36 36 36 36 36 36 36 36 36 36 36 36 36 36 36 36 36 36 36 36 36 36 36 36 36 36 36 36 36 36 36 36 36 36 36 36 36 36 36 36 36 36 36 36 36 36 36 36 36 36 36 63 63 63 63 63 63 63 63 63 63 36 36 36 36 36 36 36 36 36 36 36 36 36 36 36 36 36 36 36 36 36 36 36 36 36 36 36 36 36 36 36 36 36 36 63 63 63 63 63 63 63 63 63 63 36 36 36 36 36 36 36 36 36 63 63 16 16 16 16 16 16 16 16 63 63 36 36 36 36 36 36 36 36 36 36 36 36 36 36 36 36 36 36 36 36 36 36 36 36 36 36 36 36 36 36 36 36 63 63 16 16 16 16 16 16 16 16 63 63 36 36 36 36 36 36 36 63 63 32 16 16 16 16 16 16 16 16 32 63 63 36 36 36 36 36 36 36 36 36 36 36 36 36 36 36 36 36 36 36 36 36 36 36 36 36 36 36 36 36 36 63 63 32 16 16 16 16 16 16 16 16 32 63 63 36 36 36 36 36 63 63 16 16 16 16 16 16 16 16 16 16 16 32 63 36 36 36 36 36 36 36 36 36 36 36 36 36 36 36 36 36 36 36 36 36 36 36 36 36 36 36 36 36 36 63 16 16 16 16 16 32 32 32 32 16 16 16 63 63 36 36 36 36 63 0 16 16 16 16 32 32 32 32 16 16 16 16 63 36 36 36 36 36 36 36 36 36 36 36 36 36 36 36 36 36 36 36 36 36 36 36 36 36 36 36 36 36 36 63 16 16 16 16 32 32 32 32 16 16 16 16 0 63 36 36 36 36 63 16 16 16 16 16 32 32 32 32 16 16 16 16 63 36 36 36 36 36 36 36 36 36 36 36 36 36 36 36 36 36 36 36 36 36 36 36 36 36 36 36 36 36 36 63 16 16 16 16 32 32 32 32 16 16 16 16 16 63 36 36 36 36 63 32 32 32 32 16 16 16 16 16 0 0 1 0 63 63 36 36 36 36 36 36 36 36 36 36 36 36 36 36 36 36 36 36 36 36 36 36 36 36 36 36 36 63 63 63 0 0 0 0 16 16 16 16 16 32 32 32 32 63 36 36 36 36 63 32 32 32 16 16 16 16 1 22 22 22 22 22 22 63 63 36 36 36 36 36 36 36 36 36 36 36 36 36 36 36 36 36 36 36 36 36 36 36 36 36 63 63 22 22 22 22 22 22 22 1 16 16 16 16 32 32 16 63 36 36 36 36 63 32 32 32 16 16 16 0 22 18 18 18 18 18 18 18 63 63 36 36 36 36 36 36 36 36 36 36 36 36 36 36 36 36 36 36 36 36 36 36 36 36 63 22 18 18 18 18 18 18 18 22 0 16 16 32 32 32 32 63 36 36 36 36 63 32 32 32 32 32 16 1 22 17 17 17 18 18 22 18 22 63 36 36 36 36 36 36 36 36 36 36 36 36 36 36 36 36 36 36 36 36 36 36 36 36 63 22 18 18 18 18 18 18 17 22 1 16 32 32 32 32 32 63 36 36 36 36 63 16 16 16 16 32 16 1 21 32 32 32 32 17 18 17 37 63 63 63 63 63 36 36 36 36 36 36 36 36 36 36 36 36 36 36 36 36 63 63 63 63 63 37 17 17 18 17 32 32 32 22 1 16 32 16 16 16 16 63 36 36 36 36 63 16 32 32 16 32 32 1 32 32 32 32 32 16 16 57 57 57 57 57 57 63 63 36 36 36 36 36 36 36 36 36 36 36 36 36 36 63 63 57 57 57 57 57 57 16 17 32 32 32 32 32 1 32 32 16 32 32 16 63 36 36 36 36 63 32 32 32 32 32 32 1 32 32 32 32 32 16 16 17 17 22 22 22 17 16 63 36 36 36 36 36 36 36 36 36 36 36 36 36 36 63 16 17 22 22 22 17 17 16 16 32 32 32 32 32 17 32 32 32 32 32 32 63 36 36 36 36 63 32 32 32 32 32 16 1 32 32 32 32 32 32 16 16 17 17 17 17 16 16 63 63 63 63 63 63 63 63 63 63 63 63 63 63 63 63 16 16 17 17 17 17 16 16 32 32 32 32 32 32 17 16 32 32 32 32 32 63 36 36 36 36 63 32 32 32 32 16 16 1 32 32 32 32 32 32 16 16 16 16 16 16 16 16 16 17 17 17 17 17 17 17 17 17 17 17 17 17 17 17 16 16 16 16 16 16 16 16 32 32 32 32 32 32 17 16 16 32 32 32 32 63 36 36 36 36 63 32 32 32 32 32 16 1 32 32 32 32 32 32 32 16 16 16 16 16 16 16 17 17 17 17 17 17 17 17 17 17 17 17 17 17 17 17 16 16 16 16 16 16 16 32 32 32 32 32 32 32 16 16 32 32 32 32 32 63 36 36 36 36 63 32 32 32 32 32 16 17 32 32 32 32 32 32 32 32 16 0 16 16 16 17 17 17 17 17 17 17 17 17 17 17 17 17 17 17 17 17 17 16 16 16 0 16 32 32 32 32 32 32 32 32 16 16 32 32 32 32 32 63 36 36 36 36 63 16 16 16 16 32 16 17 32 32 32 32 32 32 32 32 33 16 16 17 17 17 17 17 17 17 17 17 17 17 17 17 17 17 17 17 17 17 17 17 17 16 16 32 32 32 32 32 32 32 32 32 16 16 32 16 16 16 16 63 36 36 36 36 63 16 16 16 16 32 16 17 32 32 32 32 32 32 32 32 22 16 16 17 17 17 17 17 17 17 17 17 17 17 17 17 17 17 17 17 17 17 17 17 17 16 16 17 32 32 32 32 32 32 32 32 16 16 32 16 16 16 16 63 36 36 36 36 63 32 32 32 32 32 16 17 18 17 17 32 32 33 17 18 22 16 16 17 17 17 17 17 17 17 17 17 17 17 17 17 17 17 17 17 17 17 17 17 17 16 16 18 32 32 32 32 32 32 32 33 17 16 32 32 32 32 32 63 36 36 36 36 63 32 32 32 16 16 16 17 18 18 22 22 22 22 18 18 22 16 16 17 17 17 17 17 17 17 17 17 17 17 17 17 17 17 17 17 17 17 17 17 17 16 16 22 18 17 17 33 33 17 17 18 17 16 16 16 32 32 32 63 36 36 36 36 63 16 32 32 16 16 16 17 18 18 18 18 18 18 18 18 18 16 16 17 17 17 17 17 17 17 17 17 17 17 17 17 17 17 17 17 17 17 17 17 17 16 16 18 18 18 22 18 18 22 18 18 17 16 16 16 32 32 16 63 36 36 36 36 63 16 32 16 16 32 16 0 18 22 18 18 18 18 18 18 17 16 16 17 17 17 17 17 17 17 17 17 17 17 17 17 17 17 17 17 17 17 17 17 17 16 16 17 22 18 18 18 18 18 18 22 17 16 32 32 16 32 16 63 36 36 36 36 63 63 16 16 16 16 16 0 17 17 18 18 18 18 18 17 16 16 16 17 17 17 17 17 17 17 17 17 17 17 17 17 17 17 17 17 17 17 17 17 17 16 16 16 17 18 18 18 18 18 18 17 16 16 16 16 16 16 63 63 36 36 36 36 36 63 63 16 16 16 16 16 16 16 17 17 17 17 16 16 16 16 16 17 17 17 17 17 17 17 17 17 17 17 17 17 17 17 17 17 17 17 17 17 17 16 16 16 16 16 17 17 17 17 16 16 16 16 16 16 16 63 63 36 36 36 36 36 36 36 63 63 16 16 32 16 16 16 16 16 16 16 16 16 16 16 16 17 17 17 17 17 17 17 17 17 17 17 17 17 17 17 17 17 17 17 17 17 17 16 16 16 16 16 16 16 16 16 16 16 16 0 16 16 63 63 36 36 36 36 36 36 36 36 36 63 63 63 63 16 16 16 16 16 16 16 16 16 17 16 16 16 16 16 16 16 16 16 16 16 16 16 16 16 16 16 16 16 16 16 16 16 16 16 16 17 16 16 16 16 16 16 16 16 16 63 63 63 63 36 36 36 36 36 36 36 36 36 36 36 36 36 63 16 17 16 16 16 16 16 16 17 17 16 16 16 16 16 16 16 16 16 16 16 16 16 16 16 16 16 16 16 16 16 16 16 16 16 16 17 16 16 16 16 16 16 16 17 16 63 36 36 36 36 36 36 36 36 36 36 36 36 36 36 36 36 63 16 17 17 17 17 17 17 17 17 17 16 16 16 16 16 16 16 16 16 16 16 16 16 16 16 16 16 16 16 16 16 16 16 16 16 16 17 17 17 16 16 16 17 17 17 16 63 36 36 36 36 36 36 36 36 36 36 36 36 36 36 36 36 63 16 17 16 17 17 17 17 17 17 17 16 16 16 16 16 16 16 16 16 16 16 16 16 16 16 16 16 16 16 16 16 16 16 16 16 16 17 17 17 17 17 17 17 16 17 16 63 36 36 36 36 36 36 36 36 36 36 36 36 36 36 36 36 63 16 17 16 17 17 17 17 17 17 17 16 16 16 16 16 16 16 16 16 16 16 16 16 16 16 16 16 16 16 16 16 16 16 16 16 16 17 17 17 17 17 17 17 16 17 16 63 36 36 36 36 36 36 36 36 36 36 36 36 36 36 36 36 63 16 17 17 17 17 17 17 17 17 17 16 0 16 16 16 16 16 16 16 16 16 16 16 16 16 16 16 16 16 16 16 16 16 16 0 16 17 17 17 17 17 17 17 17 17 16 63 36 36 36 36 36 36 36 36 36 36 36 36 36 36 36 36 63 16 17 17 17 17 16 17 17 17 17 16 16 16 16 16 16 16 16 16 16 16 16 16 16 16 16 16 16 16 16 16 16 16 16 16 16 17 17 17 17 17 17 17 17 17 16 63 36 36 36 36 36 36 36 36 36 36 36 36 36 36 36 36 63 16 17 16 16 16 16 16 16 17 17 16 16 16 16 16 16 16 16 16 16 16 16 16 16 16 16 16 16 16 16 16 16 16 16 16 16 17 17 17 16 16 16 16 17 17 16 63 36 36 36 36 36 36 36 36 36 36 36 36 36 63 63 63 63 16 16 16 16 16 16 16 16 16 17 16 16 16 16 16 16 16 16 16 16 16 16 16 16 16 16 16 16 16 16 16 16 16 16 16 16 17 16 16 16 16 16 16 16 16 16 63 63 63 63 36 36 36 36 36 36 36 36 36 63 63 16 16 16 16 16 16 16 16 16 16 16 16 16 16 16 16 16 16 16 16 16 16 16 16 16 16 16 16 16 16 16 16 16 16 16 16 16 16 16 17 16 16 16 16 16 16 16 16 16 16 16 16 63 63 36 36 36 36 36 36 36 63 63 16 16 16 16 16 17 17 18 18 18 18 17 17 16 16 16 16 16 16 16 16 16 16 16 16 16 16 16 16 16 16 16 16 16 16 16 16 16 16 16 16 16 17 17 17 17 17 16 16 16 16 16 16 16 63 63 36 36 36 36 36 63 63 32 16 16 32 16 16 18 22 18 18 18 18 18 18 17 16 16 16 16 16 16 16 16 16 16 16 16 16 16 16 16 16 16 16 16 16 16 16 16 16 16 17 17 18 18 18 18 18 18 17 16 16 32 32 32 32 63 63 36 36 36 36 63 16 32 32 16 16 16 17 18 18 18 18 18 18 18 18 22 16 16 16 16 16 16 16 16 16 16 16 16 16 16 16 16 16 16 16 16 16 16 16 16 16 16 18 22 18 18 18 18 18 18 18 17 16 16 16 32 32 16 63 36 36 36 36 63 16 32 32 16 16 16 17 18 18 18 18 17 17 18 18 22 17 16 16 16 16 16 16 16 16 16 16 16 16 16 16 16 16 16 16 16 16 16 16 16 16 16 18 18 18 17 17 17 17 17 18 17 16 16 16 32 32 16 63 36 36 36 36 63 16 16 16 16 32 16 17 17 32 32 32 32 32 32 17 22 17 16 16 16 16 16 16 16 16 16 16 16 16 16 16 16 16 16 16 16 16 16 16 16 16 17 22 17 32 32 32 32 32 32 32 17 16 32 32 16 16 16 63 36 36 36 36 63 16 16 16 16 32 16 17 32 32 32 32 32 32 32 32 33 17 16 16 16 16 16 16 16 16 16 16 16 16 16 16 16 16 16 16 16 16 16 16 16 16 17 17 32 32 32 32 32 32 32 32 16 16 32 16 16 16 16 63 36 36 36 36 63 16 16 16 16 32 16 16 32 32 32 32 32 32 32 32 32 16 16 16 16 16 16 16 16 16 16 16 16 16 16 16 16 16 16 16 16 16 16 16 16 16 17 32 32 32 32 32 32 32 32 32 16 16 32 16 16 16 16 63 36 36 36 36 63 16 32 32 32 32 16 16 32 32 32 32 32 32 32 32 32 16 16 16 16 16 16 16 16 16 16 16 16 16 16 16 16 16 16 16 16 16 16 16 16 16 16 32 32 32 32 32 32 32 32 32 16 16 32 32 32 32 32 63 36 36 36 36 63 32 32 32 32 16 16 16 32 32 32 32 32 32 32 32 32 16 16 16 16 16 16 16 16 16 16 16 16 16 16 16 16 16 16 16 16 16 16 16 16 16 16 32 32 32 32 32 32 32 32 32 16 16 16 32 32 32 32 63 36 36 36 36 63 32 32 32 32 32 16 16 32 32 32 32 32 32 32 32 32 16 16 16 16 16 16 16 16 16 16 16 16 16 16 16 16 16 16 16 16 16 16 16 16 16 16 32 32 32 32 32 32 32 32 32 16 16 32 32 32 32 32 63 36 36 36 36 63 32 32 32 32 32 16 16 32 32 32 32 32 32 32 32 32 16 16 16 16 16 16 16 16 16 16 16 16 16 16 16 16 16 16 16 16 16 16 16 16 16 16 32 32 32 32 32 32 32 32 32 16 16 32 32 32 32 32 63 36 36 36 36 63 32 32 32 32 32 16 16 32 32 32 32 32 32 32 32 32 16 16 16 16 16 16 16 16 16 16 16 16 16 16 16 16 16 16 16 16 16 16 16 16 16 16 32 32 32 32 32 32 32 32 32 16 16 32 32 32 32 32 63 36 36 36 36 63 16 16 16 16 32 16 16 32 32 32 32 32 32 32 32 32 16 16 16 16 16 16 16 16 16 16 16 16 16 16 16 16 16 16 16 16 16 16 16 16 16 16 32 32 32 32 32 32 32 32 32 16 16 32 16 16 16 16 63 36 36 36 36 63 16 32 32 16 32 32 17 33 32 32 32 32 32 32 32 17 17 16 16 16 16 16 16 0 0 16 16 16 16 16 16 16 16 16 16 16 16 16 16 16 16 17 18 33 32 32 32 32 32 32 33 17 16 32 16 32 32 16 63 36 36 36 36 63 32 32 32 32 32 16 0 18 17 18 18 18 18 18 17 18 0 63 63 63 63 63 63 63 63 63 63 63 63 63 16 16 16 16 16 16 63 63 63 63 63 63 18 18 18 18 18 18 18 17 18 0 16 32 32 32 32 32 63 36 36 36 36 63 32 32 32 32 16 16 0 17 17 17 17 17 17 17 17 17 63 63 36 36 36 36 36 36 36 36 36 36 36 63 32 32 32 32 32 32 63 36 36 36 36 63 63 17 17 17 17 17 17 17 17 0 16 16 32 32 32 32 63 36 36 36 36 63 32 32 32 16 32 32 16 0 16 16 16 16 16 16 16 63 63 36 36 36 36 36 36 36 36 36 36 36 36 63 16 32 32 16 32 32 63 36 36 36 36 36 63 63 63 16 16 16 16 16 0 16 32 32 16 32 32 32 63 36 36 36 36 63 32 32 32 32 32 32 32 16 16 16 0 0 0 0 63 63 63 36 36 36 36 36 36 36 36 36 36 36 36 63 16 32 32 37 32 16 63 36 36 36 36 36 36 36 63 0 0 0 16 16 16 32 32 32 32 32 32 32 63 36 36 36 36 63 16 16 16 16 32 32 32 32 32 32 16 16 16 63 63 36 36 36 36 36 36 36 36 36 36 36 36 36 36 63 16 48 53 57 53 32 63 36 36 36 36 36 36 36 63 16 16 16 16 32 32 32 32 32 16 16 16 16 63 36 36 36 36 63 0 16 16 16 16 32 32 32 32 16 16 16 16 63 36 36 36 36 36 36 36 36 36 36 36 36 36 36 36 36 63 63 32 32 63 63 36 36 36 36 36 36 36 36 63 16 16 16 16 32 32 32 32 16 16 16 16 0 63 36 36 36 36 63 63 32 16 16 16 16 16 16 16 16 16 16 32 63 36 36 36 36 36 36 36 36 36 36 36 36 36 36 36 36 36 63 16 32 63 36 36 36 36 36 36 36 36 36 63 32 16 16 16 16 16 16 16 16 16 16 32 63 63 36 36 36 36 36 63 63 32 16 16 16 16 16 16 16 16 32 63 63 36 36 36 36 36 36 36 36 36 36 36 36 36 36 36 36 36 63 32 53 63 36 36 36 36 36 36 36 36 36 63 63 32 16 16 16 16 16 16 16 16 32 63 63 36 36 36 36 36 36 36 63 63 16 16 16 16 16 16 16 16 63 63 36 36 36 36 36 36 36 36 36 36 36 36 36 36 36 36 36 36 63 16 37 63 36 36 36 36 36 36 36 36 36 36 63 63 16 16 16 16 16 16 16 16 63 63 36 36 36 36 36 36 36 36 36 63 63 63 63 63 63 63 63 63 63 36 36 36 36 36 36 36 36 36 36 36 36 36 36 36 36 36 36 36 36 63 63 36 36 36 36 36 36 36 36 36 36 36 36 63 63 63 63 63 63 63 63 63 63 36 36 36 36 36 36 36 36 36 36 36 36 36 36 36 36 36 36 36 36 36 36 36 36 36 36 36 36 36 36 36 36 36 36 36 36 36 36 36 36 36 36 36 36 36 36 36 36 36 36 36 36 36 36 36 36 36 36 36 36 36 36 36 36 36 36 36 36 36 36 36 36 36 36 36 36 36 36 36 36 36 36 36 36 36 36 36 36 36 36 36 36 36 36 36 36 36 36 36 36 36 36 36 36 36 36 36 36 36 36 36 36 36 36 36 36 36 36 36 36 36 36 36 36 36 36 36 36 36 36 36 36 36 