P264 646336 36 36 36 36 36 36 36 36 36 36 36 36 36 36 36 36 36 36 36 36 36 36 36 36 36 36 36 36 36 36 36 36 36 36 36 36 36 36 36 36 36 36 36 36 36 36 36 36 36 36 36 36 36 36 36 36 36 36 36 36 36 36 36 36 36 36 36 36 36 36 36 36 36 36 36 36 36 36 36 36 36 36 36 36 36 36 36 36 36 36 36 36 36 36 36 36 36 36 36 36 36 36 36 36 36 36 36 36 36 36 36 36 36 36 36 36 36 36 36 36 36 36 36 36 36 36 36 36 36 36 36 36 63 63 63 63 63 63 63 63 63 63 63 63 63 63 63 63 63 63 63 63 63 63 63 63 63 63 63 63 63 63 63 63 63 63 63 63 63 63 63 63 63 63 63 63 63 63 63 63 63 63 63 63 63 63 36 36 36 36 36 36 36 36 36 63 63 0 16 32 32 32 32 16 16 32 32 32 32 16 16 16 16 16 16 63 63 63 63 63 63 63 63 63 63 63 63 63 63 63 16 16 32 32 16 16 32 32 32 32 32 16 16 32 32 32 32 16 0 63 63 36 36 36 36 36 36 36 63 63 32 16 16 32 32 32 32 32 16 32 32 32 32 32 16 16 16 32 32 32 63 63 63 63 63 63 63 63 63 63 63 63 63 16 32 32 32 32 16 16 32 32 32 32 32 32 16 32 32 32 32 16 16 16 63 63 36 36 36 36 36 63 63 32 16 16 16 32 32 32 32 32 16 32 32 32 32 32 16 16 16 32 32 16 16 63 63 63 63 63 63 63 63 63 63 63 16 16 16 32 32 32 16 16 32 32 32 32 32 32 16 32 32 32 32 16 16 16 32 63 63 36 36 36 36 63 16 16 16 16 16 32 16 32 32 16 16 32 32 32 32 32 16 16 16 16 16 16 16 16 63 63 63 63 63 63 63 63 63 16 16 16 16 16 16 32 16 16 32 32 32 32 32 16 16 32 16 16 32 16 16 16 16 16 63 36 36 36 36 63 16 16 16 16 32 32 32 16 32 32 32 32 32 32 16 32 32 32 32 16 16 32 16 16 63 63 63 63 63 63 63 63 63 16 16 16 32 16 16 32 32 32 32 32 16 32 32 32 32 32 16 16 16 16 16 16 16 16 63 36 36 36 36 63 16 16 16 32 32 32 32 16 16 32 16 16 16 16 16 16 16 16 16 16 16 16 16 16 63 63 63 63 63 63 63 63 63 32 16 16 16 16 16 16 16 16 16 16 16 16 32 32 16 16 16 16 16 32 32 16 16 16 63 36 36 36 36 63 16 16 16 32 32 32 16 0 0 17 16 16 16 16 16 16 16 17 17 17 17 16 16 16 16 16 16 16 16 16 16 16 16 16 16 0 0 17 17 17 17 17 17 1 1 1 1 1 1 1 0 16 16 32 32 16 16 16 63 36 36 36 36 63 16 16 16 32 32 16 0 17 18 33 32 32 32 32 32 32 32 32 17 18 18 18 17 16 16 17 17 17 17 17 17 17 16 16 16 17 18 18 18 18 32 32 32 32 32 32 32 32 21 22 22 1 16 32 32 16 16 16 63 36 36 36 36 63 16 16 16 32 32 16 16 17 17 32 32 32 32 32 32 32 32 32 32 18 18 22 17 16 16 16 17 17 16 16 17 16 16 16 16 17 22 18 18 17 32 32 32 32 32 32 32 32 32 17 18 22 16 32 32 16 16 16 63 36 36 36 36 63 16 16 16 16 32 16 16 17 18 32 32 32 32 32 32 32 32 32 32 18 18 18 18 16 16 16 17 17 17 17 17 16 16 16 17 18 18 18 22 17 32 32 32 32 32 32 32 32 32 17 18 22 0 16 16 16 16 16 63 36 36 36 36 63 16 16 16 16 16 0 16 17 18 32 32 32 32 32 32 32 32 32 32 18 18 18 18 16 16 16 17 17 17 17 17 16 16 16 17 18 18 18 22 32 32 32 32 32 32 32 32 32 32 17 18 22 0 16 16 16 16 16 63 36 36 36 36 63 63 32 16 16 16 0 16 17 18 32 32 32 32 32 32 32 32 32 32 17 18 18 18 16 16 16 16 17 17 17 17 16 16 16 17 18 18 18 22 32 32 32 32 32 32 32 32 32 32 18 18 22 1 16 16 16 32 63 63 36 36 36 36 63 63 63 32 16 16 0 16 17 18 32 32 32 32 32 32 32 32 32 32 17 18 18 18 16 16 16 17 17 17 17 17 16 16 16 17 18 18 18 22 33 32 32 32 32 32 32 16 16 17 18 18 22 0 16 16 32 63 63 63 36 36 36 36 63 63 63 63 63 63 0 16 17 18 32 32 32 32 32 32 32 32 32 32 18 18 18 17 16 16 16 17 17 17 17 17 16 16 16 16 18 18 18 18 17 32 32 32 32 16 16 16 16 18 22 18 22 63 63 63 63 63 63 63 36 36 36 36 63 63 63 63 63 63 63 16 17 17 32 32 32 32 32 32 32 32 32 17 18 18 18 17 16 16 17 17 17 17 17 17 17 16 16 16 17 18 18 18 18 32 32 32 16 16 16 17 57 17 18 18 63 63 63 63 63 63 63 63 36 36 36 36 63 63 63 63 63 63 63 63 17 18 17 32 32 32 32 32 32 32 33 22 22 22 17 16 16 17 17 17 17 17 17 17 17 17 16 16 16 17 18 22 22 22 33 16 16 16 17 17 57 37 22 63 63 63 63 63 63 63 63 63 36 36 36 36 63 63 63 63 63 63 63 63 63 0 17 16 16 16 16 16 16 16 17 17 17 16 16 16 16 16 16 16 16 16 16 16 16 16 16 16 16 16 16 16 16 16 16 0 16 16 17 22 57 63 63 63 63 63 63 63 63 63 63 63 36 36 36 36 63 63 63 63 63 63 63 63 63 63 16 16 16 16 16 16 16 16 16 16 16 16 16 16 16 16 16 16 0 16 16 16 16 16 16 16 16 16 16 16 16 16 16 16 16 16 17 22 57 63 63 63 63 63 63 63 63 63 63 63 36 36 36 36 63 63 63 63 63 63 63 63 63 63 16 16 16 16 16 16 16 16 16 16 16 16 16 16 16 16 16 16 16 16 16 16 16 16 17 17 17 17 17 17 17 17 17 16 16 16 17 22 57 63 63 63 63 63 63 63 63 63 63 63 36 36 36 36 63 63 63 63 63 63 63 63 63 63 16 16 16 16 16 16 16 16 16 16 16 16 16 16 16 16 16 16 16 16 16 16 16 16 17 17 17 17 17 17 17 17 17 16 16 16 16 17 57 63 63 63 63 63 63 63 63 63 63 63 36 36 36 36 63 63 63 63 63 63 63 63 63 63 16 16 16 16 16 16 16 16 16 16 16 16 16 16 16 16 16 16 16 16 16 16 16 16 17 17 17 17 17 17 17 17 17 17 16 16 16 16 63 63 63 63 63 63 63 63 63 63 63 63 36 36 36 36 63 63 63 63 63 63 63 63 63 63 16 16 16 16 16 16 16 16 16 16 16 16 16 16 16 16 16 16 16 16 16 16 16 16 17 17 17 17 17 17 17 17 17 17 17 16 63 63 63 63 63 63 63 63 63 63 63 63 63 63 36 36 36 36 63 63 63 63 63 63 63 63 63 63 16 16 16 16 16 16 16 16 16 16 16 16 16 16 16 16 16 16 16 16 16 16 16 16 17 17 17 17 17 17 17 17 17 17 17 17 63 63 63 63 63 63 63 63 63 63 63 63 63 63 36 36 36 36 63 63 63 63 63 63 63 63 63 63 0 16 16 16 16 16 16 16 16 16 16 16 16 16 16 16 16 16 16 16 16 16 16 16 17 17 17 17 17 17 17 17 17 17 17 17 63 63 63 63 63 63 63 63 63 63 63 63 63 63 36 36 36 36 63 63 63 63 63 63 63 63 63 63 0 16 16 16 16 16 16 16 16 16 16 16 16 16 16 16 16 16 16 16 16 16 16 16 17 17 17 17 17 17 17 17 17 17 17 17 63 63 63 63 63 63 63 63 63 63 63 63 63 63 36 36 36 36 63 63 63 63 63 63 63 63 63 63 16 16 16 16 16 16 16 16 16 16 16 16 16 16 16 16 16 16 16 16 16 16 16 16 17 17 17 17 17 17 17 17 17 17 17 17 63 63 63 63 63 63 63 63 63 63 63 63 63 63 36 36 36 36 63 63 63 63 63 63 63 63 63 63 16 16 16 16 16 16 16 16 16 16 16 16 16 16 16 16 16 16 16 16 16 16 16 16 17 17 17 17 17 17 17 17 17 17 17 17 63 63 63 63 63 63 63 63 63 63 63 63 63 63 36 36 36 36 63 63 63 63 63 63 63 63 63 63 16 16 16 16 16 16 16 16 16 16 16 16 16 16 16 16 16 16 16 16 16 16 16 16 17 17 17 17 17 17 17 17 17 17 17 17 63 63 63 63 63 63 63 63 63 63 63 63 63 63 36 36 36 36 63 63 63 63 63 63 63 63 63 63 16 16 16 16 16 16 16 16 16 16 16 16 16 16 16 16 16 16 16 16 16 16 16 16 17 17 17 17 17 17 17 17 17 17 17 17 63 63 63 63 63 63 63 63 63 63 63 63 63 63 36 36 36 36 63 63 63 63 63 63 63 63 63 63 16 16 16 16 16 16 16 16 16 16 16 16 16 16 16 16 16 16 16 16 16 16 16 16 17 17 17 17 17 17 17 17 17 17 17 17 63 63 63 63 63 63 63 63 63 63 63 63 63 63 36 36 36 36 63 63 63 63 63 16 16 16 32 16 16 16 16 16 16 16 16 16 16 16 16 16 16 16 16 16 16 16 16 16 16 16 16 16 17 17 17 17 17 17 17 17 17 17 17 17 63 63 63 63 63 63 63 63 63 63 63 63 63 63 36 36 36 36 63 63 63 63 63 48 32 32 32 16 16 16 16 16 16 16 16 16 16 16 16 16 16 16 16 16 16 16 16 16 16 16 16 16 17 17 17 17 17 17 17 17 17 17 17 17 63 63 63 63 63 63 63 63 63 63 63 63 63 63 36 36 36 36 63 16 32 16 32 53 32 32 32 16 16 16 16 16 16 16 16 16 16 16 16 16 16 16 16 16 16 16 16 16 16 16 16 16 17 17 17 17 17 17 17 17 17 17 17 17 63 63 63 63 63 63 63 63 63 63 63 63 63 63 36 36 36 36 63 37 53 32 32 57 37 16 32 16 16 16 16 16 16 16 16 16 16 16 16 16 16 16 16 16 16 16 16 16 16 16 16 16 17 17 17 17 17 17 17 17 17 17 17 17 63 63 63 63 63 63 63 63 63 63 63 63 63 63 36 36 36 36 63 63 63 63 63 53 32 32 32 16 16 16 16 16 16 16 16 16 16 16 16 16 16 16 16 16 16 16 16 16 16 16 16 16 17 17 17 17 17 17 17 17 17 17 17 17 63 63 63 63 63 63 63 63 63 63 63 63 63 63 36 36 36 36 63 63 63 63 63 32 16 32 32 16 16 16 16 16 16 16 16 16 16 16 16 16 16 16 16 16 16 16 16 16 16 16 16 16 17 17 17 17 17 17 17 17 17 17 17 17 63 63 63 63 63 63 63 63 63 63 63 63 63 63 36 36 36 36 63 63 63 63 63 63 63 63 63 63 16 16 16 16 16 16 16 16 16 16 16 16 16 16 16 16 16 16 16 16 16 16 16 16 17 17 17 17 17 17 17 17 17 17 17 17 63 63 63 63 63 63 63 63 63 63 63 63 63 63 36 36 36 36 63 63 63 63 63 63 63 63 63 63 16 16 16 16 16 16 16 16 16 16 16 16 16 16 16 16 16 16 16 16 16 16 16 16 17 17 17 17 17 17 17 17 17 17 16 16 16 16 63 63 63 63 63 63 63 63 63 63 63 63 36 36 36 36 63 63 63 63 63 63 63 63 63 63 16 16 16 16 16 16 16 16 16 16 16 16 16 16 16 16 16 16 16 16 16 16 16 16 17 17 17 17 17 17 17 17 17 16 16 16 16 17 57 63 63 63 63 63 63 63 63 63 63 63 36 36 36 36 63 63 63 63 63 63 63 63 63 63 16 16 16 16 16 16 16 16 16 16 16 16 16 16 16 16 16 16 16 16 16 16 16 16 17 17 17 17 17 17 17 17 17 16 16 16 17 22 57 63 63 63 63 63 63 63 63 63 63 63 36 36 36 36 63 63 63 63 63 63 63 63 63 63 16 16 16 16 16 16 16 16 16 16 16 16 16 16 16 16 16 16 0 16 16 16 16 16 16 16 16 16 16 16 16 16 16 16 16 16 17 22 57 63 63 63 63 63 63 63 63 63 63 63 36 36 36 36 63 63 63 63 63 63 63 63 63 63 17 16 16 16 16 16 16 17 17 17 16 16 16 16 16 16 16 16 16 16 16 16 16 16 16 16 16 16 16 16 16 16 16 0 16 16 17 22 57 63 63 63 63 63 63 63 63 63 63 63 36 36 36 36 63 63 63 63 63 63 63 63 63 18 18 32 32 32 32 32 32 32 17 22 18 18 17 16 17 17 17 17 17 17 17 17 17 17 16 16 16 17 18 22 18 17 32 16 16 16 17 17 57 37 22 22 63 63 63 63 63 63 63 63 36 36 36 36 63 63 63 63 63 63 63 63 17 18 33 32 32 32 32 32 32 32 32 17 18 22 17 16 16 16 17 17 17 17 17 17 16 16 16 16 17 22 18 18 32 32 32 32 16 16 16 17 57 17 18 18 22 63 63 63 63 63 63 63 36 36 36 36 63 63 63 63 63 63 63 63 17 18 32 32 32 32 32 32 32 32 32 32 18 18 18 17 16 16 17 17 17 17 17 17 16 16 16 16 18 18 18 17 32 32 32 32 32 16 16 16 16 17 18 18 22 63 63 63 63 63 63 63 36 36 36 36 63 63 63 32 16 16 0 16 17 18 32 32 32 32 32 32 32 32 32 32 17 18 18 17 16 16 16 17 17 17 17 16 16 16 16 17 18 18 22 17 32 32 32 32 32 32 32 16 17 18 18 18 22 0 16 16 16 63 63 63 36 36 36 36 63 63 32 16 16 16 0 16 17 18 32 32 32 32 32 32 32 32 32 32 17 18 18 17 16 16 16 17 17 17 17 16 16 16 16 17 18 18 18 33 32 32 32 32 32 32 32 32 32 17 18 18 22 0 16 16 16 32 63 63 36 36 36 36 63 16 16 16 16 16 0 16 17 18 32 32 32 32 32 32 32 32 32 32 17 18 18 17 16 16 16 17 17 17 17 16 16 16 16 17 18 18 18 33 32 32 32 32 32 32 32 32 32 32 18 18 22 0 16 16 16 16 16 63 36 36 36 36 63 16 16 16 16 16 16 16 17 18 32 32 32 32 32 32 32 32 32 32 17 18 18 17 16 16 16 17 17 17 17 17 16 16 16 17 18 18 22 17 32 32 32 32 32 32 32 32 32 32 18 18 22 0 16 16 16 16 16 63 36 36 36 36 63 16 16 16 32 32 16 16 17 17 32 32 32 32 32 32 32 32 32 32 17 18 18 16 16 16 17 17 17 16 16 17 16 16 16 16 18 18 18 17 32 32 32 32 32 32 32 32 32 32 17 18 22 16 32 32 16 16 16 63 36 36 36 36 63 16 16 16 32 32 16 0 17 18 33 32 32 32 32 32 32 32 32 32 18 18 17 16 16 16 17 17 17 17 17 17 17 16 16 16 17 22 18 18 33 32 32 32 32 32 32 32 32 22 22 22 1 16 32 32 32 16 16 63 36 36 36 36 63 16 16 16 32 32 32 16 0 0 17 16 16 16 16 16 16 16 16 17 17 17 16 16 16 16 16 16 16 16 16 16 16 16 16 16 16 17 17 17 17 16 16 16 16 17 17 17 1 1 1 0 16 16 32 32 32 16 16 63 36 36 36 36 63 16 16 16 32 32 32 32 16 16 16 16 16 16 16 16 16 16 16 16 16 16 16 16 16 63 63 63 63 63 63 63 63 63 0 16 16 16 16 16 16 16 16 16 16 16 16 32 32 16 16 16 16 16 32 32 32 16 16 63 36 36 36 36 63 16 16 16 16 32 32 32 16 32 32 32 32 32 32 16 32 32 32 32 16 16 32 16 16 63 63 63 63 63 63 63 63 63 16 16 16 32 16 16 32 32 32 32 32 16 32 32 32 32 32 16 16 16 16 16 32 16 16 63 36 36 36 36 63 16 16 16 16 16 32 16 32 32 16 16 32 32 32 32 32 16 16 32 16 16 32 16 16 63 63 63 63 63 63 63 63 63 16 16 16 32 16 16 32 16 16 32 32 32 32 32 16 16 32 32 16 32 16 16 16 16 16 63 36 36 36 36 63 63 32 16 16 16 32 32 32 32 32 16 32 32 32 32 32 16 16 16 32 32 32 16 63 63 63 63 63 63 63 63 63 63 63 16 16 16 32 32 32 16 16 32 32 32 32 32 32 16 32 32 32 32 16 16 16 32 63 63 36 36 36 36 36 63 63 32 16 16 32 32 32 32 32 16 32 32 32 32 32 16 16 16 32 32 32 63 63 63 63 63 63 63 63 63 63 63 63 63 16 32 32 32 32 16 16 32 32 32 32 32 32 16 32 32 32 32 16 16 16 63 63 36 36 36 36 36 36 36 63 63 0 16 32 32 32 32 16 16 32 32 32 32 32 16 16 16 16 16 63 63 63 63 63 63 63 63 63 63 63 63 63 63 63 16 16 32 32 16 16 32 32 32 32 32 16 16 32 32 16 32 16 0 63 63 36 36 36 36 36 36 36 36 36 63 63 63 63 63 63 63 63 63 63 63 63 63 63 63 63 63 63 63 63 63 63 63 63 63 63 63 63 63 63 63 63 63 63 63 63 63 63 63 63 63 63 63 63 63 63 63 63 63 63 63 63 63 63 36 36 36 36 36 36 36 36 36 36 36 36 36 36 36 36 36 36 36 36 36 36 36 36 36 36 36 36 36 36 36 36 36 36 36 36 36 36 36 36 36 36 36 36 36 36 36 36 36 36 36 36 36 36 36 36 36 36 36 36 36 36 36 36 36 36 36 36 36 36 36 36 36 36 36 36 36 36 36 36 36 36 36 36 36 36 36 36 36 36 36 36 36 36 36 36 36 36 36 36 36 36 36 36 36 36 36 36 36 36 36 36 36 36 36 36 36 36 36 36 36 36 36 36 36 36 36 36 36 36 36 36 36 