P264 646336 36 36 36 36 36 36 36 36 36 36 36 36 36 36 36 36 36 36 36 36 36 36 36 36 36 36 36 36 36 36 36 36 36 36 36 36 36 36 36 36 36 36 36 36 36 36 36 36 36 36 36 36 36 36 36 36 36 36 36 36 36 36 36 36 36 36 36 36 36 36 36 36 36 36 36 36 36 36 36 36 36 36 36 36 36 36 36 36 36 36 36 36 36 36 36 36 36 36 36 36 36 36 36 36 36 36 36 36 36 36 36 36 36 36 36 36 36 36 36 36 36 36 36 36 36 36 36 36 36 36 36 36 63 63 63 63 63 63 63 63 63 63 63 63 63 63 63 63 63 63 63 63 63 36 36 36 36 36 36 36 36 36 36 36 36 63 63 63 63 63 63 63 63 63 63 63 63 63 63 63 63 63 63 63 63 63 36 36 36 36 36 36 36 36 36 63 63 0 0 16 16 21 21 0 0 20 37 21 21 21 0 0 21 21 0 0 63 63 36 36 36 36 36 36 36 36 36 36 63 63 0 0 16 0 0 0 21 21 37 37 20 0 0 21 21 21 20 0 0 63 63 36 36 36 36 36 36 36 63 63 0 0 0 16 16 21 20 0 20 21 37 21 21 21 0 0 21 21 16 16 0 63 63 36 36 36 36 36 36 36 36 63 63 0 16 16 16 0 0 0 21 21 21 37 20 16 16 21 21 21 16 0 0 16 63 63 36 36 36 36 36 63 63 16 0 0 0 16 16 21 20 0 16 20 37 21 21 21 0 0 21 21 16 0 0 0 63 36 36 36 36 36 36 36 36 63 0 0 16 16 16 0 0 0 21 21 37 37 20 16 16 21 21 21 16 0 0 16 16 63 63 36 36 36 36 63 0 0 0 0 0 16 0 16 21 0 0 21 21 16 21 21 0 0 21 0 0 16 0 0 63 63 36 36 36 36 36 36 63 63 0 0 16 0 0 0 0 0 21 16 20 21 20 0 16 21 0 16 20 0 0 16 0 0 63 36 36 36 36 63 0 0 16 0 0 0 0 0 21 21 21 37 20 0 16 21 20 20 21 0 0 16 0 0 0 63 36 36 36 36 36 36 63 0 0 0 0 0 0 16 16 21 20 0 16 21 37 21 21 21 0 16 21 16 0 0 0 0 63 36 36 36 36 63 0 0 16 16 16 0 0 0 16 16 21 21 0 0 0 0 0 0 0 0 0 0 0 0 0 63 63 63 63 63 63 63 63 0 0 0 0 0 0 0 0 0 0 0 0 0 20 20 20 0 0 20 21 20 16 0 0 0 63 36 36 36 36 63 0 0 16 16 16 0 0 1 5 5 5 6 6 6 6 6 6 6 6 6 6 5 1 1 5 5 5 5 5 5 5 5 5 5 5 1 1 6 6 6 6 6 6 6 6 6 6 6 5 1 0 0 21 21 16 0 0 0 63 36 36 36 36 63 0 0 16 16 16 0 5 11 11 11 11 11 11 11 11 11 11 11 11 7 7 11 6 5 5 6 6 6 6 6 6 6 6 5 5 5 6 7 11 11 11 11 11 11 11 11 11 11 11 6 5 0 20 21 16 0 0 0 63 36 36 36 36 63 0 0 16 16 16 0 11 7 6 11 11 11 11 11 11 11 11 11 11 6 6 11 6 5 5 5 5 6 5 5 6 6 5 5 5 6 7 6 10 11 11 11 11 11 11 11 11 11 10 6 6 1 20 20 16 0 0 0 63 36 36 36 36 63 0 0 16 0 0 5 11 7 7 11 11 11 11 11 11 11 11 11 11 11 7 7 7 6 5 5 5 6 6 6 6 6 5 5 5 6 7 7 11 11 11 11 11 11 11 11 11 11 11 11 6 5 0 0 0 0 0 0 63 36 36 36 36 63 0 0 0 0 0 5 11 7 7 11 11 11 11 11 11 11 11 11 11 11 7 7 7 6 5 5 5 5 6 6 6 6 5 5 5 6 11 7 11 11 11 11 11 11 11 11 11 11 11 11 6 5 0 0 0 16 0 63 63 36 36 36 36 63 63 16 0 0 0 5 11 7 7 11 11 11 11 11 11 11 11 11 11 11 7 7 7 6 5 5 5 5 6 6 6 6 5 5 5 6 7 7 11 11 11 11 11 11 11 11 11 11 11 11 6 5 0 0 0 16 16 63 36 36 36 36 36 36 63 63 0 0 0 5 11 7 7 7 6 6 11 11 11 11 11 11 11 11 7 7 7 6 5 5 5 6 6 6 6 6 5 5 5 6 11 7 11 11 11 11 11 11 11 11 11 11 11 11 6 5 0 0 0 16 63 63 36 36 36 36 36 36 36 63 63 63 63 63 11 6 6 6 21 1 5 6 11 11 11 11 11 11 7 7 6 5 5 5 5 6 6 6 6 6 5 5 5 6 7 7 11 11 11 11 11 11 11 11 11 11 11 6 6 5 63 63 63 63 63 36 36 36 36 36 36 36 36 36 36 36 36 63 63 7 6 6 42 6 5 1 6 11 11 11 11 7 7 11 6 5 5 5 5 6 6 6 6 6 6 5 5 5 6 7 7 11 11 11 11 11 11 11 11 11 10 6 6 63 63 36 36 36 36 36 36 36 36 36 36 36 36 36 36 36 36 36 63 11 11 22 42 6 6 5 1 6 11 11 11 11 7 6 5 5 5 6 6 6 6 6 6 6 6 6 5 5 6 6 11 11 11 11 11 11 11 11 11 11 11 6 63 63 36 36 36 36 36 36 36 36 36 36 36 36 36 36 36 36 36 36 63 63 63 21 46 10 6 5 1 1 1 1 1 1 1 1 1 1 1 1 1 1 1 1 1 1 1 1 1 1 1 1 5 5 5 5 5 5 5 5 5 5 1 63 63 36 36 36 36 36 36 36 36 36 36 36 36 36 36 36 36 36 36 36 36 36 63 21 46 10 6 5 5 1 1 1 1 1 1 1 1 1 1 1 1 0 0 0 0 0 0 0 0 0 1 1 1 1 1 1 1 1 1 1 1 1 0 63 36 36 36 36 36 36 36 36 36 36 36 36 36 36 36 36 36 36 36 36 36 36 63 21 46 6 6 5 1 1 1 1 1 1 1 1 1 1 1 1 5 1 1 1 1 1 1 1 1 1 1 1 1 1 1 1 1 1 1 1 1 1 0 63 36 36 36 36 36 36 36 36 36 36 36 36 36 36 36 36 36 36 36 36 36 36 63 63 46 6 6 5 1 1 5 5 5 6 6 5 1 5 6 1 1 1 1 1 1 1 1 1 1 1 1 1 1 1 1 1 1 1 1 1 1 1 0 63 36 36 36 36 36 36 36 36 36 36 36 36 36 36 36 36 36 36 36 36 36 36 36 63 21 5 5 1 5 6 6 6 5 6 6 6 5 6 6 5 1 1 1 1 1 1 1 1 1 1 1 1 1 1 1 1 1 1 1 1 1 1 1 63 36 36 36 36 36 36 36 36 36 36 36 36 36 36 36 36 36 36 36 36 36 36 36 63 63 63 0 5 6 6 6 6 5 6 5 5 1 6 6 1 1 1 1 1 1 1 1 1 1 1 1 1 1 1 1 1 1 1 1 1 1 1 1 63 63 63 63 63 36 36 36 36 36 36 36 36 36 36 36 36 36 36 36 36 36 36 36 36 36 63 1 6 6 6 6 6 5 5 5 5 6 6 6 1 1 1 1 1 1 1 1 1 1 1 1 1 1 1 1 1 1 1 1 1 1 1 1 21 37 21 16 63 63 36 36 36 36 36 36 36 36 36 36 36 36 36 36 36 36 36 36 36 36 63 1 6 6 6 6 6 6 6 6 6 6 6 6 1 1 1 1 1 1 1 1 1 1 1 1 1 1 1 1 1 1 1 1 1 1 1 1 21 21 21 42 42 63 63 63 63 36 36 36 36 36 36 36 36 36 36 36 36 36 36 36 36 36 63 1 6 6 6 6 6 6 6 6 6 6 6 6 1 1 1 1 1 1 1 1 1 1 1 1 1 1 1 1 1 1 1 1 1 1 1 1 21 16 16 42 42 21 42 42 21 63 36 36 36 36 36 36 36 36 36 36 36 36 36 36 36 36 63 1 6 6 6 6 6 6 6 6 6 6 6 6 1 1 1 1 1 1 1 1 1 1 1 1 1 1 1 1 1 1 1 1 1 1 1 1 21 21 21 42 42 16 21 21 20 63 36 36 36 36 36 36 36 36 36 36 36 36 36 36 36 36 63 1 6 6 6 6 6 6 6 6 6 6 6 6 1 1 1 1 1 1 1 1 1 1 1 1 1 1 1 1 1 1 1 1 1 1 1 1 21 37 21 21 21 63 63 63 63 36 36 36 36 36 36 36 36 36 36 36 36 36 36 36 36 36 63 1 6 6 6 6 6 6 6 6 6 6 6 6 1 1 1 1 1 1 1 1 1 1 1 1 1 1 1 1 1 1 1 1 1 1 1 1 16 21 0 0 63 63 36 36 36 36 36 36 36 36 36 36 36 36 36 36 36 36 36 36 36 36 63 1 6 6 6 6 6 6 6 6 6 6 6 6 1 1 1 1 1 1 1 1 1 1 1 1 1 1 1 1 1 1 1 1 1 1 1 0 63 63 63 63 63 36 36 36 36 36 36 36 36 36 36 36 36 36 36 36 36 36 36 36 36 36 63 1 6 6 6 6 6 6 6 6 6 6 6 6 1 1 1 1 1 1 1 1 1 1 1 1 1 1 1 1 1 1 1 1 1 1 1 0 63 36 36 36 36 36 36 36 36 36 36 36 36 36 36 36 36 36 36 36 36 36 36 36 36 36 63 1 6 6 6 6 6 6 6 6 6 6 6 6 1 1 1 1 1 1 1 1 1 1 1 1 1 1 1 1 1 1 1 1 1 1 1 0 63 36 36 36 36 36 36 36 36 36 36 36 36 36 36 36 36 36 36 36 36 36 36 36 36 36 63 1 6 6 6 6 6 6 0 0 0 0 6 6 1 1 1 1 1 1 1 1 1 1 1 1 1 1 1 1 1 1 1 1 1 1 1 0 63 36 36 36 36 36 36 36 36 36 36 36 36 36 36 36 36 36 36 36 36 36 36 36 36 36 63 1 6 6 6 6 6 6 0 16 16 0 6 6 1 1 1 1 1 1 1 1 1 1 1 1 1 1 1 1 1 1 1 1 1 1 1 0 63 36 36 36 36 36 36 36 36 36 36 36 36 36 36 36 36 36 36 36 36 36 36 36 36 36 63 1 6 6 6 6 5 1 0 16 16 0 6 6 1 1 1 1 1 1 1 1 1 1 1 1 1 1 1 1 1 1 1 1 1 1 1 0 63 36 36 36 36 36 36 36 36 36 36 36 36 36 36 36 36 36 36 36 36 36 36 36 36 36 63 1 6 6 6 6 6 5 0 16 16 0 5 6 1 1 1 1 1 1 1 1 1 1 1 1 1 1 1 1 1 1 1 1 1 1 1 0 63 36 36 36 36 36 36 36 36 36 36 36 36 36 36 36 36 36 36 36 36 36 36 36 36 36 63 1 6 6 6 6 6 5 0 21 20 0 5 6 1 1 1 1 1 1 1 1 1 1 1 1 1 1 1 1 1 1 1 1 1 1 1 1 63 36 36 36 36 36 36 36 36 36 36 36 36 36 36 36 36 36 36 36 36 36 36 36 63 63 63 0 5 6 6 6 6 1 0 16 0 0 6 6 1 1 1 1 1 1 1 1 1 1 1 1 1 1 1 1 1 1 1 1 1 1 1 1 63 36 36 36 36 36 36 36 36 36 36 36 36 36 36 36 36 36 36 36 36 36 36 36 63 41 5 5 1 5 6 6 6 1 16 21 20 0 6 6 1 1 1 1 1 1 1 1 1 1 1 1 1 1 1 1 1 1 1 1 1 1 1 1 63 36 36 36 36 36 36 36 36 36 36 36 36 36 36 36 36 36 36 36 36 36 36 63 63 46 6 5 5 1 1 5 6 1 0 16 16 0 5 6 1 1 1 1 1 1 1 1 1 1 1 1 1 1 1 1 1 1 1 1 1 1 1 0 63 36 36 36 36 36 36 36 36 36 36 36 36 36 36 36 36 36 36 36 36 36 36 63 21 46 6 6 5 1 1 1 1 1 0 16 0 0 0 5 1 1 1 1 1 1 1 1 1 1 1 1 1 1 1 1 1 1 1 1 1 1 1 1 63 36 36 36 36 36 36 36 36 36 36 36 36 36 36 36 36 36 36 36 36 36 36 63 21 46 10 6 5 5 1 1 1 1 1 0 0 1 1 1 1 1 0 0 0 0 0 0 0 0 0 1 1 1 1 1 1 1 1 1 1 1 1 0 63 36 36 36 36 36 36 36 36 36 36 36 36 36 36 36 36 36 36 36 36 63 63 63 21 46 10 6 5 1 1 1 1 1 5 1 1 1 1 1 1 1 1 1 1 1 1 1 1 1 1 1 5 5 5 5 5 5 5 5 5 5 5 5 63 63 63 36 36 36 36 36 36 36 36 36 36 36 36 36 36 36 36 36 63 63 11 11 22 42 6 6 5 1 6 11 11 11 11 7 6 5 5 5 6 6 6 6 6 6 6 6 6 5 5 6 11 11 11 11 11 11 11 11 11 11 11 11 6 5 63 63 36 36 36 36 36 36 36 36 36 36 36 36 36 36 36 63 63 11 7 6 6 42 6 5 1 6 11 11 11 7 7 7 7 6 5 5 5 6 6 6 6 6 6 5 5 5 6 11 7 7 11 11 11 11 11 11 11 11 11 10 6 6 5 63 36 36 36 36 36 36 36 36 36 36 36 36 63 63 63 63 5 11 7 7 6 5 1 5 6 11 11 11 11 11 7 7 7 6 5 5 5 5 6 6 6 6 6 5 5 5 6 7 7 11 11 11 11 11 11 11 11 11 11 11 7 6 5 63 63 63 63 63 36 36 36 36 36 36 36 63 63 0 0 0 5 11 7 7 11 10 10 11 11 11 11 11 11 11 7 7 7 6 5 5 5 5 6 6 6 6 5 5 5 6 7 7 7 11 11 11 11 11 11 11 11 11 11 11 11 6 5 0 0 0 16 63 63 36 36 36 36 36 63 63 16 0 0 0 5 11 7 11 11 11 11 11 11 11 11 11 11 11 7 7 7 7 6 5 5 5 6 6 6 6 5 5 5 6 7 7 7 11 11 11 11 11 11 11 11 11 11 11 11 6 5 0 0 0 16 16 63 63 36 36 36 36 63 0 0 0 0 0 5 11 7 11 11 11 11 11 11 11 11 11 11 11 7 7 7 7 6 5 5 5 6 6 6 6 5 5 5 6 7 7 7 11 11 11 11 11 11 11 11 11 11 11 11 6 5 0 0 0 0 0 0 63 36 36 36 36 63 0 0 16 0 0 5 11 7 11 11 11 11 11 11 11 11 11 11 11 7 7 7 6 5 5 5 5 6 6 6 6 6 5 5 6 7 7 7 11 11 11 11 11 11 11 11 11 11 11 11 6 5 0 16 0 0 0 0 63 36 36 36 36 63 0 0 16 16 16 0 10 7 6 11 11 11 11 11 10 11 11 11 11 6 6 11 6 5 5 5 5 6 5 5 6 6 5 5 5 6 11 6 6 11 11 11 11 11 11 11 11 11 10 6 6 1 20 20 16 0 0 0 63 36 36 36 36 63 0 0 16 16 16 0 5 11 11 11 11 11 11 11 11 11 11 11 11 7 11 6 6 5 5 6 6 6 6 6 6 6 6 5 5 6 11 7 7 11 11 11 11 11 11 11 11 11 11 6 5 0 20 21 16 0 0 0 63 36 36 36 36 63 0 0 16 16 16 0 0 0 5 5 5 5 5 5 5 5 5 5 5 6 5 1 1 1 1 5 5 5 5 5 5 5 5 5 1 1 5 6 6 6 6 6 6 6 6 6 6 6 5 1 0 0 21 20 16 0 0 0 63 36 36 36 36 63 0 0 16 16 16 0 0 0 16 16 21 21 0 0 0 16 0 0 0 0 0 0 0 0 0 63 63 63 63 63 63 63 63 0 0 0 0 0 0 0 0 0 0 0 0 0 20 20 21 16 0 20 21 20 16 0 0 0 63 36 36 36 36 63 0 0 16 0 16 0 0 0 21 21 21 37 20 0 16 21 20 20 21 0 0 16 0 0 0 63 36 36 36 36 36 36 63 0 0 0 0 0 0 16 16 20 20 0 16 21 21 21 21 21 0 16 21 0 0 0 0 0 63 36 36 36 36 63 0 0 0 0 0 16 0 16 21 0 0 21 21 20 21 21 0 0 21 0 0 0 0 0 63 63 36 36 36 36 36 36 63 63 0 0 16 0 0 0 0 0 21 20 20 21 20 0 16 21 16 16 20 0 0 16 0 0 63 36 36 36 36 63 63 16 0 0 0 16 16 21 20 0 20 20 37 21 21 21 0 0 21 21 16 0 0 0 63 36 36 36 36 36 36 36 36 63 0 0 16 16 16 0 0 0 21 21 37 37 16 16 16 21 21 21 16 0 0 16 16 63 63 36 36 36 36 36 63 63 0 0 0 16 16 21 20 0 20 21 37 21 21 21 0 0 21 21 16 16 0 63 63 36 36 36 36 36 36 36 36 63 63 0 16 16 16 0 0 0 21 21 21 37 20 16 20 21 21 21 16 0 0 16 63 63 36 36 36 36 36 36 36 63 63 0 0 16 16 21 21 0 0 20 37 21 21 21 0 0 21 21 0 63 63 63 36 36 36 36 36 36 36 36 36 36 63 63 63 0 0 0 0 0 20 21 21 21 16 0 0 21 21 21 16 0 0 63 63 36 36 36 36 36 36 36 36 36 63 63 63 63 63 63 63 63 63 63 63 63 63 63 63 63 63 63 63 63 36 36 36 36 36 36 36 36 36 36 36 36 36 36 63 63 63 63 63 63 63 63 63 63 63 63 63 63 63 63 63 63 63 63 36 36 36 36 36 36 36 36 36 36 36 36 36 36 36 36 36 36 36 36 36 36 36 36 36 36 36 36 36 36 36 36 36 36 36 36 36 36 36 36 36 36 36 36 36 36 36 36 36 36 36 36 36 36 36 36 36 36 36 36 36 36 36 36 36 36 36 36 36 36 36 36 36 36 36 36 36 36 36 36 36 36 36 36 36 36 36 36 36 36 36 36 36 36 36 36 36 36 36 36 36 36 36 36 36 36 36 36 36 36 36 36 36 36 36 36 36 36 36 36 36 36 36 36 36 36 36 36 36 36 36 36 36 