P264 646316 23 29 53 21 3 13 52 0 3 12 57 36 19 14 57 36 19 14 57 36 19 14 57 36 19 14 57 36 19 14 57 36 19 14 57 36 19 14 57 36 19 14 57 36 19 14 57 36 19 14 57 36 19 14 57 36 19 14 57 36 19 14 57 36 19 14 57 36 19 14 57 36 19 14 57 36 19 14 57 36 19 14 57 36 19 14 57 36 19 14 57 36 19 14 57 36 19 14 57 36 19 14 57 36 19 14 57 36 19 14 57 36 19 14 57 36 19 14 57 36 63 63 63 58 3 13 52 36 19 14 57 36 19 14 57 36 19 14 57 36 19 14 57 36 19 14 57 36 19 14 57 36 19 14 57 36 19 14 57 36 19 14 57 36 63 63 63 42 3 13 52 16 23 29 53 21 3 13 48 20 23 13 57 36 19 14 57 36 19 14 57 36 19 14 57 36 19 14 57 36 19 14 57 36 19 14 57 36 19 14 57 5 3 13 52 16 23 13 53 20 43 30 57 21 23 13 57 36 19 14 57 36 19 14 57 10 27 44 49 36 19 14 57 36 19 14 57 36 19 14 57 36 19 14 57 1 3 13 52 16 3 45 58 42 43 30 57 21 23 13 57 36 19 14 57 36 43 60 50 15 27 44 50 36 19 14 57 36 19 14 57 36 19 14 57 36 19 14 57 36 19 14 57 36 19 14 57 36 19 14 57 36 19 14 57 36 19 14 57 11 47 60 50 15 43 44 49 36 19 14 57 36 19 14 57 36 19 14 57 36 19 14 57 36 19 14 57 36 19 14 57 36 19 14 57 36 19 14 57 36 19 14 57 36 19 14 57 36 19 14 57 36 19 14 57 36 19 14 57 36 19 14 57 36 19 14 57 36 19 14 57 36 19 14 57 36 19 14 57 36 19 14 57 36 19 14 57 36 19 14 57 36 19 14 57 36 19 14 57 36 19 14 57 36 19 14 57 5 3 12 52 42 43 46 58 42 43 30 57 21 23 13 57 36 19 46 50 36 19 14 57 36 19 14 57 36 19 14 57 36 19 14 57 36 19 14 57 36 19 14 57 0 23 46 58 42 43 46 58 42 43 30 57 20 19 14 57 10 47 60 50 11 47 60 50 31 27 44 49 36 19 14 57 36 19 14 57 36 19 14 57 36 19 14 57 20 23 46 58 42 43 46 58 42 43 30 53 36 47 44 49 11 47 60 50 11 47 60 50 11 27 44 49 36 19 14 57 36 19 14 57 36 19 14 57 36 19 14 57 36 19 14 57 36 19 14 57 36 19 14 57 36 19 14 57 11 47 60 50 11 47 60 50 11 23 28 49 36 19 14 57 36 19 14 57 36 19 14 57 36 19 14 57 36 19 14 57 36 19 14 57 36 19 14 57 36 19 14 57 36 19 14 57 36 19 14 57 36 19 14 57 36 19 14 57 36 19 14 57 36 19 14 57 36 19 14 57 36 19 14 57 36 19 14 57 36 19 14 57 36 19 14 57 36 19 14 57 36 19 14 57 36 19 14 57 36 19 14 57 36 19 14 57 36 19 14 57 20 23 46 58 42 43 46 63 21 23 45 50 5 23 44 50 36 19 14 57 36 19 14 57 36 19 14 57 36 19 14 57 36 19 14 57 36 19 14 57 36 19 14 57 21 23 46 58 42 23 29 53 10 23 28 49 5 63 60 50 11 47 60 50 11 31 60 49 11 23 28 49 36 19 14 57 36 19 14 57 36 19 14 57 36 19 14 57 20 23 30 53 21 43 28 49 5 23 60 51 15 47 60 50 11 47 60 49 7 31 60 49 11 23 28 49 36 19 14 57 36 19 14 57 36 19 14 57 36 19 14 57 36 19 14 57 36 19 14 57 36 19 14 57 11 27 60 50 7 27 60 50 7 31 60 49 11 19 14 57 36 19 14 57 36 19 14 57 36 19 14 57 36 19 14 57 36 19 14 57 36 19 14 57 36 19 14 57 36 19 14 57 36 19 14 57 36 19 14 57 36 19 14 57 36 19 14 57 36 19 14 57 36 19 14 57 36 19 14 57 36 19 14 57 36 19 14 57 36 19 14 57 36 19 14 57 36 19 14 57 36 19 14 57 36 19 14 57 36 19 14 57 36 19 14 57 36 19 14 57 36 23 45 50 5 23 28 49 15 63 60 50 36 19 14 57 36 19 14 57 36 19 14 57 36 19 14 57 36 19 14 57 36 19 14 57 36 19 14 57 36 19 14 57 11 23 28 49 5 63 60 51 11 47 44 49 6 27 44 53 6 27 44 49 11 31 60 49 6 19 14 57 36 19 14 57 36 19 14 57 36 19 14 57 36 43 44 49 5 23 60 51 15 47 60 50 10 27 44 58 47 63 62 59 26 43 45 49 7 47 60 50 5 19 14 57 36 19 14 57 36 19 14 57 36 19 14 57 36 19 14 57 36 19 14 57 36 19 14 57 47 47 61 58 27 31 60 54 26 43 45 49 7 47 44 50 36 19 14 57 36 19 14 57 36 19 14 57 36 19 14 57 36 19 14 57 36 19 14 57 36 19 14 57 36 19 14 57 36 19 14 57 36 19 14 57 36 19 14 57 36 19 14 57 36 19 14 57 36 19 14 57 36 19 14 57 36 19 14 57 36 19 14 57 36 19 14 57 36 19 14 57 36 19 14 57 36 19 14 57 36 19 14 57 36 19 14 57 36 19 14 57 36 19 46 50 11 27 44 50 15 63 60 50 11 43 44 50 36 19 14 57 36 19 14 57 36 19 14 57 36 19 14 57 36 19 14 57 36 19 14 57 36 19 14 57 10 47 60 50 11 47 60 50 11 47 44 49 6 63 46 49 6 31 60 49 6 27 60 59 22 27 61 50 11 19 14 57 36 19 14 57 36 19 14 57 36 43 60 50 11 47 60 50 11 47 60 50 11 27 60 59 27 47 60 49 7 31 60 49 7 43 60 59 6 31 60 50 10 19 14 57 36 19 14 57 36 19 14 57 36 19 14 57 36 19 14 57 36 19 14 57 36 19 14 57 7 31 60 49 7 31 60 49 10 47 46 49 7 31 44 50 36 19 14 57 36 19 14 57 36 19 14 57 36 19 14 57 36 19 14 57 36 19 14 57 36 19 14 57 36 19 14 57 36 19 14 57 36 19 14 57 36 19 14 57 36 19 14 57 36 19 14 57 36 19 14 57 36 19 14 57 36 19 14 57 36 19 14 57 36 19 14 57 36 19 14 57 36 19 14 57 36 19 14 57 36 19 14 57 36 19 14 57 36 19 14 57 15 47 60 50 11 47 60 50 11 47 60 50 6 47 62 54 36 19 14 57 36 19 14 57 36 19 14 57 36 19 14 57 36 19 14 57 36 19 14 57 36 19 30 49 11 47 60 50 11 47 60 49 7 27 44 49 47 27 60 49 7 31 60 49 7 31 60 50 42 27 60 49 11 23 12 57 36 19 14 57 36 19 14 57 36 19 30 49 15 47 60 50 11 31 60 49 6 27 60 58 11 31 60 49 7 31 60 49 7 27 45 53 6 47 44 49 5 19 14 57 36 19 14 57 36 19 14 57 36 19 14 57 36 19 14 57 36 19 14 57 36 19 14 57 6 31 60 49 7 31 44 49 11 27 44 49 10 43 12 57 36 19 14 57 36 19 14 57 36 19 14 57 36 19 14 57 36 19 14 57 36 19 14 57 36 19 14 57 36 19 14 57 36 19 14 57 36 19 14 57 36 19 14 57 36 19 14 57 36 19 14 57 36 19 14 57 36 19 14 57 36 19 14 57 36 19 14 57 36 19 14 57 36 19 14 57 36 19 14 57 36 19 14 57 36 19 14 57 36 19 14 57 36 19 14 57 36 19 30 49 11 47 60 50 7 31 60 49 6 63 62 59 36 19 14 57 36 19 14 57 36 19 14 57 36 19 14 57 36 19 14 57 36 19 14 57 36 19 14 57 36 19 30 49 11 31 60 49 7 31 44 49 22 63 62 59 27 27 60 49 27 43 60 50 6 47 60 50 36 19 14 57 36 19 14 57 36 19 14 57 36 19 14 57 36 19 30 49 11 31 60 49 7 27 44 49 22 63 62 59 47 63 46 49 6 27 44 50 10 23 12 57 36 19 14 57 36 19 14 57 36 19 14 57 36 19 14 57 36 19 14 57 36 19 14 57 36 19 14 57 6 43 45 49 6 27 45 49 11 43 28 49 36 19 14 57 36 19 14 57 36 19 14 57 36 19 14 57 36 19 14 57 36 19 14 57 36 19 14 57 36 19 14 57 36 19 14 57 36 19 14 57 36 19 14 57 36 19 14 57 36 19 14 57 36 19 14 57 36 19 14 57 36 19 14 57 36 19 14 57 36 19 14 57 36 19 14 57 36 19 14 57 36 19 14 57 36 19 14 57 36 19 14 57 36 19 14 57 36 19 14 57 36 19 14 57 36 19 30 49 11 31 60 49 7 27 60 49 36 19 14 57 36 19 14 57 36 19 14 57 36 19 14 57 36 19 14 57 36 19 14 57 36 19 14 57 36 19 14 57 36 19 30 49 11 31 60 50 7 31 60 50 7 31 60 49 11 47 60 50 5 19 14 57 36 19 14 57 36 19 14 57 36 19 14 57 36 19 14 57 36 19 14 57 36 19 30 48 10 47 60 50 7 31 60 50 7 47 44 49 10 23 12 57 36 19 14 57 36 19 14 57 36 19 14 57 36 19 14 57 36 19 14 57 36 19 14 57 36 19 14 57 36 19 14 57 10 47 44 49 5 27 12 57 36 19 14 57 36 19 14 57 36 19 14 57 36 19 14 57 36 19 14 57 36 19 14 57 36 19 14 57 36 19 14 57 36 19 14 57 36 19 14 57 36 19 14 57 36 19 14 57 36 19 14 57 36 19 14 57 36 19 14 57 36 19 14 57 36 19 14 57 36 19 14 57 36 19 14 57 36 19 14 57 36 19 14 57 36 19 14 57 36 19 14 57 36 19 14 57 36 19 14 57 36 19 14 57 36 19 14 57 36 19 14 57 36 19 14 57 6 47 44 49 36 19 14 57 36 19 14 57 36 19 14 57 36 19 14 57 36 19 14 57 36 19 14 57 36 19 14 57 36 19 14 57 36 19 14 57 36 19 14 57 36 19 14 57 36 19 14 57 36 19 14 57 36 19 14 57 36 19 14 57 36 19 14 57 36 19 14 57 36 19 14 57 36 19 14 57 36 19 14 57 36 19 14 57 36 19 14 57 36 19 14 57 36 19 14 57 36 19 14 57 36 19 14 57 36 19 14 57 36 19 14 57 36 19 14 57 36 19 14 57 36 19 14 57 36 19 14 57 36 19 14 57 36 19 14 57 36 19 14 57 36 19 14 57 36 19 14 57 36 19 14 57 36 19 14 57 36 19 14 57 36 19 14 57 36 19 14 57 36 19 14 57 36 19 14 57 36 19 14 57 36 19 14 57 36 19 14 57 36 19 14 57 36 19 14 57 36 19 14 57 36 19 14 57 36 19 14 57 36 19 14 57 36 19 14 57 36 19 14 57 36 19 14 57 36 19 14 57 36 19 14 57 36 19 14 57 36 19 14 57 36 19 14 57 36 19 14 57 36 19 14 57 36 19 14 57 36 19 14 57 36 19 14 57 36 19 14 57 36 19 14 57 36 19 14 57 36 19 14 57 36 19 14 57 36 19 14 57 36 19 14 57 36 19 14 57 36 19 14 57 36 19 14 57 36 19 14 57 36 19 14 57 36 19 14 57 36 19 14 57 36 19 14 57 36 19 14 57 36 19 14 57 36 19 14 57 36 19 14 57 36 19 14 57 36 19 14 57 36 19 14 57 36 19 14 57 36 19 14 57 36 19 14 57 36 19 14 57 36 19 14 57 36 19 14 57 36 19 14 57 36 19 14 57 36 19 14 57 36 19 14 57 36 19 14 57 36 19 14 57 36 19 14 57 36 19 14 57 36 19 14 57 36 19 14 57 36 19 14 57 36 19 14 57 36 19 14 57 36 19 14 57 36 19 14 57 36 19 14 57 36 19 14 57 36 19 14 57 36 19 14 57 36 19 14 57 36 19 14 57 36 19 14 57 36 19 14 57 36 19 14 57 36 19 14 57 36 19 14 57 36 19 14 57 36 19 14 57 36 19 14 57 36 19 14 57 36 19 14 57 36 19 14 57 36 19 14 57 36 19 14 57 36 19 14 57 36 19 14 57 36 19 14 57 36 19 14 57 36 19 14 57 36 19 14 57 36 19 14 57 36 19 14 57 36 19 14 57 36 19 14 57 36 19 14 57 36 19 14 57 36 19 14 57 36 19 14 57 36 19 14 57 36 19 14 57 36 19 14 57 36 19 14 57 36 19 14 57 36 19 14 57 36 19 14 57 36 19 14 57 36 19 14 57 36 19 14 57 36 19 14 57 36 19 14 57 36 19 14 57 36 19 14 57 36 19 14 57 36 19 14 57 36 19 14 57 36 19 14 57 36 19 14 57 36 19 14 57 36 19 14 57 36 19 14 57 36 19 14 57 36 19 14 57 36 19 14 57 36 19 14 57 36 19 14 57 36 19 14 57 36 19 14 57 36 19 14 57 36 19 14 57 36 19 14 57 36 19 14 57 36 19 14 57 36 19 14 57 36 19 14 57 36 19 14 57 36 19 14 57 36 19 14 57 36 19 14 57 36 19 14 57 36 19 14 57 36 19 14 57 36 19 14 57 36 19 14 57 36 19 14 57 36 19 14 57 36 19 14 57 36 19 14 57 36 19 14 57 36 19 14 57 36 19 14 57 36 19 14 57 36 19 14 57 36 19 14 57 36 19 14 57 36 19 14 57 36 19 14 57 36 19 14 57 36 19 14 57 36 19 14 57 36 19 14 57 36 19 14 57 36 19 14 57 36 19 14 57 36 19 14 57 36 19 14 57 36 19 14 57 36 19 14 57 36 19 14 57 36 19 14 57 36 19 14 57 36 19 14 57 36 19 14 57 36 19 14 57 36 19 14 57 36 19 14 57 36 19 14 57 36 19 14 57 36 19 14 57 36 19 14 57 36 19 14 57 36 19 14 57 36 19 14 57 36 19 14 57 36 19 14 57 36 19 14 57 36 19 14 57 36 19 14 57 36 19 14 57 36 19 14 57 36 19 14 57 36 19 14 57 36 19 14 57 36 19 14 57 36 19 14 57 36 19 14 57 36 19 14 57 36 19 14 57 36 19 14 57 36 19 14 57 36 19 14 57 36 19 14 57 36 19 14 57 36 19 14 57 36 19 14 57 36 19 14 57 36 19 14 57 36 19 14 57 36 19 14 57 36 19 14 57 36 19 14 57 36 19 14 57 36 19 14 57 36 19 14 57 36 19 14 57 36 19 14 57 36 19 14 57 36 19 14 57 36 19 14 57 36 19 14 57 36 19 14 57 36 19 14 57 36 19 14 57 36 19 14 57 36 19 14 57 36 19 14 57 36 19 14 57 36 19 14 57 36 19 14 57 36 19 14 57 36 19 14 57 36 19 14 57 36 19 14 57 36 19 14 57 36 19 14 57 36 19 14 57 36 19 14 57 36 19 14 57 36 19 14 57 36 19 14 57 36 19 14 57 36 19 14 57 36 19 14 57 36 19 14 57 36 19 14 57 36 19 14 57 36 19 14 57 36 19 14 57 36 19 14 57 36 19 14 57 36 19 14 57 36 19 14 57 36 19 14 57 36 19 14 57 36 19 14 57 36 19 14 57 36 19 14 57 36 19 14 57 36 19 14 57 36 19 14 57 36 19 14 57 36 19 14 57 36 19 14 57 36 19 14 57 36 19 14 57 36 19 14 57 36 19 14 57 36 19 14 57 36 19 14 57 36 19 14 57 36 19 14 57 36 19 14 57 36 19 14 57 36 19 14 57 36 19 14 57 36 19 14 57 36 19 14 57 36 19 14 57 36 19 14 57 36 19 14 57 36 19 14 57 36 19 14 57 36 19 14 57 36 19 14 57 36 19 14 57 36 19 14 57 36 19 14 57 36 19 14 57 36 19 14 57 36 19 14 57 36 19 14 57 36 19 14 57 36 19 14 57 36 19 14 57 36 19 14 57 36 19 14 57 36 19 14 57 36 19 14 57 36 19 14 57 36 19 14 57 36 19 14 57 36 19 14 57 36 19 14 57 36 19 14 57 36 19 14 57 36 19 14 57 36 19 14 57 36 19 14 57 36 19 14 57 36 19 14 57 36 19 14 57 36 19 14 57 36 19 14 57 36 19 14 57 36 19 14 57 36 19 14 57 36 19 14 57 36 19 14 57 36 19 14 57 36 19 14 57 36 19 14 57 36 19 14 57 36 19 14 57 36 19 14 57 36 19 14 57 36 19 14 57 36 19 14 57 36 19 14 57 36 19 14 57 36 19 14 57 36 19 14 57 36 19 14 57 36 19 14 57 36 19 14 57 36 19 14 57 36 19 14 57 36 19 14 57 36 19 14 57 36 19 14 57 36 19 14 57 36 19 14 57 36 19 14 57 36 19 14 57 36 19 14 57 36 19 14 57 36 19 14 57 36 19 14 57 36 19 14 57 36 19 14 57 36 19 14 57 36 19 14 57 36 19 14 57 36 19 14 57 36 19 14 57 36 19 14 57 36 19 14 57 36 19 14 57 36 19 14 57 36 19 14 57 36 19 14 57 36 19 14 57 36 19 14 57 36 19 14 57 36 19 14 57 36 19 14 57 36 19 14 57 36 19 14 57 36 19 14 57 36 19 14 57 36 19 14 57 36 19 14 57 36 19 14 57 36 19 14 57 36 19 14 57 36 19 14 57 36 19 14 57 36 19 14 57 36 19 14 57 36 19 14 57 36 19 14 57 36 19 14 57 36 19 14 57 36 19 14 57 36 19 14 57 36 19 14 57 36 19 14 57 36 19 14 57 36 19 14 57 36 19 14 57 36 19 14 57 36 19 14 57 36 19 14 57 36 19 14 57 36 19 14 57 36 19 14 57 36 19 14 57 36 19 14 57 36 19 14 57 36 19 14 57 36 19 14 57 36 19 14 57 36 19 14 57 36 19 14 57 36 19 14 57 36 19 14 57 36 19 14 57 36 19 14 57 36 19 14 57 36 19 14 57 36 19 14 57 36 19 14 57 36 19 14 57 36 19 14 57 36 19 14 57 36 19 14 57 36 19 14 57 36 19 14 57 36 19 14 57 36 19 14 57 36 19 14 57 36 19 14 57 